ply
format ascii 1.0
element vertex 2304
property float x
property float y
property float z
property uchar red
property uchar green
property uchar blue
end_header
1.745140 5.281798 2.959439 114 120 118
1.914841 10.063169 4.411917 114 120 118
2.254242 19.625910 7.316874 114 120 118
2.933044 38.751392 13.126787 114 120 118
1.882679 5.267760 2.982813 137 151 155
2.189919 10.035093 4.458666 137 151 155
2.804400 19.569759 7.410372 137 151 155
4.033360 38.639091 13.313784 137 151 155
2.024476 5.249326 3.005736 249 253 254
2.473513 9.998224 4.504511 249 253 254
3.371586 19.496021 7.502062 249 253 254
5.167732 38.491615 13.497164 249 253 254
2.170356 5.226135 3.028065 179 191 203
2.765272 9.951843 4.549169 179 191 203
3.955105 19.403259 7.591378 179 191 203
6.334771 38.306091 13.675795 179 191 203
2.320089 5.197832 3.049648 114 120 116
3.064738 9.895237 4.592336 114 120 116
4.554036 19.290047 7.677712 114 120 116
7.532633 38.079666 13.848463 114 120 116
2.473383 5.164072 3.070326 127 130 135
3.371326 9.827717 4.633692 127 130 135
5.167212 19.155006 7.760423 127 130 135
8.758986 37.809586 14.013885 127 130 135
2.629883 5.124533 3.089931 87 93 89
3.684327 9.748638 4.672902 87 93 89
5.793214 18.996849 7.838844 87 93 89
10.010989 37.493271 14.170727 87 93 89
2.789170 5.078919 3.108293 125 128 133
4.002900 9.657412 4.709625 125 128 133
6.430361 18.814396 7.912289 125 128 133
11.285282 37.128365 14.317617 125 128 133
2.950758 5.026979 3.125237 191 195 194
4.326077 9.553532 4.743515 191 195 194
7.076715 18.606636 7.980069 191 195 194
12.577990 36.712845 14.453176 191 195 194
3.114102 4.968508 3.140597 157 163 161
4.652765 9.436589 4.774233 157 163 161
7.730091 18.372751 8.041506 157 163 161
13.884743 36.245075 14.576050 157 163 161
3.278599 4.903361 3.154206 255 255 255
4.981759 9.306295 4.801451 255 255 255
8.388079 18.112164 8.095942 255 255 255
15.200719 35.723900 14.684923 255 255 255
3.443597 4.831462 3.165912 250 255 251
5.311754 9.162498 4.824863 250 255 251
9.048069 17.824568 8.142767 250 255 251
16.520699 35.148708 14.778574 250 255 251
3.608403 4.752812 3.175577 229 239 248
5.641366 9.005198 4.844194 229 239 248
9.707293 17.509968 8.181427 229 239 248
17.839146 34.519508 14.855894 229 239 248
3.772298 4.667492 3.183081 217 228 234
5.969157 8.834558 4.859202 217 228 234
10.362875 17.168688 8.211444 217 228 234
19.150311 33.836948 14.915928 217 228 234
3.934551 4.575669 3.188327 218 229 235
6.293662 8.650911 4.869694 218 229 235
11.011884 16.801395 8.232428 218 229 235
20.448328 33.102364 14.957895 218 229 235
4.094428 4.477597 3.191244 213 220 228
6.613417 8.454767 4.875526 213 220 228
11.651395 16.409107 8.244093 213 220 228
21.727350 32.317787 14.981226 213 220 228
4.251218 4.373613 3.191788 215 225 234
6.926997 8.246799 4.876615 215 225 234
12.278555 15.993170 8.246269 215 225 234
22.981670 31.485912 14.985579 215 225 234
4.404238 4.264130 3.189946 212 222 231
7.233037 8.027832 4.872931 212 222 231
12.890635 15.555237 8.238901 212 222 231
24.205830 30.610046 14.970842 212 222 231
4.552856 4.149633 3.185735 215 225 234
7.530272 7.798840 4.864510 215 225 234
13.485106 15.097252 8.222059 215 225 234
25.394772 29.694077 14.937157 215 225 234
4.696498 4.030668 3.179202 219 232 241
7.817557 7.560909 4.851444 219 232 241
14.059674 14.621391 8.195928 219 232 241
26.543909 28.742355 14.884895 219 232 241
4.834663 3.907824 3.170422 228 241 250
8.093887 7.315221 4.833884 228 241 250
14.612335 14.130015 8.160807 228 241 250
27.649231 27.759604 14.814653 228 241 250
4.966930 3.781725 3.159495 230 243 251
8.358421 7.063024 4.812030 230 243 251
15.141403 13.625620 8.117100 230 243 251
28.707367 26.750813 14.727240 230 243 251
5.092961 3.653014 3.146545 240 251 253
8.610482 6.805602 4.786129 240 251 253
15.645525 13.110776 8.065298 240 251 253
29.715611 25.721125 14.623636 240 251 253
5.212504 3.522338 3.131712 218 242 252
8.849568 6.544250 4.756465 218 242 252
16.123697 12.588072 8.005969 218 242 252
30.671955 24.675716 14.504978 218 242 252
5.325393 3.390334 3.115154 206 233 252
9.075346 6.280241 4.723348 206 233 252
16.575253 12.060056 7.939734 206 233 252
31.575068 23.619684 14.372509 206 233 252
5.431545 3.257619 3.097035 198 225 254
9.287651 6.014811 4.687110 198 225 254
16.999863 11.529194 7.867260 198 225 254
32.424286 22.557961 14.227560 198 225 254
5.530953 3.124778 3.077529 190 221 252
9.486467 5.749129 4.648099 190 221 252
17.397495 10.997830 7.789237 190 221 252
33.219551 21.495234 14.071514 190 221 252
5.623679 2.992358 3.056810 186 216 252
9.671919 5.484289 4.606660 186 216 252
17.768398 10.468151 7.706359 186 216 252
33.961357 20.435875 13.905758 186 216 252
5.709845 2.860859 3.035050 181 211 247
9.844250 5.221290 4.563141 181 211 247
18.113060 9.942153 7.619321 181 211 247
34.650681 19.383879 13.731682 181 211 247
5.789623 2.730730 3.012419 177 208 239
10.003806 4.961033 4.517877 177 208 239
18.432173 9.421638 7.528793 177 208 239
35.288906 18.342850 13.550627 177 208 239
5.863232 2.602371 2.989077 174 205 236
10.151025 4.704314 4.471192 174 205 236
18.726610 8.908200 7.435425 174 205 236
35.877781 17.315973 13.363890 174 205 236
5.930922 2.476125 2.965176 170 201 230
10.286404 4.451824 4.423392 170 201 230
18.997368 8.403220 7.339824 170 201 230
36.419296 16.306013 13.172688 170 201 230
1.747624 5.324789 2.809222 122 130 141
1.919808 10.149151 4.111483 122 130 141
2.264176 19.797874 6.716006 122 130 141
2.952913 39.095322 11.925051 122 130 141
1.886428 5.312037 2.830479 114 124 123
2.197417 10.123646 4.153997 114 124 123
2.819395 19.746864 6.801035 114 124 123
4.063351 38.993301 12.095110 114 124 123
2.029606 5.294838 2.851340 88 94 91
2.483773 10.089249 4.195719 88 94 91
3.392107 19.678070 6.884478 88 94 91
5.208775 38.855713 12.261995 88 94 91
2.176985 5.272816 2.871675 66 73 66
2.778530 10.045205 4.236388 66 73 66
3.981620 19.589983 6.965816 66 73 66
6.387800 38.679539 12.424673 66 73 66
2.328331 5.245597 2.891343 58 68 60
3.081223 9.990767 4.275725 58 68 60
4.587006 19.481108 7.044490 58 68 60
7.598572 38.461788 12.582020 58 68 60
2.483350 5.212818 2.910197 57 63 59
3.391261 9.925208 4.313433 57 63 59
5.207082 19.349989 7.119906 57 63 59
8.838724 38.199551 12.732851 57 63 59
2.641680 5.174135 2.928082 88 98 91
3.707920 9.847843 4.349203 88 98 91
5.840401 19.195259 7.191446 88 98 91
10.105363 37.890091 12.875933 88 98 91
2.802890 5.129236 2.944839 122 128 128
4.030341 9.758044 4.382718 122 128 128
6.485243 19.015661 7.258475 122 128 128
11.395046 37.530895 13.009989 122 128 128
2.966484 5.077847 2.960308 159 164 169
4.357529 9.655267 4.413656 159 164 169
7.139618 18.810106 7.320352 159 164 169
12.703796 37.119785 13.133743 159 164 169
3.131898 5.019748 2.974331 94 99 101
4.688357 9.539068 4.441703 94 99 101
7.801274 18.577709 7.376445 94 99 101
14.027109 36.654991 13.245930 94 99 101
3.298511 4.954777 2.986756 255 255 255
5.021582 9.409127 4.466552 255 255 255
8.467724 18.317827 7.426143 255 255 255
15.360009 36.135227 13.345325 255 255 255
3.465646 4.882846 2.997438 238 245 253
5.355853 9.265265 4.487916 238 245 253
9.136267 18.030102 7.468873 238 245 253
16.697094 35.559776 13.430784 238 245 253
3.632589 4.803946 3.006249 218 229 235
5.689738 9.107464 4.505539 218 229 235
9.804037 17.714500 7.504117 218 229 235
18.032635 34.928574 13.501274 218 229 235
3.798592 4.718152 3.013077 208 215 223
6.021745 8.935877 4.519194 208 215 223
10.468051 17.371326 7.531428 208 215 223
19.360662 34.242226 13.555895 208 215 223
3.962897 4.625632 3.017830 199 209 218
6.350355 8.750837 4.528700 199 209 218
11.125271 17.001247 7.550439 199 209 218
20.675102 33.502068 13.593918 199 209 218
4.124744 4.526644 3.020442 202 213 219
6.674049 8.552860 4.533924 202 213 219
11.772659 16.605293 7.560888 202 213 219
21.969879 32.710159 13.614815 202 213 219
4.283394 4.421531 3.020873 203 214 220
6.991348 8.342634 4.534784 203 214 220
12.407257 16.184841 7.562609 203 214 220
23.239075 31.869253 13.618258 203 214 220
4.438140 4.310722 3.019109 206 216 225
7.300840 8.121017 4.531259 206 216 225
13.026241 15.741608 7.555557 206 216 225
24.477043 30.982788 13.604153 206 216 225
4.588328 4.194722 3.015169 215 225 235
7.601216 7.889016 4.523377 215 225 235
13.626993 15.277605 7.539795 215 225 235
25.678547 30.054783 13.572630 215 225 235
4.733366 4.074093 3.009095 240 251 254
7.891293 7.647759 4.511230 240 251 254
14.207147 14.795091 7.515501 240 251 254
26.838854 29.089754 13.524040 240 251 254
4.872741 3.949452 3.000959 255 255 255
8.170042 7.398477 4.494958 255 255 255
14.764646 14.296526 7.482956 255 255 255
27.953852 28.092625 13.458952 255 255 255
5.006020 3.821447 2.990856 104 113 109
8.436600 7.142467 4.474751 104 113 109
15.297760 13.784508 7.442543 104 113 109
29.020081 27.068588 13.378124 104 113 109
5.132860 3.690748 2.978900 97 105 107
8.690281 6.881069 4.450840 97 105 107
15.805122 13.261711 7.394719 97 105 107
30.034805 26.022995 13.282476 97 105 107
5.253011 3.558029 2.965225 76 82 82
8.930583 6.615631 4.423490 76 82 82
16.285727 12.730834 7.340019 76 82 82
30.996014 24.961241 13.173077 76 82 82
5.366310 3.423952 2.949977 171 178 186
9.157181 6.347477 4.392993 171 178 186
16.738922 12.194527 7.279027 171 178 186
31.902407 23.888626 13.051092 171 178 186
5.472682 3.289159 2.933311 168 175 183
9.369925 6.077891 4.359662 168 175 183
17.164410 11.655354 7.212364 168 175 183
32.753380 22.810282 12.917768 168 175 183
5.572128 3.154257 2.915389 161 172 178
9.568816 5.808087 4.323817 161 172 178
17.562193 11.115746 7.140673 161 172 178
33.548946 21.731066 12.774385 161 172 178
5.664724 3.019811 2.896371 135 146 152
9.754008 5.539195 4.285782 135 146 152
17.932577 10.577962 7.064603 135 146 152
34.289715 20.655497 12.622246 135 146 152
5.750606 2.886338 2.876420 73 86 86
9.925773 5.272248 4.245879 73 86 86
18.276106 10.044068 6.984797 73 86 86
34.976772 19.587709 12.462633 73 86 86
5.829964 2.754301 2.855690 73 85 85
10.084489 5.008175 4.204419 73 85 85
18.593538 9.515923 6.901877 73 85 85
35.611637 18.531418 12.296793 73 85 85
5.903032 2.624111 2.834330 71 79 81
10.230625 4.747794 4.161700 71 79 81
18.885811 8.995161 6.816440 71 79 81
36.196182 17.489895 12.125919 71 79 81
5.970076 2.496119 2.812482 83 94 96
10.364712 4.491811 4.118004 83 94 96
19.153984 8.483195 6.729048 83 94 96
36.732529 16.465963 11.951136 83 94 96
1.749975 5.363642 2.655300 123 133 143
1.924511 10.226856 3.803639 123 133 143
2.273582 19.953285 6.100317 123 133 143
2.971724 39.406143 10.693674 123 133 143
1.889918 5.352078 2.674259 251 254 251
2.204397 10.203729 3.841558 251 254 251
2.833354 19.907030 6.176155 251 254 251
4.091269 39.313633 10.845350 251 254 251
2.034341 5.336026 2.692876 66 76 68
2.493243 10.171625 3.878791 66 76 68
3.411046 19.842823 6.250622 66 76 68
5.246652 39.185219 10.994284 66 76 68
2.183071 5.315092 2.711032 66 74 61
2.790702 10.129757 3.915104 66 74 61
4.005965 19.759087 6.323248 66 74 61
6.436491 39.017746 11.139536 66 74 61
2.335875 5.288885 2.728603 61 68 61
3.096310 10.077342 3.950245 61 68 61
4.617181 19.654257 6.393530 61 68 61
7.658922 38.808086 11.280100 61 68 61
2.492454 5.257025 2.745453 94 101 94
3.409468 10.013623 3.983946 94 101 94
5.243496 19.526819 6.460931 94 101 94
8.911552 38.553211 11.414902 94 101 94
2.652439 5.219150 2.761443 66 76 65
3.729439 9.937873 4.015925 66 76 65
5.883438 19.375319 6.524890 66 76 65
10.191437 38.250210 11.542820 66 76 65
2.815392 5.174929 2.776428 71 79 68
4.055345 9.849431 4.045896 71 79 68
6.535251 19.198435 6.584830 71 79 68
11.495062 37.896442 11.662701 71 79 68
2.980804 5.124071 2.790263 167 173 173
4.386168 9.747715 4.073565 167 173 173
7.196897 18.995003 6.640169 167 173 173
12.818355 37.489578 11.773378 167 173 173
3.148096 5.066338 2.802803 253 253 253
4.720753 9.632249 4.098644 253 253 253
7.866066 18.764071 6.690329 253 253 253
14.156692 37.027714 11.873697 253 253 253
3.316628 5.001555 2.813909 255 255 255
5.057817 9.502683 4.120856 255 255 255
8.540195 18.504938 6.734753 255 255 255
15.504950 36.509449 11.962545 255 255 255
3.485705 4.929619 2.823449 255 255 255
5.395970 9.358811 4.139938 255 255 255
9.216501 18.217196 6.772916 255 255 255
16.857563 35.933964 12.038872 255 255 255
3.654587 4.850513 2.831307 252 254 253
5.733735 9.200600 4.155653 252 254 253
9.892031 17.900772 6.804347 252 254 253
18.208622 35.301117 12.101732 252 254 253
3.822504 4.764309 2.837379 226 240 240
6.069569 9.028191 4.167796 226 240 240
10.563699 17.555954 6.828632 226 240 240
19.551958 34.611481 12.150305 226 240 240
3.988671 4.671171 2.841580 235 244 251
6.401902 8.841914 4.176201 235 244 251
11.228365 17.183401 6.845441 235 244 251
20.881290 33.866375 12.183922 235 244 251
4.152303 4.571360 2.843853 239 246 254
6.729167 8.642292 4.180745 239 246 254
11.882894 16.784157 6.854529 239 246 254
22.190348 33.067886 12.202097 239 246 254
4.312636 4.465230 2.844158 210 217 225
7.049832 8.430033 4.181355 210 217 225
12.524225 16.359638 6.855750 210 217 225
23.473011 32.218849 12.204540 210 217 225
4.468941 4.353221 2.842485 217 227 236
7.362443 8.206016 4.178010 217 227 236
13.149446 15.911604 6.849059 217 227 236
24.723454 31.322781 12.191156 217 227 236
4.620544 4.235853 2.838850 203 216 225
7.665649 7.971279 4.170739 203 216 225
13.755858 15.442131 6.834517 203 216 225
25.936277 30.383835 12.162073 203 216 225
4.766838 4.113711 2.833293 123 131 134
7.958236 7.726995 4.159626 123 131 134
14.341032 14.953563 6.812291 123 131 134
27.106625 29.406698 12.117622 123 131 134
4.907294 3.987432 2.825880 81 82 84
8.239148 7.474436 4.144800 81 82 84
14.902857 14.448444 6.782640 81 82 84
28.230274 28.396461 12.058319 81 82 84
5.041472 3.857688 2.816699 107 113 113
8.507505 7.214950 4.126438 107 113 113
15.439570 13.929472 6.745915 107 113 113
29.303701 27.358517 11.984871 107 113 113
5.169027 3.725175 2.805855 118 124 124
8.762614 6.949924 4.104751 118 124 124
15.949789 13.399420 6.702540 118 124 124
30.324139 26.298412 11.898121 118 124 124
5.289706 3.590591 2.793472 111 120 119
9.003973 6.680755 4.079983 111 120 119
16.432507 12.861082 6.653005 111 120 119
31.289574 25.221737 11.799049 111 120 119
5.403352 3.454623 2.779682 165 176 182
9.231264 6.408818 4.052403 165 176 182
16.887089 12.317209 6.597846 165 176 182
32.198738 24.133991 11.688730 165 176 182
5.509894 3.317934 2.764628 76 73 71
9.444349 6.135440 4.022296 76 73 71
17.313259 11.770452 6.537631 76 73 71
33.051079 23.040478 11.568302 76 73 71
5.609347 3.181150 2.748457 80 69 72
9.643254 5.861874 3.989954 80 69 72
17.711069 11.223320 6.472947 80 69 72
33.846699 21.946213 11.438934 80 69 72
5.701797 3.044858 2.731317 70 67 60
9.828155 5.589288 3.955674 70 67 60
18.080870 10.678149 6.404387 70 67 60
34.586300 20.855871 11.301815 70 67 60
5.787395 2.909586 2.713354 84 83 78
9.999351 5.318745 3.919747 84 83 78
18.423262 10.137063 6.332533 84 83 78
35.271084 19.773699 11.158106 84 83 78
5.866345 2.775813 2.694709 91 87 84
10.157250 5.051199 3.882457 91 87 84
18.739061 9.601971 6.257953 91 87 84
35.902683 18.703514 11.008945 91 87 84
5.938896 2.643957 2.675517 80 91 92
10.302353 4.787487 3.844073 80 91 92
19.029266 9.074547 6.181185 80 91 92
36.483093 17.648666 10.855410 80 91 92
6.005330 2.514379 2.655904 84 95 97
10.435220 4.528331 3.804848 84 95 97
19.295000 8.556234 6.102736 84 95 97
37.014561 16.612041 10.698511 84 95 97
1.752180 5.398033 2.498031 54 63 58
1.928920 10.295639 3.489101 54 63 58
2.282400 20.090851 5.471243 54 63 58
2.989360 39.681274 9.435525 54 63 58
1.893124 5.387542 2.514525 89 96 89
2.210809 10.274656 3.522089 89 96 89
2.846179 20.048885 5.537219 89 96 89
4.116919 39.597343 9.567476 89 96 89
2.038643 5.372526 2.530727 61 73 63
2.501847 10.244624 3.554494 61 73 63
3.428255 19.988821 5.602028 61 73 63
5.281070 39.477215 9.697096 61 73 63
2.188565 5.352577 2.546535 73 80 73
2.801690 10.204727 3.586110 73 80 73
4.027940 19.909027 5.665259 73 80 73
6.480440 39.317627 9.823559 73 80 73
2.342654 5.327291 2.561837 44 54 46
3.109869 10.154156 3.616714 44 54 46
4.644299 19.807884 5.726468 44 54 46
7.713158 39.115341 9.945976 44 54 46
2.500610 5.296270 2.576515 55 62 55
3.425781 10.092113 3.646070 55 62 55
5.276122 19.683800 5.785181 55 62 55
8.976805 38.867172 10.063400 55 62 55
2.662059 5.259137 2.590446 49 56 49
3.748678 10.017847 3.673932 49 56 49
5.921917 19.535267 5.840903 49 56 49
10.268395 38.570107 10.174845 49 56 49
2.826553 5.215542 2.603501 47 57 49
4.077667 9.930657 3.700041 47 57 49
6.579895 19.360888 5.893122 47 57 49
11.584352 38.221348 10.279284 47 57 49
2.993574 5.165180 2.615551 70 80 72
4.411708 9.829933 3.724142 70 80 72
7.247977 19.159439 5.941324 70 80 72
12.920515 37.818451 10.375687 70 80 72
3.162529 5.107796 2.626469 70 79 74
4.749618 9.715165 3.745977 70 79 74
7.923796 18.929903 5.984994 70 79 74
14.272153 37.359379 10.463028 70 79 74
3.332761 5.043201 2.636130 179 183 186
5.090083 9.585976 3.765300 179 183 186
8.604727 18.671524 6.023639 179 183 186
15.634015 36.842621 10.540318 179 183 186
3.503558 4.971282 2.644418 150 155 158
5.431677 9.442137 3.781876 150 155 158
9.287914 18.383846 6.056792 150 155 158
17.000389 36.267265 10.606623 150 155 158
3.674159 4.892014 2.651228 133 138 141
5.772878 9.283600 3.795496 133 138 141
9.970316 18.066772 6.084031 133 138 141
18.365192 35.633118 10.661100 133 138 141
3.843770 4.805460 2.656468 188 196 199
6.112101 9.110493 3.805976 188 196 199
10.648763 17.720558 6.104992 188 196 199
19.722086 34.940689 10.703024 188 196 199
4.011585 4.711786 2.660065 197 204 212
6.447730 8.923144 3.813169 197 204 212
11.320021 17.345861 6.119377 197 204 212
21.064602 34.191296 10.731794 197 204 212
4.176796 4.611256 2.661963 196 205 210
6.778152 8.722084 3.816966 196 205 210
11.980865 16.943741 6.126972 196 205 210
22.386290 33.387054 10.746983 196 205 210
4.338615 4.504230 2.662132 130 138 140
7.101791 8.508033 3.817303 130 138 140
12.628143 16.515638 6.127645 130 138 140
23.680847 32.530849 10.748329 130 138 140
4.496296 4.391160 2.660560 79 83 84
7.417153 8.281894 3.814160 79 83 84
13.258866 16.063360 6.121360 79 83 84
24.942293 31.626293 10.735760 79 83 84
4.649145 4.272581 2.657264 107 111 112
7.722850 8.044734 3.807567 107 111 112
13.870260 15.589041 6.108173 107 111 112
26.165081 30.677654 10.709385 107 111 112
4.796539 4.149094 2.652279 113 119 119
8.017639 7.797760 3.797597 113 119 119
14.459838 15.095093 6.088234 113 119 119
27.344236 29.689758 10.669508 113 119 119
4.937940 4.021357 2.645665 121 130 129
8.300440 7.542287 3.784369 121 130 129
15.025441 14.584146 6.061778 121 130 129
28.475443 28.667866 10.616594 121 130 129
5.072900 3.890066 2.637500 91 87 82
8.570360 7.279705 3.768039 91 87 82
15.565281 14.058983 6.029118 91 87 82
29.555122 27.617538 10.551275 91 87 82
5.201070 3.755938 2.627880 86 82 76
8.826700 7.011448 3.748799 86 82 76
16.077961 13.522470 5.990638 86 82 76
30.580481 26.544512 10.474316 86 82 76
5.322197 3.619692 2.616914 81 76 70
9.068954 6.738957 3.726867 81 76 70
16.562469 12.977487 5.946773 81 76 70
31.549500 25.454546 10.386585 81 76 70
5.436128 3.482039 2.604721 82 75 67
9.296816 6.463651 3.702482 82 75 67
17.018192 12.426874 5.898003 82 75 67
32.460945 24.353321 10.289045 82 75 67
5.542800 3.343660 2.591429 81 77 65
9.510161 6.186893 3.675898 81 77 65
17.444883 11.873360 5.844836 81 77 65
33.314327 23.246292 10.182711 81 77 65
5.642237 3.205204 2.577169 45 52 58
9.709034 5.909980 3.647377 45 52 58
17.842628 11.319532 5.787794 45 52 58
34.109818 22.138638 10.068626 45 52 58
5.734535 3.067267 2.562071 75 70 64
9.893631 5.634107 3.617181 75 70 64
18.211823 10.767786 5.727401 75 70 64
34.848206 21.035145 9.947842 75 70 64
5.819859 2.930397 2.546264 86 84 85
10.064278 5.360366 3.585568 86 84 85
18.553116 10.220304 5.664176 86 84 85
35.530792 19.940182 9.821392 86 84 85
5.898427 2.795079 2.529875 88 84 81
10.221414 5.089732 3.552790 88 84 81
18.867388 9.679036 5.598619 88 84 81
36.159336 18.857645 9.690279 88 84 81
5.970500 2.661744 2.513022 89 88 83
10.365560 4.823061 3.519083 89 88 83
19.155680 9.145694 5.531207 89 88 83
36.735920 17.790960 9.555452 89 88 83
6.036373 2.530756 2.495816 90 94 93
10.497307 4.561086 3.484671 90 94 93
19.419174 8.621744 5.462382 90 94 93
37.262909 16.743061 9.417805 90 94 93
1.754224 5.427669 2.337821 56 66 55
1.933008 10.354910 3.168683 56 66 55
2.290577 20.209393 4.830405 56 66 55
3.005715 39.918358 8.153851 56 66 55
1.896024 5.418114 2.351699 60 71 67
2.216608 10.335801 3.196438 60 71 67
2.857776 20.171175 4.885917 60 71 67
4.140113 39.841923 8.264873 60 71 67
2.042479 5.404004 2.365335 49 59 50
2.509518 10.307581 3.223708 49 59 50
3.443597 20.114735 4.940456 49 59 50
5.311754 39.729042 8.373953 49 59 50
2.193419 5.384921 2.378639 43 51 40
2.811398 10.269415 3.250318 43 51 40
4.047356 20.038403 4.993675 43 51 40
6.519272 39.576378 8.480390 43 51 40
2.348608 5.360445 2.391519 102 108 104
3.121777 10.220463 3.276077 102 108 104
4.668114 19.940498 5.045194 102 108 104
7.760788 39.380569 8.583427 102 108 104
2.507743 5.330164 2.403872 54 61 53
3.440046 10.159901 3.300785 54 61 53
5.304652 19.819374 5.094609 54 61 53
9.033865 39.138321 8.682257 54 61 53
2.670445 5.293688 2.415595 65 72 65
3.765450 10.086948 3.324229 65 72 65
5.955461 19.673470 5.141498 65 72 65
10.335482 38.846512 8.776035 65 72 65
2.836260 5.250652 2.426576 64 74 65
4.097081 10.000876 3.346191 64 74 65
6.618722 19.501326 5.185423 64 74 65
11.662004 38.502224 8.863885 64 74 65
3.004660 5.200736 2.436706 66 73 66
4.433880 9.901044 3.366451 66 73 66
7.292321 19.301661 5.225942 66 73 66
13.009202 38.102894 8.944923 66 73 66
3.175041 5.143672 2.445875 77 84 77
4.774642 9.786916 3.384789 77 84 77
7.973845 19.073404 5.262617 77 84 77
14.372250 37.646381 9.018274 77 84 77
3.346732 5.079257 2.453976 67 76 65
5.118025 9.658087 3.400991 67 76 65
8.660611 18.815746 5.295022 67 76 65
15.745783 37.131065 9.083084 67 76 65
3.519004 5.007370 2.460910 84 91 83
5.462569 9.514313 3.414859 84 91 83
9.349699 18.528198 5.322757 84 91 83
17.123959 36.555969 9.138554 84 91 83
3.691079 4.927976 2.466586 65 70 64
5.806719 9.355525 3.426211 65 70 64
10.037998 18.210623 5.345462 65 70 64
18.500557 35.920818 9.183963 65 70 64
3.862144 4.841136 2.470926 177 188 190
6.148849 9.181845 3.434891 177 188 190
10.722258 17.863262 5.362821 177 188 190
19.869076 35.226097 9.218681 177 188 190
4.031372 4.747013 2.473866 100 111 113
6.487305 8.993599 3.440772 100 111 113
11.399171 17.486771 5.374584 100 111 113
21.222902 34.473114 9.242207 100 111 113
4.197935 4.645873 2.475361 109 115 115
6.820431 8.791319 3.443761 109 115 115
12.065422 17.082211 5.380562 109 115 115
22.555405 33.663994 9.254164 109 115 115
4.361027 4.538083 2.475382 113 116 121
7.146615 8.575739 3.443804 113 116 121
12.717791 16.651051 5.380647 113 116 121
23.860142 32.801674 9.254333 113 116 121
4.519883 4.424104 2.473923 83 85 84
7.464326 8.347781 3.440885 83 85 84
13.353212 16.195135 5.374809 83 85 84
25.130985 31.889843 9.242659 83 85 84
4.673793 4.304483 2.470995 96 87 75
7.772146 8.108540 3.435030 96 87 75
13.968852 15.716652 5.363100 96 87 75
26.362265 30.932877 9.219239 96 87 75
4.822122 4.179840 2.466633 68 68 65
8.068805 7.859253 3.426305 68 68 65
14.562170 15.218079 5.345650 68 68 65
27.548901 29.935730 9.184340 68 68 65
4.964323 4.050849 2.460886 47 53 53
8.353207 7.601271 3.414812 47 53 53
15.130975 14.702115 5.322664 47 53 53
28.686510 28.903803 9.138369 47 53 53
5.099941 3.918224 2.453825 61 60 58
8.624443 7.336021 3.400688 61 60 58
15.673447 14.171616 5.294416 61 60 58
29.771454 27.842804 9.081873 61 60 58
5.228624 3.782702 2.445530 76 73 68
8.881809 7.064978 3.384099 76 73 68
16.188179 13.629528 5.261238 76 73 68
30.800919 26.758629 9.015514 76 73 68
5.350121 3.645023 2.436097 56 60 61
9.124802 6.789619 3.365233 56 60 61
16.674164 13.078812 5.223505 56 60 61
31.772888 25.657196 8.940050 56 60 61
5.464280 3.505916 2.425629 47 52 55
9.353121 6.511405 3.344297 47 52 55
17.130802 12.522384 5.181635 47 52 55
32.686165 24.544340 8.856309 47 52 55
5.571047 3.366080 2.414236 68 74 74
9.566654 6.231733 3.321511 68 74 74
17.557869 11.963039 5.136062 68 74 74
33.540298 23.425652 8.765163 68 74 74
5.670452 3.226180 2.402030 79 86 79
9.765465 5.951932 3.297099 79 86 79
17.955490 11.403437 5.087237 79 86 79
34.335541 22.306446 8.667515 79 86 79
5.762602 3.086825 2.389123 72 68 57
9.949765 5.673223 3.271286 72 68 57
18.324091 10.846019 5.035611 72 68 57
35.072742 21.191610 8.564260 72 68 57
5.847674 2.948576 2.375627 98 109 111
10.119909 5.396724 3.244294 98 109 111
18.664379 10.293021 4.981627 98 109 111
35.753319 20.085615 8.456293 98 109 111
5.925896 2.811928 2.361648 116 127 131
10.276353 5.123429 3.216336 116 127 131
18.977266 9.746431 4.925713 116 127 131
36.379093 18.992435 8.344464 116 127 131
5.997543 2.677318 2.347289 112 129 137
10.419646 4.854208 3.187617 112 129 137
19.263853 9.207989 4.868274 112 129 137
36.952267 17.915550 8.229588 112 129 137
6.062922 2.545117 2.332643 73 81 84
10.550404 4.589806 3.158326 73 81 84
19.525368 8.679185 4.809690 73 81 84
37.475296 16.857943 8.112421 73 81 84
1.756096 5.452288 2.175121 42 49 42
1.936753 10.404148 2.843281 42 49 42
2.298067 20.307869 4.179602 42 49 42
3.020694 40.115311 6.852243 42 49 42
1.898595 5.443517 2.186252 49 60 52
2.221751 10.386606 2.865544 49 60 52
2.868063 20.272785 4.224128 49 60 52
4.160686 40.045143 6.941296 49 60 52
2.045817 5.430167 2.197188 48 56 43
2.516194 10.359906 2.887415 48 56 43
3.456949 20.219385 4.267869 48 56 43
5.338459 39.938343 7.028778 48 56 43
2.197591 5.411809 2.207856 50 60 51
2.819742 10.323192 2.908751 50 60 51
4.064044 20.145956 4.310541 50 60 51
6.552648 39.791485 7.114122 50 60 51
2.353681 5.388015 2.218179 52 59 52
3.131923 10.275602 2.929398 52 59 52
4.688406 20.050777 4.351835 52 59 52
7.801373 39.601128 7.196710 52 59 52
2.513782 5.358359 2.228076 58 65 57
3.452125 10.216291 2.949192 58 65 57
5.328810 19.932156 4.391424 58 65 57
9.082180 39.363884 7.275887 58 65 57
2.677512 5.322440 2.237461 72 79 71
3.779584 10.144453 2.967961 72 79 71
5.983728 19.788479 4.428961 72 79 71
10.392016 39.076530 7.350962 72 79 71
2.844410 5.279880 2.246243 58 68 59
4.113381 10.059333 2.985526 58 68 59
6.651323 19.618238 4.464092 58 68 59
11.727206 38.736050 7.421224 58 68 59
3.013942 5.230348 2.254334 54 61 54
4.452444 9.960268 3.001707 54 61 54
7.329448 19.420109 4.496454 54 61 54
13.083456 38.339790 7.485948 54 61 54
3.185493 5.173561 2.261643 69 76 68
4.795546 9.846695 3.016325 69 76 68
8.015652 19.192963 4.525690 69 76 68
14.455864 37.885498 7.544420 69 76 68
3.358382 5.109311 2.268084 76 84 73
5.141324 9.718195 3.029207 76 84 73
8.707209 18.935963 4.551453 76 84 73
15.838978 37.371498 7.595945 76 84 73
3.531865 5.037464 2.273574 70 75 68
5.488290 9.574501 3.040188 70 75 68
9.401140 18.648575 4.573416 70 75 68
17.226841 36.796722 7.639871 70 75 68
3.705148 4.957979 2.278041 54 55 57
5.834857 9.415531 3.049122 54 55 57
10.094275 18.330635 4.591284 54 55 57
18.613111 36.160843 7.675607 54 55 57
3.877406 4.870915 2.281421 158 166 168
6.179373 9.241403 3.055881 158 166 168
10.783306 17.982378 4.604802 158 166 168
19.991173 35.464329 7.702644 158 166 168
4.047792 4.776431 2.283661 90 91 77
6.520144 9.052435 3.060362 90 91 77
11.464849 17.604443 4.613764 90 91 77
21.354259 34.708458 7.720568 90 91 77
4.215463 4.674797 2.284725 70 70 68
6.855485 8.849167 3.062490 70 70 68
12.135531 17.197906 4.618020 70 70 68
22.695623 33.895386 7.729080 70 70 68
4.379595 4.566384 2.284591 70 74 75
7.183751 8.632340 3.062222 70 74 75
12.792063 16.764254 4.617482 70 74 75
24.008686 33.028080 7.728004 70 74 75
4.539411 4.451661 2.283253 60 64 65
7.503382 8.402895 3.059545 60 64 65
13.431324 16.305363 4.612130 60 64 65
25.287209 32.110298 7.717299 60 64 65
4.694186 4.331186 2.280722 60 64 63
7.812932 8.161944 3.054483 60 64 63
14.050425 15.823462 4.602006 60 64 63
26.525410 31.146496 7.697052 60 64 63
4.843276 4.205591 2.277026 61 67 67
8.111113 7.910756 3.047092 61 67 67
14.646785 15.321084 4.587223 61 67 67
27.718130 30.141741 7.667486 61 67 67
4.986125 4.075566 2.272208 55 59 60
8.396811 7.650705 3.037456 55 59 60
15.218182 14.800983 4.567952 55 59 60
28.860924 29.101540 7.628943 55 59 60
5.122273 3.941842 2.266325 60 57 48
8.669107 7.383256 3.025690 60 57 48
15.762775 14.266085 4.544419 60 57 48
29.950111 28.031742 7.581878 60 57 48
5.251367 3.805170 2.259445 68 67 63
8.927295 7.109913 3.011930 68 67 63
16.279150 13.719398 4.516900 68 67 63
30.982861 26.938370 7.526839 68 67 63
5.373155 3.666308 2.251647 56 65 62
9.170870 6.832188 2.996333 56 65 62
16.766300 13.163949 4.485706 56 65 62
31.957161 25.827471 7.464451 56 65 62
5.487490 3.526000 2.243015 49 53 52
9.399540 6.551572 2.979070 49 53 52
17.223640 12.602717 4.451180 49 53 52
32.871841 24.705008 7.395399 49 53 52
5.594320 3.384960 2.233640 48 53 56
9.613201 6.269494 2.960320 48 53 56
17.650963 12.038560 4.413679 48 53 56
33.726486 23.576693 7.320397 48 53 56
5.693686 3.243866 2.223614 46 51 49
9.811932 5.987304 2.940268 46 51 49
18.048424 11.474181 4.373574 46 51 49
34.521408 22.447935 7.240189 46 51 49
5.785702 3.103341 2.213029 65 61 50
9.995964 5.706254 2.919098 65 61 50
18.416489 10.912081 4.331235 65 61 50
35.257538 21.323734 7.155509 65 61 50
5.870553 2.963952 2.201976 75 81 77
10.165666 5.427476 2.896992 75 81 77
18.755892 10.354526 4.287024 75 81 77
35.936344 20.208624 7.067087 75 81 77
5.948479 2.826205 2.190543 122 136 137
10.321519 5.151983 2.874125 122 136 137
19.067598 9.803538 4.241290 122 136 137
36.559757 19.106649 6.975619 122 136 137
6.019763 2.690541 2.178811 125 139 139
10.464087 4.880655 2.850661 125 139 139
19.352736 9.260882 4.194362 125 139 139
37.130032 18.021338 6.881764 125 139 139
6.084725 2.557338 2.166858 82 93 95
10.594010 4.614249 2.826756 82 93 95
19.612581 8.728070 4.146552 82 93 95
37.649723 16.955713 6.786143 82 93 95
1.757785 5.471673 2.010416 45 54 49
1.940131 10.442919 2.513871 45 54 49
2.304822 20.385410 3.520782 45 54 49
3.034204 40.270393 5.534604 45 54 49
1.900821 5.463516 2.018695 34 41 34
2.226203 10.426605 2.530429 34 41 34
2.876966 20.352783 3.553898 34 41 34
4.178493 40.205139 5.600836 34 41 34
2.048631 5.450764 2.026822 35 42 34
2.521823 10.401100 2.546684 35 42 34
3.468206 20.301773 3.586408 35 42 34
5.360972 40.103119 5.665855 35 42 34
2.201045 5.432978 2.034744 34 41 34
2.826650 10.365529 2.562528 34 41 34
4.077861 20.230631 3.618095 34 41 34
6.580283 39.960835 5.729230 34 41 34
2.357827 5.409721 2.042402 44 45 40
3.140214 10.319016 2.577844 44 45 40
4.704989 20.137604 3.648728 44 45 40
7.834540 39.774780 5.790495 44 45 40
2.518669 5.380562 2.049734 36 41 34
3.461899 10.260696 2.592508 36 41 34
5.348359 20.020966 3.678055 36 41 34
9.121279 39.541504 5.849150 36 41 34
2.683187 5.345085 2.056674 45 52 45
3.790935 10.189743 2.606389 45 52 45
6.006431 19.879059 3.705817 45 52 45
10.437423 39.257690 5.904673 45 52 45
2.850918 5.302906 2.063156 49 54 48
4.126396 10.105385 2.619351 49 54 48
6.677352 19.710342 3.731741 49 54 48
11.779264 38.920258 5.956522 49 54 48
3.021317 5.253682 2.069109 59 66 59
4.467195 10.006936 2.631258 59 66 59
7.358950 19.513445 3.755556 59 66 59
13.142460 38.526463 6.004152 59 66 59
3.193766 5.197123 2.074468 51 58 50
4.812092 9.893819 2.641975 51 58 50
8.048745 19.287210 3.776989 51 58 50
14.522051 38.073994 6.047019 51 58 50
3.367573 5.133011 2.079165 58 63 56
5.159707 9.765595 2.651369 58 63 56
8.743975 19.030764 3.795778 58 63 56
15.912511 37.561100 6.084596 58 63 56
3.541985 5.061208 2.083139 86 91 85
5.508531 9.621988 2.659318 86 91 85
9.441622 18.743549 3.811676 86 91 85
17.307804 36.986671 6.116392 86 91 85
3.716196 4.981664 2.086335 135 145 144
5.856953 9.462901 2.665710 135 145 144
10.138467 18.425375 3.824460 135 145 144
18.701494 36.350323 6.141960 135 145 144
3.889367 4.894436 2.088705 109 115 113
6.203295 9.288445 2.670449 109 115 113
10.831151 18.076462 3.833938 109 115 113
20.086863 35.652496 6.160916 109 115 113
4.060639 4.799683 2.090209 87 96 95
6.545840 9.098939 2.673458 87 96 95
11.516240 17.697451 3.839956 87 96 95
21.457041 34.894474 6.172951 87 96 95
4.229157 4.697675 2.090821 72 77 73
6.882875 8.894922 2.674681 72 77 73
12.190311 17.289417 3.842402 72 77 73
22.805183 34.078407 6.177844 72 77 73
4.394086 4.588787 2.090524 60 68 70
7.212733 8.677147 2.674087 60 68 70
12.850026 16.853867 3.841214 60 68 70
24.124613 33.207306 6.175467 60 68 70
4.554633 4.473495 2.089314 59 63 62
7.533827 8.446564 2.671669 59 63 62
13.492214 16.392700 3.836377 59 63 62
25.408989 32.284973 6.165794 59 63 62
4.710067 4.352365 2.087203 62 67 60
7.844695 8.204303 2.667446 62 67 60
14.113951 15.908178 3.827931 62 67 60
26.652462 31.315929 6.148902 62 67 60
4.859735 4.226039 2.084211 52 61 63
8.144032 7.951651 2.661462 52 61 63
14.712624 15.402874 3.815964 52 61 63
27.849808 30.305321 6.124967 52 61 63
5.003075 4.095217 2.080372 48 50 49
8.430710 7.690007 2.653785 48 50 49
15.285980 14.879587 3.800609 48 50 49
28.996521 29.258747 6.094257 48 50 49
5.139622 3.960644 2.075731 52 53 47
8.703805 7.420861 2.644502 52 53 47
15.832170 14.341295 3.782043 52 53 47
30.088902 28.182163 6.057126 52 53 47
5.269022 3.823085 2.070340 69 76 58
8.962604 7.145742 2.633720 69 76 58
16.349768 13.791057 3.760479 69 76 58
31.124096 27.081686 6.013999 69 76 58
5.391024 3.683308 2.064260 63 60 51
9.206608 6.866189 2.621560 63 60 51
16.837776 13.231951 3.736159 63 60 51
32.100113 25.963474 5.965358 63 60 51
5.505484 3.542071 2.057556 50 49 44
9.435528 6.583715 2.608152 50 49 44
17.295616 12.667004 3.709344 50 49 44
33.015793 24.833580 5.911728 50 49 44
5.612354 3.400101 2.050298 65 56 47
9.649268 6.299774 2.593636 65 56 47
17.723097 12.099121 3.680310 65 56 47
33.870754 23.697815 5.853661 65 56 47
5.711679 3.258082 2.042555 65 61 50
9.847919 6.015738 2.578151 65 61 50
18.120398 11.531048 3.649341 65 61 50
34.665356 22.561668 5.791721 65 61 50
5.803581 3.116650 2.034400 67 62 56
10.031723 5.732872 2.561839 67 62 56
18.488007 10.965317 3.616717 67 62 56
35.400574 21.430206 5.726473 67 62 56
5.888254 2.976378 2.025899 89 84 78
10.201069 5.452330 2.544838 89 84 78
18.826698 10.404232 3.582715 89 84 78
36.077957 20.308037 5.658470 89 84 78
5.965943 2.837780 2.017121 92 87 81
10.356447 5.175132 2.527281 92 87 81
19.137455 9.849836 3.547601 92 87 81
36.699471 19.199245 5.588242 92 87 81
6.036941 2.701298 2.008127 91 86 80
10.498443 4.902170 2.509293 91 86 80
19.421446 9.303912 3.511625 91 86 80
37.267452 18.107397 5.516290 91 86 80
6.101573 2.567318 1.998976 87 84 77
10.627707 4.634209 2.490991 87 84 77
19.679976 8.767990 3.475022 87 84 77
37.784512 17.035553 5.443083 87 84 77
1.759281 5.485651 1.844226 84 94 95
1.943122 10.470874 2.181491 84 94 95
2.310805 20.441320 2.856022 84 94 95
3.046171 40.382214 4.205083 84 94 95
1.902686 5.477929 1.849573 30 41 35
2.229933 10.455431 2.192185 30 41 35
2.884427 20.410435 2.877410 30 41 35
4.193414 40.320442 4.247859 30 41 35
2.050900 5.465600 1.854811 33 40 33
2.526360 10.430772 2.202662 33 40 33
3.477280 20.361116 2.898364 33 40 33
5.379121 40.221806 4.289768 33 40 33
2.203752 5.448220 1.859905 25 35 27
2.832065 10.396012 2.212850 25 35 27
4.088690 20.291597 2.918740 25 35 27
6.601941 40.082767 4.330520 25 35 27
2.361008 5.425345 1.864816 36 43 35
3.146576 10.350264 2.222671 36 43 35
4.717713 20.200100 2.938382 36 43 35
7.859986 39.899773 4.369803 36 43 35
2.522357 5.396539 1.869501 54 60 56
3.469275 10.292651 2.232042 54 60 56
5.363111 20.084875 2.957123 54 60 56
9.150784 39.669323 4.407286 54 60 56
2.687414 5.361379 1.873917 41 46 42
3.799389 10.222330 2.240875 41 46 42
6.023339 19.944233 2.974789 41 46 42
10.471239 39.388039 4.442617 41 46 42
2.855713 5.319474 1.878020 78 82 81
4.135986 10.138521 2.249080 78 82 81
6.696532 19.776615 2.991199 78 82 81
11.817625 39.052803 4.475438 78 82 81
3.026705 5.270474 1.881764 120 129 136
4.477971 10.040522 2.256567 120 129 136
7.380502 19.580616 3.006173 120 129 136
13.185565 38.660805 4.505386 120 129 136
3.199766 5.214086 1.885103 59 64 58
4.824093 9.927744 2.263245 59 64 58
8.072747 19.355061 3.019530 59 64 58
14.570055 38.209694 4.532099 59 64 58
3.374200 5.150080 1.887994 59 61 56
5.172960 9.799733 2.269028 59 61 56
8.770481 19.099039 3.031096 59 61 56
15.965522 37.697651 4.555230 59 61 56
3.549244 5.078317 1.890397 50 56 53
5.523049 9.656206 2.273834 50 56 53
9.470658 18.811985 3.040708 50 56 53
17.365877 37.123543 4.574456 50 56 53
3.724087 4.998744 1.892276 83 92 89
5.872734 9.497060 2.277591 83 92 89
10.170028 18.493692 3.048222 83 92 89
18.764616 36.486958 4.589482 83 92 89
3.897878 4.911412 1.893598 50 54 53
6.220317 9.322397 2.280235 50 54 53
10.865195 18.144367 3.053510 50 54 53
20.154951 35.788307 4.600060 50 54 53
4.069754 4.816483 1.894339 53 55 50
6.564067 9.132539 2.281718 53 55 50
11.552695 17.764650 3.056476 53 55 50
21.529951 35.028873 4.605992 53 55 50
4.238846 4.714225 1.894482 55 60 54
6.902252 8.928022 2.282004 55 60 54
12.229065 17.355618 3.057048 55 60 54
22.882690 34.210808 4.607136 55 60 54
4.404313 4.605017 1.894017 53 51 52
7.233187 8.709607 2.281075 53 51 52
12.890934 16.918787 3.055189 53 51 52
24.206429 33.337147 4.603417 53 51 52
4.565356 4.489340 1.892944 47 50 41
7.555272 8.478252 2.278928 47 50 41
13.535105 16.456078 3.050895 47 50 41
25.494770 32.411728 4.594829 47 50 41
4.721234 4.367763 1.891269 36 36 34
7.867028 8.235098 2.275578 36 36 34
14.158617 15.969769 3.044196 36 36 34
26.741795 31.439110 4.581431 36 36 34
4.871290 4.240936 1.889009 39 39 35
8.167141 7.981445 2.271059 39 39 35
14.758842 15.462463 3.035157 39 39 35
27.942245 30.424500 4.563354 39 39 35
5.014957 4.109570 1.886189 45 44 40
8.454475 7.718711 2.265417 45 44 40
15.333511 14.936996 3.023873 45 44 40
29.091583 29.373564 4.540785 45 44 40
5.151770 3.974413 1.882837 48 49 44
8.728101 7.448398 2.258713 48 49 44
15.880762 14.396369 3.010466 48 49 44
30.186085 28.292311 4.513971 48 49 44
5.281372 3.836242 1.878991 56 59 50
8.987304 7.172057 2.251022 56 59 50
16.399168 13.843686 2.995083 56 59 50
31.222897 27.186945 4.483207 56 59 50
5.403512 3.695835 1.874693 53 42 38
9.231585 6.891243 2.242425 53 42 38
16.887730 13.282059 2.977890 53 42 38
32.200020 26.063690 4.448820 53 42 38
5.518049 3.553957 1.869987 53 46 40
9.460658 6.607486 2.233013 53 46 40
17.345877 12.714545 2.959065 53 46 40
33.116314 24.928663 4.411170 53 46 40
5.624938 3.411342 1.864919 53 51 46
9.674437 6.322257 2.222878 53 51 46
17.773434 12.144087 2.938796 53 51 46
33.971428 23.787746 4.370631 53 51 46
5.724227 3.268684 1.859539 61 61 53
9.873015 6.036941 2.212117 61 61 53
18.170591 11.573455 2.917273 61 61 53
34.765743 22.646482 4.327586 61 61 53
5.816045 3.126622 1.853892 63 62 54
10.056650 5.752818 2.200824 63 62 54
18.537861 11.005208 2.894688 63 62 54
35.500282 21.509989 4.282414 63 62 54
5.900587 2.985738 1.848027 88 79 70
10.225735 5.471048 2.189093 88 79 70
18.876030 10.441669 2.871225 88 79 70
36.176620 20.382912 4.235489 88 79 70
5.978107 2.846546 1.841986 89 82 73
10.380775 5.192665 2.177011 89 82 73
19.186111 9.884903 2.847062 89 82 73
36.796783 19.269379 4.187164 89 82 73
6.048902 2.709496 1.835812 125 136 138
10.522365 4.918566 2.164664 125 136 138
19.469290 9.336704 2.822368 125 136 138
37.363140 18.172981 4.137775 125 136 138
6.113302 2.574973 1.829545 112 120 122
10.651165 4.649518 2.152129 112 120 122
19.726891 8.798610 2.797297 112 120 122
37.878342 17.096792 4.087634 112 120 122
1.760577 5.494101 1.677093 12 21 18
1.945714 10.487775 1.847225 12 21 18
2.315988 20.475122 2.187490 12 21 18
3.056537 40.449818 2.868019 12 21 18
1.904179 5.486626 1.679457 30 36 32
2.232918 10.472824 1.851954 30 36 32
2.890396 20.445221 2.196947 30 36 32
4.205352 40.390015 2.886934 30 36 32
2.052606 5.474536 1.681755 68 78 78
2.529773 10.448645 1.856550 68 78 78
3.484107 20.396862 2.206140 68 78 78
5.392774 40.293297 2.905319 68 78 78
2.205691 5.457387 1.683969 38 48 47
2.835942 10.414347 1.860978 38 48 47
4.096445 20.328266 2.214996 38 48 47
6.617451 40.156105 2.923032 38 48 47
2.363196 5.434731 1.686080 77 82 85
3.150953 10.369035 1.865199 77 82 85
4.726466 20.237642 2.223438 77 82 85
7.877492 39.974857 2.939916 77 82 85
2.524812 5.406127 1.688067 54 60 56
3.474185 10.311827 1.869173 54 60 56
5.372931 20.123226 2.231385 54 60 56
9.170422 39.746025 2.955811 54 60 56
2.690151 5.371150 1.689908 51 53 52
3.804863 10.241874 1.872856 51 53 52
6.034287 19.983320 2.238752 51 53 52
10.493135 39.466213 2.970545 51 53 52
2.858746 5.329406 1.691583 50 56 52
4.142053 10.158385 1.876206 50 56 52
6.708667 19.816343 2.245452 50 56 52
11.841894 39.132259 2.983944 50 56 52
3.030047 5.280540 1.693070 45 58 66
4.484655 10.060654 1.879179 45 58 66
7.393870 19.620880 2.251398 45 58 66
13.212301 38.741333 2.995836 45 58 66
3.203427 5.224255 1.694346 42 48 44
4.831414 9.948082 1.881732 42 48 44
8.087388 19.395737 2.256504 42 48 44
14.599337 38.291046 3.006048 42 48 44
3.378184 5.160320 1.695392 29 34 37
5.180929 9.820212 1.883825 29 34 37
8.786419 19.139997 2.260689 29 34 37
15.997399 37.779568 3.014417 29 34 37
3.553556 5.088592 1.696190 38 40 35
5.531672 9.676756 1.885419 38 40 35
9.487905 18.853085 2.263877 38 40 35
17.400370 37.205742 3.020794 38 40 35
3.728724 5.009014 1.696721 39 43 42
5.882008 9.517601 1.886481 39 43 42
10.188576 18.534775 2.266002 39 43 42
18.801712 36.569122 3.025043 39 43 42
3.902835 4.921640 1.696972 27 33 31
6.230230 9.342854 1.886984 27 33 31
10.885020 18.185280 2.267008 27 33 31
20.194601 35.870132 3.027056 27 33 31
4.075019 4.826628 1.696934 34 47 37
6.574598 9.152829 1.886907 34 47 37
11.573756 17.805231 2.266854 34 47 37
21.572073 35.110035 3.026748 34 47 37
4.244405 4.724248 1.696598 45 54 53
6.913370 8.948069 1.886236 45 54 53
12.251301 17.395710 2.265512 45 54 53
22.927162 34.290993 3.024064 45 54 53
4.410147 4.614879 1.695963 34 38 40
7.244854 8.729331 1.884966 34 38 40
12.914268 16.958235 2.262971 34 38 40
24.253098 33.416042 3.018982 34 38 40
4.571440 4.499003 1.695030 27 31 30
7.567440 8.497580 1.883099 27 31 30
13.559440 16.494732 2.259237 27 31 30
25.543440 32.489037 3.011514 27 31 30
4.727542 4.377196 1.693804 36 41 44
7.879645 8.253964 1.880647 36 41 44
14.183851 16.007502 2.254333 36 41 44
26.792263 31.514576 3.001705 36 41 44
4.877793 4.250109 1.692295 31 34 37
8.180147 7.999791 1.877629 31 34 37
14.784854 15.499155 2.248297 31 34 37
27.994268 30.497883 2.989634 31 34 37
5.021623 4.118455 1.690516 33 39 39
8.467806 7.736484 1.874072 33 39 39
15.360173 14.972540 2.241184 33 39 39
29.144907 29.444653 2.975408 33 39 39
5.158566 3.982991 1.688485 35 39 38
8.741693 7.465555 1.870010 35 39 38
15.907946 14.430683 2.233060 35 39 38
30.240452 28.360939 2.959160 35 39 38
5.288264 3.844496 1.686221 39 38 34
9.001089 7.188565 1.865482 39 38 34
16.426739 13.876703 2.224004 39 38 34
31.278036 27.252979 2.941048 39 38 34
5.410469 3.703754 1.683746 61 56 50
9.245499 6.907080 1.860531 61 56 50
16.915558 13.313733 2.214102 61 56 50
32.255676 26.127039 2.921244 61 56 50
5.525037 3.561532 1.681082 64 60 49
9.474634 6.622637 1.855204 64 60 49
17.373829 12.744846 2.203447 64 60 49
33.172218 24.989265 2.899933 64 60 49
5.631927 3.418571 1.678254 63 59 48
9.688415 6.336715 1.849547 63 59 48
17.801390 12.173002 2.192133 63 59 48
34.027340 23.845577 2.877306 63 59 48
5.731190 3.275568 1.675285 67 58 48
9.886941 6.050708 1.843610 67 58 48
18.198442 11.600988 2.180259 67 58 48
34.821445 22.701550 2.853558 67 58 48
5.822955 3.133165 1.672200 67 63 54
10.070471 5.765903 1.837440 67 63 54
18.565502 11.031378 2.167919 67 63 54
35.555565 21.562328 2.828877 67 63 54
5.907422 2.991946 1.669022 87 83 72
10.239404 5.483466 1.831083 87 83 72
18.903368 10.466504 2.155205 87 83 72
36.231297 20.432581 2.803451 87 83 72
5.984845 2.852430 1.665772 90 82 71
10.394251 5.204433 1.824584 90 82 71
19.213062 9.908440 2.142207 90 82 71
36.850685 19.316452 2.777453 90 82 71
6.055527 2.715068 1.662471 117 125 128
10.535614 4.929708 1.817983 117 125 128
19.495789 9.358990 2.129005 117 125 128
37.416138 18.217552 2.751049 117 125 128
6.119799 2.580245 1.659139 118 126 128
10.664159 4.660062 1.811318 118 126 128
19.752878 8.819696 2.115675 118 126 128
37.930317 17.138966 2.724390 118 126 128
1.761666 5.496958 1.509574 23 29 27
1.947892 10.493488 1.512188 23 29 27
2.320345 20.486549 1.517416 23 29 27
3.065250 40.472672 1.527872 23 29 27
1.905290 5.489535 1.508936 99 104 98
2.235141 10.478642 1.510911 99 104 98
2.894843 20.456858 1.514863 99 104 98
4.214247 40.413288 1.522765 99 104 98
2.053741 5.477497 1.508273 83 91 93
2.532043 10.454567 1.509586 83 91 93
3.488646 20.408707 1.512211 83 91 93
5.401852 40.316986 1.517462 83 91 93
2.206848 5.460400 1.507586 28 38 39
2.838257 10.420372 1.508212 28 38 39
4.101074 20.340317 1.509464 28 38 39
6.626709 40.180206 1.511968 28 38 39
2.364376 5.437793 1.506876 53 60 53
3.153312 10.375158 1.506792 53 60 53
4.731185 20.249889 1.506624 53 60 53
7.886930 39.999352 1.506287 53 60 53
2.526014 5.409237 1.506144 65 69 68
3.476589 10.318047 1.505327 65 69 68
5.377738 20.135666 1.503694 65 69 68
9.180037 39.770905 1.500428 65 69 68
2.691375 5.374305 1.505391 57 59 54
3.807311 10.248183 1.503821 57 59 54
6.039182 19.995939 1.500682 57 59 54
10.502924 39.491451 1.494403 57 59 54
2.859991 5.332603 1.504619 95 109 112
4.144542 10.164779 1.502277 95 109 112
6.713644 19.829130 1.497593 95 109 112
11.851848 39.157833 1.488226 95 109 112
3.031312 5.283776 1.503830 71 77 77
4.487184 10.067125 1.500699 71 77 77
7.398928 19.633823 1.494438 71 77 77
13.222416 38.767220 1.481915 71 77 77
3.204710 5.227526 1.503026 124 125 120
4.833981 9.954625 1.499093 124 125 120
8.092522 19.408823 1.491225 124 125 120
14.609604 38.317219 1.475489 124 125 120
3.379486 5.163623 1.502212 112 116 114
5.183532 9.826819 1.497463 112 116 114
8.791625 19.153212 1.487966 112 116 114
16.007811 37.805996 1.468973 112 116 114
3.554873 5.091920 1.501389 106 112 110
5.534307 9.683414 1.495818 106 112 110
9.493174 18.866400 1.484676 106 112 110
17.410908 37.232372 1.462392 106 112 110
3.730055 5.012366 1.500562 83 88 82
5.884670 9.524304 1.494164 83 88 82
10.193901 18.548182 1.481368 83 88 82
18.812363 36.595936 1.455775 83 88 82
3.904179 4.925009 1.499734 72 76 75
6.232919 9.349590 1.492508 72 76 75
10.890398 18.198753 1.478056 72 76 75
20.205357 35.897079 1.449153 72 76 75
4.076374 4.830008 1.498910 92 96 95
6.577308 9.159588 1.490859 92 96 95
11.579176 17.818748 1.474758 92 96 95
21.582912 35.137070 1.442556 92 96 95
4.245769 4.727633 1.498093 80 82 81
6.916097 8.954838 1.489225 80 82 81
12.256755 17.409248 1.471489 80 82 81
22.938070 34.318069 1.436018 80 82 81
4.411516 4.618264 1.497287 76 80 79
7.247592 8.736100 1.487613 76 80 79
12.919744 16.971773 1.468265 76 80 79
24.264050 33.443119 1.429570 76 80 79
4.572812 4.502382 1.496496 58 59 54
7.570185 8.504337 1.486031 58 59 54
13.564930 16.508247 1.465102 58 59 54
25.554420 32.516068 1.423243 58 59 54
4.728916 4.380563 1.495724 49 53 52
7.882393 8.260698 1.484487 49 53 52
14.189347 16.020969 1.462014 49 53 52
26.803255 31.541513 1.417067 49 53 52
4.879166 4.253459 1.494974 142 151 150
8.182892 8.006491 1.482987 142 151 150
14.790344 15.512554 1.459014 142 151 150
28.005249 30.524681 1.411068 142 151 150
5.022992 4.121783 1.494249 172 175 168
8.470545 7.743139 1.481538 172 175 168
15.365650 14.985851 1.456115 172 175 168
29.155861 29.471275 1.405271 172 175 168
5.159929 3.986293 1.493552 53 56 49
8.744419 7.472158 1.480144 53 56 49
15.913398 14.443889 1.453328 53 56 49
30.251356 28.387350 1.399695 53 56 49
5.289619 3.847766 1.492885 138 146 148
9.003798 7.195105 1.478810 138 146 148
16.432158 13.889782 1.450660 138 146 148
31.288876 27.279137 1.394359 138 146 148
5.411813 3.706987 1.492250 142 150 152
9.248186 6.913548 1.477539 142 150 152
16.920933 13.326668 1.448117 142 150 152
32.266426 26.152908 1.389274 142 150 152
5.526368 3.564726 1.491647 67 65 68
9.477297 6.629025 1.476333 67 65 68
17.379154 12.757624 1.445706 67 65 68
33.182869 25.014820 1.384451 67 65 68
5.633245 3.421722 1.491077 73 71 74
9.691050 6.343018 1.475194 73 71 74
17.806660 12.185608 1.443428 73 71 74
34.037880 23.870789 1.379895 73 71 74
5.732491 3.278674 1.490541 79 79 79
9.889543 6.056920 1.474122 79 79 79
18.203646 11.613413 1.441284 79 79 79
34.831852 22.726398 1.375607 79 79 79
5.824239 3.136223 1.490039 53 48 29
10.073038 5.772019 1.473117 53 48 29
18.570637 11.043611 1.439274 53 48 29
35.565834 21.586794 1.371588 53 48 29
5.908687 2.994955 1.489569 88 84 73
10.241934 5.489482 1.472178 88 84 73
18.908428 10.478537 1.437396 88 84 73
36.241417 20.456646 1.367832 88 84 73
5.986091 2.855387 1.489132 78 72 63
10.396742 5.210348 1.471304 78 72 63
19.218044 9.920268 1.435647 78 72 63
36.860649 19.340109 1.364334 78 72 63
6.056751 2.717973 1.488726 88 97 96
10.538063 4.935518 1.470492 88 97 96
19.500687 9.370608 1.434023 88 97 96
37.425934 18.240789 1.361086 88 97 96
6.121002 2.583096 1.488350 105 116 120
10.666565 4.665765 1.469740 105 116 120
19.757690 8.831102 1.432519 105 116 120
37.939941 17.161777 1.358078 105 116 120
1.762545 5.494209 1.342234 97 102 98
1.949651 10.487990 1.177507 97 102 98
2.323862 20.475554 0.848054 97 102 98
3.072284 40.450680 0.189148 97 102 98
1.906018 5.486646 1.338603 101 105 104
2.236597 10.472864 1.170246 101 105 104
2.897754 20.445301 0.833531 101 105 104
4.220068 40.390175 0.160102 101 105 104
2.054299 5.474472 1.334990 106 111 107
2.533159 10.448516 1.163020 106 111 107
3.490879 20.396605 0.819079 106 111 107
5.406318 40.292782 0.131198 106 111 107
2.207220 5.457244 1.331414 105 110 104
2.839000 10.414062 1.155867 105 110 104
4.102560 20.327696 0.804773 105 110 104
6.629680 40.154964 0.102585 105 110 104
2.364542 5.434518 1.327894 49 54 50
3.153645 10.368608 1.148827 49 54 50
4.731851 20.236790 0.790694 49 54 50
7.888262 39.973152 0.074428 49 54 50
2.525958 5.405853 1.324454 75 76 71
3.476476 10.311279 1.141947 75 76 71
5.377513 20.122131 0.776933 75 76 71
9.179586 39.743835 0.046906 75 76 71
2.691080 5.370829 1.321117 55 59 58
3.806720 10.241230 1.135273 55 59 58
6.038000 19.982033 0.763586 55 59 58
10.500560 39.463638 0.020211 55 59 58
2.859440 5.329051 1.317908 55 57 54
4.143441 10.157674 1.128856 55 57 54
6.711442 19.814920 0.750752 55 57 54
11.847445 39.129414 -0.005456 55 57 54
3.030492 5.280168 1.314855 34 38 39
4.485545 10.059908 1.122749 34 38 39
7.395651 19.619389 0.738537 34 38 39
13.215862 38.738350 -0.029886 34 38 39
3.203610 5.223884 1.311982 114 120 118
4.831781 9.947341 1.117003 114 120 118
8.088123 19.394255 0.727045 114 120 118
14.600807 38.288082 -0.052870 114 120 118
3.378097 5.159973 1.309316 112 116 115
5.180754 9.819518 1.111671 112 116 115
8.786068 19.138609 0.716381 112 116 115
15.996696 37.776791 -0.074198 112 116 115
3.553189 5.088289 1.306882 114 115 117
5.530939 9.676150 1.106803 114 115 117
9.486438 18.851873 0.706646 114 115 117
17.397436 37.203320 -0.093669 114 115 117
3.728075 5.008780 1.304704 111 115 114
5.880710 9.517134 1.102447 111 115 114
10.185981 18.533840 0.697933 111 115 114
18.796522 36.567253 -0.111094 111 115 114
3.901905 4.921499 1.302803 113 119 117
6.228370 9.342571 1.098645 113 119 117
10.881300 18.184715 0.690329 113 119 117
20.187160 35.869003 -0.126302 113 119 117
4.073812 4.826603 1.301197 113 119 117
6.572183 9.152780 1.095434 113 119 117
11.568927 17.805132 0.683907 113 119 117
21.562414 35.109837 -0.139147 113 119 117
4.242929 4.724362 1.299901 111 117 115
6.910418 8.948298 1.092843 111 117 115
12.245396 17.396168 0.678725 111 117 115
22.915352 34.291908 -0.149511 111 117 115
4.408414 4.615154 1.298927 111 115 113
7.241388 8.729881 1.090893 111 115 113
12.907337 16.959335 0.674826 111 115 113
24.239235 33.418243 -0.157308 111 115 113
4.569467 4.499459 1.298279 110 114 117
7.563494 8.498490 1.089598 110 114 117
13.551549 16.496553 0.672235 110 114 117
25.527658 32.492680 -0.162490 110 114 117
4.725349 4.377848 1.297960 106 113 116
7.875258 8.255268 1.088960 106 113 116
14.175077 16.010109 0.670960 106 113 116
26.774715 31.519791 -0.165041 106 113 116
4.875401 4.250971 1.297967 115 119 118
8.175362 8.001514 1.088974 115 119 118
14.775285 15.502601 0.670987 115 119 118
27.975130 30.504774 -0.164986 115 119 118
5.019057 4.119537 1.298292 117 119 114
8.462675 7.738647 1.089624 117 119 114
15.349910 14.976868 0.672288 117 119 114
29.124380 29.453308 -0.162385 117 119 114
5.155852 3.984300 1.298924 127 132 126
8.736264 7.468173 1.090888 127 132 126
15.897089 14.435919 0.674816 127 132 126
30.218739 28.371410 -0.157329 127 132 126
5.285428 3.846035 1.299848 107 113 109
8.995417 7.191642 1.092735 107 113 109
16.415394 13.882857 0.678510 107 113 109
31.255348 27.265287 -0.149940 107 113 109
5.407537 3.705521 1.301045 105 111 111
9.239635 6.910615 1.095129 105 111 111
16.903830 13.320804 0.683298 105 111 111
32.232220 26.141180 -0.140364 105 111 111
5.522036 3.563525 1.302495 115 120 114
9.468632 6.626623 1.098029 115 120 114
17.361824 12.752819 0.689098 115 120 114
33.148209 25.005211 -0.128765 115 120 114
5.628882 3.420783 1.304175 134 138 139
9.682325 6.341138 1.101390 134 138 139
17.789211 12.181849 0.695819 134 138 139
34.002983 23.863272 -0.115322 134 138 139
5.728124 3.277989 1.306062 104 110 107
9.880809 6.055551 1.105164 104 110 107
18.186178 11.610674 0.703368 104 110 107
34.796917 22.720921 -0.100224 104 110 107
5.819890 3.135785 1.308132 97 102 96
10.064341 5.771142 1.109304 97 102 96
18.553242 11.041857 0.711649 97 102 96
35.531044 21.583286 -0.083663 97 102 96
5.904377 2.994751 1.310362 99 104 98
10.233314 5.489075 1.113763 99 104 98
18.891188 10.477722 0.720565 99 104 98
36.206936 20.455017 -0.065830 99 104 98
5.981838 2.855406 1.312726 86 91 87
10.388237 5.210385 1.118492 86 91 87
19.201035 9.920343 0.730024 86 91 87
36.826630 19.340260 -0.046912 86 91 87
6.052572 2.718200 1.315204 107 113 111
10.529704 4.935973 1.123448 107 113 111
19.483969 9.371519 0.739936 107 113 111
37.392498 18.242611 -0.027088 107 113 111
6.116909 2.583518 1.317774 115 120 116
10.658378 4.666609 1.128588 115 120 116
19.741316 8.832790 0.750216 115 120 116
37.907192 17.165154 -0.006528 115 120 116
1.763213 5.485902 1.175631 88 92 91
1.950986 10.471377 0.844302 88 92 91
2.326533 20.442327 0.181643 88 92 91
3.077627 40.384228 -1.143674 88 92 91
1.906361 5.478008 1.169049 88 93 88
2.237283 10.455588 0.831138 88 93 88
2.899127 20.410749 0.155315 88 93 88
4.222814 40.321072 -1.196330 88 93 88
2.054283 5.465513 1.162528 90 95 91
2.533127 10.430598 0.818095 90 95 91
3.490815 20.360769 0.129230 90 95 91
5.406191 40.221111 -1.248500 90 95 91
2.206809 5.447979 1.156104 88 93 87
2.838179 10.395532 0.805247 88 93 87
4.100918 20.290636 0.103534 88 93 87
6.626397 40.080845 -1.299892 88 93 87
2.363702 5.424967 1.149817 99 103 102
3.151965 10.349507 0.792675 99 103 102
4.728491 20.198587 0.078389 99 103 102
7.881542 39.896748 -1.350183 99 103 102
2.524654 5.396042 1.143712 58 62 61
3.473868 10.291656 0.780464 58 62 61
5.372297 20.082886 0.053967 58 62 61
9.169154 39.665344 -1.399027 58 62 61
2.689279 5.360788 1.137833 66 68 63
3.803118 10.221149 0.768706 66 68 63
6.030796 19.941872 0.030452 66 68 63
10.486152 39.383316 -1.446057 66 68 63
2.857112 5.318819 1.132229 70 74 73
4.138784 10.137210 0.757498 70 74 73
6.702130 19.773993 0.008036 70 74 73
11.828820 39.047558 -1.490888 70 74 73
3.027610 5.269787 1.126950 107 111 110
4.479781 10.039146 0.746939 107 111 110
7.384123 19.577866 -0.013083 107 111 110
13.192806 38.655304 -1.533126 107 111 110
3.200152 5.213404 1.122043 116 115 112
4.824865 9.926380 0.737127 116 115 112
8.074291 19.352333 -0.032707 116 115 112
14.573144 38.204239 -1.572375 116 115 112
3.374047 5.149446 1.117560 129 120 109
5.172655 9.798465 0.728159 129 120 109
8.769871 19.096502 -0.050643 129 120 109
15.964302 37.692577 -1.608247 129 120 109
3.548539 5.077774 1.113544 191 149 133
5.521638 9.655121 0.720128 191 149 133
9.467837 18.809814 -0.066704 191 149 133
17.360235 37.119202 -1.640368 191 149 133
3.722821 4.998338 1.110041 201 154 138
5.870203 9.496249 0.713122 201 154 138
10.164967 18.492071 -0.080717 201 154 138
18.754494 36.483715 -1.668395 201 154 138
3.896055 4.911192 1.107088 155 102 86
6.216670 9.321957 0.707215 155 102 86
10.857900 18.143486 -0.092530 155 102 86
20.140360 35.786545 -1.692021 155 102 86
4.067379 4.816494 1.104717 109 113 116
6.559319 9.132562 0.702473 109 113 116
11.543200 17.764696 -0.102014 109 113 116
21.510960 35.028965 -1.710989 109 113 116
4.235938 4.714513 1.102953 136 140 139
6.896437 8.928599 0.698946 136 140 139
12.217434 17.356771 -0.109068 136 140 139
22.859428 34.213116 -1.725097 136 140 139
4.400897 4.605625 1.101814 128 131 136
7.226354 8.710822 0.696668 128 131 136
12.877268 16.921217 -0.113624 128 131 136
24.179096 33.342007 -1.734209 128 131 136
4.561461 4.490304 1.101308 115 121 121
7.547483 8.480181 0.695656 115 121 121
13.519527 16.459934 -0.115648 115 121 121
25.463615 32.419441 -1.738256 115 121 121
4.716901 4.369118 1.101435 185 189 190
7.858363 8.237808 0.695910 185 189 190
14.141287 15.975189 -0.115140 185 189 190
26.707134 31.449951 -1.737240 185 189 190
4.866563 4.242707 1.102186 116 120 123
8.157686 7.984988 0.697412 116 120 123
14.739932 15.469548 -0.112137 116 120 123
27.904425 30.438669 -1.731235 116 120 123
5.009883 4.111777 1.103543 114 120 122
8.444326 7.723126 0.700125 114 120 122
15.313214 14.945826 -0.106710 114 120 122
29.050989 29.391224 -1.720380 114 120 122
5.146401 3.977071 1.105481 182 187 183
8.717362 7.453714 0.704001 182 187 183
15.859285 14.407001 -0.098959 182 187 183
30.143131 28.313574 -1.704879 182 187 183
5.275759 3.839355 1.107967 191 196 192
8.976079 7.178283 0.708974 191 196 192
16.376719 13.856139 -0.089012 191 196 192
31.177998 27.211851 -1.684985 191 196 192
5.397709 3.699402 1.110966 120 124 123
9.219978 6.898377 0.714971 120 124 123
16.864517 13.296328 -0.077019 120 124 123
32.153595 26.092228 -1.660998 120 124 123
5.512107 3.557971 1.114434 103 109 107
9.448774 6.615515 0.721907 103 109 107
17.322109 12.730602 -0.063147 103 109 107
33.068779 24.960777 -1.633255 103 109 107
5.618907 3.415789 1.118326 99 105 105
9.662374 6.331151 0.729692 99 105 105
17.749310 12.161876 -0.047576 99 105 105
33.923180 23.823324 -1.602112 99 105 105
5.718153 3.273546 1.122597 101 107 107
9.860866 6.046665 0.738234 101 107 107
18.146292 11.592903 -0.030491 101 107 107
34.717144 22.685379 -1.567943 101 107 107
5.809970 3.131878 1.127199 100 106 106
10.044501 5.763329 0.747438 100 106 106
18.513563 11.026230 -0.012084 100 106 106
35.451687 21.552032 -1.531128 100 106 106
5.894550 2.991360 1.132086 98 104 102
10.213661 5.482293 0.757211 98 104 102
18.851883 10.464159 0.007461 98 104 102
36.128326 20.427891 -1.492039 98 104 102
5.972143 2.852508 1.137210 96 102 102
10.368846 5.204589 0.767460 96 102 102
19.162252 9.908751 0.027960 96 102 102
36.749065 19.317074 -1.451040 96 102 102
6.043040 2.715768 1.142530 96 102 100
10.510640 4.931109 0.778100 96 102 100
19.445841 9.361792 0.049240 96 102 100
37.316242 18.223156 -1.408480 96 102 100
6.107568 2.581525 1.148005 89 95 95
10.639696 4.662622 0.789049 89 95 95
19.703953 8.824818 0.071138 89 95 95
37.832466 17.149208 -1.364685 89 95 95
1.763670 5.472138 1.010313 113 117 116
1.951900 10.443850 0.513666 113 117 116
2.328360 20.387272 -0.479629 113 117 116
3.081281 40.274117 -2.466219 113 117 116
1.906324 5.463729 1.000850 115 122 116
2.237209 10.427032 0.494740 115 122 116
2.898978 20.353636 -0.517481 115 122 116
4.222517 40.206844 -2.541923 115 122 116
2.053701 5.450736 0.991492 118 121 116
2.531963 10.401045 0.476024 118 121 116
3.488486 20.301662 -0.554913 118 121 116
5.401533 40.102898 -2.616786 118 121 116
2.205630 5.432727 0.982294 136 127 122
2.835820 10.365027 0.457627 136 127 122
4.096201 20.229628 -0.591707 136 127 122
6.616963 39.958828 -2.690373 136 127 122
2.361874 5.409270 0.973314 151 121 110
3.148309 10.318113 0.439667 151 121 110
4.721178 20.135799 -0.627627 151 121 110
7.866916 39.771172 -2.762215 151 121 110
2.522126 5.379940 0.964615 117 102 94
3.468812 10.259453 0.422270 117 102 94
5.362185 20.018478 -0.662420 117 102 94
9.148932 39.536530 -2.831800 117 102 94
2.686003 5.344329 0.956266 161 129 118
3.796566 10.188231 0.405572 161 129 118
6.017693 19.876034 -0.695817 161 129 118
10.459947 39.251640 -2.898593 161 129 118
2.853045 5.302059 0.948336 193 142 123
4.130650 10.103690 0.389711 193 142 123
6.685860 19.706953 -0.727538 193 142 123
11.796281 38.913479 -2.962036 193 142 123
3.022712 5.252792 0.940896 182 129 111
4.469985 10.005157 0.374832 182 129 111
7.364531 19.509886 -0.757296 182 129 111
13.153623 38.519344 -3.021552 182 129 111
3.194393 5.196247 0.934019 163 111 89
4.813346 9.892067 0.361077 163 111 89
8.051252 19.283707 -0.784806 163 111 89
14.527065 38.066986 -3.076572 163 111 89
3.367402 5.132211 0.927774 154 93 72
5.159365 9.763994 0.348587 154 93 72
8.743291 19.027561 -0.809787 154 93 72
15.911142 37.554695 -3.126534 154 93 72
3.540996 5.060545 0.922227 145 92 74
5.506552 9.620664 0.337494 145 92 74
9.437664 18.740900 -0.831971 145 92 74
17.299889 36.981373 -3.170903 145 92 74
3.714378 4.981209 0.917442 144 93 74
5.853317 9.461991 0.327923 144 93 74
10.131194 18.423555 -0.851114 144 93 74
18.686949 36.346684 -3.209188 144 93 74
3.886721 4.894258 0.913471 156 107 90
6.198003 9.288089 0.319982 156 107 90
10.820566 18.075750 -0.866996 156 107 90
20.065693 35.651073 -3.240953 156 107 90
4.057179 4.799850 0.910361 140 146 136
6.538918 9.099274 0.313761 140 146 136
11.502398 17.698120 -0.879438 140 146 136
21.429356 34.895813 -3.265836 140 146 136
4.224906 4.698254 0.908146 110 114 113
6.874373 8.896081 0.309331 110 114 113
12.173306 17.291735 -0.888298 110 114 113
22.771173 34.083042 -3.283557 110 114 113
4.389080 4.589839 0.906849 112 118 116
7.202721 8.679252 0.306738 112 118 116
12.830003 16.858076 -0.893484 112 118 116
24.084566 33.215725 -3.293929 112 118 116
4.548920 4.475077 0.906482 113 117 118
7.522400 8.449726 0.306003 113 117 118
13.469361 16.399025 -0.894954 113 117 118
25.363283 32.297623 -3.296868 113 117 118
4.703703 4.354524 0.907041 112 118 116
7.831967 8.208621 0.307123 112 118 116
14.088494 15.916815 -0.892715 112 118 116
26.601549 31.333202 -3.292391 112 118 116
4.852785 4.228814 0.908513 109 115 113
8.130131 7.957201 0.310066 109 115 113
14.684822 15.413976 -0.886829 109 115 113
27.794205 30.327524 -3.280619 109 115 113
4.995608 4.098639 0.910870 109 115 113
8.415777 7.696849 0.314779 109 115 113
15.256115 14.893271 -0.877403 109 115 113
28.936790 29.286116 -3.261766 109 115 113
5.131715 3.964729 0.914073 111 117 117
8.687990 7.429031 0.321185 111 117 117
15.800541 14.357635 -0.864590 111 117 117
30.025642 28.214842 -3.236140 111 117 117
5.260752 3.827842 0.918075 110 116 114
8.946064 7.155258 0.329189 110 116 114
16.316689 13.810088 -0.848582 110 116 114
31.057938 27.119749 -3.204124 110 116 114
5.382467 3.688737 0.922820 111 118 111
9.189495 6.877046 0.338680 111 118 111
16.803551 13.253665 -0.829601 111 118 111
32.031662 26.006903 -3.166162 111 118 111
5.496716 3.548160 0.928246 106 112 112
9.417994 6.595892 0.349532 106 112 112
17.260548 12.691357 -0.807896 106 112 112
32.945656 24.882286 -3.122752 106 112 112
5.603450 3.406829 0.934287 99 105 105
9.631461 6.313231 0.361615 99 105 105
17.687483 12.126036 -0.783731 99 105 105
33.799526 23.751644 -3.074423 99 105 105
5.702707 3.265424 0.940875 102 108 106
9.829974 6.030420 0.374789 102 108 106
18.084509 11.560413 -0.757382 102 108 106
34.593578 22.620399 -3.021725 102 108 106
5.794605 3.124572 0.947938 101 107 107
10.013770 5.748717 0.388916 101 107 107
18.452101 10.997007 -0.729128 101 107 107
35.328762 21.493587 -2.965216 101 107 107
5.879329 2.984844 0.955410 97 103 103
10.183219 5.469260 0.403859 97 103 103
18.790998 10.438093 -0.699242 97 103 103
36.006557 20.375759 -2.905445 97 103 103
5.957121 2.846746 0.963222 95 101 101
10.338803 5.193066 0.419484 95 101 101
19.102167 9.885704 -0.667992 95 101 101
36.628895 19.270981 -2.842944 95 101 101
6.028266 2.710724 0.971312 92 98 98
10.481093 4.921021 0.435664 92 98 98
19.386747 9.341616 -0.635632 92 98 98
37.198055 18.182804 -2.778225 92 98 98
6.093083 2.577157 0.979620 90 96 96
10.610727 4.653887 0.452279 90 96 96
19.646015 8.807346 -0.602403 90 96 96
37.716591 17.114265 -2.711766 90 96 96
1.763918 5.453070 0.846805 114 75 58
1.952397 10.405713 0.186649 114 75 58
2.329354 20.310999 -1.133662 114 75 58
3.083268 40.121571 -3.774285 114 75 58
1.905915 5.443974 0.834558 145 100 79
2.236390 10.387522 0.162156 145 100 79
2.897341 20.274616 -1.182648 145 100 79
4.219242 40.048805 -3.872256 145 100 79
2.052567 5.430317 0.822463 112 75 57
2.529695 10.360207 0.137966 112 75 57
3.483950 20.219986 -1.231028 112 75 57
5.392461 39.939545 -3.969017 112 75 57
2.203703 5.411675 0.810591 132 87 68
2.831967 10.322923 0.114221 132 87 68
4.088494 20.145418 -1.278517 132 87 68
6.601549 39.790409 -4.063995 132 87 68
2.359087 5.387626 0.799018 126 81 60
3.142735 10.274825 0.091076 126 81 60
4.710030 20.049223 -1.324809 126 81 60
7.844621 39.598019 -4.156579 126 81 60
2.518413 5.357757 0.787827 124 77 59
3.461387 10.215086 0.068694 124 77 59
5.347334 19.929745 -1.369572 124 77 59
9.119228 39.359062 -4.246104 124 77 59
2.681302 5.321670 0.777106 127 80 60
3.787163 10.142912 0.047252 127 80 60
5.998888 19.785397 -1.412456 127 80 60
10.422336 39.070366 -4.331873 127 80 60
2.847297 5.278999 0.766945 134 83 66
4.119155 10.057571 0.026930 134 83 66
6.662871 19.614716 -1.453100 134 83 66
11.750303 38.729004 -4.413161 134 83 66
3.015870 5.229421 0.757436 140 89 70
4.456300 9.958414 0.007912 140 89 70
7.337161 19.416401 -1.491136 140 89 70
13.098883 38.332375 -4.489232 140 89 70
3.186414 5.172660 0.748673 144 92 70
4.797388 9.844893 -0.009615 144 92 70
8.019337 19.189358 -1.526190 144 92 70
14.463234 37.878288 -4.559341 144 92 70
3.358258 5.108515 0.740744 149 98 78
5.141076 9.716602 -0.025473 149 98 78
8.706712 18.932777 -1.557906 149 98 78
15.837984 37.365128 -4.622772 149 98 78
3.530669 5.036858 0.733736 146 96 79
5.485898 9.573288 -0.039489 146 96 79
9.396358 18.646149 -1.585939 146 96 79
17.217276 36.791870 -4.678838 146 96 79
3.702868 4.957651 0.727727 157 111 95
5.830297 9.414875 -0.051507 157 111 95
10.085154 18.329323 -1.609975 157 111 95
18.594868 36.158218 -4.726911 157 111 95
3.874042 4.870954 0.722786 166 123 107
6.172644 9.241480 -0.061388 166 123 107
10.769848 17.982533 -1.629737 166 123 107
19.964256 35.464638 -4.766434 166 123 107
4.043360 4.776926 0.718971 129 134 130
6.511281 9.053425 -0.069017 129 134 130
11.447122 17.606422 -1.644995 129 134 130
21.318804 34.712418 -4.796951 129 134 130
4.209994 4.675833 0.716327 104 106 105
6.844549 8.851239 -0.074306 104 106 105
12.113659 17.202051 -1.655573 104 106 105
22.651878 33.903675 -4.818106 104 106 105
4.373138 4.568042 0.714882 113 117 116
7.170837 8.635657 -0.077197 113 117 116
12.766235 16.770887 -1.661355 113 117 116
23.957031 33.041348 -4.829670 113 117 116
4.532025 4.454013 0.714648 110 116 114
7.488610 8.407598 -0.077665 110 116 114
13.401781 16.314770 -1.662291 110 116 114
25.228123 32.129112 -4.831542 110 116 114
4.685945 4.334294 0.715621 109 115 113
7.796451 8.168161 -0.075718 109 115 113
14.017462 15.835896 -1.658397 109 115 113
26.459484 31.171364 -4.823754 109 115 113
4.834263 4.209506 0.717782 107 113 111
8.093087 7.918584 -0.071397 107 113 111
14.610735 15.336740 -1.649754 107 113 111
27.646030 30.173054 -4.806468 107 113 111
4.976432 4.080324 0.721094 106 112 110
8.377425 7.660221 -0.064773 106 112 110
15.179411 14.820015 -1.636506 106 112 110
28.783382 29.139603 -4.779973 106 112 110
5.111998 3.947467 0.725507 106 112 112
8.648556 7.394506 -0.055947 106 112 112
15.721673 14.288585 -1.618855 106 112 112
29.867907 28.076742 -4.744670 106 112 112
5.240609 3.811674 0.730958 105 111 107
8.905779 7.122920 -0.045045 105 111 107
16.236118 13.745413 -1.597049 105 111 107
30.896797 26.990398 -4.701059 105 111 107
5.362016 3.673687 0.737375 106 110 111
9.148592 6.846948 -0.032211 106 110 111
16.721745 13.193468 -1.571382 106 110 111
31.868050 25.886509 -4.649724 106 110 111
5.476068 3.534240 0.744677 105 111 111
9.376697 6.568053 -0.017607 105 111 111
17.177954 12.635679 -1.542175 105 111 111
32.780468 24.770931 -4.591310 105 111 111
5.582712 3.394037 0.752777 102 108 108
9.589984 6.287647 -0.001407 102 108 108
17.604528 12.074866 -1.509773 102 108 108
33.633617 23.649305 -4.526507 102 108 108
5.681979 3.253743 0.761586 100 106 104
9.788519 6.007059 0.016213 100 106 104
18.001598 11.513691 -1.474535 100 106 104
34.427757 22.526955 -4.456031 100 106 104
5.773981 3.113976 0.771015 99 105 105
9.972522 5.727525 0.035069 99 105 105
18.369604 10.954622 -1.436822 99 105 105
35.163769 21.408817 -4.380605 99 105 105
5.858892 2.975296 0.780972 92 102 101
10.142344 5.450165 0.054984 92 102 101
18.709249 10.399903 -1.396992 92 102 101
35.843060 20.299379 -4.300944 92 102 101
5.936945 2.838205 0.791372 93 99 99
10.298450 5.175983 0.075784 93 99 99
19.021461 9.851539 -1.355392 93 99 99
36.467484 19.202650 -4.217744 93 99 99
6.008415 2.703140 0.802132 90 96 96
10.441390 4.905854 0.097304 90 96 96
19.307341 9.311280 -1.312353 90 96 96
37.039242 18.122133 -4.131667 90 96 96
6.073611 2.570478 0.813173 87 93 93
10.571782 4.640530 0.119386 87 93 93
19.568125 8.780632 -1.268189 87 93 93
37.560810 17.060837 -4.043338 87 93 93
1.763963 5.428898 0.685602 121 78 61
1.952487 10.357369 -0.135757 121 78 61
2.329534 20.214312 -1.778475 121 78 61
3.083627 39.928196 -5.063910 121 78 61
1.905145 5.418959 0.670694 118 77 59
2.234850 10.337490 -0.165573 118 77 59
2.894260 20.174553 -1.838106 118 77 59
4.213080 39.848679 -5.183173 118 77 59
2.050900 5.404485 0.655986 121 76 55
2.526361 10.308542 -0.194988 121 76 55
3.477283 20.116657 -1.896937 121 76 55
5.379127 39.732887 -5.300834 121 76 55
2.201057 5.385066 0.641565 127 81 59
2.826675 10.269705 -0.223830 127 81 59
4.077911 20.038982 -1.954619 127 81 59
6.580382 39.577538 -5.416199 127 81 59
2.355380 5.360292 0.627526 131 84 64
3.135321 10.220158 -0.251909 131 84 64
4.695203 19.939888 -2.010778 131 84 64
7.814966 39.379349 -5.528516 131 84 64
2.513565 5.329763 0.613968 133 86 68
3.451691 10.159099 -0.279025 133 86 68
5.327943 19.817770 -2.065010 133 86 68
9.080446 39.135113 -5.636981 133 86 68
2.675238 5.293096 0.600997 138 93 74
3.775036 10.085765 -0.304967 138 93 74
5.974632 19.671103 -2.116894 138 93 74
10.373824 38.841778 -5.740748 138 93 74
2.839948 5.249939 0.588723 103 61 49
4.104457 9.999451 -0.329514 103 61 49
6.633475 19.498474 -2.165988 103 61 49
11.691510 38.496521 -5.838937 103 61 49
3.007175 5.199979 0.577258 148 103 84
4.438911 9.899530 -0.352444 148 103 84
7.302382 19.298634 -2.211849 148 103 84
13.029325 38.096840 -5.930658 148 103 84
3.176325 5.142959 0.566713 155 110 91
4.777210 9.785491 -0.373534 155 110 91
7.978981 19.070555 -2.254028 155 110 91
14.382524 37.640682 -6.015017 155 110 91
3.346740 5.078685 0.557197 142 95 79
5.118040 9.656943 -0.392567 142 95 79
8.660641 18.813459 -2.292094 142 95 79
15.745842 37.126492 -6.091148 142 95 79
3.517702 5.007041 0.548812 159 115 102
5.459965 9.513655 -0.409337 159 115 102
9.344491 18.526882 -2.325635 159 115 102
17.113543 36.553337 -6.158230 159 115 102
3.688452 4.927996 0.541652 136 97 87
5.801464 9.355564 -0.423657 136 97 87
10.027488 18.210701 -2.354275 136 97 87
18.479536 35.920975 -6.215510 136 97 87
3.858192 4.841612 0.535800 137 136 131
6.140945 9.182796 -0.435361 137 136 131
10.706451 17.865166 -2.377682 137 136 131
19.837463 35.229904 -6.262324 137 136 131
4.026115 4.748053 0.531324 140 142 141
6.476791 8.995678 -0.444311 140 142 141
11.378143 17.490929 -2.395583 140 142 141
21.180847 34.481430 -6.298127 140 142 141
4.191411 4.647579 0.528278 121 123 120
6.807384 8.794731 -0.450405 121 123 120
12.039328 17.089035 -2.407770 121 123 120
22.503216 33.677643 -6.322501 121 123 120
4.353293 4.540552 0.526694 113 114 109
7.131147 8.580676 -0.453573 113 114 109
12.686855 16.660925 -2.414107 113 114 109
23.798271 32.821423 -6.335175 113 114 109
4.511011 4.427422 0.526586 118 122 121
7.446583 8.354416 -0.453788 118 122 121
13.317726 16.208405 -2.414536 118 122 121
25.060013 31.916382 -6.336033 118 122 121
4.663872 4.308724 0.527950 111 115 114
7.752305 8.117022 -0.451060 111 115 114
13.929170 15.733616 -2.409081 111 115 114
26.282900 30.966805 -6.325121 111 115 114
4.811253 4.185063 0.530760 108 114 114
8.047066 7.869700 -0.445440 108 114 114
14.518692 15.238973 -2.397840 108 114 114
27.461945 29.977518 -6.302640 108 114 114
4.952616 4.057100 0.534972 106 112 112
8.329792 7.613773 -0.437016 106 112 112
15.084145 14.727119 -2.380992 106 112 112
28.592850 28.953812 -6.268944 106 112 112
5.087513 3.925532 0.540526 101 107 107
8.599587 7.350636 -0.425909 101 107 107
15.623735 14.200845 -2.358778 101 107 107
29.672031 27.901262 -6.224517 101 107 107
5.215597 3.791079 0.547344 104 110 110
8.855755 7.081730 -0.412272 104 110 110
16.136070 13.663033 -2.331505 104 110 110
30.696703 26.825638 -6.169971 104 110 110
5.336617 3.654466 0.555339 103 109 109
9.097795 6.808505 -0.396282 103 109 109
16.620152 13.116583 -2.299525 103 109 109
31.664864 25.732738 -6.106009 103 109 109
5.450420 3.516407 0.564414 103 109 109
9.325401 6.532386 -0.378133 103 109 109
17.075363 12.564344 -2.263227 103 109 109
32.575287 24.628262 -6.033414 103 109 109
5.556946 3.377588 0.574462 100 106 106
9.538452 6.254748 -0.358036 100 106 106
17.501465 12.009069 -2.223032 100 106 106
33.427490 23.517712 -5.953023 100 106 106
5.656219 3.238661 0.585378 96 102 102
9.736998 5.976895 -0.336205 96 102 102
17.898556 11.453363 -2.179371 96 102 102
34.221672 22.406300 -5.865702 96 102 102
5.748338 3.100230 0.597049 96 102 102
9.921237 5.700032 -0.312862 96 102 102
18.267035 10.899637 -2.132684 96 102 102
34.958630 21.298847 -5.772328 96 102 102
5.833471 2.962844 0.609369 90 99 98
10.091502 5.425261 -0.288222 90 99 98
18.607565 10.350094 -2.083405 90 99 98
35.639690 20.199760 -5.673769 90 99 98
5.911836 2.826995 0.622231 89 95 95
10.248233 5.153563 -0.262497 89 95 95
18.921026 9.806699 -2.031955 89 95 95
36.266613 19.112970 -5.570871 89 95 95
5.983698 2.693115 0.635536 96 105 104
10.391956 4.885802 -0.235889 96 105 104
19.208473 9.271177 -1.978739 96 105 104
36.841507 18.041927 -5.464438 96 105 104
6.049353 2.561574 0.649187 86 95 94
10.523266 4.622720 -0.208587 86 95 94
19.471092 8.745012 -1.924135 86 95 94
37.366745 16.989597 -5.355230 86 95 94
1.763810 5.399867 0.527163 120 79 61
1.952181 10.299307 -0.452635 120 79 61
2.328923 20.098186 -2.412230 120 79 61
3.082406 39.695946 -6.331420 120 79 61
1.904028 5.388942 0.509737 121 83 64
2.232616 10.277456 -0.487486 121 83 64
2.889793 20.054485 -2.481932 121 83 64
4.204146 39.608543 -6.470824 121 83 64
2.048725 5.373517 0.492563 129 86 67
2.522010 10.246606 -0.521834 129 86 67
3.468581 19.992785 -2.550629 129 86 67
5.361722 39.485142 -6.608219 129 86 67
2.197727 5.353194 0.475741 135 92 75
2.820015 10.205961 -0.555478 135 92 75
4.064591 19.911495 -2.617916 135 92 75
6.553743 39.322563 -6.742793 135 92 75
2.350801 5.327579 0.459382 140 97 80
3.126162 10.154731 -0.588196 140 97 80
4.676885 19.809034 -2.683353 140 97 80
7.778330 39.117641 -6.873666 140 97 80
2.507644 5.296286 0.443602 140 97 80
3.439849 10.092144 -0.619756 140 97 80
5.304258 19.683861 -2.746473 140 97 80
9.033077 38.867294 -6.999906 140 97 80
2.667888 5.258950 0.428524 146 103 86
3.760336 10.017472 -0.649912 146 103 86
5.945232 19.534517 -2.806784 146 103 86
10.315024 38.568607 -7.120528 146 103 86
2.831090 5.215232 0.414276 144 101 84
4.086740 9.930037 -0.678409 144 101 84
6.598042 19.359646 -2.863778 144 101 84
11.620644 38.218864 -7.234516 144 101 84
2.996740 5.164838 0.400985 151 108 91
4.418040 9.829248 -0.704990 151 108 91
7.260641 19.158070 -2.916940 151 108 91
12.945842 37.815712 -7.340840 151 108 91
3.164257 5.107524 0.388782 153 114 97
4.753074 9.714621 -0.729397 153 114 97
7.930708 18.928814 -2.965755 153 114 97
14.285977 37.357201 -7.438470 153 114 97
3.332998 5.043109 0.377789 100 70 60
5.090557 9.585792 -0.751383 100 70 60
8.605674 18.671156 -3.009726 100 70 60
15.635908 36.841885 -7.526412 100 70 60
3.502266 4.971489 0.368125 122 121 116
5.429093 9.442551 -0.770711 122 121 116
9.282746 18.384674 -3.048382 122 121 116
16.990053 36.268921 -7.603724 122 121 116
3.671319 4.892640 0.359898 96 96 96
5.767199 9.284853 -0.787165 96 96 96
9.958958 18.069279 -3.081290 96 96 96
18.342476 35.638130 -7.669541 96 96 96
3.839385 4.806631 0.353202 123 124 119
6.103330 9.112835 -0.800557 123 124 119
10.631221 17.725243 -3.108074 123 124 119
19.687002 34.950058 -7.723108 123 124 119
4.005675 4.713624 0.348115 162 166 165
6.435912 8.926822 -0.810730 162 166 165
11.296384 17.353216 -3.128419 162 166 165
21.017328 34.206005 -7.763799 162 166 165
4.169406 4.613878 0.344698 181 186 182
6.763372 8.727329 -0.817565 181 186 182
11.951305 16.954231 -3.142091 181 186 182
22.327171 33.408035 -7.791142 181 186 182
4.329810 4.507747 0.342986 112 118 118
7.084180 8.515066 -0.820988 112 118 118
12.592920 16.529705 -3.148936 112 118 118
23.610401 32.558983 -7.804832 112 118 118
4.486158 4.395669 0.342998 111 117 115
7.396877 8.290911 -0.820965 111 117 115
13.218314 16.081394 -3.148890 111 117 115
24.861189 31.662363 -7.804740 111 117 115
4.637775 4.278166 0.344725 107 113 111
7.700111 8.055904 -0.817510 107 113 111
13.824783 15.611382 -3.141981 107 113 111
26.074127 30.722336 -7.790922 107 113 111
4.784054 4.155824 0.348138 106 112 110
7.992668 7.811221 -0.810684 106 112 110
14.409897 15.122014 -3.128328 106 112 110
27.244354 29.743601 -7.763617 106 112 110
4.924467 4.029284 0.353186 107 113 111
8.273494 7.558140 -0.800587 107 113 111
14.971548 14.615852 -3.108135 107 113 111
28.367657 28.731277 -7.723231 107 113 111
5.058573 3.899221 0.359800 108 114 112
8.541707 7.298015 -0.787361 108 114 112
15.507975 14.095602 -3.081683 108 114 112
29.440510 27.690777 -7.670326 108 114 112
5.186030 3.766335 0.367890 99 105 105
8.796621 7.032243 -0.771181 99 105 105
16.017803 13.564058 -3.049323 99 105 105
30.460167 26.627689 -7.605607 99 105 105
5.306585 3.631328 0.377355 98 104 104
9.037731 6.762228 -0.752251 98 104 104
16.500023 13.024029 -3.011463 98 104 104
31.424608 25.547630 -7.529887 98 104 104
5.420084 3.494892 0.388081 96 102 102
9.264729 6.489357 -0.730798 96 102 102
16.954018 12.478286 -2.968555 96 102 102
32.332596 24.456144 -7.444071 96 102 102
5.526458 3.357695 0.399950 102 108 108
9.477477 6.214963 -0.707060 102 108 108
17.379515 11.929499 -2.921081 102 108 108
33.183590 23.358570 -7.349123 102 108 108
5.625723 3.220371 0.412835 94 98 99
9.676006 5.940314 -0.681291 94 98 99
17.776573 11.380201 -2.869542 94 98 99
33.977707 22.259975 -7.246045 94 98 99
5.717968 3.083507 0.426609 91 97 97
9.860497 5.666587 -0.653743 91 97 97
18.145554 10.832747 -2.814446 91 97 97
34.715668 21.165066 -7.135852 91 97 97
5.803345 2.947641 0.441146 87 93 93
10.031251 5.394854 -0.624668 87 93 93
18.487062 10.289281 -2.756297 87 93 93
35.398685 20.078135 -7.019554 87 93 93
5.882062 2.813253 0.456324 84 93 92
10.188685 5.126079 -0.594312 84 93 92
18.801931 9.751730 -2.695584 84 93 92
36.028423 19.003033 -6.898128 84 93 92
5.954370 2.680767 0.472026 84 90 90
10.333300 4.861107 -0.562907 84 90 90
19.091160 9.221786 -2.632775 84 90 90
36.606880 17.943146 -6.772511 84 90 90
6.020551 2.550548 0.488142 83 92 91
10.465662 4.600669 -0.530677 83 92 91
19.355885 8.700911 -2.568315 83 92 91
37.136330 16.901394 -6.643590 83 92 91
1.763469 5.366257 0.371906 111 80 62
1.951497 10.232086 -0.763149 111 80 62
2.327555 19.963745 -3.033259 111 80 62
3.079671 39.427063 -7.573478 111 80 62
1.902582 5.354223 0.352124 126 89 70
2.229725 10.208018 -0.802713 126 89 70
2.884011 19.915609 -3.112387 126 89 70
4.192583 39.330791 -7.731734 126 89 70
2.046069 5.337730 0.332646 131 93 74
2.516699 10.175033 -0.841668 131 93 74
3.457959 19.849638 -3.190296 131 93 74
5.340478 39.198849 -7.887553 131 93 74
2.193754 5.316396 0.313589 134 95 78
2.812069 10.132364 -0.879783 134 95 78
4.048699 19.764301 -3.266527 134 95 78
6.521958 39.028175 -8.040014 134 95 78
2.345404 5.289842 0.295074 138 99 82
3.115368 10.079256 -0.916812 138 99 82
4.655297 19.658085 -3.340584 138 99 82
7.735155 38.815742 -8.188129 138 99 82
2.500721 5.257699 0.277235 142 104 85
3.426001 10.014970 -0.952490 142 104 85
5.276563 19.529512 -3.411941 142 104 85
8.977687 38.558598 -8.330841 142 104 85
2.659340 5.219619 0.260209 134 128 124
3.743240 9.938810 -0.986542 134 128 124
5.911040 19.377193 -3.480044 134 128 124
10.246641 38.253960 -8.467049 134 128 124
2.820830 5.175284 0.244139 86 87 81
4.066220 9.850141 -1.018682 86 87 81
6.557001 19.199854 -3.544325 86 87 81
11.538562 37.899281 -8.595612 86 87 81
2.984690 5.124414 0.229169 118 117 112
4.393941 9.748402 -1.048623 118 117 112
7.212442 18.996376 -3.604207 118 117 112
12.849445 37.492325 -8.715374 118 117 112
3.150356 5.066784 0.215441 114 116 111
4.725273 9.633141 -1.076079 114 116 111
7.875106 18.765854 -3.659118 114 116 111
14.174773 37.031281 -8.825195 114 116 111
3.317203 5.002226 0.203094 119 120 115
5.058966 9.504025 -1.100771 119 120 115
8.542492 18.507624 -3.708503 119 120 115
15.509544 36.514820 -8.923967 119 120 115
3.484552 4.930647 0.192261 114 118 115
5.393665 9.360868 -1.122439 114 118 115
9.211891 18.221308 -3.751839 114 118 115
16.848343 35.942188 -9.010637 114 118 115
3.651686 4.852035 0.183059 116 120 119
5.727932 9.203642 -1.140843 116 120 119
9.880425 17.906857 -3.788646 116 120 119
18.185411 35.313286 -9.084253 116 120 119
3.817856 4.766459 0.175593 110 114 113
6.060272 9.032492 -1.155774 110 114 113
10.545104 17.564556 -3.818508 110 114 113
19.514769 34.628685 -9.143976 110 114 113
3.982300 4.674087 0.169950 104 110 110
6.389160 8.847746 -1.167060 104 110 110
11.202881 17.195065 -3.841080 104 110 110
20.830322 33.889702 -9.189121 104 110 110
4.144257 4.575170 0.166195 107 113 111
6.713074 8.649913 -1.174570 107 113 111
11.850709 16.799398 -3.856101 107 113 111
22.125978 33.098370 -9.219162 107 113 111
4.302985 4.470055 0.164370 115 119 120
7.030531 8.439682 -1.178221 115 119 120
12.485622 16.378937 -3.863401 115 119 120
23.395805 32.257446 -9.233763 115 119 120
4.457779 4.359169 0.164492 194 200 200
7.340119 8.217912 -1.177977 194 200 200
13.104799 15.935396 -3.862915 194 200 200
24.634159 31.370365 -9.232790 194 200 200
4.607983 4.243017 0.166551 110 115 118
7.640526 7.985608 -1.173858 110 115 118
13.705613 15.470788 -3.854676 110 115 118
25.835787 30.441149 -9.216312 110 115 118
4.753006 4.122167 0.170516 104 110 110
7.930572 7.743906 -1.165927 104 110 110
14.285704 14.987384 -3.838815 104 110 110
26.995968 29.474340 -9.184591 104 110 110
4.892331 3.997233 0.176330 103 109 109
8.209223 7.494039 -1.154300 103 109 109
14.843006 14.487650 -3.815560 103 109 109
28.110573 28.474873 -9.138081 103 109 109
5.025531 3.868872 0.183914 107 113 113
8.475622 7.237316 -1.139132 107 113 113
15.375805 13.974205 -3.785225 107 113 113
29.176170 27.447983 -9.077412 107 113 113
5.152263 3.737756 0.193170 100 106 106
8.729086 6.975084 -1.120621 100 106 106
15.882732 13.449740 -3.748202 100 106 106
30.190025 26.399054 -9.003365 100 106 106
5.272276 3.604563 0.203984 94 103 102
8.969112 6.708698 -1.098993 94 103 102
16.362785 12.916969 -3.704946 94 103 102
31.150129 25.333511 -8.916851 94 103 102
5.385411 3.469962 0.216231 95 101 101
9.195382 6.439497 -1.074498 95 101 101
16.815325 12.378566 -3.655957 95 101 101
32.055210 24.256704 -8.818874 95 101 101
5.491593 3.334600 0.229776 97 106 105
9.407747 6.168774 -1.047408 97 106 105
17.240055 11.837120 -3.601777 97 106 105
32.904671 23.173813 -8.710514 97 106 105
5.590829 3.199091 0.244479 91 97 95
9.606219 5.897754 -1.018002 91 97 95
17.636999 11.295081 -3.542964 91 97 95
33.698559 22.089735 -8.592890 91 97 95
5.683195 3.064004 0.260198 84 93 92
9.790951 5.627580 -0.986565 84 93 92
18.006462 10.754733 -3.480090 84 93 92
34.437485 21.009039 -8.467140 84 93 92
5.768831 2.929862 0.276791 83 92 91
9.962222 5.359297 -0.953378 83 92 91
18.349005 10.218166 -3.413717 83 92 91
35.122570 19.935905 -8.334394 83 92 91
5.847928 2.797134 0.294122 81 90 89
10.120417 5.093842 -0.918717 81 90 89
18.665394 9.687256 -3.344394 81 90 89
35.755348 18.874084 -8.195749 81 90 89
5.920722 2.666235 0.312057 80 89 88
10.266006 4.832043 -0.882846 80 89 88
18.956572 9.163658 -3.272653 80 89 88
36.337704 17.826889 -8.052265 80 89 88
5.987482 2.537522 0.330473 77 86 85
10.399525 4.574617 -0.846014 77 86 85
19.223610 8.648808 -3.198989 77 86 85
36.871780 16.797188 -7.904939 77 86 85
1.762946 5.328376 0.220201 98 69 53
1.950453 10.156324 -1.066559 98 69 53
2.325467 19.812222 -3.640079 98 69 53
3.075495 39.124016 -8.787119 98 69 53
1.900828 5.315131 0.198238 127 91 75
2.226216 10.129834 -1.110485 127 91 75
2.876992 19.759241 -3.727931 127 91 75
4.178545 39.018055 -8.962822 127 91 75
2.042965 5.297474 0.176635 111 82 66
2.510491 10.094521 -1.153691 111 82 66
3.445542 19.688614 -3.814342 111 82 66
5.315644 38.876801 -9.135645 111 82 66
2.189183 5.275040 0.155519 101 74 53
2.802927 10.049652 -1.195922 101 74 53
4.030414 19.598877 -3.898804 101 74 53
6.485389 38.697327 -9.304567 101 74 53
2.339250 5.247468 0.135028 99 100 95
3.103060 9.994509 -1.236905 99 100 95
4.630681 19.488590 -3.980770 99 100 95
7.685922 38.476753 -9.468500 99 100 95
2.492871 5.214408 0.115305 108 109 103
3.410303 9.928389 -1.276351 108 109 103
5.245166 19.356350 -4.059662 108 109 103
8.914893 38.212273 -9.626286 108 109 103
2.649690 5.175531 0.096502 102 106 105
3.723940 9.850635 -1.313957 102 106 105
5.872441 19.200842 -4.134875 102 106 105
10.169443 37.901257 -9.776711 102 106 105
2.809283 5.130537 0.078774 103 107 97
4.043128 9.760647 -1.349413 103 107 97
6.510816 19.020866 -4.205787 103 107 97
11.446192 37.541306 -9.918533 103 107 97
2.971165 5.079166 0.062279 104 106 105
4.366890 9.657905 -1.382403 104 106 105
7.158340 18.815382 -4.271767 104 106 105
12.741241 37.130337 -10.050495 104 106 105
3.134785 5.021208 0.047171 111 115 114
4.694130 9.541989 -1.412618 111 115 114
7.812820 18.583551 -4.332196 111 115 114
14.050201 36.666676 -10.171352 111 115 114
3.299538 4.956513 0.033603 103 104 106
5.023637 9.412599 -1.439755 103 104 106
8.471834 18.324770 -4.386470 103 104 106
15.368230 36.149113 -10.279900 103 104 106
3.464770 4.885000 0.021715 102 111 108
5.354100 9.269572 -1.463531 102 111 108
9.132761 18.038717 -4.434021 102 111 108
16.690083 35.577007 -10.375004 102 111 108
3.629785 4.806664 0.011636 102 106 105
5.684130 9.112900 -1.483688 102 106 105
9.792821 17.725372 -4.474336 102 106 105
18.010202 34.950317 -10.455633 102 106 105
3.793862 4.721582 0.003480 101 107 105
6.012285 8.942737 -1.500000 101 107 105
10.449130 17.385046 -4.506961 101 107 105
19.322821 34.269665 -10.520884 101 107 105
3.956266 4.629920 -0.002661 100 104 103
6.337093 8.759412 -1.512283 100 104 103
11.098747 17.018396 -4.531526 100 104 103
20.622055 33.536366 -10.570013 100 104 103
4.116264 4.531927 -0.006717 101 107 107
6.657089 8.563426 -1.520395 101 107 107
11.738739 16.626425 -4.547750 101 107 107
21.902039 32.752422 -10.602461 101 107 107
4.273141 4.427939 -0.008644 100 106 106
6.970842 8.355452 -1.524248 100 106 106
12.366245 16.210476 -4.555456 100 106 106
23.157051 31.920523 -10.617872 100 106 106
4.426214 4.318372 -0.008422 105 111 111
7.276988 8.136316 -1.523804 105 111 111
12.978537 15.772206 -4.554569 105 111 111
24.381634 31.043985 -10.616098 105 111 111
4.574849 4.203711 -0.006061 107 109 108
7.574258 7.906993 -1.519083 107 109 108
13.573076 15.313560 -4.545126 107 109 108
25.570713 30.126692 -10.597214 107 109 108
4.718473 4.084502 -0.001599 196 205 202
7.861507 7.668576 -1.510158 196 205 202
14.147575 14.836725 -4.527276 196 205 202
26.719711 29.173023 -10.561512 196 205 202
4.856586 3.961338 0.004905 194 206 204
8.137733 7.422249 -1.497150 194 206 204
14.700027 14.344070 -4.501261 194 206 204
27.824615 28.187714 -10.509483 194 206 204
4.988767 3.834849 0.013364 104 108 107
8.402094 7.169271 -1.480232 104 108 107
15.228747 13.838114 -4.467424 104 108 107
28.882055 27.175800 -10.441809 104 108 107
5.114678 3.705681 0.023673 102 108 108
8.653916 6.910934 -1.459614 102 108 108
15.732393 13.321442 -4.426189 102 108 108
29.889347 26.142456 -10.359339 102 108 108
5.234071 3.574486 0.035708 95 101 101
8.892702 6.648544 -1.435544 95 101 101
16.209965 12.796660 -4.378048 95 101 101
30.844488 25.092894 -10.263058 95 101 101
5.346781 3.441907 0.049333 91 97 95
9.118122 6.383388 -1.408294 91 97 95
16.660805 12.266348 -4.323549 91 97 95
31.746170 24.032269 -10.154058 91 97 95
5.452728 3.308569 0.064401 87 96 95
9.330016 6.116711 -1.378158 87 96 95
17.084593 11.732994 -4.263277 87 96 95
32.593746 22.965561 -10.033514 87 96 95
5.551906 3.175061 0.080760 89 98 97
9.528372 5.849695 -1.345440 89 98 97
17.481304 11.198963 -4.197841 89 98 97
33.387169 21.897499 -9.902643 89 98 97
5.644380 3.041937 0.098254 88 94 94
9.713320 5.583447 -1.310452 88 94 94
17.851200 10.666466 -4.127865 88 94 94
34.126961 20.832504 -9.762690 88 94 94
5.730274 2.909702 0.116730 81 87 87
9.885109 5.318976 -1.273501 81 87 87
18.194778 10.137525 -4.053963 81 87 87
34.814117 19.774622 -9.614885 81 87 87
5.809766 2.778812 0.136035 77 83 82
10.044093 5.057198 -1.234890 77 83 82
18.512747 9.613968 -3.976739 77 83 82
35.450054 18.727509 -9.460440 77 83 82
5.883075 2.649672 0.156027 79 88 87
10.190711 4.798917 -1.194907 79 88 87
18.805983 9.097406 -3.896775 79 88 87
36.036526 17.694386 -9.300510 79 88 87
5.950453 2.522631 0.176566 77 86 83
10.325466 4.544835 -1.153829 77 86 83
19.075493 8.589243 -3.814618 77 86 83
36.575546 16.678059 -9.136196 77 86 83
