ply
format ascii 1.0
element vertex 2304
property float x
property float y
property float z
property uchar red
property uchar green
property uchar blue
end_header
-2.558539 3.466488 3.072910 82 102 101
-6.273572 6.452630 4.583369 82 102 101
-13.703638 12.424913 7.604286 82 102 101
-28.563770 24.369480 13.646120 82 102 101
-2.464833 3.567392 3.097423 74 87 93
-6.086161 6.654437 4.632395 74 87 93
-13.328815 12.828527 7.702338 74 87 93
-27.814125 25.176708 13.842224 74 87 93
-2.365084 3.669064 3.121478 113 129 128
-5.886663 6.857782 4.680505 113 129 128
-12.929820 13.235217 7.798558 113 129 128
-27.016134 25.990088 14.034664 113 129 128
-2.259110 3.771155 3.144929 69 81 79
-5.674714 7.061963 4.727406 69 81 79
-12.505921 13.643579 7.892360 69 81 79
-26.168337 26.806812 14.222267 69 81 79
-2.146763 3.873271 3.167617 68 77 72
-5.450020 7.266196 4.772783 68 77 72
-12.056535 14.052046 7.983114 68 77 72
-25.269564 27.623745 14.403776 68 77 72
-2.027945 3.974980 3.189378 80 95 92
-5.212384 7.469613 4.816304 80 95 92
-11.581263 14.458879 8.070156 80 95 92
-24.319019 28.437412 14.577862 80 95 92
-1.902611 4.075808 3.210037 137 160 166
-4.961715 7.671268 4.857623 137 160 166
-11.079925 14.862190 8.152794 137 160 166
-23.316343 29.244034 14.743135 137 160 166
-1.770776 4.175250 3.229418 89 107 109
-4.698047 7.870154 4.896384 89 107 109
-10.552588 15.259961 8.230316 89 107 109
-22.261669 30.039576 14.898180 89 107 109
-1.632529 4.272774 3.247341 60 77 69
-4.421552 8.065201 4.932230 60 77 69
-9.999598 15.650054 8.302008 60 77 69
-21.155689 30.819761 15.041565 60 77 69
-1.488030 4.367826 3.263629 122 136 136
-4.132554 8.255304 4.964807 122 136 136
-9.421602 16.030262 8.367161 122 136 136
-19.999699 31.580177 15.171871 122 136 136
-1.337523 4.459842 3.278112 50 58 61
-3.831541 8.439338 4.993773 50 58 61
-8.819576 16.398329 8.425095 50 58 61
-18.795647 32.316311 15.287737 50 58 61
-1.181337 4.548263 3.290631 59 73 76
-3.519168 8.616179 5.018809 59 73 76
-8.194830 16.752012 8.475166 59 73 76
-17.546154 33.023678 15.387882 59 73 76
-1.019881 4.632539 3.301039 58 69 75
-3.196257 8.784732 5.039626 58 69 75
-7.549007 17.089117 8.516800 58 69 75
-16.254509 33.697887 15.471149 58 69 75
-0.853648 4.712150 3.309211 143 158 163
-2.863791 8.943953 5.055971 143 158 163
-6.884076 17.407558 8.549490 143 158 163
-14.924646 34.334770 15.536528 143 158 163
-0.683207 4.786611 3.315045 155 169 170
-2.522909 9.092875 5.067638 155 169 170
-6.202312 17.705404 8.572825 155 169 170
-13.561117 34.930462 15.583199 155 169 170
-0.509193 4.855494 3.318464 118 138 149
-2.174880 9.230640 5.074477 118 138 149
-5.506254 17.980934 8.586502 118 138 149
-12.169002 35.481522 15.610552 118 138 149
-0.332298 4.918427 3.319422 70 85 82
-1.821090 9.356507 5.076391 70 85 82
-4.798675 18.232668 8.590331 70 85 82
-10.753843 35.984989 15.618210 70 85 82
-0.153257 4.975116 3.317900 87 107 96
-1.463008 9.469885 5.073349 87 107 96
-4.082510 18.459423 8.584246 87 107 96
-9.321514 36.438499 15.606041 87 107 96
0.027167 5.025343 3.313916 76 93 83
-1.102160 9.570340 5.065381 76 93 83
-3.360813 18.660334 8.568310 76 93 83
-7.878120 36.840321 15.574167 76 93 83
0.208200 5.068974 3.307514 124 138 138
-0.740094 9.657601 5.052577 124 138 138
-2.636681 18.834856 8.542702 124 138 138
-6.429857 37.189365 15.522951 124 138 138
0.389073 5.105957 3.298770 67 84 78
-0.378348 9.731566 5.035088 67 84 78
-1.913190 18.982786 8.507724 67 84 78
-4.982874 37.485226 15.452995 67 84 78
0.569036 5.136323 3.287785 81 97 86
-0.018421 9.792300 5.013118 81 97 86
-1.193337 19.104254 8.463785 81 97 86
-3.543168 37.728161 15.365118 81 97 86
0.747376 5.160184 3.274685 152 176 186
0.338258 9.840021 4.986917 152 176 186
-0.479977 19.199696 8.411384 152 176 186
-2.116449 37.919044 15.260315 152 176 186
0.923426 5.177720 3.259615 244 253 255
0.690359 9.875093 4.956778 244 253 255
0.224223 19.269840 8.351103 244 253 255
-0.708048 38.059334 15.139755 244 253 255
1.096577 5.189175 3.242734 163 185 199
1.036661 9.898003 4.923017 163 185 199
0.916827 19.315659 8.283583 163 185 199
0.677161 38.150970 15.004713 163 185 199
1.266286 5.194844 3.224215 164 191 202
1.376078 9.909342 4.885979 164 191 202
1.595662 19.338337 8.209505 164 191 202
2.034830 38.196327 14.856560 164 191 202
1.432079 5.195068 3.204236 252 252 252
1.707664 9.909790 4.846019 252 252 252
2.258833 19.339233 8.129587 252 252 252
3.361172 38.198120 14.696722 252 252 252
1.593555 5.190217 3.182975 255 255 255
2.030616 9.900088 4.803497 255 255 255
2.904737 19.319830 8.044542 255 255 255
4.652981 38.159313 14.526634 255 255 255
1.750385 5.180684 3.160612 255 255 255
2.344277 9.881021 4.758772 255 255 255
3.532059 19.281696 7.955093 255 255 255
5.907624 38.083046 14.347734 255 255 255
1.902313 5.166873 3.137323 255 255 255
2.648131 9.853400 4.712194 255 255 255
4.139769 19.226454 7.861938 255 255 255
7.123043 37.972561 14.161423 255 255 255
2.049146 5.149192 3.113276 106 122 122
2.941798 9.818038 4.664099 106 122 122
4.727102 19.155729 7.765746 106 122 122
8.297709 37.831112 13.969040 106 122 122
2.190756 5.128044 3.088628 99 121 119
3.225019 9.775742 4.614803 99 121 119
5.293543 19.071136 7.667155 99 121 119
9.430593 37.661926 13.771858 99 121 119
-2.592464 3.495574 2.923963 142 164 178
-6.341423 6.510801 4.285475 142 164 178
-13.839340 12.541256 7.008497 142 164 178
-28.835175 24.602165 12.454542 142 164 178
-2.499033 3.598320 2.946416 65 78 71
-6.154560 6.716294 4.330380 65 78 71
-13.465614 12.952242 7.098309 65 78 71
-28.087723 25.424137 12.634167 65 78 71
-2.399446 3.701901 2.968467 68 83 78
-5.955385 6.923456 4.374482 68 83 78
-13.067265 13.366565 7.186513 68 83 78
-27.291023 26.252783 12.810574 68 83 78
-2.293505 3.805955 2.989981 84 96 92
-5.743504 7.131564 4.417509 84 96 92
-12.643501 13.782782 7.272567 84 96 92
-26.443497 27.085217 12.982681 84 96 92
-2.181050 3.910078 3.010810 83 99 98
-5.518594 7.339808 4.459169 83 99 98
-12.193683 14.199270 7.355886 83 99 98
-25.543859 27.918194 13.149321 83 99 98
-2.061971 4.013820 3.030803 79 94 89
-5.280436 7.547293 4.499154 79 94 89
-11.717365 14.614239 7.435855 79 94 89
-24.591225 28.748131 13.309259 79 94 89
-1.936208 4.116692 3.049796 73 90 84
-5.028911 7.753036 4.537140 73 90 84
-11.214315 15.025726 7.511828 73 90 84
-23.585125 29.571106 13.461205 73 90 84
-1.803769 4.218167 3.067624 89 108 102
-4.764031 7.955988 4.572796 89 108 102
-10.684557 15.431629 7.583140 89 108 102
-22.525608 30.382912 13.603828 89 108 102
-1.664732 4.317691 3.084119 73 90 84
-4.485958 8.155035 4.605785 73 90 84
-10.128410 15.829724 7.649119 73 90 84
-21.413315 31.179102 13.735786 73 90 84
-1.519256 4.414686 3.099115 86 98 94
-4.195006 8.349026 4.635778 86 98 94
-9.546506 16.217705 7.709105 86 98 94
-20.249506 31.955061 13.855759 86 98 94
-1.367583 4.508564 3.112453 143 154 160
-3.891661 8.536780 4.662454 143 154 160
-8.939816 16.593214 7.762455 143 154 160
-19.036125 32.706081 13.962460 143 154 160
-1.210044 4.598736 3.123981 56 67 69
-3.576582 8.717125 4.685510 56 67 69
-8.309658 16.953903 7.808568 56 67 69
-17.775810 33.427460 14.054684 56 67 69
-1.047056 4.684627 3.133562 158 173 178
-3.250607 8.888907 4.704673 158 173 178
-7.657708 17.297468 7.846894 158 173 178
-16.471910 34.114590 14.131336 158 173 178
-0.879125 4.765692 3.141079 95 112 102
-2.914744 9.051038 4.719707 95 112 102
-6.985983 17.621729 7.876961 95 112 102
-15.128460 34.763111 14.191469 95 112 102
-0.706835 4.841425 3.146434 141 155 155
-2.570164 9.202503 4.730415 141 155 155
-6.296822 17.924660 7.898379 141 155 155
-13.750137 35.368973 14.234306 141 155 155
-0.530841 4.911374 3.149554 71 88 78
-2.218177 9.342402 4.736657 71 88 78
-5.592847 18.204456 7.910861 71 88 78
-12.342189 35.928566 14.259272 71 88 78
-0.351860 4.975155 3.150396 120 135 132
-1.860214 9.469963 4.738341 120 135 132
-4.876923 18.459579 7.914230 120 135 132
-10.910339 36.438812 14.266008 120 135 132
-0.170652 5.032459 3.148944 63 75 75
-1.497799 9.584571 4.735437 63 75 75
-4.152092 18.688795 7.908422 63 75 75
-9.460677 36.897243 14.254393 63 75 75
0.011991 5.083061 3.145213 78 91 82
-1.132512 9.685775 4.727974 78 91 82
-3.421518 18.891203 7.893497 78 91 82
-7.999530 37.302059 14.224543 78 91 82
0.195267 5.126825 3.139246 55 71 61
-0.765960 9.773304 4.716040 55 71 61
-2.688413 19.066261 7.869628 55 71 61
-6.533320 37.652176 14.176805 55 71 61
0.378379 5.163704 3.131114 92 111 105
-0.399737 9.847061 4.699776 92 111 105
-1.955967 19.213776 7.837101 92 111 105
-5.068429 37.947205 14.111750 92 111 105
0.560549 5.193737 3.120914 151 168 176
-0.035396 9.907127 4.679377 151 168 176
-1.227287 19.333908 7.796301 151 168 176
-3.611067 38.187469 14.030151 151 168 176
0.741039 5.217045 3.108765 193 216 232
0.325584 9.953743 4.655078 193 216 232
-0.505327 19.427139 7.747705 193 216 232
-2.167148 38.373932 13.932957 193 216 232
0.919160 5.233827 3.094803 234 252 254
0.681826 9.987307 4.627155 234 252 254
0.207157 19.494267 7.691858 234 252 254
-0.742179 38.508186 13.821264 234 252 254
1.094284 5.244343 3.079180 134 148 159
1.032073 10.008340 4.595909 134 148 159
0.907653 19.536333 7.629366 134 148 159
0.658812 38.592319 13.696280 134 148 159
1.265852 5.248913 3.062057 155 179 191
1.375209 10.017479 4.561663 155 179 191
1.593924 19.554611 7.560874 155 179 191
2.031354 38.628876 13.559296 155 179 191
1.433378 5.247897 3.043601 254 254 252
1.710262 10.015447 4.524751 254 254 252
2.264030 19.550547 7.487050 254 254 252
3.371567 38.620747 13.411648 254 254 252
1.596455 5.241688 3.023981 252 253 253
2.036416 10.003029 4.485510 252 253 253
2.916337 19.525711 7.408569 252 253 253
4.676179 38.571075 13.254686 252 253 253
1.754747 5.230700 3.003364 246 252 253
2.353001 9.981054 4.444277 246 252 253
3.549507 19.481762 7.326102 246 252 253
5.942521 38.483177 13.089752 246 252 253
1.907997 5.215362 2.981914 96 118 116
2.659500 9.950377 4.401376 96 118 116
4.162506 19.420406 7.240300 96 118 116
7.168517 38.360466 12.918148 96 118 116
2.056014 5.196099 2.959786 76 93 93
2.955534 9.911851 4.357121 76 93 93
4.754573 19.343355 7.151790 76 93 93
8.352652 38.206364 12.741127 76 93 93
2.198672 5.173334 2.937129 60 76 75
3.240850 9.866322 4.311806 60 76 75
5.325207 19.252296 7.061159 60 76 75
9.493919 38.024246 12.559866 60 76 75
-2.623237 3.522153 2.771190 65 78 69
-6.402968 6.563960 3.979927 65 78 69
-13.962430 12.647573 6.397403 65 78 69
-29.081354 24.814798 11.232353 65 78 69
-2.530082 3.626591 2.791397 57 68 70
-6.216657 6.772835 4.020342 57 68 70
-13.589808 13.065324 6.478231 57 68 70
-28.336111 25.650301 11.394011 57 68 70
-2.430668 3.731924 2.811255 91 106 103
-6.017830 6.983502 4.060060 91 106 103
-13.192154 13.486657 6.557667 91 106 103
-27.540802 26.492968 11.552881 91 106 103
-2.324785 3.837784 2.830643 68 80 75
-5.806065 7.195221 4.098835 68 80 75
-12.768623 13.910095 6.635218 68 80 75
-26.693741 27.339844 11.707983 68 80 75
-2.212261 3.943752 2.849427 100 119 133
-5.581017 7.407158 4.136402 100 119 133
-12.318528 14.333969 6.710352 100 119 133
-25.793550 28.187592 11.858253 100 119 133
-2.092971 4.049367 2.867466 105 123 123
-5.342437 7.618388 4.172480 105 123 123
-11.841368 14.756430 6.782508 105 123 123
-24.839230 29.032513 12.002563 105 123 123
-1.966846 4.154124 2.884613 74 89 82
-5.090187 7.827901 4.206774 74 89 82
-11.336868 15.175455 6.851095 74 89 82
-23.830231 29.870564 12.139738 74 89 82
-1.833883 4.257475 2.900714 53 64 56
-4.824259 8.034603 4.238977 53 64 56
-10.805013 15.588861 6.915503 53 64 56
-22.766520 30.697374 12.268553 53 64 56
-1.694152 4.358846 2.915618 93 114 109
-4.544799 8.237346 4.268785 93 114 109
-10.246092 15.994345 6.975117 93 114 109
-21.648678 31.508343 12.387783 93 114 109
-1.547808 4.457635 2.929171 92 100 102
-4.252110 8.434924 4.295890 92 100 102
-9.660715 16.389502 7.029327 92 100 102
-20.477924 32.298656 12.496202 92 100 102
-1.395093 4.553231 2.941225 156 168 168
-3.946680 8.626116 4.319998 156 168 168
-9.049853 16.771885 7.077543 156 168 168
-19.256201 33.063423 12.592634 156 168 168
-1.236338 4.645020 2.951641 63 73 74
-3.629170 8.809694 4.340830 63 73 74
-8.414834 17.139042 7.119208 63 73 74
-17.986162 33.797737 12.675964 63 73 74
-1.071969 4.732404 2.960293 126 140 143
-3.300433 8.984462 4.358135 126 140 143
-7.757360 17.488577 7.153818 126 140 143
-16.671213 34.496807 12.745184 126 140 143
-0.902502 4.814811 2.967072 84 97 88
-2.961497 9.149276 4.371691 84 97 88
-7.079489 17.818205 7.180931 84 97 88
-15.315472 35.156063 12.799410 84 97 88
-0.728534 4.891714 2.971886 70 86 76
-2.613562 9.303082 4.381320 70 86 76
-6.383618 18.125816 7.200189 70 86 76
-13.923731 35.771286 12.837925 70 86 76
-0.550742 4.962644 2.974670 76 92 82
-2.257977 9.444941 4.386889 76 92 82
-5.672449 18.409534 7.211327 76 92 82
-12.501392 36.338722 12.860201 76 92 82
-0.369862 5.027198 2.975384 60 73 64
-1.896219 9.574050 4.388315 60 73 64
-4.948932 18.667753 7.214179 60 73 64
-11.054358 36.855160 12.865906 60 73 64
-0.186681 5.085060 2.974011 66 83 73
-1.529856 9.689774 4.385571 66 83 73
-4.216206 18.899200 7.208691 66 83 73
-9.588906 37.318054 12.854929 66 83 73
-0.002014 5.135995 2.970568 85 94 93
-1.160523 9.791644 4.378683 85 94 93
-3.477540 19.102942 7.194915 85 94 93
-8.111574 37.725536 12.827377 85 94 93
0.183307 5.179869 2.965093 72 85 78
-0.789880 9.879391 4.367734 72 85 78
-2.736254 19.278435 7.173016 72 85 78
-6.629002 38.076523 12.783581 72 85 78
0.368460 5.216634 2.957653 71 86 81
-0.419574 9.952921 4.352855 71 86 81
-1.995641 19.425495 7.143258 71 86 81
-5.147777 38.370644 12.724064 71 86 81
0.552643 5.246339 2.948339 89 113 109
-0.051209 10.012331 4.334226 89 113 109
-1.258912 19.544315 7.105999 89 113 109
-3.674319 38.608284 12.649548 89 113 109
0.735092 5.269118 2.937260 112 135 143
0.313690 10.057889 4.312068 112 135 143
-0.529114 19.635431 7.061683 112 135 143
-2.214723 38.790516 12.560915 112 135 143
0.915099 5.285182 2.924542 111 128 131
0.673705 10.090016 4.286633 111 128 131
0.190915 19.699686 7.010814 111 128 131
-0.774664 38.919025 12.459177 111 128 131
1.092019 5.294812 2.910327 157 170 176
1.027543 10.109277 4.258203 157 170 176
0.898592 19.738207 6.953953 157 170 176
0.640689 38.996067 12.345455 157 170 176
1.265277 5.298346 2.894763 162 184 197
1.374059 10.116344 4.227073 162 184 197
1.591624 19.752342 6.891695 162 184 197
2.026753 39.024338 12.220938 162 184 197
1.434377 5.296165 2.878003 253 254 250
1.712261 10.111983 4.193553 253 254 250
2.268027 19.743620 6.824655 253 254 250
3.379560 39.006893 12.086859 253 254 250
1.598905 5.288685 2.860203 252 253 252
2.041316 10.097023 4.157953 252 253 252
2.926138 19.713699 6.753455 252 253 252
4.695782 38.947052 11.944458 252 253 252
1.758522 5.276340 2.841516 94 112 114
2.360549 10.072334 4.120581 94 112 114
3.564604 19.664322 6.678709 94 112 114
5.972713 38.848297 11.794966 94 112 114
1.912966 5.259579 2.822093 86 103 97
2.669439 10.038811 4.081733 86 103 97
4.182383 19.597275 6.601014 86 103 97
7.208272 38.714203 11.639576 86 103 97
2.062051 5.238845 2.802074 60 80 74
2.967607 9.997343 4.041696 60 80 74
4.778721 19.514339 6.520940 60 80 74
8.400948 38.548332 11.479429 60 80 74
2.205653 5.214579 2.781595 65 80 77
3.254812 9.948811 4.000738 65 80 77
5.353130 19.417274 6.439024 65 80 77
9.549766 38.354202 11.315598 65 80 77
-2.650600 3.546015 2.614932 52 68 57
-6.457694 6.611684 3.667413 52 68 57
-14.071881 12.743021 5.772374 52 68 57
-29.300257 25.005695 9.982296 52 68 57
-2.557712 3.651972 2.632720 61 76 71
-6.271917 6.823597 3.702987 61 76 71
-13.700329 13.166847 5.843523 61 76 71
-28.557152 25.853348 10.124594 61 76 71
-2.458475 3.758880 2.650210 104 119 114
-6.073444 7.037413 3.737968 104 119 114
-13.303383 13.594480 5.913484 104 119 114
-27.763260 26.708612 10.264517 104 119 114
-2.352669 3.866363 2.667294 73 86 81
-5.861831 7.252378 3.772136 73 86 81
-12.880157 14.024410 5.981821 73 86 81
-26.916807 27.568474 10.401190 73 86 81
-2.240106 3.973992 2.683855 59 66 59
-5.636707 7.467638 3.805257 59 66 59
-12.429908 14.454929 6.048063 59 66 59
-26.016310 28.429512 10.533674 59 66 59
-2.120652 4.081295 2.699766 61 76 69
-5.397799 7.682243 3.837079 61 76 69
-11.952092 14.884140 6.111707 61 76 69
-25.060678 29.287933 10.660961 61 76 69
-1.994227 4.187749 2.714895 72 82 81
-5.144948 7.895151 3.867338 72 82 81
-11.446390 15.309955 6.172225 72 82 81
-24.049274 30.139563 10.781998 72 82 81
-1.860818 4.292792 2.729107 81 93 89
-4.878131 8.105238 3.895763 81 93 89
-10.912756 15.730129 6.229074 81 93 89
-22.982006 30.979912 10.895695 81 93 89
-1.720491 4.395829 2.742264 71 84 77
-4.597476 8.311312 3.922076 71 84 77
-10.351446 16.142277 6.281700 71 84 77
-21.859386 31.804207 11.000948 71 84 77
-1.573393 4.496238 2.754228 82 96 83
-4.303280 8.512130 3.946004 82 96 83
-9.763054 16.543913 6.329556 82 96 83
-20.682602 32.607479 11.096659 82 96 83
-1.419765 4.593385 2.764867 97 114 121
-3.996025 8.706424 3.967281 97 114 121
-9.148543 16.932501 6.372111 97 114 121
-19.453581 33.384655 11.181770 97 114 121
-1.259942 4.686634 2.774055 58 72 73
-3.676378 8.892921 3.985658 58 72 73
-8.509251 17.305496 6.408864 58 72 73
-18.174995 34.130646 11.255278 58 72 73
-1.094354 4.775363 2.781679 195 218 234
-3.345203 9.070379 4.000906 195 218 234
-7.846900 17.660412 6.439361 195 218 234
-16.850294 34.840477 11.316269 195 218 234
-0.923527 4.858980 2.787640 173 193 202
-3.003548 9.237613 4.012828 173 193 202
-7.163590 17.994879 6.463204 173 193 202
-15.483675 35.509411 11.363956 173 193 202
-0.748073 4.936936 2.791856 66 83 77
-2.652639 9.393526 4.021261 66 83 77
-6.461773 18.306705 6.480070 66 83 77
-14.080040 36.133064 11.397688 66 83 77
-0.568682 5.008746 2.794269 82 98 88
-2.293858 9.537145 4.026086 82 98 88
-5.744210 18.593943 6.489719 82 98 88
-12.644915 36.707539 11.416986 82 98 88
-0.386113 5.073992 2.794840 65 76 72
-1.928721 9.667638 4.027227 65 76 72
-5.013936 18.854929 6.492003 65 76 72
-11.184365 37.229511 11.421555 65 76 72
-0.201174 5.132348 2.793557 78 94 93
-1.558842 9.784349 4.024663 78 94 93
-4.274178 19.088352 6.486874 78 94 93
-9.704849 37.696358 11.411297 78 94 93
-0.014704 5.183575 2.790434 54 69 64
-1.185903 9.886803 4.018416 54 69 64
-3.528299 19.293259 6.474380 54 69 64
-8.213093 38.106171 11.386309 54 69 64
0.172441 5.227533 2.785507 79 89 90
-0.811611 9.974719 4.008561 79 89 90
-2.779716 19.469091 6.454671 79 89 90
-6.715927 38.457836 11.346889 79 89 90
0.359415 5.264181 2.778836 64 80 78
-0.437664 10.048016 3.995220 64 80 78
-2.031822 19.615685 6.427988 64 80 78
-5.220139 38.751022 11.293524 64 80 78
0.545392 5.293575 2.770503 51 66 63
-0.065711 10.106804 3.978554 51 66 63
-1.287916 19.733261 6.394657 51 66 63
-3.732326 38.986176 11.226862 51 66 63
0.729588 5.315858 2.760608 82 99 93
0.302682 10.151370 3.958764 82 99 93
-0.551131 19.822393 6.355076 82 99 93
-2.258756 39.164440 11.147699 82 99 93
0.911276 5.331258 2.749265 247 254 252
0.666057 10.182169 3.936078 247 254 252
0.175620 19.883991 6.309704 247 254 252
-0.805253 39.287636 11.056957 247 254 252
1.089793 5.340072 2.736601 70 81 83
1.023092 10.199797 3.910750 70 81 83
0.889691 19.919247 6.259048 70 81 83
0.622887 39.358147 10.955645 70 81 83
1.264555 5.342654 2.722750 142 162 170
1.372615 10.204962 3.883047 142 162 170
1.588737 19.929577 6.203643 142 162 170
2.020979 39.378807 10.844833 142 162 170
1.435055 5.339407 2.707850 254 251 250
1.713615 10.198467 3.853247 254 251 250
2.270736 19.916588 6.144042 254 251 250
3.384978 39.352829 10.725632 254 251 250
1.600870 5.330765 2.692039 254 250 254
2.045247 10.181183 3.821627 254 250 254
2.933999 19.882019 6.080803 254 250 254
4.711504 39.283691 10.599154 254 250 254
1.761660 5.317183 2.675458 148 171 177
2.366827 10.154020 3.788465 148 171 177
3.577159 19.827694 6.014477 148 171 177
5.997825 39.175041 10.466503 148 171 177
1.917163 5.299126 2.658238 56 71 64
2.677833 10.117905 3.754025 56 71 64
4.199171 19.755463 5.945597 56 71 64
7.241848 39.030579 10.328743 56 71 64
2.067192 5.277057 2.640507 45 62 52
2.977890 10.073767 3.718562 45 62 52
4.799286 19.667187 5.874672 45 62 52
8.442078 38.854027 10.186893 45 62 52
2.211627 5.251431 2.622384 63 78 71
3.266760 10.022514 3.682315 63 78 71
5.377027 19.564682 5.802179 63 78 71
9.597559 38.649017 10.041906 63 78 71
-2.674317 3.566965 2.455582 62 79 73
-6.505127 6.653583 3.348712 62 79 73
-14.166749 12.826818 5.134972 62 79 73
-29.489992 25.173290 8.707492 62 79 73
-2.581677 3.674247 2.470791 42 58 48
-6.319849 6.868147 3.379130 42 58 48
-13.796192 13.255947 5.195807 42 58 48
-28.748878 26.031548 8.829163 42 58 48
-2.482613 3.782530 2.485752 61 76 73
-6.121720 7.084714 3.409051 61 76 73
-13.399934 13.689081 5.255651 61 76 73
-27.956362 26.897816 8.948851 61 76 73
-2.376891 3.891432 2.500371 121 141 150
-5.910275 7.302517 3.438290 121 141 150
-12.977045 14.124688 5.314127 121 141 150
-27.110584 27.769030 9.065804 121 141 150
-2.264314 4.000515 2.514546 56 68 68
-5.685122 7.520684 3.466640 56 68 68
-12.526739 14.561022 5.370828 56 68 68
-26.209972 28.641697 9.179203 56 68 68
-2.144738 4.109294 2.528169 46 56 48
-5.445970 7.738242 3.493886 46 56 48
-12.048434 14.996137 5.425319 46 56 48
-25.253363 29.511927 9.288186 46 56 48
-2.018072 4.217235 2.541124 69 81 81
-5.192637 7.954123 3.519797 69 81 81
-11.541769 15.427898 5.477142 69 81 81
-24.240032 30.375450 9.391832 69 81 81
-1.884296 4.323760 2.553295 56 65 62
-4.925086 8.167172 3.544139 56 65 62
-11.006667 15.853998 5.525826 56 65 62
-23.169828 31.227650 9.489201 56 65 62
-1.743469 4.428256 2.564561 69 80 76
-4.643431 8.376165 3.566671 69 80 76
-10.443357 16.271984 5.570890 69 80 76
-22.043207 32.063622 9.579329 69 80 76
-1.595734 4.530086 2.574803 82 99 91
-4.347962 8.579824 3.587155 82 99 91
-9.852419 16.679302 5.611858 82 99 91
-20.861332 32.878258 9.661264 82 99 91
-1.441331 4.628592 2.583905 134 156 154
-4.039156 8.776837 3.605359 134 156 154
-9.234807 17.073328 5.648266 134 156 154
-19.626108 33.666309 9.734079 134 156 154
-1.280595 4.723119 2.591758 70 84 85
-3.717684 8.965892 3.621065 70 84 85
-8.591862 17.451437 5.679678 70 84 85
-18.340218 34.422527 9.796904 70 84 85
-1.113963 4.813027 2.598263 188 211 227
-3.384419 9.145708 3.634074 188 211 227
-7.925333 17.811069 5.705697 188 211 227
-17.007160 35.141792 9.848942 188 211 227
-0.941966 4.897702 2.603333 183 206 220
-3.040427 9.315058 3.644214 183 206 220
-7.237348 18.149769 5.725976 183 206 220
-15.631189 35.819191 9.889502 183 206 220
-0.765230 4.976579 2.606898 177 197 208
-2.686954 9.472812 3.651343 177 197 208
-6.530403 18.465277 5.740235 177 197 208
-14.217299 36.450207 9.918018 177 197 208
-0.584460 5.049155 2.608904 135 154 152
-2.325414 9.617964 3.655357 135 154 152
-5.807323 18.755581 5.748262 135 154 152
-12.771139 37.030815 9.934072 135 154 152
-0.400432 5.115004 2.609321 65 77 77
-1.957357 9.749660 3.656191 65 77 77
-5.071208 19.018974 5.749930 65 77 77
-11.298911 37.557602 9.937408 65 77 77
-0.213971 5.173785 2.608138 70 86 83
-1.584436 9.867224 3.653825 70 86 83
-4.325367 19.254101 5.745197 70 86 83
-9.807228 38.027855 9.927942 70 86 83
-0.025941 5.225257 2.605366 73 92 83
-1.208375 9.970168 3.648280 73 92 83
-3.573245 19.459990 5.734109 73 92 83
-8.302983 38.439632 9.905766 73 92 83
0.162785 5.269280 2.601038 73 85 83
-0.830924 10.058213 3.639624 73 85 83
-2.818342 19.636080 5.716796 73 85 83
-6.793179 38.791813 9.871141 73 85 83
0.351336 5.305814 2.595207 82 96 97
-0.453822 10.131282 3.627962 82 96 97
-2.064139 19.782217 5.693473 82 96 97
-5.284772 39.084087 9.824493 82 96 97
0.538867 5.334922 2.587945 60 75 70
-0.078760 10.189497 3.613439 60 75 70
-1.314014 19.898647 5.664425 60 75 70
-3.784523 39.316948 9.766399 60 75 70
0.724576 5.356758 2.579340 46 59 65
0.292658 10.233170 3.596228 46 59 65
-0.571178 19.985992 5.630004 46 59 65
-2.298849 39.491638 9.697556 46 59 65
0.907719 5.371562 2.569492 252 251 255
0.658944 10.262776 3.576531 252 251 255
0.161395 20.045206 5.590611 252 251 255
-0.833705 39.610065 9.618771 252 251 255
1.087620 5.379644 2.558511 71 86 91
1.018746 10.278942 3.554570 71 86 91
0.880998 20.077538 5.546689 71 86 91
0.605502 39.674728 9.530926 71 86 91
1.263682 5.381381 2.546515 145 159 162
1.370870 10.282414 3.530579 145 159 162
1.585246 20.084482 5.498707 145 159 162
2.013997 39.688618 9.434961 145 159 162
1.435391 5.377186 2.533626 245 254 254
1.714288 10.274025 3.504799 245 254 254
2.272081 20.067703 5.447147 245 254 254
3.387669 39.655060 9.331842 245 254 254
1.602319 5.367515 2.519963 232 247 244
2.048144 10.254683 3.477474 232 247 244
2.939794 20.029018 5.392496 232 247 244
4.723093 39.577690 9.222540 232 247 244
1.764122 5.352839 2.505647 65 80 77
2.371749 10.225330 3.448842 65 80 77
3.587004 19.970314 5.335231 65 80 77
6.017513 39.460281 9.108011 65 80 77
1.920536 5.333636 2.490793 54 69 64
2.684579 10.186926 3.419134 54 69 64
4.212663 19.893505 5.275815 54 69 64
7.268832 39.306664 8.989180 54 69 64
2.071378 5.310389 2.475512 48 63 56
2.986261 10.140430 3.388571 48 63 56
4.816029 19.800514 5.214690 48 63 56
8.475563 39.120682 8.866928 48 63 56
2.216529 5.283565 2.459905 58 70 66
3.276564 10.086782 3.357358 58 70 66
5.396635 19.693218 5.152266 58 70 66
9.636775 38.906090 8.742079 58 70 66
-2.694177 3.584826 2.293574 56 68 66
-6.544847 6.689305 3.024697 56 68 66
-14.246189 12.898264 4.486942 56 68 66
-29.648872 25.316181 7.411432 56 68 66
-2.601759 3.693223 2.306066 60 73 66
-6.360012 6.906099 3.049680 60 73 66
-13.876518 13.331852 4.536908 60 73 66
-28.909531 26.183357 7.511365 60 73 66
-2.502852 3.802664 2.318356 62 78 68
-6.162199 7.124981 3.074261 62 78 68
-13.480891 13.769615 4.586069 62 78 68
-28.118277 27.058884 7.609687 62 78 68
-2.397215 3.912759 2.330367 72 89 81
-5.950925 7.345171 3.098283 72 89 81
-13.058344 14.209996 4.634113 72 89 81
-27.273182 27.939646 7.705775 72 89 81
-2.284643 4.023066 2.342014 61 77 73
-5.725780 7.565784 3.121577 61 77 73
-12.608054 14.651222 4.680702 61 77 73
-26.372602 28.822098 7.798953 61 77 73
-2.164980 4.133088 2.353208 44 56 52
-5.486454 7.785829 3.143963 44 56 52
-12.129401 15.091311 4.725474 44 56 52
-25.415297 29.702274 7.888497 44 56 52
-2.038129 4.242280 2.363851 53 65 55
-5.232751 8.004213 3.165251 53 65 55
-11.621997 15.528080 4.768049 53 65 55
-24.400488 30.575813 7.973647 53 65 55
-1.904062 4.350054 2.373847 47 58 54
-4.964619 8.219761 3.185243 47 58 54
-11.085732 15.959175 4.808033 47 58 54
-23.327957 31.438004 8.053615 47 58 54
-1.762833 4.455781 2.383096 49 61 59
-4.682160 8.431215 3.203739 49 61 59
-10.520815 16.382084 4.845027 49 61 59
-22.198124 32.283821 8.127602 49 61 59
-1.614582 4.558805 2.391497 57 72 68
-4.385657 8.637264 3.220541 57 72 68
-9.927809 16.794182 4.878631 57 72 68
-21.012112 33.108017 8.194811 57 72 68
-1.459545 4.658457 2.398954 138 153 160
-4.075583 8.836567 3.235456 138 153 160
-9.307661 17.192787 4.908460 138 153 160
-19.771816 33.905228 8.254468 138 153 160
-1.298060 4.754062 2.405376 62 69 75
-3.752614 9.027778 3.248300 62 69 75
-8.661722 17.575209 4.934149 62 69 75
-18.479939 34.670071 8.305845 62 69 75
-1.130567 4.844962 2.410680 175 197 210
-3.417627 9.209577 3.258908 175 197 210
-7.991749 17.938807 4.955365 175 197 210
-17.139992 35.397266 8.348278 175 197 210
-0.957604 4.930527 2.414794 78 102 102
-3.071702 9.380707 3.267136 78 102 102
-7.299899 18.281067 4.971819 78 102 102
-15.756292 36.081787 8.381187 78 102 102
-0.779807 5.010177 2.417658 67 83 70
-2.716108 9.540007 3.272864 67 83 70
-6.588710 18.599667 4.983277 67 83 70
-14.333915 36.718987 8.404102 67 83 70
-0.597893 5.083395 2.419230 57 73 63
-2.352280 9.686444 3.276008 57 73 63
-5.861054 18.892542 4.989564 57 73 63
-12.878602 37.304737 8.416676 57 73 63
-0.412652 5.149745 2.419482 80 93 84
-1.981798 9.819143 3.276512 80 93 84
-5.120090 19.157940 4.990573 80 93 84
-11.396673 37.835533 8.418694 80 93 84
-0.224927 5.208879 2.418407 65 78 69
-1.606348 9.937411 3.274362 65 78 69
-4.369189 19.394476 4.986271 65 78 69
-9.894873 38.308605 8.410090 65 78 69
-0.035597 5.260550 2.416013 52 63 59
-1.227688 10.040754 3.269575 52 63 59
-3.611871 19.601162 4.976699 52 63 59
-8.380236 38.721977 8.390945 52 63 59
0.154444 5.304619 2.412331 71 86 82
-0.847607 10.128891 3.262209 71 86 82
-2.851708 19.777435 4.961967 71 86 82
-6.859911 39.074524 8.361483 71 86 82
0.344308 5.341047 2.407403 75 91 81
-0.467878 10.201748 3.252355 75 91 81
-2.092250 19.923149 4.942258 75 91 81
-5.340994 39.365952 8.322064 75 91 81
0.533134 5.369904 2.401292 85 100 97
-0.090226 10.259461 3.240133 85 100 97
-1.336947 20.038576 4.917813 85 100 97
-3.830388 39.596806 8.273174 85 100 97
0.720103 5.391352 2.394071 107 123 122
0.283713 10.302357 3.225690 107 123 122
-0.589069 20.124367 4.888928 107 123 122
-2.334631 39.768387 8.215405 107 123 122
0.904458 5.405642 2.385824 157 181 193
0.652422 10.330936 3.209197 157 181 193
0.148351 20.181526 4.855942 157 181 193
-0.859793 39.882706 8.149433 157 181 193
1.085511 5.413100 2.376646 74 83 92
1.014528 10.345853 3.190839 74 83 92
0.872561 20.211359 4.819227 74 83 92
0.588628 39.942371 8.076002 74 83 92
1.262655 5.414110 2.366632 143 158 164
1.368816 10.347873 3.170813 143 158 164
1.581138 20.215399 4.779174 143 158 164
2.005782 39.950451 7.995896 143 158 164
1.435370 5.409108 2.355886 210 225 220
1.714246 10.337870 3.149321 210 225 220
2.271998 20.195393 4.736190 210 225 220
3.387502 39.910439 7.909928 210 225 220
1.603223 5.398560 2.344509 72 89 83
2.049952 10.316773 3.126566 72 89 83
2.943410 20.153200 4.690680 72 89 83
4.730327 39.826054 7.818908 72 89 83
1.765867 5.382952 2.332600 55 71 61
2.375240 10.285557 3.102747 55 71 61
3.593987 20.090767 4.643043 55 71 61
6.031479 39.701187 7.723634 55 71 61
1.923040 5.362779 2.320255 75 91 81
2.689585 10.245211 3.078058 75 91 81
4.222677 20.010075 4.593664 75 91 81
7.288859 39.539803 7.624876 75 91 81
2.074556 5.338532 2.307566 77 94 84
2.992618 10.196717 3.052681 77 94 84
4.828741 19.913088 4.542911 77 94 84
8.500988 39.345829 7.523369 77 94 84
2.220302 5.310693 2.294620 68 84 73
3.284110 10.141039 3.026787 68 84 73
5.411725 19.801731 4.491122 68 84 73
9.666956 39.123116 7.419793 68 84 73
-2.710001 3.599449 2.129386 39 51 47
-6.576496 6.718552 2.696320 39 51 47
-14.309485 12.956757 3.830188 39 51 47
-29.775465 25.433167 6.097924 39 51 47
-2.617768 3.708734 2.139044 38 49 43
-6.392031 6.937121 2.715637 38 49 43
-13.940556 13.393896 3.868822 38 49 43
-29.037605 26.307446 6.175192 38 49 43
-2.518998 3.819096 2.148546 38 54 44
-6.194490 7.157846 2.734640 38 54 44
-13.545474 13.835345 3.906828 38 54 44
-28.247442 27.190344 6.251205 38 54 44
-2.413440 3.930142 2.157830 46 61 56
-5.983375 7.379938 2.753207 46 61 56
-13.123244 14.279530 3.943963 46 61 56
-27.402983 28.078712 6.325474 46 61 56
-2.300884 4.041423 2.166829 49 58 57
-5.758262 7.602500 2.771206 49 58 57
-12.673018 14.724653 3.979961 49 58 57
-26.502529 28.968960 6.397470 49 58 57
-2.181165 4.152435 2.175474 67 81 84
-5.518825 7.824523 2.788496 67 81 84
-12.194143 15.168700 4.014540 67 81 84
-25.544781 29.857054 6.466628 67 81 84
-2.054181 4.262625 2.183689 90 104 104
-5.264857 8.044903 2.804926 90 104 104
-11.686208 15.609459 4.047401 90 104 104
-24.528910 30.738571 6.532350 90 104 104
-1.919899 4.371392 2.191398 76 84 87
-4.996292 8.262438 2.820344 76 84 87
-11.149078 16.044529 4.078236 76 84 87
-23.454651 31.608711 6.594019 76 84 87
-1.778365 4.478098 2.198521 72 82 83
-4.713224 8.475849 2.834591 72 82 83
-10.582943 16.471352 4.106730 72 82 83
-22.322380 32.462357 6.651008 72 82 83
-1.629718 4.582075 2.204982 89 109 107
-4.415931 8.683804 2.847511 89 109 107
-9.988356 16.887260 4.132571 89 109 107
-21.133205 33.294174 6.702690 89 109 107
-1.474194 4.682638 2.210703 64 77 70
-4.104882 8.884929 2.858954 64 77 70
-9.366258 17.289511 4.155456 64 77 70
-19.889009 34.098675 6.748459 64 77 70
-1.312129 4.779099 2.215613 52 65 68
-3.780753 9.077852 2.868775 52 65 68
-8.718000 17.675358 4.175097 52 65 68
-18.592495 34.870369 6.787744 52 65 68
-1.143968 4.870787 2.219648 58 83 87
-3.444430 9.261228 2.876844 58 83 87
-8.045355 18.042109 4.191236 58 83 87
-17.247204 35.603870 6.820021 58 83 87
-0.970254 4.957059 2.222750 59 86 93
-3.097002 9.433771 2.883049 59 86 93
-7.350497 18.387196 4.203646 59 86 93
-15.857489 36.294044 6.844840 59 86 93
-0.791628 5.037321 2.224874 44 59 56
-2.739750 9.594296 2.887297 44 59 56
-6.635995 18.708244 4.212142 44 59 56
-14.428484 36.936142 6.861831 44 59 56
-0.608819 5.111048 2.225986 47 58 50
-2.374133 9.741749 2.889520 47 58 50
-5.904760 19.003151 4.216587 47 58 50
-12.966015 37.525955 6.870723 47 58 50
-0.422629 5.177792 2.226064 37 52 45
-2.001751 9.875237 2.889677 37 52 45
-5.159997 19.270126 4.216902 37 52 45
-11.476488 38.059906 6.871352 37 52 45
-0.233912 5.237201 2.225104 66 83 75
-1.624319 9.994055 2.887757 66 83 75
-4.405132 19.507763 4.213061 66 83 75
-9.966758 38.535179 6.863671 66 83 75
-0.043563 5.289025 2.223114 61 74 67
-1.243621 10.097703 2.883775 61 74 67
-3.643736 19.715059 4.205099 61 74 67
-8.443966 38.949772 6.847746 61 74 67
0.147510 5.333122 2.220115 62 75 68
-0.861474 10.185898 2.877779 62 75 68
-2.879442 19.891449 4.193106 62 75 68
-6.915379 39.302551 6.823760 62 75 68
0.338407 5.369459 2.216146 55 70 63
-0.479681 10.258572 2.869839 55 70 63
-2.115856 20.036797 4.177227 55 70 63
-5.388206 39.593246 6.792002 55 70 63
0.528250 5.398107 2.211253 48 59 53
-0.099993 10.315867 2.860054 48 59 53
-1.356481 20.151388 4.157655 48 59 53
-3.869456 39.822430 6.752858 48 59 53
0.716211 5.419238 2.205495 99 121 120
0.275927 10.358130 2.848539 99 121 120
-0.604639 20.235912 4.134626 99 121 120
-2.365773 39.991478 6.706801 99 121 120
0.901519 5.433111 2.198941 165 185 196
0.646544 10.385875 2.835430 165 185 196
0.136593 20.291403 4.108409 165 185 196
-0.883308 40.102459 6.654366 165 185 196
1.083477 5.440061 2.191663 83 98 103
1.010461 10.399775 2.820875 83 98 103
0.864428 20.319202 4.079297 83 98 103
0.572361 40.158058 6.596143 83 98 103
1.261473 5.440486 2.183739 155 174 181
1.366452 10.400626 2.805027 155 174 181
1.576411 20.320906 4.047603 155 174 181
1.996327 40.161465 6.532753 155 174 181
1.434980 5.434832 2.175250 103 118 121
1.713465 10.389318 2.788047 103 118 121
2.270436 20.298288 4.013643 103 118 121
3.384378 40.116230 6.464834 103 118 121
1.603561 5.423577 2.166274 55 68 59
2.050627 10.366808 2.770096 55 68 59
2.944760 20.253269 3.977740 55 68 59
4.733026 40.026192 6.393028 55 68 59
1.766867 5.407221 2.156890 44 54 46
2.377240 10.334095 2.751329 44 54 46
3.597986 20.187843 3.940207 44 54 46
6.039477 39.895340 6.317961 44 54 46
1.924636 5.386267 2.147175 54 69 62
2.692778 10.292188 2.731898 54 69 62
4.229061 20.104029 3.901345 54 69 62
7.301629 39.727711 6.240238 54 69 62
2.076684 5.361219 2.137199 45 58 49
2.996873 10.242092 2.711947 45 58 49
4.837251 20.003838 3.861443 45 58 49
8.518008 39.527328 6.160433 45 58 49
2.222898 5.332566 2.127030 33 42 37
3.289301 10.184786 2.691609 33 42 37
5.422109 19.889225 3.820766 33 42 37
9.687723 39.298103 6.079080 33 42 37
-2.721644 3.610712 1.963527 20 31 27
-6.599782 6.741076 2.364601 20 31 27
-14.356057 13.001806 3.166751 20 31 27
-29.868608 25.523266 4.771050 20 31 27
-2.629554 3.720644 1.970262 45 62 69
-6.415603 6.960942 2.378073 45 62 69
-13.987700 13.441538 3.193693 45 62 69
-29.131893 26.402729 4.824935 45 62 69
-2.530892 3.831679 1.976884 34 45 37
-6.218278 7.183012 2.391315 34 45 37
-13.593051 13.885677 3.220179 34 45 37
-28.342596 27.291008 4.877905 34 45 37
-2.425402 3.943418 1.983347 76 87 89
-6.007298 7.406490 2.404242 76 87 89
-13.171091 14.332633 3.246033 76 87 89
-27.498676 28.184919 4.929613 76 87 89
-2.312868 4.055408 1.989606 50 56 54
-5.782229 7.630470 2.416760 50 56 54
-12.720953 14.780593 3.271068 50 56 54
-26.598400 29.080839 4.979685 50 56 54
-2.193121 4.167141 1.995610 44 67 61
-5.542737 7.853936 2.428768 44 67 61
-12.241967 15.227526 3.295085 44 67 61
-25.640429 29.974705 5.027718 44 67 61
-2.066053 4.278056 2.001306 45 71 70
-5.288600 8.075765 2.440160 45 71 70
-11.733694 15.671183 3.317869 45 71 70
-24.623882 30.862019 5.073286 45 71 70
-1.931627 4.387546 2.006640 42 56 57
-5.019749 8.294744 2.450828 42 56 57
-11.195992 16.109142 3.339203 42 56 57
-23.548477 31.737938 5.115954 42 56 57
-1.789887 4.494963 2.011555 56 66 67
-4.736269 8.509579 2.460658 56 66 67
-10.629032 16.538811 3.358864 56 66 67
-22.414558 32.597275 5.155276 56 66 67
-1.640969 4.599630 2.015996 54 80 81
-4.438431 8.718914 2.469541 54 80 81
-10.033357 16.957481 3.376630 54 80 81
-21.223207 33.434616 5.190808 54 80 81
-1.485105 4.700855 2.019910 53 78 82
-4.126705 8.921363 2.477369 53 78 82
-9.409904 17.362379 3.392286 53 78 82
-19.976301 34.244411 5.222120 53 78 82
-1.322636 4.797936 2.023246 204 224 235
-3.801766 9.115526 2.484040 204 224 235
-8.760026 17.750706 3.405629 204 224 235
-18.676546 35.021065 5.248806 204 224 235
-1.154005 4.890194 2.025958 59 83 83
-3.464504 9.300042 2.489464 59 83 83
-8.085502 18.119738 3.416476 59 83 83
-17.327497 35.759129 5.270500 59 83 83
-0.979761 4.976976 2.028006 46 62 62
-3.116015 9.473605 2.493560 46 62 62
-7.388525 18.466864 3.424668 46 62 62
-15.933544 36.453381 5.286883 46 62 62
-0.800550 5.057680 2.029357 35 47 45
-2.757595 9.635014 2.496263 35 47 45
-6.671684 18.789680 3.430074 35 47 45
-14.499862 37.099014 5.297697 35 47 45
-0.617108 5.131771 2.029989 28 36 38
-2.390710 9.783195 2.497527 28 36 38
-5.937913 19.086044 3.432602 28 36 38
-13.032321 37.691742 5.302752 28 36 38
-0.430243 5.198797 2.029888 42 47 40
-2.016981 9.917247 2.497324 42 47 40
-5.190456 19.354147 3.432195 42 47 40
-11.537407 38.227947 5.301939 42 47 40
-0.240822 5.258400 2.029049 45 51 51
-1.638139 10.036453 2.495646 45 51 51
-4.432772 19.592560 3.428839 45 51 51
-10.022038 38.704773 5.295227 45 51 51
-0.049748 5.310329 2.027479 54 59 57
-1.255990 10.140311 2.492507 54 59 57
-3.668474 19.800276 3.422562 54 59 57
-8.493443 39.120205 5.282672 54 59 57
0.142062 5.354441 2.025197 55 59 58
-0.872371 10.228535 2.487941 55 59 58
-2.901236 19.976723 3.413431 55 59 58
-6.958966 39.473099 5.264410 55 59 58
0.333694 5.390704 2.022227 54 67 60
-0.489105 10.301062 2.482002 54 67 60
-2.134705 20.121777 3.401552 54 67 60
-5.425903 39.763206 5.240653 54 67 60
0.524265 5.419194 2.018605 80 95 88
-0.107964 10.358041 2.474759 80 95 88
-1.372423 20.235735 3.387067 80 95 88
-3.901340 39.991123 5.211681 80 95 88
0.712934 5.440086 2.014375 39 43 42
0.269373 10.399826 2.466298 39 43 42
-0.617748 20.319305 3.370144 39 43 42
-2.391989 40.158264 5.177837 39 43 42
0.898923 5.453649 2.009584 51 59 61
0.641353 10.426950 2.456716 51 59 61
0.126211 20.373554 3.350980 51 59 61
-0.904072 40.266762 5.139509 51 59 61
1.081531 5.460222 2.004285 47 55 57
1.006567 10.440098 2.446118 47 55 57
0.856641 20.399849 3.329785 47 55 57
0.556787 40.319351 5.097118 47 55 57
1.260137 5.460215 1.998534 76 91 96
1.363779 10.440084 2.434617 76 91 96
1.571064 20.399820 3.306782 76 91 96
1.985634 40.319294 5.051112 76 91 96
1.434211 5.454081 1.992389 54 65 67
1.711928 10.427814 2.422326 54 65 67
2.267361 20.375282 3.282200 54 65 67
3.378229 40.270218 5.001948 54 65 67
1.603315 5.442306 1.985906 50 61 53
2.050135 10.404264 2.409359 50 61 53
2.943776 20.328182 3.256267 50 61 53
4.731058 40.176018 4.950082 50 61 53
1.767097 5.425398 1.979141 40 53 46
2.377701 10.370450 2.395830 40 53 46
3.598907 20.260553 3.229208 40 53 46
6.041320 40.040760 4.895965 40 53 46
1.925296 5.403871 1.972148 45 58 48
2.694098 10.327395 2.381845 45 58 48
4.231702 20.174444 3.201238 45 58 48
7.306909 39.868542 4.840023 45 58 48
2.077727 5.378234 1.964979 43 52 47
2.998960 10.276121 2.367506 43 52 47
4.841426 20.071896 3.172559 43 52 47
8.526358 39.663445 4.782666 43 52 47
2.224280 5.348984 1.957680 37 47 46
3.292066 10.217621 2.352907 37 47 46
5.427639 19.954895 3.143363 37 47 46
9.698783 39.429443 4.724273 37 47 46
-2.729000 3.618522 1.796533 36 48 46
-6.614494 6.756697 2.030615 36 48 46
-14.385483 13.033047 2.498777 36 48 46
-29.927460 25.585747 3.435103 36 48 46
-2.637006 3.728853 1.800285 31 39 42
-6.430506 6.977360 2.038117 31 39 42
-14.017506 13.474373 2.513783 31 39 42
-29.191505 26.468399 3.465113 31 39 42
-2.538419 3.840301 1.803963 39 48 48
-6.233332 7.200254 2.045474 39 48 48
-13.623158 13.920162 2.528496 39 48 48
-28.402809 27.359978 3.494539 39 48 48
-2.432981 3.952464 1.807543 76 91 94
-6.022456 7.424582 2.052634 76 91 94
-13.201406 14.368816 2.542816 76 91 94
-27.559307 28.257286 3.523181 76 91 94
-2.320472 4.064888 1.810998 77 84 90
-5.797437 7.649428 2.059543 77 84 90
-12.751369 14.818510 2.556635 77 84 90
-26.659231 29.156673 3.550818 77 84 90
-2.200721 4.177059 1.814298 27 36 31
-5.557935 7.873772 2.066144 27 36 31
-12.272365 15.267197 2.569835 27 36 31
-25.701223 30.054047 3.577219 27 36 31
-2.073616 4.288415 1.817413 32 38 38
-5.303725 8.096483 2.072374 32 38 38
-11.763945 15.712620 2.582295 32 38 38
-24.684383 30.944893 3.602139 32 38 38
-1.939117 4.398343 1.820311 112 127 132
-5.034729 8.316339 2.078170 112 127 132
-11.225951 16.152332 2.593889 112 127 132
-23.608397 31.824320 3.625325 112 127 132
-1.797268 4.506191 1.822961 123 142 159
-4.751031 8.532036 2.083469 123 142 159
-10.658556 16.583725 2.604487 123 142 159
-22.473606 32.687103 3.646522 123 142 159
-1.648201 4.611277 1.825330 31 40 35
-4.452897 8.742207 2.088207 31 40 35
-10.062287 17.004066 2.613963 31 40 35
-21.281069 33.527786 3.665474 31 40 35
-1.492150 4.712898 1.827388 25 34 31
-4.140795 8.945449 2.092323 25 34 31
-9.438084 17.410551 2.622195 25 34 31
-20.032661 34.340755 3.681938 25 34 31
-1.329454 4.810353 1.829106 167 192 196
-3.815403 9.140360 2.095759 167 192 196
-8.787299 17.800373 2.629067 167 192 196
-18.731092 35.120399 3.695682 167 192 196
-1.160558 4.902953 1.830458 57 67 66
-3.477610 9.325560 2.098464 57 67 66
-8.111714 18.170773 2.634475 57 67 66
-17.379923 35.861198 3.706499 57 67 66
-0.986012 4.990038 1.831422 67 81 82
-3.128518 9.499730 2.100391 67 81 82
-7.413529 18.519114 2.638331 67 81 82
-15.983553 36.557880 3.714210 67 81 82
-0.806466 5.071005 1.831980 33 42 41
-2.769427 9.661663 2.101507 33 42 41
-6.695348 18.842979 2.640563 33 42 41
-14.547190 37.205612 3.718674 33 42 41
-0.622660 5.145311 1.832119 23 32 31
-2.401814 9.810275 2.101786 23 32 31
-5.960121 19.140203 2.641120 23 32 31
-13.076736 37.800060 3.719788 23 32 31
-0.435407 5.212502 1.831832 54 60 58
-2.027307 9.944656 2.101213 54 60 58
-5.211109 19.408966 2.639974 54 60 58
-11.578712 38.337585 3.717496 54 60 58
-0.245577 5.272216 1.831119 55 64 61
-1.647649 10.064086 2.099787 55 64 61
-4.451792 19.647825 2.637121 55 64 61
-10.060079 38.815304 3.711791 55 64 61
-0.054082 5.324202 1.829984 81 87 85
-1.264657 10.168056 2.097517 81 87 85
-3.685809 19.855766 2.632582 81 87 85
-8.528112 39.231186 3.702711 81 87 85
0.138157 5.368316 1.828439 80 89 86
-0.880181 10.256285 2.094425 80 89 86
-2.916856 20.032223 2.626399 80 89 86
-6.990207 39.584099 3.690346 80 89 86
0.330219 5.404527 1.826499 50 59 58
-0.496055 10.328707 2.090545 50 59 58
-2.148605 20.177067 2.618639 50 59 58
-5.453703 39.873787 3.674826 50 59 58
0.521215 5.432914 1.824186 71 83 83
-0.114064 10.385481 2.085919 71 83 83
-1.384621 20.290615 2.609387 71 83 83
-3.925736 40.100883 3.656322 71 83 83
0.710300 5.453654 1.821525 73 85 85
0.264106 10.426962 2.080599 73 85 85
-0.628283 20.373577 2.598745 73 85 85
-2.413060 40.266808 3.635039 73 85 85
0.896691 5.467021 1.818546 82 96 97
0.636888 10.453694 2.074641 82 96 97
0.117281 20.427042 2.586830 82 96 97
-0.921932 40.373737 3.611209 82 96 97
1.079681 5.473360 1.815281 53 63 64
1.002868 10.466372 2.068109 53 63 64
0.849242 20.452398 2.573767 53 63 64
0.541990 40.424450 3.585081 53 63 64
1.258648 5.473083 1.811760 45 50 53
1.360803 10.465819 2.061069 45 50 53
1.565111 20.451292 2.559686 45 50 53
1.973728 40.422237 3.556921 45 50 53
1.433060 5.466648 1.808020 107 103 100
1.709626 10.452950 2.053587 107 103 100
2.262758 20.425552 2.544723 107 103 100
3.369021 40.370758 3.526994 107 103 100
1.602476 5.454551 1.804092 46 60 47
2.048457 10.428755 2.045732 46 60 47
2.940420 20.377163 2.529011 46 60 47
4.724345 40.273979 3.495571 46 60 47
1.766544 5.437302 1.800009 36 45 44
2.376593 10.394257 2.037566 36 45 44
3.596692 20.308167 2.512681 36 45 44
6.036890 40.135986 3.462910 36 45 44
1.925001 5.415420 1.795803 57 66 61
2.693507 10.350492 2.029155 57 66 61
4.230520 20.220638 2.495858 57 66 61
7.304547 39.960930 3.429264 57 66 61
2.077664 5.389418 1.791504 62 74 70
2.998834 10.298490 2.020555 62 74 70
4.841174 20.116632 2.478659 62 74 70
8.525853 39.752918 3.394867 62 74 70
2.224424 5.359798 1.787138 30 55 51
3.292354 10.239249 2.011823 30 55 51
5.428213 19.998152 2.461195 30 55 51
9.699932 39.515957 3.359938 30 55 51
-2.732006 3.622821 1.628960 29 38 37
-6.620506 6.765295 1.695469 29 38 37
-14.397506 13.050243 1.828485 29 38 37
-29.951506 25.620140 2.094519 29 38 37
-2.640057 3.733296 1.629696 59 73 76
-6.436607 6.986246 1.696940 59 73 76
-14.029709 13.492146 1.831428 59 73 76
-29.215912 26.503944 2.100405 59 73 76
-2.541509 3.844891 1.630399 70 85 91
-6.239512 7.209435 1.698347 70 85 91
-13.635518 13.938522 1.834242 70 85 91
-28.427530 27.396698 2.106032 70 85 91
-2.436104 3.957203 1.631064 48 77 109
-6.028702 7.434060 1.699676 48 77 109
-13.213899 14.387774 1.836900 48 77 109
-27.584291 28.295200 2.111347 48 77 109
-2.323620 4.069777 1.631682 84 89 92
-5.803735 7.659207 1.700912 84 89 92
-12.763964 14.838068 1.839371 84 89 92
-26.684422 29.195789 2.116291 84 89 92
-2.203887 4.182099 1.632246 53 63 64
-5.564267 7.883852 1.702040 53 63 64
-12.285028 15.287357 1.841628 53 63 64
-25.726551 30.094368 2.120804 53 63 64
-2.076790 4.293604 1.632748 62 74 74
-5.310074 8.106861 1.703044 62 74 74
-11.776642 15.733377 1.843637 62 74 74
-24.709778 30.986406 2.124822 62 74 74
-1.942290 4.403679 1.633180 114 129 134
-5.041073 8.327011 1.703909 114 129 134
-11.238641 16.173676 1.845367 114 129 134
-23.633776 31.867006 2.128282 114 129 134
-1.800428 4.511669 1.633535 131 140 135
-4.757349 8.542992 1.704619 131 140 135
-10.671193 16.605637 1.846786 131 140 135
-22.498880 32.730927 2.131120 131 140 135
-1.651337 4.616890 1.633805 74 85 91
-4.459168 8.753433 1.705158 74 85 91
-10.074831 17.026520 1.847865 74 85 91
-21.306156 33.572693 2.133277 74 85 91
-1.495251 4.718640 1.633982 62 67 70
-4.146996 8.956934 1.705513 62 67 70
-9.450486 17.433521 1.848573 62 67 70
-20.057467 34.386696 2.134695 62 67 70
-1.332508 4.816214 1.634061 64 75 77
-3.821510 9.152081 1.705669 64 75 77
-8.799514 17.823816 1.848887 64 75 77
-18.755522 35.167286 2.135322 64 75 77
-1.163552 4.908920 1.634035 55 68 74
-3.483599 9.337493 1.705618 55 68 74
-8.123692 18.194639 1.848783 55 68 74
-17.403877 35.908932 2.135114 55 68 74
-0.988936 4.996099 1.633900 46 51 57
-3.134367 9.511852 1.705348 46 51 57
-7.425228 18.543358 1.848245 46 51 57
-16.006950 36.606369 2.134037 46 51 57
-0.809310 5.077144 1.633654 68 83 88
-2.775114 9.673941 1.704855 68 83 88
-6.706723 18.867535 1.847259 68 83 88
-14.569940 37.254723 2.132066 68 83 88
-0.625413 5.151512 1.633294 68 82 83
-2.407321 9.822678 1.704136 68 82 83
-5.971136 19.165009 1.845820 68 82 83
-13.098766 37.849670 2.129188 68 82 83
-0.438062 5.218748 1.632821 81 95 96
-2.032618 9.957149 1.703190 81 95 96
-5.221730 19.433950 1.843928 81 95 96
-11.599955 38.387554 2.125403 81 95 96
-0.248127 5.278489 1.632236 81 92 98
-1.652749 10.076632 1.702020 81 92 98
-4.461991 19.672916 1.841588 81 92 98
-10.080477 38.865486 2.120725 81 92 98
-0.056520 5.330483 1.631543 104 113 112
-1.269535 10.180619 1.700634 104 113 112
-3.695564 19.880892 1.838815 104 113 112
-8.547622 39.281437 2.115179 104 113 112
0.135833 5.374587 1.630746 89 90 94
-0.884828 10.268827 1.699039 89 90 94
-2.926151 20.057308 1.835627 89 90 94
-7.008796 39.634270 2.108802 89 90 94
0.328013 5.410770 1.629851 89 97 100
-0.500468 10.341194 1.697250 89 97 100
-2.157430 20.202042 1.832048 89 97 100
-5.471354 39.923737 2.101644 89 97 100
0.519127 5.439112 1.628865 92 106 109
-0.118240 10.397877 1.695279 92 106 109
-1.392973 20.315407 1.828106 92 106 109
-3.942441 40.150467 2.093761 92 106 109
0.708329 5.459792 1.627798 85 96 102
0.260164 10.439238 1.693144 85 96 102
-0.636166 20.398129 1.823836 85 96 102
-2.428827 40.315910 2.085220 85 96 102
0.894835 5.473083 1.626657 76 89 95
0.633177 10.465819 1.690862 76 89 95
0.109859 20.451292 1.819272 76 89 95
-0.936776 40.422237 2.076092 76 89 95
1.077938 5.479332 1.625452 36 46 47
0.999381 10.478318 1.688452 36 46 47
0.842268 20.476290 1.814451 36 46 47
0.528042 40.472233 2.066451 36 46 47
1.257013 5.478955 1.624192 57 62 65
1.357531 10.477563 1.685932 57 62 65
1.558568 20.474779 1.809412 57 62 65
1.960643 40.469212 2.056373 57 62 65
1.431527 5.472410 1.622887 44 51 57
1.706560 10.464474 1.683323 44 51 57
2.256626 20.448601 1.804193 44 51 57
3.356759 40.416855 2.045935 44 51 57
1.601040 5.460195 1.621547 49 58 57
2.045586 10.440042 1.680641 49 58 57
2.934677 20.399738 1.798831 49 58 57
4.712861 40.319130 2.035210 49 58 57
1.765199 5.442821 1.620179 70 84 87
2.373905 10.405294 1.677906 70 84 87
3.591316 20.330242 1.793361 70 84 87
6.026137 40.180138 2.024270 70 84 87
1.923742 5.420808 1.618793 41 46 49
2.690989 10.361269 1.675134 41 46 49
4.225485 20.242191 1.787817 41 46 49
7.294476 40.004036 2.013181 41 46 49
2.076484 5.394673 1.617396 68 88 94
2.996474 10.308999 1.672340 68 88 94
4.836454 20.137651 1.782229 68 88 94
8.516414 39.794956 2.002006 68 88 94
2.223317 5.364917 1.615995 38 48 40
3.290139 10.249487 1.669539 38 48 40
5.423785 20.018627 1.776626 38 48 40
9.691075 39.556908 1.990800 38 48 40
-2.730641 3.623588 1.461372 44 55 59
-6.617776 6.766829 1.360291 44 55 59
-14.392046 13.053311 1.158131 44 55 59
-29.940586 25.626276 0.753809 44 55 59
-2.638685 3.733950 1.459091 31 38 44
-6.433864 6.987553 1.355731 31 38 44
-14.024221 13.494760 1.149010 31 38 44
-29.204937 26.509172 0.735568 31 38 44
-2.540140 3.845423 1.456820 32 39 34
-6.236773 7.210500 1.351187 32 39 34
-13.630041 13.940653 1.139923 32 39 34
-28.416576 27.400959 0.717394 32 39 34
-2.434748 3.957608 1.454568 79 90 93
-6.025990 7.434868 1.346684 79 90 93
-13.208474 14.389390 1.130916 79 90 93
-27.573442 28.298433 0.699381 79 90 93
-2.322290 4.070046 1.452349 77 87 88
-5.801074 7.659746 1.342246 77 87 88
-12.758642 14.839145 1.122041 77 87 88
-26.673779 29.197943 0.681630 77 87 88
-2.202594 4.182227 1.450177 97 129 164
-5.561683 7.884108 1.337902 97 129 164
-12.279860 15.287868 1.113352 97 129 164
-25.716213 30.095390 0.664253 97 129 164
-2.075550 4.293588 1.448066 28 48 37
-5.307594 8.106829 1.333681 28 48 37
-11.771683 15.733310 1.104910 28 48 37
-24.699860 30.986273 0.647368 28 48 37
-1.941118 4.403515 1.446033 107 122 127
-5.038730 8.326683 1.329614 107 122 127
-11.233953 16.173019 1.096777 107 122 127
-23.624401 31.865690 0.631102 107 122 127
-1.799340 4.511356 1.444093 149 170 187
-4.755174 8.542365 1.325735 149 170 187
-10.666842 16.604383 1.089018 149 170 187
-22.490177 32.728420 0.615584 149 170 187
-1.650350 4.616430 1.442264 179 203 228
-4.457194 8.752513 1.322075 179 203 228
-10.070883 17.024679 1.081699 179 203 228
-21.298260 33.569012 0.600947 179 203 228
-1.494381 4.718036 1.440560 34 45 48
-4.145256 8.955725 1.318669 34 45 48
-9.447005 17.431103 1.074886 34 45 48
-20.050505 34.381859 0.587321 34 45 48
-1.331770 4.815471 1.439000 54 62 65
-3.820034 9.150595 1.315547 54 62 65
-8.796562 17.820843 1.068643 54 62 65
-18.749619 35.161339 0.574834 54 62 65
-1.162963 4.908047 1.437596 48 56 58
-3.482420 9.335747 1.312740 48 56 58
-8.121335 18.191147 1.063029 48 56 58
-17.399164 35.901947 0.563605 48 56 58
-0.988510 4.995107 1.436363 52 60 63
-3.133514 9.509867 1.310275 52 60 63
-7.423522 18.539387 1.058098 52 60 63
-16.003538 36.598427 0.553744 52 60 63
-0.809059 5.076045 1.435313 54 58 61
-2.774611 9.671742 1.308175 54 58 61
-6.705717 18.863138 1.053897 54 58 61
-14.567928 37.245930 0.545343 54 58 61
-0.625347 5.150321 1.434455 42 47 43
-2.407189 9.820295 1.306459 42 47 43
-5.970871 19.160244 1.050466 42 47 43
-13.098237 37.840141 0.538479 42 47 43
-0.438189 5.217480 1.433796 36 42 42
-2.032871 9.954614 1.305141 36 42 42
-5.222237 19.428881 1.047830 36 42 42
-11.600968 38.377415 0.533208 36 42 42
-0.248452 5.277164 1.433341 56 62 58
-1.653399 10.073981 1.304230 56 62 58
-4.463292 19.667616 1.046008 56 62 58
-10.083077 38.854885 0.529564 56 62 58
-0.057046 5.329118 1.433090 51 59 61
-1.270587 10.177890 1.303728 51 59 61
-3.697668 19.875433 1.045005 51 59 61
-8.551829 39.270519 0.527558 51 59 61
0.135107 5.373201 1.433043 44 53 48
-0.886281 10.266055 1.303633 44 53 48
-2.929056 20.051764 1.044815 44 53 48
-7.014606 39.623180 0.527178 44 53 48
0.327090 5.409381 1.433194 41 47 45
-0.502314 10.338415 1.303936 41 47 45
-2.161122 20.196484 1.045420 41 47 45
-5.478739 39.912621 0.528389 41 47 45
0.518013 5.437737 1.433537 74 88 89
-0.120468 10.395128 1.304623 74 88 89
-1.397430 20.309910 1.046794 74 88 89
-3.951355 40.139473 0.531136 74 88 89
0.707032 5.458448 1.434063 68 82 83
0.257570 10.436550 1.305675 68 82 83
-0.641354 20.392754 1.048898 68 82 83
-2.439201 40.305161 0.535345 68 82 83
0.893366 5.471785 1.434761 42 52 62
0.630238 10.463223 1.307070 42 52 62
0.103983 20.446100 1.051689 42 52 62
-0.948529 40.411854 0.540926 42 52 62
1.076308 5.478095 1.435618 74 90 89
0.996122 10.475843 1.308784 74 90 89
0.835751 20.471340 1.055115 74 90 89
0.515007 40.462334 0.547779 74 90 89
1.255236 5.477787 1.436619 90 101 103
1.353979 10.475228 1.310787 90 101 103
1.551463 20.470110 1.059122 90 101 103
1.946432 40.459873 0.555791 90 101 103
1.429618 5.471324 1.437751 66 72 72
1.702742 10.462301 1.313051 66 72 72
2.248989 20.444256 1.063650 66 72 72
3.341485 40.408165 0.564848 66 72 72
1.599012 5.459195 1.438999 87 99 97
2.041531 10.438044 1.315546 87 99 97
2.926567 20.395741 1.068640 87 99 97
4.696640 40.311134 0.574828 87 99 97
1.763068 5.441915 1.440347 85 99 99
2.369642 10.403482 1.318242 85 99 99
3.582790 20.326618 1.074033 85 99 99
6.009087 40.172890 0.585614 85 99 99
1.921521 5.420000 1.441782 87 98 99
2.686549 10.359653 1.321111 87 98 99
4.216603 20.238958 1.079770 87 98 99
7.276712 39.997570 0.597089 87 98 99
2.074188 5.393964 1.443288 106 122 136
2.991883 10.307582 1.324124 106 122 136
4.827271 20.134817 1.085796 106 122 136
8.498049 39.789288 0.609140 106 122 136
2.220959 5.364309 1.444853 58 62 71
3.285425 10.248271 1.327254 58 62 71
5.414355 20.016195 1.092057 58 62 71
9.672216 39.552044 0.621661 58 62 71
-2.724929 3.620835 1.294330 145 164 177
-6.606352 6.761322 1.026209 145 164 177
-14.369198 13.042298 0.489966 145 164 177
-29.894890 25.604250 -0.582520 145 164 177
-2.632916 3.730829 1.289065 179 207 221
-6.422326 6.981311 1.015678 179 207 221
-14.001146 13.482276 0.468903 179 207 221
-29.158787 26.484205 -0.624645 179 207 221
-2.534337 3.841915 1.283849 112 78 66
-6.225169 7.203484 1.005246 112 78 66
-13.606832 13.926621 0.448041 112 78 66
-28.370157 27.372896 -0.666370 112 78 66
-2.428940 3.953696 1.278713 74 85 87
-6.014374 7.427045 0.994975 74 85 87
-13.185243 14.373743 0.427497 74 85 87
-27.526979 28.267139 -0.707457 74 85 87
-2.316507 4.065717 1.273690 71 81 82
-5.789509 7.651086 0.984927 71 81 82
-12.735512 14.821826 0.407402 71 81 82
-26.627518 29.163305 -0.747647 71 81 82
-2.196872 4.177469 1.268813 65 78 84
-5.550238 7.874591 0.975174 65 78 84
-12.256969 15.268836 0.387896 65 78 84
-25.670433 30.057325 -0.786659 65 78 84
-2.069925 4.288393 1.264121 82 98 111
-5.296345 8.096438 0.965790 82 98 111
-11.749184 15.712530 0.369128 82 98 111
-24.654861 30.944714 -0.824195 82 98 111
-1.935631 4.397881 1.259653 86 99 105
-5.027757 8.315414 0.956853 86 99 105
-11.212008 16.150482 0.351255 86 99 105
-23.580509 31.820618 -0.859942 86 99 105
-1.794034 4.505285 1.255447 160 183 197
-4.744561 8.530224 0.948443 160 183 197
-10.645617 16.580101 0.334434 160 183 197
-22.447727 32.679855 -0.893583 160 183 197
-1.645267 4.609931 1.251546 60 69 66
-4.447029 8.739515 0.940640 60 69 66
-10.050552 16.998684 0.318828 60 69 66
-21.257599 33.517021 -0.924796 60 69 66
-1.489566 4.711123 1.247988 93 104 108
-4.135627 8.941900 0.933523 93 104 108
-9.427748 17.403454 0.304595 93 104 108
-20.011990 34.326561 -0.953263 93 104 108
-1.327268 4.808167 1.244810 73 84 86
-3.811030 9.135987 0.927168 73 84 86
-8.778555 17.791628 0.291884 73 84 86
-18.713604 35.102909 -0.978684 73 84 86
-1.158815 4.900379 1.242048 147 162 167
-3.474125 9.320411 0.921644 147 162 167
-8.104744 18.160475 0.280836 147 162 167
-17.365982 35.840603 -1.000779 147 162 167
-0.984755 4.987109 1.239733 93 100 103
-3.126004 9.493872 0.917014 93 100 103
-7.408502 18.507397 0.271577 93 100 103
-15.973497 36.534447 -1.019298 93 100 103
-0.805732 5.067757 1.237891 132 146 150
-2.767958 9.655167 0.913331 132 146 150
-6.692410 18.829987 0.264209 132 146 150
-14.541313 37.179626 -1.034033 132 146 150
-0.622478 5.141788 1.236543 56 61 59
-2.401451 9.803230 0.910634 56 61 59
-5.959396 19.126114 0.258815 56 61 59
-13.075287 37.771881 -1.044821 56 61 59
-0.435802 5.208753 1.235702 54 54 52
-2.028098 9.937160 0.908951 54 54 52
-5.212691 19.393972 0.255451 54 54 52
-11.581876 38.307598 -1.051551 54 54 52
-0.246565 5.268294 1.235374 66 67 69
-1.649625 10.056242 0.908297 66 67 69
-4.455743 19.632137 0.254142 66 67 69
-10.067981 38.783928 -1.054168 66 67 69
-0.055669 5.320161 1.235561 68 70 69
-1.267832 10.159975 0.908670 68 70 69
-3.692158 19.839603 0.254888 68 70 69
-8.540811 39.198860 -1.052676 68 70 69
0.135971 5.364211 1.236253 72 75 68
-0.884551 10.248075 0.910055 72 75 68
-2.925597 20.015802 0.257658 72 75 68
-7.007688 39.551258 -1.047136 72 75 68
0.327446 5.400413 1.237437 68 68 67
-0.501601 10.320478 0.912423 68 68 67
-2.159697 20.160610 0.262394 68 68 67
-5.475888 39.840874 -1.037664 68 68 67
0.517872 5.428842 1.239092 111 126 131
-0.120750 10.377337 0.915732 111 126 131
-1.397994 20.274326 0.269013 111 126 131
-3.952482 40.068306 -1.024426 111 126 131
0.706411 5.449674 1.241191 121 135 136
0.256328 10.419002 0.919931 121 135 136
-0.643837 20.357656 0.277410 121 135 136
-2.444169 40.234966 -1.007632 121 135 136
0.892288 5.463177 1.243704 119 133 134
0.628082 10.446007 0.924957 119 133 134
0.099669 20.411667 0.287461 119 133 134
-0.957156 40.342987 -0.987529 119 133 134
1.074799 5.469691 1.246597 119 133 134
0.993105 10.459036 0.930741 119 133 134
0.829715 20.437725 0.299031 119 133 134
0.502936 40.395103 -0.964390 119 133 134
1.253327 5.469625 1.249832 115 129 129
1.350161 10.458902 0.937211 115 129 129
1.543828 20.437458 0.311971 115 129 129
1.931161 40.394569 -0.938510 115 129 129
1.427342 5.463429 1.253371 111 123 123
1.698190 10.446511 0.944290 111 123 123
2.239886 20.412676 0.326128 111 123 123
3.323277 40.345005 -0.910195 111 123 123
1.596404 5.451593 1.257176 103 117 117
2.036314 10.422839 0.951901 103 117 117
2.916133 20.365332 0.341349 103 117 117
4.675772 40.250317 -0.879753 103 117 117
1.760162 5.434622 1.261209 98 112 112
2.363830 10.388897 0.959966 98 112 112
3.571166 20.297447 0.357481 98 112 112
5.985838 40.114548 -0.847490 98 112 112
1.918353 5.413029 1.265432 94 106 106
2.680211 10.345711 0.968413 94 106 106
4.203928 20.211075 0.374374 94 106 106
7.251362 39.941803 -0.813704 94 106 106
2.070791 5.387324 1.269811 61 75 75
2.985089 10.294301 0.977169 61 75 75
4.813683 20.108255 0.391887 61 75 75
8.470872 39.736164 -0.778678 61 75 75
2.217367 5.358002 1.274311 39 51 51
3.278239 10.235658 0.986169 39 51 51
5.399984 19.990969 0.409887 39 51 51
9.643475 39.501591 -0.742678 39 51 51
-2.714937 3.614610 1.128390 153 173 184
-6.586369 6.748873 0.694329 153 173 184
-14.329232 13.017399 -0.173795 153 173 184
-29.814959 25.554451 -1.910041 153 173 184
-2.622819 3.723987 1.120200 176 199 215
-6.402133 6.967627 0.677948 176 199 215
-13.960759 13.454906 -0.206556 176 199 215
-29.078012 26.429466 -1.975564 176 199 215
-2.524175 3.834428 1.112102 172 196 208
-6.204844 7.188509 0.661753 172 196 208
-13.566183 13.896670 -0.238946 172 196 208
-28.288860 27.312994 -2.040345 172 196 208
-2.418756 3.945536 1.104145 76 87 93
-5.994006 7.410726 0.645838 76 87 93
-13.144506 14.341105 -0.270776 76 87 93
-27.445507 28.201862 -2.104004 76 87 93
-2.306352 4.056864 1.096379 57 67 68
-5.769198 7.633381 0.630307 57 67 68
-12.694891 14.786415 -0.301839 57 67 68
-26.546276 29.092484 -2.166129 57 67 68
-2.186800 4.167906 1.088861 64 77 83
-5.530094 7.855466 0.615270 64 77 83
-12.216682 15.230585 -0.331911 64 77 83
-25.589859 29.980824 -2.226274 64 77 83
-2.059998 4.278111 1.081650 55 70 73
-5.276489 8.075874 0.600847 55 70 73
-11.709473 15.671401 -0.360758 55 70 73
-24.575439 30.862455 -2.283967 55 70 73
-1.925912 4.386876 1.074806 81 92 98
-5.008318 8.293406 0.587159 81 92 98
-11.173131 16.106464 -0.388133 81 92 98
-23.502756 31.732582 -2.338718 81 92 98
-1.784591 4.493565 1.068392 36 45 44
-4.725676 8.506783 0.574333 36 45 44
-10.607846 16.533220 -0.413786 36 45 44
-22.372187 32.586094 -2.390024 36 45 44
-1.636172 4.597511 1.062473 122 133 131
-4.428838 8.714675 0.562493 122 133 131
-10.014170 16.949003 -0.437465 122 133 131
-21.184834 33.417660 -2.437382 122 133 131
-1.480888 4.698029 1.057108 199 184 177
-4.118271 8.915710 0.551764 199 184 177
-9.393036 17.351074 -0.458923 199 184 177
-19.942566 34.221802 -2.480298 199 184 177
-1.319078 4.794434 1.052358 154 135 128
-3.794651 9.108521 0.542263 154 135 128
-8.745795 17.736694 -0.477925 154 135 128
-18.648085 34.993042 -2.518302 154 135 128
-1.151181 4.886054 1.048275 133 145 148
-3.458857 9.291761 0.534098 133 145 148
-8.074207 18.103176 -0.494256 133 145 148
-17.304909 35.726006 -2.550963 133 145 148
-0.977740 4.972250 1.044908 128 142 142
-3.111974 9.464153 0.527364 128 142 142
-7.380442 18.447960 -0.507723 128 142 142
-15.917377 36.415573 -2.577898 128 142 142
-0.799393 5.052430 1.042297 136 150 151
-2.755280 9.624514 0.522143 136 150 151
-6.667054 18.768681 -0.518167 136 150 151
-14.490602 37.057014 -2.598785 136 150 151
-0.616864 5.126069 1.040473 138 152 152
-2.390223 9.771791 0.518494 138 152 152
-5.936939 19.063236 -0.525464 138 152 152
-13.030373 37.646126 -2.613380 138 152 152
-0.430953 5.192723 1.039455 139 153 154
-2.018399 9.905099 0.516459 139 153 154
-5.193293 19.329851 -0.529535 139 153 154
-11.543079 38.179356 -2.621521 139 153 154
-0.242509 5.252039 1.039254 138 152 153
-1.641512 10.023732 0.516055 138 152 153
-4.439519 19.567118 -0.530341 138 152 153
-10.035532 38.653889 -2.623134 138 152 153
-0.052424 5.303771 1.039866 137 151 152
-1.261343 10.127194 0.517280 137 151 152
-3.679179 19.774042 -0.527891 137 151 152
-8.514853 39.067738 -2.618235 137 151 152
0.138399 5.347775 1.041279 138 152 153
-0.879697 10.215204 0.520106 138 152 153
-2.915888 19.950062 -0.522240 138 152 153
-6.988270 39.419777 -2.606932 138 152 153
0.329061 5.384020 1.043468 130 146 146
-0.498372 10.287693 0.524484 130 146 146
-2.153237 20.095039 -0.513484 130 146 146
-5.462969 39.709732 -2.589419 130 146 146
0.518691 5.412577 1.046399 143 158 163
-0.119113 10.344807 0.530347 143 158 163
-1.394720 20.209267 -0.501758 143 158 163
-3.945934 39.938187 -2.565968 143 158 163
0.706459 5.433617 1.050030 144 159 164
0.256424 10.386888 0.537609 144 159 164
-0.643647 20.293428 -0.487234 144 159 164
-2.443788 40.106510 -2.536920 144 159 164
0.891599 5.447401 1.054312 145 161 161
0.626704 10.414454 0.546171 145 161 161
0.096914 20.348562 -0.470109 145 161 161
-0.962667 40.216778 -2.502670 145 161 161
1.073416 5.454261 1.059188 141 157 157
0.990337 10.428175 0.555924 141 157 157
0.824180 20.376003 -0.450604 141 157 157
0.491866 40.271660 -2.463660 141 157 157
1.251296 5.454596 1.064601 124 138 139
1.346097 10.428845 0.566749 124 138 139
1.535701 20.377344 -0.428953 124 138 139
1.914907 40.274342 -2.420358 124 138 139
1.424713 5.448851 1.070489 123 137 138
1.692933 10.417355 0.578526 123 137 138
2.229372 20.354362 -0.405400 123 137 138
3.302249 40.228378 -2.373253 123 137 138
1.593232 5.437502 1.076791 124 140 140
2.029970 10.394658 0.591130 124 140 140
2.903446 20.308969 -0.380192 124 140 140
4.650398 40.137592 -2.322835 124 140 140
1.756502 5.421049 1.083447 121 137 137
2.356510 10.361752 0.604441 121 137 137
3.556525 20.243156 -0.353570 121 137 137
5.956557 40.005966 -2.269591 121 137 137
1.914259 5.399997 1.090396 113 127 127
2.672024 10.319647 0.618340 113 127 127
4.187553 20.158947 -0.325771 113 127 127
7.218613 39.837547 -2.213994 113 127 127
2.066318 5.374846 1.097584 106 122 122
2.976141 10.269344 0.632716 106 122 122
4.795787 20.058342 -0.297020 106 122 122
8.435081 39.636337 -2.156492 106 122 122
2.212564 5.346085 1.104957 104 118 119
3.268635 10.211823 0.647462 104 118 119
5.380775 19.943300 -0.267527 104 118 119
9.605056 39.406254 -2.097507 104 118 119
-2.700775 3.604996 0.964086 15 25 24
-6.558045 6.729645 0.365719 15 25 24
-14.272584 12.978943 -0.831013 15 25 24
-29.701662 25.477539 -3.224478 15 25 24
-2.608510 3.713516 0.953059 19 29 28
-6.373514 6.946685 0.343667 19 29 28
-13.903522 13.413023 -0.875118 19 29 28
-28.963539 26.345699 -3.312689 19 29 28
-2.509772 3.823061 0.942170 58 68 69
-6.176038 7.165776 0.321889 58 68 69
-13.508571 13.851205 -0.918675 58 68 69
-28.173635 27.222063 -3.399801 58 68 69
-2.404320 3.933241 0.931483 64 76 76
-5.965135 7.386136 0.300514 64 76 76
-13.086763 14.291925 -0.961424 64 76 76
-27.330021 28.103504 -3.485300 64 76 76
-2.291950 4.043612 0.921068 68 79 83
-5.740395 7.606877 0.279683 68 79 83
-12.637283 14.733408 -1.003085 68 79 83
-26.431061 28.986469 -3.568622 68 79 83
-2.172508 4.153676 0.911000 124 142 146
-5.501511 7.827006 0.259547 124 142 146
-12.159515 15.173665 -1.043357 124 142 146
-25.475525 29.866983 -3.649166 124 142 146
-2.045898 4.262891 0.901358 127 142 149
-5.248291 8.045435 0.240265 127 142 149
-11.653076 15.610522 -1.081923 127 142 149
-24.462646 30.740698 -3.726297 127 142 149
-1.912093 4.370664 0.892226 139 156 163
-4.980680 8.260982 0.222001 139 156 163
-11.117853 16.041616 -1.118450 139 156 163
-23.392200 31.602886 -3.799353 139 156 163
-1.771144 4.476371 0.883688 143 161 165
-4.698783 8.472395 0.204924 143 161 165
-10.554060 16.464443 -1.152603 143 161 165
-22.264614 32.448540 -3.867658 143 161 165
-1.623193 4.579357 0.875828 156 111 90
-4.402880 8.678368 0.189204 156 111 90
-9.962254 16.876389 -1.184043 156 111 90
-21.081001 33.272430 -3.930538 156 111 90
-1.468474 4.678952 0.868729 156 109 91
-4.093443 8.877558 0.175006 156 109 91
-9.343380 17.274769 -1.212440 156 109 91
-19.843254 34.069191 -3.987331 156 109 91
-1.307324 4.774485 0.862469 168 117 98
-3.771142 9.068623 0.162485 168 117 98
-8.698779 17.656898 -1.237481 168 117 98
-18.554052 34.833450 -4.037414 168 117 98
-1.140180 4.865298 0.857119 180 125 105
-3.436853 9.250249 0.151787 180 125 105
-8.030201 18.020151 -1.258878 180 125 105
-17.216896 35.559956 -4.080207 180 125 105
-0.967577 4.950766 0.852745 200 149 132
-3.091647 9.421185 0.143038 200 149 132
-7.339788 18.362022 -1.276377 200 149 132
-15.836071 36.243698 -4.115205 200 149 132
-0.790145 5.030308 0.849397 215 166 149
-2.736784 9.580270 0.136343 215 166 149
-6.630061 18.680193 -1.289766 215 166 149
-14.416616 36.880039 -4.141984 215 166 149
-0.608598 5.103413 0.847118 222 175 159
-2.373691 9.726480 0.131783 222 175 159
-5.903876 18.972612 -1.298885 222 175 159
-12.964247 37.464878 -4.160222 222 175 159
-0.423723 5.169644 0.845932 207 160 144
-2.003940 9.858941 0.129412 207 160 144
-5.164374 19.237535 -1.303628 207 160 144
-11.485243 37.994724 -4.169708 207 160 144
-0.236356 5.228657 0.845852 222 183 176
-1.629207 9.976967 0.129251 222 183 176
-4.414907 19.473587 -1.303949 222 183 176
-9.986309 38.466827 -4.170350 222 183 176
-0.047373 5.280206 0.846873 204 167 150
-1.251240 10.080066 0.131294 204 167 150
-3.658973 19.679785 -1.299863 204 167 150
-8.474441 38.879223 -4.162179 204 167 150
0.142339 5.324152 0.848977 211 163 140
-0.871815 10.167956 0.135503 211 163 140
-2.900125 19.855566 -1.291447 211 163 140
-6.956744 39.230785 -4.145345 211 163 140
0.331897 5.360457 0.852131 207 158 141
-0.492700 10.240568 0.141810 207 158 141
-2.141894 20.000790 -1.278831 207 158 141
-5.440283 39.521233 -4.120114 207 158 141
0.520442 5.389193 0.856288 199 153 138
-0.115611 10.298039 0.150124 199 153 138
-1.387716 20.115732 -1.262203 199 153 138
-3.931925 39.751118 -4.086858 199 153 138
0.707159 5.410520 0.861390 185 156 140
0.257825 10.340693 0.160329 185 156 140
-0.640845 20.201040 -1.241794 185 156 140
-2.438184 39.921734 -4.046039 185 156 140
0.891294 5.424690 0.867371 167 140 126
0.626094 10.369034 0.172291 167 140 126
0.095694 20.257721 -1.217871 167 140 126
-0.965106 40.035095 -3.998193 167 140 126
1.072160 5.432027 0.874156 192 156 144
0.987826 10.383707 0.185860 192 156 144
0.819159 20.287067 -1.190732 192 156 144
0.481823 40.093788 -3.943916 192 156 144
1.249153 5.432916 0.881665 192 160 149
1.341811 10.385486 0.200878 192 160 149
1.527128 20.290625 -1.160696 192 160 149
1.897762 40.100903 -3.883844 192 160 149
1.421751 5.427790 0.889816 199 169 158
1.687008 10.375234 0.217180 199 169 158
2.217521 20.270121 -1.128091 199 169 158
3.278548 40.059895 -3.818635 199 169 158
1.589522 5.417116 0.898526 195 162 155
2.022549 10.353885 0.234601 195 162 155
2.888605 20.227423 -1.093250 195 162 155
4.620715 39.974499 -3.748951 195 162 155
1.752117 5.401379 0.907714 145 158 158
2.347741 10.322411 0.252975 145 158 158
3.538987 20.164474 -1.056501 145 158 158
5.921481 39.848602 -3.675455 145 158 158
1.909274 5.381071 0.917298 184 165 159
2.662053 10.281796 0.272144 184 165 159
4.167613 20.083244 -1.018163 184 165 159
7.178731 39.686142 -3.598779 184 165 159
2.060804 5.356686 0.927204 183 170 162
2.965114 10.233025 0.291956 183 170 162
4.773733 19.985703 -0.978541 183 170 162
8.390972 39.491058 -3.519533 183 170 162
2.206592 5.328702 0.937359 180 161 154
3.256690 10.177058 0.312267 180 161 154
5.356885 19.873770 -0.937918 180 161 154
9.557277 39.267193 -3.438288 180 161 154
-2.682589 3.592105 0.801924 49 63 63
-6.521672 6.703863 0.041396 49 63 63
-14.199839 12.927379 -1.479659 49 63 63
-29.556171 25.374411 -4.521770 49 63 63
-2.590142 3.699542 0.788176 71 85 86
-6.336777 6.918736 0.013901 71 85 86
-13.830049 13.357126 -1.534651 71 85 86
-28.816591 26.233906 -4.631753 71 85 86
-2.491288 3.807958 0.774612 92 106 107
-6.139071 7.135569 -0.013227 92 106 107
-13.434635 13.790791 -1.588906 92 106 107
-28.025764 27.101234 -4.740263 92 106 107
-2.385797 3.916967 0.761314 104 119 124
-5.928088 7.353587 -0.039825 104 119 124
-13.012670 14.226827 -1.642101 104 119 124
-27.181833 27.973307 -4.846654 104 119 124
-2.273473 4.026132 0.748367 117 130 136
-5.703440 7.571917 -0.065718 117 130 136
-12.563375 14.663487 -1.693888 117 130 136
-26.283243 28.846628 -4.950227 117 130 136
-2.154172 4.134967 0.735866 115 129 130
-5.464838 7.789588 -0.090719 115 129 130
-12.086170 15.098829 -1.743890 115 129 130
-25.328835 29.717312 -5.050231 115 129 130
-2.027805 4.242937 0.723911 89 99 101
-5.212104 8.005527 -0.114630 89 99 101
-11.580703 15.530709 -1.791712 89 99 101
-24.317900 30.581072 -5.145876 89 99 101
-1.894353 4.349466 0.712602 161 179 183
-4.945199 8.218586 -0.137247 161 179 183
-11.046893 15.956826 -1.836946 161 179 183
-23.250280 31.433306 -5.236343 161 179 183
-1.753873 4.453943 0.702046 162 179 186
-4.664240 8.427539 -0.158360 162 179 186
-10.484974 16.374731 -1.879172 162 179 186
-22.126442 32.269115 -5.320795 162 179 186
-1.606509 4.555727 0.692345 170 121 104
-4.369512 8.631108 -0.177761 170 121 104
-9.895518 16.781870 -1.917974 170 121 104
-20.947531 33.083393 -5.398401 170 121 104
-1.452498 4.654168 0.683602 170 119 102
-4.061491 8.827989 -0.195248 170 119 102
-9.279476 17.175631 -1.952947 170 119 102
-19.715446 33.870914 -5.468346 170 119 102
-1.292174 4.748610 0.675913 166 115 98
-3.740843 9.016873 -0.210626 166 115 98
-8.638180 17.553400 -1.983704 166 115 98
-18.432854 34.626453 -5.529860 166 115 98
-1.125970 4.838414 0.669366 165 113 91
-3.408435 9.196482 -0.223720 165 113 91
-7.973364 17.912617 -2.009892 165 113 91
-17.103222 35.344887 -5.582235 165 113 91
-0.954415 4.922972 0.664039 164 112 90
-3.065323 9.365597 -0.234374 164 112 90
-7.287141 18.250847 -2.031199 164 112 90
-15.730776 36.021347 -5.624850 164 112 90
-0.778127 5.001719 0.659997 164 111 93
-2.712748 9.523092 -0.242458 164 111 93
-6.581991 18.565838 -2.047369 164 111 93
-14.320476 36.651329 -5.657189 164 111 93
-0.597808 5.074158 0.657288 163 110 92
-2.352111 9.667969 -0.247877 163 110 92
-5.860715 18.855591 -2.058205 163 110 92
-12.877925 37.230835 -5.678862 163 110 92
-0.414228 5.139862 0.655944 163 112 93
-1.984949 9.799376 -0.250564 163 112 93
-5.126393 19.118406 -2.063580 163 112 93
-11.409280 37.756466 -5.689611 163 112 93
-0.228206 5.198494 0.655979 160 105 87
-1.612906 9.916641 -0.250493 160 105 87
-4.382305 19.352936 -2.063438 160 105 87
-9.921104 38.225525 -5.689329 160 105 87
-0.040598 5.249815 0.657388 167 118 103
-1.237691 10.019284 -0.247676 167 118 103
-3.631876 19.558222 -2.057804 167 118 103
-8.420245 38.636097 -5.678059 167 118 103
0.147725 5.293685 0.660147 163 111 90
-0.861044 10.107023 -0.242159 163 111 90
-2.878582 19.733700 -2.046769 163 111 90
-6.913658 38.987053 -5.655991 163 111 90
0.335901 5.330068 0.664213 161 110 91
-0.484693 10.179789 -0.234025 161 110 91
-2.125879 19.879230 -2.030502 161 110 91
-5.408253 39.278114 -5.623456 161 110 91
0.523088 5.359024 0.669531 162 109 91
-0.110318 10.237700 -0.223390 162 109 91
-1.377131 19.995054 -2.009233 162 109 91
-3.910755 39.509762 -5.580917 162 109 91
0.708489 5.380708 0.676027 161 110 91
0.260483 10.281069 -0.210398 161 110 91
-0.635527 20.081791 -1.983248 161 110 91
-2.427549 39.683235 -5.528947 161 110 91
0.891362 5.395360 0.683619 165 114 93
0.626230 10.310374 -0.195214 165 114 93
0.095966 20.140402 -1.952879 165 114 93
-0.964562 39.800457 -5.468210 165 114 93
1.071034 5.403291 0.692215 163 112 93
0.985575 10.326235 -0.178022 163 112 93
0.814655 20.172123 -1.918495 163 112 93
0.472817 39.863899 -5.399443 163 112 93
1.246910 5.404873 0.701716 166 110 93
1.337326 10.329399 -0.159020 166 110 93
1.518158 20.178452 -1.880492 166 110 93
1.879822 39.876556 -5.323435 166 110 93
1.418476 5.400523 0.712020 158 109 94
1.680457 10.320700 -0.138412 158 109 94
2.204420 20.161053 -1.839275 158 109 94
3.252346 39.841759 -5.241002 158 109 94
1.585302 5.390691 0.723024 151 106 87
2.014111 10.301036 -0.116403 151 106 87
2.871727 20.121725 -1.795258 151 106 87
4.586961 39.763103 -5.152967 151 106 87
1.747045 5.375851 0.734627 157 120 102
2.337596 10.271355 -0.093198 157 120 102
3.518697 20.062363 -1.748848 157 120 102
5.880900 39.644379 -5.060149 157 120 102
1.903439 5.356479 0.746728 155 108 88
2.650384 10.232612 -0.068995 155 108 88
4.144274 19.984877 -1.700442 155 108 88
7.132054 39.489407 -4.963336 155 108 88
2.054297 5.333056 0.759234 129 92 74
2.952100 10.185766 -0.043984 129 92 74
4.747705 19.891186 -1.650419 129 92 74
8.338917 39.302025 -4.863290 129 92 74
2.199499 5.306050 0.772056 133 90 71
3.242505 10.131754 -0.018341 133 90 71
5.328515 19.783161 -1.599133 133 90 71
9.500536 39.085976 -4.760718 133 90 71
-2.660561 3.576079 0.642378 98 113 118
-6.477616 6.671811 -0.277695 98 113 118
-14.111727 12.863275 -2.117842 98 113 118
-29.379948 25.246202 -5.798136 98 113 118
-2.567904 3.682222 0.626046 103 118 123
-6.292302 6.884098 -0.310359 103 118 123
-13.741098 13.287848 -2.183171 103 118 123
-28.638691 26.095350 -5.928793 103 118 123
-2.468920 3.789290 0.609948 110 125 132
-6.094335 7.098233 -0.342557 110 125 132
-13.345164 13.716120 -2.247566 110 125 132
-27.846823 26.951893 -6.057583 110 125 132
-2.363390 3.896904 0.594178 108 123 128
-5.883275 7.313460 -0.374096 108 123 128
-12.923043 14.146574 -2.310644 108 123 128
-27.002581 27.812801 -6.183739 108 123 128
-2.251130 4.004635 0.578841 111 126 131
-5.658753 7.528923 -0.404769 111 126 131
-12.474001 14.577498 -2.371990 111 126 131
-26.104496 28.674650 -6.306431 111 126 131
-2.132005 4.112008 0.564048 114 129 134
-5.420504 7.743670 -0.434355 114 129 134
-11.997501 15.006992 -2.431162 114 129 134
-25.151497 29.533638 -6.424776 114 129 134
-2.005935 4.218503 0.549916 154 175 180
-5.168365 7.956659 -0.462621 154 175 180
-11.493224 15.432972 -2.487693 154 175 180
-24.142942 30.385597 -6.537838 154 175 180
-1.872910 4.323556 0.536563 163 180 187
-4.902315 8.166766 -0.489325 163 180 187
-10.961124 15.853186 -2.541102 163 180 187
-23.078743 31.226025 -6.644656 163 180 187
-1.732995 4.426574 0.524115 158 175 182
-4.622483 8.372802 -0.514223 158 175 182
-10.401461 16.265257 -2.590897 158 175 182
-21.959415 32.050167 -6.744246 158 175 182
-1.586335 4.526937 0.512691 181 142 125
-4.329164 8.573526 -0.537070 181 142 125
-9.814822 16.666706 -2.636591 181 142 125
-20.786139 32.853065 -6.835635 181 142 125
-1.433170 4.624011 0.502411 177 134 118
-4.022835 8.767675 -0.557629 177 134 118
-9.202164 17.055004 -2.677710 177 134 118
-19.560822 33.629662 -6.917871 177 134 118
-1.273833 4.717164 0.493389 179 133 118
-3.704159 8.953980 -0.575675 179 133 118
-8.564813 17.427614 -2.713801 179 133 118
-18.286119 34.374882 -6.990054 179 133 118
-1.108749 4.805775 0.485725 173 126 108
-3.373992 9.131204 -0.591001 173 126 108
-7.904478 17.782061 -2.744454 173 126 108
-16.965450 35.083775 -7.051361 173 126 108
-0.938439 4.889258 0.479512 173 125 105
-3.033373 9.298169 -0.603429 173 125 105
-7.223240 18.115992 -2.769309 173 125 105
-15.602974 35.751637 -7.101070 173 125 105
-0.763511 4.967065 0.474823 118 74 65
-2.683516 9.453784 -0.612806 118 74 65
-6.523526 18.427221 -2.788064 118 74 65
-14.203546 36.374096 -7.138581 118 74 65
-0.584649 5.038714 0.471715 175 124 105
-2.325792 9.597081 -0.619021 175 124 105
-5.808078 18.713816 -2.800494 175 124 105
-12.772650 36.947285 -7.163440 175 124 105
-0.402605 5.103793 0.470226 172 120 98
-1.961703 9.727239 -0.622000 172 120 98
-5.079901 18.974131 -2.806453 172 120 98
-11.316296 37.467915 -7.175357 172 120 98
-0.218178 5.161974 0.470369 191 139 125
-1.592851 9.843601 -0.621713 191 139 125
-4.342196 19.206856 -2.805878 191 139 125
-9.840885 37.933365 -7.174208 191 139 125
-0.032204 5.213022 0.472140 174 118 98
-1.220902 9.945698 -0.618173 174 118 98
-3.598298 19.411049 -2.798797 174 118 98
-8.353089 38.341751 -7.160046 174 118 98
0.154472 5.256800 0.475508 169 114 93
-0.847550 10.033253 -0.611435 169 114 93
-2.851595 19.586159 -2.785323 169 114 93
-6.859684 38.691971 -7.133097 169 114 93
0.341007 5.293267 0.480427 171 116 95
-0.474481 10.106187 -0.601599 171 116 95
-2.105456 19.732027 -2.765649 171 116 95
-5.367407 38.983707 -7.093750 171 116 95
0.526581 5.322479 0.486827 167 115 94
-0.103332 10.164611 -0.588798 167 115 94
-1.363159 19.848875 -2.740047 167 115 94
-3.882812 39.217403 -7.042547 167 115 94
0.710416 5.344580 0.494626 165 113 91
0.264338 10.208813 -0.573200 165 113 91
-0.627817 19.937279 -2.708852 165 113 91
-2.412128 39.394211 -6.980156 165 113 91
0.891789 5.359797 0.503725 162 111 90
0.627083 10.239246 -0.555002 162 111 90
0.097672 19.998146 -2.672455 162 111 90
-0.961150 39.515945 -6.907362 162 111 90
1.070038 5.368425 0.514017 161 110 91
0.983582 10.256504 -0.534418 161 110 91
0.810671 20.032661 -2.631288 161 110 91
0.464848 39.584976 -6.825027 161 110 91
1.244581 5.370821 0.525386 160 109 90
1.332668 10.261295 -0.511680 160 109 90
1.508843 20.042244 -2.585811 160 109 90
1.861192 39.604141 -6.734074 160 109 90
1.414912 5.367383 0.537713 156 106 87
1.673331 10.254420 -0.487027 156 106 87
2.190167 20.028494 -2.536505 156 106 87
3.223841 39.576641 -6.635462 156 106 87
1.580609 5.358547 0.550875 151 103 83
2.004724 10.236748 -0.460702 151 103 83
2.852953 19.993149 -2.483855 151 103 83
4.549413 39.505951 -6.530162 151 103 83
1.741328 5.344766 0.564754 147 104 85
2.326161 10.209185 -0.432944 147 104 85
3.495828 19.938023 -2.428340 147 104 85
5.835163 39.395699 -6.419133 147 104 85
1.896805 5.326501 0.579232 148 105 86
2.637116 10.172656 -0.403989 148 105 86
4.117739 19.864965 -2.370430 148 105 86
7.078984 39.249584 -6.303311 148 105 86
2.046852 5.304219 0.594197 141 96 75
2.937210 10.128092 -0.374058 141 96 75
4.717926 19.775837 -2.310569 141 96 75
8.279358 39.071327 -6.183589 141 96 75
2.191346 5.278372 0.609544 135 90 71
3.226198 10.076398 -0.343364 135 90 71
5.295902 19.672449 -2.249179 135 90 71
9.435309 38.864552 -6.060810 135 90 71
-2.634902 3.557084 0.485882 100 119 125
-6.426298 6.633821 -0.590689 100 119 125
-14.009090 12.787295 -2.743829 100 119 125
-29.174675 25.094244 -7.050110 100 119 125
-2.542017 3.661740 0.467122 111 128 135
-6.240528 6.843134 -0.628209 111 128 135
-13.637549 13.205921 -2.818869 111 128 135
-28.431593 25.931496 -7.200190 111 128 135
-2.442898 3.767262 0.448647 118 131 139
-6.042291 7.054177 -0.665158 118 131 139
-13.241076 13.628007 -2.892768 118 131 139
-27.638645 26.775667 -7.347989 118 131 139
-2.337338 3.873277 0.430567 140 155 162
-5.831170 7.266207 -0.701318 140 155 162
-12.818834 14.052067 -2.965088 140 155 162
-26.794163 27.623787 -7.492628 140 155 162
-2.225164 3.979367 0.413000 114 129 134
-5.606823 7.478388 -0.736451 114 129 134
-12.370140 14.476429 -3.035354 114 129 134
-25.896774 28.472511 -7.633160 114 129 134
-2.106255 4.085070 0.396073 117 132 137
-5.369004 7.689794 -0.770305 117 132 137
-11.894502 14.899240 -3.103063 117 132 137
-24.945498 29.318134 -7.768577 117 132 137
-1.980540 4.189878 0.379918 120 133 139
-5.117575 7.899410 -0.802615 120 133 139
-11.391644 15.318474 -3.167683 120 133 139
-23.939781 30.156601 -7.897817 120 133 139
-1.848019 4.293249 0.364672 132 149 156
-4.852532 8.106152 -0.833109 132 149 156
-10.861558 15.731956 -3.228669 132 149 156
-22.879610 30.983564 -8.019791 132 149 156
-1.708762 4.394605 0.350472 137 152 157
-4.574018 8.308863 -0.861507 137 152 157
-10.304529 16.137379 -3.285466 137 152 157
-21.765553 31.794413 -8.133383 137 152 157
-1.562920 4.493348 0.337458 141 108 101
-4.282335 8.506350 -0.887535 141 108 101
-9.721164 16.532352 -3.337522 141 108 101
-20.598822 32.584358 -8.237495 141 108 101
-1.410734 4.588867 0.325763 156 120 106
-3.977962 8.697387 -0.910925 156 120 106
-9.112419 16.914427 -3.384302 156 120 106
-19.381332 33.348507 -8.331057 156 120 106
-1.252534 4.680553 0.315513 182 143 126
-3.661562 8.880759 -0.931425 182 143 126
-8.479618 17.281172 -3.425302 182 143 126
-18.115730 34.081997 -8.413055 182 143 126
-1.088739 4.767808 0.306825 178 135 118
-3.333972 9.055270 -0.948802 178 135 118
-7.824439 17.630194 -3.460057 178 135 118
-16.805372 34.780041 -8.482565 178 135 118
-0.919861 4.850067 0.299798 176 133 116
-2.996216 9.219788 -0.962856 176 133 116
-7.148926 17.959229 -3.488164 176 133 116
-15.454346 35.438110 -8.538780 176 133 116
-0.746491 4.926805 0.294517 178 135 118
-2.649477 9.373262 -0.973418 178 135 118
-6.455448 18.266178 -3.509289 178 135 118
-14.067390 36.052010 -8.581030 178 135 118
-0.569299 4.997554 0.291044 178 135 118
-2.295092 9.514762 -0.980363 178 135 118
-5.746678 18.549177 -3.523178 178 135 118
-12.649850 36.618008 -8.608807 178 135 118
-0.389014 5.061918 0.289422 179 133 117
-1.934522 9.643490 -0.983607 179 133 117
-5.025538 18.806633 -3.529666 179 133 117
-11.207570 37.132919 -8.621784 179 133 117
-0.206414 5.119581 0.289666 172 129 112
-1.569322 9.758816 -0.983119 172 129 112
-4.295138 19.037285 -3.528690 172 129 112
-9.746770 37.594223 -8.619833 172 129 112
-0.022308 5.170313 0.291769 176 132 105
-1.201110 9.860280 -0.978914 176 132 105
-3.558714 19.240213 -3.520279 176 132 105
-8.273923 38.000080 -8.603010 176 132 105
0.162481 5.213979 0.295699 174 127 109
-0.831532 9.947611 -0.971055 174 127 109
-2.819557 19.414875 -3.504561 174 127 109
-6.795609 38.349403 -8.571573 174 127 109
0.347138 5.250535 0.301400 176 131 112
-0.462219 10.020722 -0.959652 176 131 112
-2.080932 19.561098 -3.481756 176 131 112
-5.318359 38.641850 -8.525965 176 131 112
0.530864 5.280027 0.308797 177 128 111
-0.094765 10.079708 -0.944858 177 128 111
-1.346025 19.679070 -3.452168 177 128 111
-3.848543 38.877792 -8.466787 177 128 111
0.712905 5.302593 0.317795 169 122 104
0.269316 10.124839 -0.926862 169 122 104
-0.617862 19.769331 -3.416176 169 122 104
-2.392217 39.058315 -8.394804 169 122 104
0.892555 5.318442 0.328284 167 120 102
0.628615 10.156537 -0.905884 167 120 102
0.100736 19.832727 -3.374219 167 120 102
-0.955021 39.185108 -8.310890 167 120 102
1.069170 5.327855 0.340143 167 122 103
0.981846 10.175363 -0.882166 167 122 103
0.807197 19.870378 -3.326785 167 122 103
0.457900 39.260410 -8.216021 167 122 103
1.242180 5.331168 0.353240 173 126 110
1.327865 10.181989 -0.855971 173 126 110
1.499236 19.883631 -3.274395 173 126 110
1.841977 39.286915 -8.111240 173 126 110
1.411088 5.328762 0.367441 159 117 101
1.665682 10.177177 -0.827569 159 117 101
2.174870 19.874008 -3.217590 159 117 101
3.193247 39.267670 -7.997632 159 117 101
1.575480 5.321052 0.382609 156 115 95
1.994465 10.161757 -0.797234 156 115 95
2.832436 19.843166 -3.156920 156 115 95
4.508377 39.205986 -7.876293 156 115 95
1.735014 5.308470 0.398606 151 116 97
2.313533 10.136594 -0.765239 151 116 97
3.470573 19.792841 -3.092930 151 116 97
5.784651 39.105335 -7.748312 151 116 97
1.889429 5.291464 0.415301 147 110 91
2.622363 10.102581 -0.731850 147 110 91
4.088232 19.724815 -3.026152 147 110 91
7.019970 38.969284 -7.614755 147 110 91
2.038532 5.270479 0.432566 147 109 90
2.920571 10.060611 -0.697320 147 109 90
4.684648 19.640875 -2.957093 147 109 90
8.212801 38.801403 -7.476637 147 109 90
2.182200 5.245953 0.450280 141 104 86
3.207906 10.011559 -0.661891 141 104 86
5.259317 19.542772 -2.886234 141 104 86
9.362141 38.605198 -7.334919 141 104 86
-2.605849 3.535307 0.332820 98 113 120
-6.368192 6.590267 -0.896811 98 113 120
-13.892878 12.700188 -3.356074 98 113 120
-28.942249 24.920029 -8.274599 98 113 120
-2.512727 3.638304 0.311805 100 115 120
-6.181949 6.796262 -0.938843 100 115 120
-13.520391 13.112178 -3.440137 100 115 120
-28.197277 25.744009 -8.442726 100 115 120
-2.413476 3.742101 0.291128 105 122 129
-5.983447 7.003856 -0.980196 105 122 129
-13.123388 13.527366 -3.522844 105 122 129
-27.403271 26.574385 -8.608139 105 122 129
-2.307902 3.846337 0.270913 111 128 135
-5.772298 7.212327 -1.020626 111 128 135
-12.701090 13.944306 -3.603704 111 128 135
-26.558674 27.408266 -8.769861 111 128 135
-2.195846 3.950603 0.251291 120 137 144
-5.548185 7.420858 -1.059870 120 137 144
-12.252865 14.361370 -3.682192 120 137 144
-25.662224 28.242393 -8.926836 120 137 144
-2.077196 4.054450 0.232403 124 141 148
-5.310887 7.628553 -1.097647 124 141 148
-11.778268 14.776759 -3.757745 124 141 148
-24.713030 29.073172 -9.077942 124 141 148
-1.951898 4.157389 0.214394 122 137 144
-5.060289 7.834430 -1.133665 122 137 144
-11.277073 15.188514 -3.829781 122 137 144
-23.710640 29.896681 -9.222013 122 137 144
-1.819957 4.258894 0.197415 117 132 137
-4.796407 8.037441 -1.167622 117 132 137
-10.749309 15.594535 -3.897696 117 132 137
-22.655111 30.708723 -9.357843 117 132 137
-1.681451 4.358409 0.181619 122 135 141
-4.519396 8.236472 -1.199213 122 135 141
-10.195286 15.992598 -3.960878 122 135 141
-21.547066 31.504848 -9.484207 122 135 141
-1.536538 4.455360 0.167158 119 132 138
-4.229569 8.430374 -1.228136 119 132 138
-9.615633 16.380402 -4.018723 119 132 138
-20.387760 32.280457 -9.599897 119 132 138
-1.385457 4.549160 0.154178 107 118 120
-3.927408 8.617974 -1.254097 107 118 120
-9.011310 16.755602 -4.070645 107 118 120
-19.179113 33.030857 -9.703743 107 118 120
-1.228535 4.639225 0.142816 96 108 108
-3.613564 8.798102 -1.276820 96 108 108
-8.383623 17.115858 -4.116092 96 108 108
-17.923740 33.751369 -9.794636 96 108 108
-1.066187 4.724981 0.133199 101 111 113
-3.288868 8.969616 -1.296053 101 111 113
-7.734231 17.458885 -4.154558 101 111 113
-16.624956 34.437424 -9.871569 101 111 113
-0.898911 4.805887 0.125438 83 84 84
-2.954315 9.131428 -1.311576 83 84 84
-7.065125 17.782509 -4.185603 83 84 84
-15.286743 35.084671 -9.933659 83 84 84
-0.727283 4.881440 0.119623 64 59 53
-2.611061 9.282534 -1.323206 64 59 53
-6.378616 18.084721 -4.208863 64 59 53
-13.913727 35.689095 -9.980179 64 59 53
-0.551955 4.951193 0.115823 160 121 104
-2.260403 9.422040 -1.330806 160 121 104
-5.677300 18.363733 -4.224064 160 121 104
-12.511095 36.247120 -10.010580 160 121 104
-0.373631 5.014764 0.114082 182 143 126
-1.903756 9.549181 -1.334288 182 143 126
-4.964007 18.618015 -4.231029 182 143 126
-11.084508 36.755684 -10.024509 182 143 126
-0.193066 5.071848 0.114418 134 98 82
-1.542626 9.663349 -1.333617 134 98 82
-4.241747 18.846352 -4.229685 134 98 82
-9.639988 37.212357 -10.021822 134 98 82
-0.011042 5.122222 0.116821 183 142 124
-1.178579 9.764098 -1.328809 183 142 124
-3.513652 19.047850 -4.220070 183 142 124
-8.183798 37.615353 -10.002592 183 142 124
0.171646 5.165753 0.121258 178 135 116
-0.813202 9.851160 -1.319935 178 135 116
-2.782898 19.221973 -4.202322 178 135 116
-6.722291 37.963600 -9.967094 178 135 116
0.354209 5.202394 0.127669 177 132 113
-0.448077 9.924441 -1.307115 177 132 113
-2.052648 19.368536 -4.176681 177 132 113
-5.261789 38.256725 -9.915813 177 132 113
0.535876 5.232186 0.135969 173 128 109
-0.084743 9.984025 -1.290515 173 128 109
-1.325980 19.487703 -4.143481 173 128 109
-3.808454 38.495060 -9.849415 173 128 109
0.715914 5.255251 0.146055 168 127 107
0.275333 10.030155 -1.270342 168 127 107
-0.605827 19.579964 -4.103136 168 127 107
-2.368149 38.679581 -9.768724 168 127 107
0.893639 5.271785 0.157807 165 122 103
0.630784 10.063224 -1.246837 165 122 103
0.105074 19.646101 -4.056126 165 122 103
-0.946346 38.811855 -9.674704 165 122 103
1.068426 5.282051 0.171093 166 123 106
0.980358 10.083755 -1.220267 166 123 106
0.804223 19.687164 -4.002985 166 123 106
0.451952 38.893982 -9.568422 166 123 106
1.239719 5.286365 0.185768 163 125 106
1.322943 10.092383 -1.190917 163 125 106
1.489392 19.704420 -3.944285 163 125 106
1.822290 38.928493 -9.451023 163 125 106
1.407031 5.285088 0.201683 163 124 107
1.657569 10.089829 -1.159085 163 124 107
2.158643 19.699312 -3.880622 163 124 107
3.160792 38.918278 -9.323696 163 124 107
1.569956 5.278612 0.218689 159 122 104
1.983417 10.076878 -1.125074 159 122 104
2.810340 19.673409 -3.812601 159 122 104
4.464186 38.866470 -9.187653 159 122 104
1.728156 5.267351 0.236634 158 125 108
2.299817 10.054355 -1.089185 158 125 108
3.443141 19.628363 -3.740821 158 125 108
5.729787 38.776379 -9.044094 158 125 108
1.881370 5.251729 0.255371 133 96 77
2.606247 10.023111 -1.051709 133 96 77
4.055999 19.565876 -3.665870 133 96 77
6.955504 38.651405 -8.894192 133 96 77
2.029407 5.232175 0.274760 148 113 94
2.902319 9.984004 -1.012931 148 113 94
4.648144 19.487661 -3.588314 148 113 94
8.139794 38.494976 -8.739079 148 113 94
2.172136 5.209109 0.294668 143 110 95
3.187777 9.937872 -0.973116 143 110 95
5.219060 19.395397 -3.508683 143 110 95
9.281627 38.310448 -8.579819 143 110 95
