ply
format ascii 1.0
element vertex 2304
property float x
property float y
property float z
property uchar red
property uchar green
property uchar blue
end_header
1.954291 -5.175065 3.017458 132 137 140
2.791517 -9.881257 4.484021 132 137 140
4.465969 -19.293642 7.417147 132 137 140
7.814872 -38.118412 13.283398 132 137 140
1.816583 -5.189981 3.041469 146 151 154
2.516101 -9.911089 4.532042 146 151 154
3.915136 -19.353306 7.513188 146 151 154
6.713207 -38.237740 13.475481 146 151 154
1.673765 -5.201469 3.065032 171 176 180
2.230465 -9.934066 4.579168 171 176 180
3.343864 -19.399260 7.607440 171 176 180
5.570663 -38.329647 13.663985 171 176 180
1.525932 -5.209138 3.088003 196 197 201
1.934798 -9.949405 4.625111 196 197 201
2.752531 -19.429937 7.699327 196 197 201
4.387996 -38.391003 13.847757 196 197 201
1.373235 -5.212590 3.110228 182 186 189
1.629404 -9.956308 4.669559 182 186 189
2.141743 -19.443745 7.788224 182 186 189
3.166420 -38.418617 14.025552 182 186 189
1.215889 -5.211423 3.131541 182 186 189
1.314713 -9.953975 4.712185 182 186 189
1.512360 -19.439077 7.873475 182 186 189
1.907655 -38.409283 14.196054 182 186 189
1.054177 -5.205246 3.151772 180 181 185
0.991288 -9.941620 4.752647 180 181 185
0.865510 -19.414368 7.954399 180 181 185
0.613954 -38.359863 14.357902 180 181 185
0.888450 -5.193681 3.170745 167 171 172
0.659834 -9.918490 4.790594 167 171 172
0.202602 -19.368109 8.030293 167 171 172
-0.711861 -38.267345 14.509690 167 171 172
0.719133 -5.176377 3.188285 160 164 165
0.321200 -9.883883 4.825674 160 164 165
-0.474666 -19.298893 8.100451 160 164 165
-2.066397 -38.128914 14.650007 160 164 165
0.546722 -5.153019 3.204216 163 163 165
-0.023621 -9.837167 4.857536 163 163 165
-1.164307 -19.205462 8.164177 163 163 165
-3.445680 -37.942051 14.777458 163 163 165
0.371782 -5.123341 3.218371 162 166 167
-0.373501 -9.777810 4.885847 162 166 167
-1.864067 -19.086748 8.220798 162 166 167
-4.845199 -37.704624 14.890700 162 166 167
0.194942 -5.087130 3.230593 150 154 155
-0.727182 -9.705388 4.910290 150 154 155
-2.571430 -18.941904 8.269684 150 154 155
-6.259926 -37.414936 14.988472 150 154 155
0.016882 -5.044244 3.240738 153 157 158
-1.083301 -9.619616 4.930581 153 157 158
-3.283668 -18.770359 8.310266 153 157 158
-7.684401 -37.071846 15.069638 153 157 158
-0.161669 -4.994615 3.248685 167 167 167
-1.440403 -9.520358 4.946475 167 167 167
-3.997871 -18.571844 8.342054 167 167 167
-9.112807 -36.674816 15.133212 167 167 167
-0.339953 -4.938257 3.254333 187 187 187
-1.796971 -9.407641 4.957771 187 187 187
-4.711008 -18.346411 8.364647 187 187 187
-10.539081 -36.223949 15.178397 187 187 187
-0.517196 -4.875268 3.257608 229 228 224
-2.151458 -9.281663 4.964321 229 228 224
-5.419981 -18.094454 8.377747 229 228 224
-11.957028 -35.720036 15.204598 229 228 224
-0.692624 -4.805833 3.258466 251 252 247
-2.502314 -9.142794 4.966037 251 252 247
-6.121694 -17.816715 8.381179 251 252 247
-13.360453 -35.164558 15.211462 251 252 247
-0.865479 -4.730220 3.256893 219 218 214
-2.848024 -8.991569 4.962890 219 218 214
-6.813114 -17.514265 8.374885 219 218 214
-14.743293 -34.559658 15.198874 219 218 214
-1.035036 -4.648779 3.252905 206 206 206
-3.187138 -8.828687 4.954914 206 206 206
-7.491341 -17.188501 8.358932 206 206 206
-16.099747 -33.908131 15.166970 206 206 206
-1.200618 -4.561927 3.246550 207 207 207
-3.518301 -8.654983 4.942204 207 207 207
-8.153667 -16.841093 8.333512 207 207 207
-17.424400 -33.213314 15.116129 207 207 207
-1.361608 -4.470144 3.237904 202 202 202
-3.840281 -8.471416 4.924911 202 202 202
-8.797628 -16.473961 8.298927 202 202 202
-18.712322 -32.479050 15.046960 202 202 202
-1.517463 -4.373959 3.227069 204 204 204
-4.151992 -8.279045 4.903242 204 204 204
-9.421049 -16.089218 8.255589 204 204 204
-19.959164 -31.709564 14.960282 204 204 204
-1.667719 -4.273933 3.214171 214 214 214
-4.452503 -8.078995 4.877447 214 214 214
-10.022072 -15.689118 8.203998 214 214 214
-21.161209 -30.909365 14.857100 214 214 214
-1.811995 -4.170654 3.199355 218 218 218
-4.741055 -7.872437 4.847814 218 218 218
-10.599176 -15.276001 8.144732 218 218 218
-22.315418 -30.083130 14.738566 218 218 218
-1.949999 -4.064714 3.182778 214 214 214
-5.017063 -7.660556 4.814661 214 214 214
-11.151191 -14.852240 8.078425 214 214 214
-23.419447 -29.235607 14.605955 214 214 214
-2.081521 -3.956703 3.164612 227 225 226
-5.280108 -7.444534 4.778329 227 225 226
-11.677281 -14.420197 8.005762 227 225 226
-24.471628 -28.371521 14.460628 227 225 226
-2.206437 -3.847195 3.145031 224 224 224
-5.529940 -7.225518 4.739166 224 224 224
-12.176945 -13.982164 7.927436 224 224 224
-25.470955 -27.495457 14.303977 224 224 224
-2.324696 -3.736739 3.124213 193 197 200
-5.766457 -7.004605 4.697530 193 197 200
-12.649979 -13.540339 7.844163 193 197 200
-26.417023 -26.611805 14.137431 193 197 200
-2.436317 -3.625851 3.102334 195 199 198
-5.989700 -6.782829 4.653771 195 199 198
-13.096466 -13.096786 7.756648 195 199 198
-27.309998 -25.724701 13.962399 195 199 198
-2.541381 -3.515007 3.079565 207 207 205
-6.199827 -6.561142 4.608234 207 207 205
-13.516720 -12.653412 7.665573 207 207 205
-28.150505 -24.837952 13.780251 207 207 205
-2.640021 -3.404643 3.056071 214 214 214
-6.397107 -6.340414 4.561247 214 214 214
-13.911279 -12.211956 7.571599 214 214 214
-28.939623 -23.955040 13.592301 214 214 214
-2.732412 -3.295148 3.032008 184 189 192
-6.581889 -6.121423 4.513121 184 189 192
-14.280844 -11.773974 7.475345 184 189 192
-29.678753 -23.079077 13.399795 184 189 192
1.961158 -5.218040 2.867299 138 143 146
2.805250 -9.967207 4.183702 138 143 146
4.493434 -19.465542 6.816508 138 143 146
7.869802 -38.462212 12.082120 138 143 146
1.822447 -5.234516 2.889207 156 160 163
2.527829 -10.000159 4.227519 156 160 163
3.938593 -19.531446 6.904141 156 160 163
6.760121 -38.594021 12.257387 156 160 163
1.678498 -5.247539 2.910725 184 188 191
2.239931 -10.026206 4.270554 184 188 191
3.362796 -19.583540 6.990211 184 188 191
5.608526 -38.698208 12.429527 184 188 191
1.529400 -5.256701 2.931718 178 182 185
1.941734 -10.044531 4.312541 178 182 185
2.766402 -19.620190 7.074186 178 182 185
4.415739 -38.771507 12.597477 178 182 185
1.375302 -5.261585 2.952045 202 202 204
1.633538 -10.054298 4.353195 202 202 204
2.150011 -19.639725 7.155494 202 202 204
3.182956 -38.810577 12.760092 202 202 204
1.216419 -5.261769 2.971553 191 192 196
1.315773 -10.054667 4.392211 191 192 196
1.514481 -19.640461 7.233526 191 192 196
1.911897 -38.812050 12.916156 191 192 196
1.053037 -5.256841 2.990083 182 186 187
0.989008 -10.044809 4.429271 182 186 187
0.860951 -19.620747 7.307646 182 186 187
0.604837 -38.772621 13.064397 182 186 187
0.885512 -5.246399 3.007473 183 183 185
0.653960 -10.023927 4.464050 183 183 185
0.190854 -19.578981 7.377204 183 183 185
-0.735358 -38.689091 13.203512 183 183 185
0.714280 -5.230073 3.023557 157 161 162
0.311495 -9.991274 4.496218 157 161 162
-0.494076 -19.513676 7.441539 157 161 162
-2.105217 -38.558479 13.332183 157 161 162
0.539849 -5.207525 3.038172 179 179 181
-0.037367 -9.946177 4.525449 179 179 181
-1.191800 -19.423483 7.500002 179 179 181
-3.500666 -38.378094 13.449108 179 179 181
0.362800 -5.178467 3.051162 186 186 188
-0.391465 -9.888062 4.551429 186 186 188
-1.899996 -19.307253 7.551962 186 186 188
-4.917057 -38.145634 13.553029 186 186 188
0.183782 -5.142671 3.062379 193 193 193
-0.749502 -9.816470 4.573863 193 193 193
-2.616070 -19.164068 7.596831 193 193 193
-6.349205 -37.859264 13.642766 193 193 193
0.003499 -5.099980 3.071690 197 197 197
-1.110067 -9.731088 4.592484 197 197 197
-3.337199 -18.993303 7.634072 197 197 197
-7.791463 -37.517735 13.717248 197 197 197
-0.177293 -5.050313 3.078977 179 179 179
-1.471652 -9.631755 4.607059 179 179 179
-4.060370 -18.794638 7.663222 179 179 179
-9.237805 -37.120403 13.775549 179 179 179
-0.357811 -4.993679 3.084148 179 179 179
-1.832687 -9.518486 4.617400 179 179 179
-4.782440 -18.568100 7.683905 179 179 179
-10.681945 -36.667328 13.816914 179 179 179
-0.537250 -4.930174 3.087133 238 234 231
-2.191566 -9.391477 4.623371 238 234 231
-5.500197 -18.314081 7.695846 238 234 231
-12.117460 -36.159290 13.840796 238 234 231
-0.714808 -4.859987 3.087890 237 236 232
-2.546681 -9.251101 4.624885 237 236 232
-6.210427 -18.033331 7.698874 237 236 232
-13.537920 -35.597790 13.846852 237 236 232
-0.889698 -4.783395 3.086406 213 211 212
-2.896462 -9.097919 4.621916 213 211 212
-6.909989 -17.726965 7.692937 213 211 212
-14.937044 -34.985058 13.834978 213 211 212
-1.061170 -4.700760 3.082696 202 203 198
-3.239405 -8.932648 4.614497 202 203 198
-7.595876 -17.396423 7.678099 202 203 198
-16.308817 -34.323975 13.805302 202 203 198
-1.228524 -4.612519 3.076807 192 192 192
-3.574113 -8.756166 4.602718 192 192 192
-8.265292 -17.043459 7.654540 192 192 192
-17.647650 -33.618046 13.758184 192 192 192
-1.391124 -4.519171 3.068809 210 208 209
-3.899314 -8.569470 4.586722 210 208 209
-8.915694 -16.670069 7.622548 210 208 209
-18.948454 -32.871265 13.694201 210 208 209
-1.548412 -4.421271 3.058799 225 224 220
-4.213889 -8.373670 4.566702 225 224 220
-9.544844 -16.278467 7.582509 225 224 220
-20.206753 -32.088062 13.614122 225 224 220
-1.699912 -4.319407 3.046896 236 232 229
-4.516890 -8.169941 4.542896 236 232 229
-10.150846 -15.871009 7.534897 236 232 229
-21.418756 -31.273146 13.518898 236 232 229
-1.845239 -4.214191 3.033235 228 227 223
-4.807544 -7.959511 4.515574 228 227 223
-10.732153 -15.450150 7.480254 228 227 223
-22.581371 -30.431427 13.409612 228 227 223
-1.984098 -4.106246 3.017966 203 203 203
-5.085262 -7.743619 4.485037 203 203 203
-11.287590 -15.018366 7.419178 203 203 203
-23.692245 -29.567860 13.287460 203 203 203
-2.116284 -3.996185 3.001248 225 223 224
-5.349633 -7.523497 4.451600 225 223 224
-11.816331 -14.578122 7.352304 225 223 224
-24.749727 -28.687372 13.153713 225 223 224
-2.241675 -3.884606 2.983244 202 206 209
-5.600415 -7.300341 4.415592 202 206 209
-12.317896 -14.131809 7.280289 202 206 209
-25.752857 -27.794746 13.009683 202 206 209
-2.360232 -3.772082 2.964121 188 192 199
-5.837529 -7.075293 4.377346 188 192 199
-12.792124 -13.681713 7.203796 188 192 199
-26.701313 -26.894554 12.856697 188 192 199
-2.471985 -3.659148 2.944042 180 185 189
-6.061035 -6.849425 4.337189 180 185 189
-13.239136 -13.229978 7.123481 180 185 189
-27.595337 -25.991083 12.696067 180 185 189
-2.577027 -3.546299 2.923167 211 213 212
-6.271120 -6.623725 4.295438 211 213 212
-13.659306 -12.778578 7.039980 211 213 212
-28.435677 -25.088284 12.529064 211 213 212
-2.675506 -3.433981 2.901647 208 212 211
-6.468078 -6.399090 4.252398 208 212 211
-14.053222 -12.329309 6.953900 208 212 211
-29.223509 -24.189745 12.356905 208 212 211
-2.767613 -3.322598 2.879626 199 201 200
-6.652292 -6.176323 4.208357 199 201 200
-14.421650 -11.883774 6.865818 199 201 200
-29.960365 -23.298676 12.180739 199 201 200
1.967292 -5.256968 2.713329 145 149 152
2.817519 -10.045065 3.875762 145 149 152
4.517972 -19.621258 6.200627 145 149 152
7.918879 -38.773643 10.850359 145 149 152
1.827683 -5.274886 2.732949 155 159 162
2.538300 -10.080900 3.915001 155 159 162
3.959535 -19.692928 6.279107 155 159 162
6.802004 -38.916985 11.007318 155 159 162
1.682716 -5.289332 2.752232 169 173 176
2.248367 -10.109792 3.953569 169 173 176
3.379669 -19.750711 6.356242 169 173 176
5.642272 -39.032551 11.161589 169 173 176
1.532478 -5.299880 2.771060 203 203 205
1.947891 -10.130887 3.991223 203 203 205
2.778718 -19.792902 6.431551 203 203 205
4.440370 -39.116932 11.312206 203 203 205
1.377116 -5.306095 2.789300 193 193 195
1.637168 -10.143318 4.027705 193 193 195
2.157270 -19.817764 6.504515 193 193 195
3.197474 -39.166656 11.458135 193 193 195
1.216845 -5.307540 2.806818 200 200 202
1.316624 -10.146208 4.062740 200 200 202
1.516183 -19.823544 6.574584 200 200 202
1.915301 -39.178215 11.598272 200 200 202
1.051950 -5.303779 2.823467 197 197 199
0.986835 -10.138686 4.096038 197 197 199
0.856605 -19.808500 6.641180 197 197 199
0.596145 -39.148129 11.731463 197 197 199
0.882797 -5.294393 2.839099 168 172 173
0.648528 -10.119914 4.127302 168 172 173
0.179990 -19.770956 6.703708 168 172 173
-0.757086 -39.073040 11.856521 168 172 173
0.709826 -5.278988 2.853563 158 162 165
0.302586 -10.089104 4.156231 158 162 165
-0.511894 -19.709335 6.761566 158 162 165
-2.140854 -38.949799 11.972237 158 162 165
0.533558 -5.257207 2.866711 167 171 172
-0.049949 -10.045542 4.182527 167 171 172
-1.216963 -19.622211 6.814158 167 171 172
-3.550991 -38.775551 12.077420 167 171 172
0.354591 -5.228743 2.878399 161 165 166
-0.407883 -9.988613 4.205902 161 165 166
-1.932832 -19.508354 6.860909 161 165 166
-4.982728 -38.547836 12.170921 161 165 166
0.173591 -5.193350 2.888490 183 183 183
-0.769884 -9.917829 4.226085 183 183 183
-2.656832 -19.366785 6.901273 183 183 183
-6.430730 -38.264698 12.251651 183 183 183
-0.008715 -5.150858 2.896862 184 184 184
-1.134495 -9.832844 4.242829 184 184 184
-3.386056 -19.196815 6.934762 184 184 184
-7.889177 -37.924759 12.318628 184 184 184
-0.191550 -5.101175 2.903409 180 180 180
-1.500165 -9.733479 4.255923 180 180 180
-4.117394 -18.998085 6.960951 180 180 180
-9.351854 -37.527298 12.371006 180 180 180
-0.374100 -5.044303 2.908044 187 187 187
-1.865266 -9.619735 4.265192 187 187 187
-4.847598 -18.770597 6.979488 187 187 187
-10.812262 -37.072323 12.408081 187 187 187
-0.555538 -4.980337 2.910702 210 208 209
-2.228142 -9.491802 4.270509 210 208 209
-5.573350 -18.514732 6.990122 210 208 209
-12.263765 -36.560593 12.429348 210 208 209
-0.735033 -4.909470 2.911346 225 224 222
-2.587131 -9.350067 4.271797 225 224 222
-6.291327 -18.231262 6.992698 225 224 222
-13.699720 -35.993652 12.434500 225 224 222
-0.911772 -4.831985 2.909964 246 242 239
-2.940610 -9.195098 4.269032 246 242 239
-6.998286 -17.921324 6.987167 246 242 239
-15.113638 -35.373775 12.423439 246 242 239
-1.084982 -4.748257 2.906569 231 227 224
-3.287029 -9.027642 4.262243 231 227 224
-7.691124 -17.586412 6.973591 231 227 224
-16.499313 -34.703953 12.396286 231 227 224
-1.253940 -4.658741 2.901205 218 217 217
-3.624946 -8.848609 4.251514 218 217 217
-8.366958 -17.228346 6.952133 218 217 217
-17.850981 -33.987820 12.353371 218 217 217
-1.417994 -4.563955 2.893937 197 197 197
-3.953054 -8.659039 4.236979 197 197 197
-9.023174 -16.849205 6.923062 197 197 197
-19.163414 -33.229538 12.295229 197 197 197
-1.576572 -4.464478 2.884856 189 189 189
-4.270209 -8.460085 4.218815 189 189 189
-9.657484 -16.451298 6.886735 189 189 189
-20.432034 -32.433723 12.222574 189 189 189
-1.729187 -4.360922 2.874069 236 236 232
-4.575440 -8.252973 4.197242 236 236 232
-10.267946 -16.037073 6.843587 236 236 232
-21.652958 -31.605274 12.136279 236 236 232
-1.875451 -4.253926 2.861702 232 231 228
-4.867967 -8.038980 4.172508 232 231 228
-10.852999 -15.609089 6.794120 232 231 228
-22.823063 -30.749306 12.037344 232 231 228
-2.015066 -4.144135 2.847893 228 228 228
-5.147197 -7.819397 4.144889 228 228 228
-11.411459 -15.169923 6.738883 228 228 228
-23.939983 -29.870974 11.926870 228 228 228
-2.147829 -4.032188 2.832786 179 188 195
-5.412724 -7.595505 4.114677 179 188 195
-11.942513 -14.722137 6.678458 179 188 195
-25.002090 -28.975403 11.806021 179 188 195
-2.273627 -3.918707 2.816534 215 216 211
-5.664320 -7.368543 4.082171 215 216 211
-12.445705 -14.268213 6.613447 215 216 211
-26.008476 -28.067554 11.675998 215 216 211
-2.392429 -3.804285 2.799286 119 115 116
-5.901923 -7.139697 4.047676 119 115 116
-12.920911 -13.810522 6.544456 119 115 116
-26.958887 -27.152172 11.538017 119 115 116
-2.504274 -3.689473 2.781193 203 207 208
-6.125613 -6.910074 4.011490 203 207 208
-13.368292 -13.351275 6.472084 203 207 208
-27.853649 -26.233679 11.393271 203 207 208
-2.609269 -3.574783 2.762399 198 202 203
-6.335604 -6.680695 3.973903 198 202 203
-13.788274 -12.892517 6.396910 198 202 203
-28.693613 -25.316162 11.242924 198 202 203
-2.707577 -3.460677 2.743043 190 194 195
-6.532218 -6.452482 3.935190 190 194 195
-14.181502 -12.436092 6.319485 190 194 195
-29.480070 -24.403313 11.088074 190 194 195
-2.799400 -3.347566 2.723254 179 184 187
-6.715865 -6.226259 3.895612 179 184 187
-14.548795 -11.983646 6.240328 179 184 187
-30.214655 -23.498421 10.929760 179 184 187
1.972638 -5.291523 2.555901 162 166 169
2.828211 -10.114173 3.560906 162 166 169
4.539357 -19.759474 5.570917 162 166 169
7.961649 -39.050076 9.590939 162 166 169
1.832240 -5.310742 2.573059 151 155 158
2.547414 -10.152613 3.595221 151 155 158
3.977762 -19.836353 5.639547 151 155 158
6.838458 -39.203835 9.728198 151 155 158
1.686378 -5.326473 2.589932 157 161 164
2.255691 -10.184074 3.628968 157 161 164
3.394315 -19.899277 5.707040 157 161 164
5.671566 -39.329681 9.863184 157 161 164
1.535136 -5.338276 2.606415 167 171 174
1.953206 -10.207681 3.661934 167 171 174
2.789347 -19.946489 5.772973 167 171 174
4.461629 -39.424107 9.995049 167 171 174
1.378658 -5.345701 2.622393 184 184 186
1.640250 -10.222529 3.693891 184 184 186
2.163435 -19.976187 5.836886 184 184 186
3.209804 -39.483501 10.122877 184 184 186
1.217158 -5.348292 2.637745 193 193 195
1.317251 -10.227713 3.724595 193 193 195
1.517436 -19.986553 5.898294 193 193 195
1.917806 -39.504234 10.245693 193 193 195
1.050925 -5.345596 2.652343 194 194 196
0.984784 -10.222320 3.753790 194 194 196
0.852503 -19.975767 5.956684 194 194 196
0.587941 -39.482662 10.362473 194 194 196
0.880327 -5.337175 2.666054 185 185 185
0.643588 -10.205479 3.781211 185 185 185
0.170110 -19.942085 6.011527 185 185 185
-0.776845 -39.415298 10.472158 185 185 185
0.705813 -5.322616 2.678744 161 163 165
0.294560 -10.176360 3.806592 161 163 165
-0.527946 -19.883848 6.062287 161 163 165
-2.172957 -39.298824 10.573679 161 163 165
0.527915 -5.301542 2.690280 159 163 164
-0.061236 -10.134212 3.829664 159 163 164
-1.239537 -19.799553 6.108432 159 163 164
-3.596140 -39.130234 10.665969 159 163 164
0.347242 -5.273631 2.700534 168 170 172
-0.422581 -10.078390 3.850172 168 170 172
-1.962227 -19.687908 6.149448 168 170 172
-5.041519 -38.906944 10.748001 168 170 172
0.164480 -5.238619 2.709384 174 174 174
-0.788106 -10.008366 3.867873 174 174 174
-2.693278 -19.547859 6.184850 174 174 174
-6.503622 -38.626846 10.818804 174 174 174
-0.019627 -5.196322 2.716721 186 186 183
-1.156320 -9.923772 3.882547 186 186 183
-3.429705 -19.378672 6.214198 186 186 183
-7.976475 -38.288471 10.877501 186 186 183
-0.204278 -5.146640 2.722449 101 105 108
-1.525622 -9.824409 3.894003 101 105 108
-4.168310 -19.179945 6.237110 101 105 108
-9.453685 -37.891018 10.923325 101 105 108
-0.388639 -5.089568 2.726491 69 78 77
-1.894343 -9.710264 3.902086 69 78 77
-4.905751 -18.951656 6.253276 69 78 77
-10.928568 -37.434441 10.955656 69 78 77
-0.571855 -5.025199 2.728788 63 68 71
-2.260775 -9.581527 3.906681 63 68 71
-5.638615 -18.694181 6.262467 63 68 71
-12.394296 -36.919491 10.974038 63 68 71
-0.753071 -4.953728 2.729308 67 70 75
-2.623207 -9.438583 3.907720 67 70 75
-6.363479 -18.408295 6.264544 67 70 75
-13.844024 -36.347717 10.978193 67 70 75
-0.931453 -4.875448 2.728039 49 53 56
-2.979970 -9.282023 3.905182 49 53 56
-7.077006 -18.095175 6.259468 49 53 56
-15.271078 -35.721478 10.968040 49 53 56
-1.106203 -4.790743 2.724995 216 211 208
-3.329471 -9.112615 3.899094 216 211 208
-7.776007 -17.756357 6.247292 216 211 208
-16.669079 -35.043842 10.943687 216 211 208
-1.276581 -4.700084 2.720213 216 215 211
-3.670228 -8.931295 3.889530 216 215 211
-8.457521 -17.393719 6.228165 216 215 211
-18.032108 -34.318565 10.905435 216 215 211
-1.441919 -4.604009 2.713754 222 221 217
-4.000904 -8.739146 3.876613 222 221 217
-9.118874 -17.009420 6.202330 222 221 217
-19.354813 -33.549969 10.853764 222 221 217
-1.601631 -4.503115 2.705698 209 208 206
-4.320328 -8.537358 3.860501 209 208 206
-9.757721 -16.605844 6.170105 209 208 206
-20.632507 -32.742817 10.789315 209 208 206
-1.755225 -4.398039 2.696143 202 202 202
-4.627515 -8.327207 3.841391 202 202 202
-10.372095 -16.185541 6.131886 202 202 202
-21.861256 -31.902210 10.712875 202 202 202
-1.902304 -4.289443 2.685202 178 186 201
-4.921674 -8.110013 3.819508 178 186 201
-10.960413 -15.751154 6.088120 178 186 201
-23.037891 -31.033436 10.625344 178 186 201
-2.042572 -4.177993 2.672997 180 189 197
-5.202210 -7.887113 3.795097 180 189 197
-11.521486 -15.305354 6.039299 180 189 197
-24.160038 -30.141836 10.527701 180 189 197
-2.175831 -4.064353 2.659658 198 198 198
-5.468727 -7.659833 3.768421 198 198 198
-12.054520 -14.850795 5.985946 198 198 198
-25.226105 -29.232718 10.420996 198 198 198
-2.301970 -3.949164 2.645321 133 133 135
-5.721006 -7.429456 3.739746 133 133 135
-12.559077 -14.390039 5.928596 133 133 135
-26.235220 -28.311207 10.306297 133 133 135
-2.420967 -3.833037 2.630120 151 143 139
-5.958999 -7.197202 3.709343 151 143 139
-13.035063 -13.925531 5.867791 151 143 139
-27.187191 -27.382191 10.184687 151 143 139
-2.532872 -3.716543 2.614187 177 181 180
-6.182810 -6.964213 3.677479 177 181 180
-13.482686 -13.459555 5.804062 177 181 180
-28.082438 -26.450237 10.057228 177 181 180
-2.637805 -3.600205 2.597652 185 189 188
-6.392676 -6.731538 3.644409 185 189 188
-13.902417 -12.994204 5.737923 185 189 188
-28.921900 -25.519535 9.924950 185 189 188
-2.735938 -3.484497 2.580637 193 197 196
-6.588942 -6.500123 3.610379 193 197 196
-14.294950 -12.531373 5.669862 193 197 196
-29.706964 -24.593874 9.788829 193 197 196
-2.827489 -3.369841 2.563256 183 189 189
-6.772043 -6.270810 3.575617 183 189 189
-14.661151 -12.072747 5.600338 183 189 189
-30.439367 -23.676622 9.649780 183 189 189
1.977145 -5.321402 2.395417 162 165 170
2.837225 -10.173931 3.239938 162 165 170
4.557385 -19.878990 4.928981 162 165 170
7.997705 -39.289108 8.307066 162 165 170
1.836072 -5.341761 2.409955 165 169 172
2.555079 -10.214650 3.269013 165 169 172
3.993092 -19.960428 4.987131 165 169 172
6.869118 -39.451984 8.423367 165 169 172
1.689445 -5.358619 2.424257 173 177 178
2.261824 -10.248365 3.297619 173 177 178
3.406583 -20.027859 5.044342 173 177 178
5.696100 -39.586845 8.537788 173 177 178
1.537342 -5.371524 2.438235 174 178 179
1.957619 -10.274176 3.325574 174 178 179
2.798172 -20.079479 5.100253 174 178 179
4.479279 -39.690086 8.649611 174 178 179
1.379907 -5.380013 2.451790 169 173 174
1.642748 -10.291153 3.352684 169 173 174
2.168431 -20.113434 5.154473 169 173 174
3.219796 -39.757996 8.758051 169 173 174
1.217352 -5.383614 2.464818 182 182 184
1.317639 -10.298356 3.378739 182 182 184
1.518212 -20.127840 5.206583 182 182 184
1.919358 -39.786808 8.862270 182 182 184
1.049968 -5.381859 2.477208 204 204 204
0.982870 -10.294847 3.403520 204 204 204
0.848675 -20.120821 5.256145 204 204 204
0.580284 -39.772770 8.961393 204 204 204
0.878126 -5.374293 2.488847 211 209 210
0.639187 -10.279714 3.426799 211 209 210
0.161308 -20.090555 5.302701 211 209 210
-0.794449 -39.712238 9.054507 211 209 210
0.702283 -5.360485 2.499620 189 189 189
0.287500 -10.252098 3.448344 189 189 189
-0.542066 -20.035324 5.345793 189 189 189
-2.201196 -39.601776 9.140690 189 189 189
0.522979 -5.340043 2.509412 182 182 182
-0.071108 -10.211213 3.467928 182 182 182
-1.259282 -19.953554 5.384961 182 182 182
-3.635630 -39.438236 9.219027 182 182 182
0.340835 -5.312627 2.518112 166 166 166
-0.435395 -10.156382 3.485329 166 166 166
-1.987856 -19.843891 5.419762 166 166 166
-5.092778 -39.218910 9.288628 166 166 166
0.156550 -5.277961 2.525615 40 41 43
-0.803965 -10.087049 3.500335 40 41 43
-2.724995 -19.705227 5.449775 40 41 43
-6.567055 -38.941582 9.348654 40 41 43
-0.029111 -5.235847 2.531827 32 34 29
-1.175287 -10.002823 3.512759 32 34 29
-3.467640 -19.536774 5.474622 32 34 29
-8.052345 -38.604675 9.398348 32 34 29
-0.215331 -5.186178 2.536664 47 48 43
-1.547728 -9.903484 3.522433 47 48 43
-4.212522 -19.338097 5.493971 47 48 43
-9.542109 -38.207321 9.437046 47 48 43
-0.401254 -5.128942 2.540061 37 41 44
-1.919574 -9.789013 3.529225 37 41 44
-4.956213 -19.109154 5.507555 37 41 44
-11.029491 -37.749435 9.464214 37 41 44
-0.586005 -5.064232 2.541966 34 40 38
-2.289075 -9.659592 3.533036 34 40 38
-5.695216 -18.850311 5.515176 34 40 38
-12.507497 -37.231750 9.479456 34 40 38
-0.768706 -4.992243 2.542351 150 149 144
-2.654478 -9.515614 3.533805 150 149 144
-6.426021 -18.562355 5.516715 150 149 144
-13.969108 -36.655838 9.482534 150 149 144
-0.948503 -4.913274 2.541206 40 40 48
-3.014071 -9.357677 3.531516 40 40 48
-7.145208 -18.246481 5.512136 40 40 48
-15.407482 -36.024090 9.473377 40 40 48
-1.124580 -4.827723 2.538544 56 56 58
-3.366225 -9.186573 3.526193 56 56 58
-7.849515 -17.904274 5.501491 56 56 58
-16.816095 -35.339676 9.452085 56 56 58
-1.296179 -4.736070 2.534399 229 228 224
-3.709423 -9.003267 3.517901 229 228 224
-8.535911 -17.537663 5.484907 229 228 224
-18.188887 -34.606453 9.418918 229 228 224
-1.462617 -4.638872 2.528821 234 233 229
-4.042299 -8.808872 3.506746 234 233 229
-9.201664 -17.148872 5.462595 234 233 229
-19.520393 -33.828873 9.374295 234 233 229
-1.623300 -4.536745 2.521881 232 228 225
-4.363665 -8.604618 3.492867 232 228 225
-9.844395 -16.740364 5.434838 232 228 225
-20.805855 -33.011856 9.318780 232 228 225
-1.777726 -4.430345 2.513665 221 219 220
-4.672517 -8.391817 3.476434 221 219 220
-10.462099 -16.314762 5.401973 221 219 220
-22.041264 -32.160652 9.253050 221 219 220
-1.925496 -4.320352 2.504270 217 217 217
-4.968058 -8.171831 3.457644 217 217 217
-11.053182 -15.874790 5.364391 217 217 217
-23.223429 -31.280708 9.177887 217 217 217
-2.066315 -4.207457 2.493802 206 206 206
-5.249696 -7.946041 3.436708 206 206 206
-11.616457 -15.423210 5.322520 206 206 206
-24.349979 -30.377548 9.094144 206 206 206
-2.199985 -4.092341 2.482374 186 188 187
-5.517035 -7.715810 3.413853 186 188 187
-12.151134 -14.962748 5.276810 186 188 187
-25.419334 -29.456623 9.002725 186 188 187
-2.326402 -3.975664 2.470103 63 64 56
-5.769869 -7.482456 3.389310 63 64 56
-12.656803 -14.496039 5.227724 63 64 56
-26.430672 -28.523207 8.904552 63 64 56
-2.445551 -3.858054 2.457104 151 144 138
-6.008167 -7.247235 3.363313 151 144 138
-13.133399 -14.025599 5.175730 151 144 138
-27.383863 -27.582325 8.800564 151 144 138
-2.557492 -3.740095 2.443492 205 206 201
-6.232049 -7.011317 3.336089 205 206 201
-13.581164 -13.553762 5.121283 205 206 201
-28.279394 -26.638653 8.691669 205 206 201
-2.662354 -3.622324 2.429378 185 185 183
-6.441773 -6.775777 3.307860 185 185 183
-14.000612 -13.082682 5.064825 185 185 183
-29.118290 -25.696491 8.578754 185 185 183
-2.760320 -3.505225 2.414865 176 181 177
-6.637705 -6.541577 3.278835 176 181 177
-14.392475 -12.614283 5.006774 176 181 177
-29.902016 -24.759693 8.462653 176 181 177
-2.851619 -3.389226 2.400053 182 186 185
-6.820304 -6.309581 3.249210 182 186 185
-14.757674 -12.150290 4.947524 182 186 185
-30.632414 -23.831707 8.344152 182 186 185
1.980768 -5.346338 2.232324 166 170 171
2.844471 -10.223804 2.913751 166 170 171
4.571876 -19.978737 4.276607 166 170 171
8.026686 -39.488602 7.002318 166 170 171
1.839140 -5.367655 2.244104 171 175 176
2.561215 -10.266438 2.937312 171 175 176
4.005364 -20.064003 4.323728 171 175 176
6.893662 -39.659134 7.096560 171 175 176
1.691883 -5.385460 2.255697 175 179 180
2.266700 -10.302048 2.960497 175 179 180
3.416335 -20.135223 4.370099 175 179 180
5.715605 -39.801575 7.189302 175 179 180
1.539072 -5.399295 2.267028 186 186 188
1.961078 -10.329718 2.983160 186 186 188
2.805090 -20.190563 4.415425 186 186 188
4.493114 -39.912254 7.279955 186 186 188
1.380847 -5.408681 2.278018 173 174 176
1.644628 -10.348491 3.005141 173 174 176
2.172190 -20.228109 4.459387 173 174 176
3.227315 -39.987347 7.367877 173 174 176
1.217421 -5.413136 2.288582 186 186 186
1.317777 -10.357399 3.026268 186 186 186
1.518488 -20.245926 4.501639 186 186 186
1.919910 -40.022980 7.452383 186 186 186
1.049086 -5.412178 2.298628 186 186 186
0.981106 -10.355484 3.046360 186 186 186
0.845147 -20.242096 4.541824 186 186 186
0.573229 -40.015320 7.532752 186 186 186
0.876216 -5.405337 2.308064 202 201 197
0.635367 -10.341803 3.065231 202 201 197
0.153669 -20.214733 4.579567 202 201 197
-0.809728 -39.960594 7.608238 202 201 197
0.699273 -5.392169 2.316794 208 207 203
0.281480 -10.315465 3.082692 208 207 203
-0.554104 -20.162058 4.614489 208 207 203
-2.225274 -39.855244 7.678082 208 207 203
0.518805 -5.372266 2.324725 199 198 194
-0.079456 -10.275660 3.098554 199 198 194
-1.275978 -20.082447 4.646212 199 198 194
-3.669021 -39.696022 7.741529 199 198 194
0.335443 -5.345275 2.331764 217 216 212
-0.446180 -10.221679 3.112633 217 216 212
-2.009426 -19.974485 4.674371 217 216 212
-5.135917 -39.480099 7.797846 217 216 212
0.149897 -5.310909 2.337827 233 230 223
-0.817271 -10.152946 3.124758 233 230 223
-2.751607 -19.837021 4.698621 233 230 223
-6.620279 -39.205170 7.846345 233 230 223
-0.037052 -5.268960 2.342834 80 87 80
-1.191170 -10.069048 3.134772 80 87 80
-3.499406 -19.669224 4.718648 80 87 80
-8.115877 -38.869576 7.886400 80 87 80
-0.224573 -5.219311 2.346717 61 67 65
-1.566212 -9.969749 3.142538 61 67 65
-4.249489 -19.470627 4.734179 61 67 65
-9.616043 -38.472382 7.917464 61 67 65
-0.411791 -5.161947 2.349421 39 39 37
-1.940648 -9.855022 3.147946 39 39 37
-4.998361 -19.241173 4.744997 39 39 37
-11.113788 -38.013474 7.939097 39 39 37
-0.597813 -5.096958 2.350906 46 45 41
-2.312691 -9.725043 3.150916 46 45 41
-5.742448 -18.981215 4.750936 46 45 41
-12.601961 -37.493557 7.950975 46 45 41
-0.781744 -5.024541 2.351146 147 146 141
-2.680553 -9.580211 3.151397 147 146 141
-6.478171 -18.691549 4.751899 147 146 141
-14.073408 -36.914227 7.952901 147 146 141
-0.962711 -4.945002 2.350136 137 145 147
-3.042488 -9.421132 3.149377 137 145 147
-7.202042 -18.373392 4.747858 137 145 147
-15.521149 -36.277912 7.944820 137 145 147
-1.139884 -4.858746 2.347886 41 44 49
-3.396833 -9.248619 3.144876 41 44 49
-7.910731 -18.028366 4.738857 41 44 49
-16.938528 -35.587860 7.926819 41 44 49
-1.312490 -4.766264 2.344423 200 199 197
-3.742044 -9.063656 3.137950 200 199 197
-8.601154 -17.658440 4.725005 200 199 197
-18.319374 -34.848007 7.899115 200 199 197
-1.479834 -4.668129 2.339791 197 196 192
-4.076734 -8.867386 3.128686 197 196 192
-9.270533 -17.265900 4.706477 197 196 192
-19.658131 -34.062927 7.862058 197 196 192
-1.641313 -4.564970 2.334048 197 197 199
-4.399692 -8.661069 3.117201 197 197 199
-9.916450 -16.853266 4.683506 197 197 199
-20.949965 -33.237659 7.816115 197 197 199
-1.796421 -4.457462 2.327265 66 67 71
-4.709908 -8.446053 3.103635 66 67 71
-10.536880 -16.423233 4.656374 66 67 71
-22.190826 -32.377594 7.761852 66 67 71
-1.944755 -4.346302 2.319523 46 46 44
-5.006576 -8.223732 3.088151 46 46 44
-11.130217 -15.978593 4.625405 46 46 44
-23.377499 -31.488314 7.699915 46 46 44
-2.086019 -4.232199 2.310910 51 51 51
-5.289104 -7.995525 3.070925 51 51 51
-11.695273 -15.522178 4.590954 51 51 51
-24.507612 -30.575483 7.631012 51 51 51
-2.220018 -4.115849 2.301519 39 39 37
-5.557101 -7.762826 3.052143 39 39 37
-12.231268 -15.056780 4.553391 39 39 37
-25.579601 -29.644688 7.555886 39 39 37
-2.346653 -3.997928 2.291447 47 47 45
-5.810372 -7.526983 3.031998 47 47 45
-12.737809 -14.585094 4.513100 47 47 45
-26.592684 -28.701317 7.475304 47 47 45
-2.465916 -3.879078 2.280788 166 157 152
-6.048898 -7.289283 3.010680 166 157 152
-13.214862 -14.109694 4.470464 166 157 152
-27.546789 -27.750517 7.390033 166 157 152
-2.577874 -3.759895 2.269637 198 198 198
-6.272814 -7.050918 2.988378 198 198 198
-13.662693 -13.632963 4.425859 198 198 198
-28.442451 -26.797054 7.300823 198 198 198
-2.682665 -3.640927 2.258084 191 192 187
-6.482396 -6.812983 2.965272 191 192 187
-14.081857 -13.157093 4.379649 191 192 187
-29.280779 -25.845314 7.208403 191 192 187
-2.780482 -3.522666 2.246216 197 197 197
-6.678029 -6.576459 2.941535 197 197 197
-14.473124 -12.684047 4.332175 197 197 197
-30.063313 -24.899221 7.113454 197 197 197
-2.871562 -3.405547 2.234111 188 192 191
-6.860190 -6.342223 2.917327 188 192 191
-14.837446 -12.215573 4.283758 188 192 191
-30.791958 -23.962275 7.016620 188 192 191
1.983468 -5.366103 2.067107 150 154 157
2.849871 -10.263334 2.583319 150 154 157
4.582676 -20.057796 3.615743 150 154 157
8.048286 -39.646721 5.680590 150 154 157
1.841410 -5.388178 2.076017 152 156 157
2.565755 -10.307485 2.601138 152 156 157
4.014444 -20.146097 3.651381 152 156 157
6.911824 -39.823322 5.751866 152 156 157
1.693664 -5.406736 2.084784 146 147 151
2.270262 -10.344600 2.618672 146 147 151
3.423459 -20.220327 3.686449 146 147 151
5.729853 -39.971783 5.822003 146 147 151
1.540302 -5.421307 2.093353 61 55 41
1.963538 -10.373741 2.635809 61 55 41
2.810011 -20.278610 3.720723 61 55 41
4.502957 -40.088348 5.890551 61 55 41
1.381463 -5.431407 2.101661 100 88 70
1.645861 -10.393942 2.652426 100 88 70
2.174657 -20.319012 3.753957 100 88 70
3.232249 -40.169151 5.957018 100 88 70
1.217361 -5.436542 2.109644 175 177 176
1.317656 -10.404212 2.668392 175 177 176
1.518246 -20.339552 3.785888 175 177 176
1.919428 -40.210232 6.020881 175 177 176
1.048286 -5.436219 2.117232 191 191 191
0.979506 -10.403565 2.683568 191 191 191
0.841946 -20.338259 3.816241 191 191 191
0.566827 -40.207645 6.081587 191 191 191
0.874616 -5.429957 2.124354 207 206 202
0.632166 -10.391042 2.697813 207 206 202
0.147266 -20.313211 3.844730 207 206 202
-0.822533 -40.157551 6.138564 207 206 202
0.696816 -5.417300 2.130937 198 198 196
0.276566 -10.365728 2.710979 198 198 196
-0.563933 -20.262585 3.871063 198 198 196
-2.244931 -40.056297 6.191229 198 198 196
0.515440 -5.397831 2.136909 184 184 184
-0.086185 -10.326790 2.722923 184 184 184
-1.289435 -20.184708 3.894951 184 184 184
-3.695935 -39.900543 6.239006 184 184 184
0.331129 -5.371184 2.142200 189 189 187
-0.454808 -10.273497 2.733504 189 189 187
-2.026682 -20.078121 3.916113 189 189 187
-5.170429 -39.687370 6.281331 189 189 187
0.144601 -5.337063 2.146743 148 153 147
-0.827864 -10.205254 2.742590 148 153 147
-2.772793 -19.941635 3.934285 148 153 147
-6.662652 -39.414398 6.317674 148 153 147
-0.043354 -5.295250 2.150478 78 82 81
-1.203773 -10.121629 2.750061 78 82 81
-3.524611 -19.774385 3.949226 78 82 81
-8.166286 -39.079899 6.347557 78 82 81
-0.231888 -5.245625 2.153354 46 48 45
-1.580842 -10.022378 2.755812 46 48 45
-4.278749 -19.575884 3.960728 46 48 45
-9.674562 -38.682896 6.370561 46 48 45
-0.420115 -5.188167 2.155327 148 159 151
-1.957295 -9.907461 2.759759 148 159 151
-5.031656 -19.346050 3.968622 148 159 151
-11.180378 -38.223228 6.386349 148 159 151
-0.607127 -5.122963 2.156368 113 113 113
-2.331320 -9.777055 2.761840 113 113 113
-5.779705 -19.085238 3.972785 113 113 113
-12.676475 -37.701603 6.394674 113 113 113
-0.792015 -5.050215 2.156457 44 43 39
-2.701096 -9.631557 2.762019 44 43 39
-6.519258 -18.794243 3.973142 44 43 39
-14.155581 -37.119614 6.395388 44 43 39
-0.973894 -4.970232 2.155590 42 42 42
-3.064853 -9.471591 2.760285 42 42 42
-7.246772 -18.474310 3.969674 42 42 42
-15.610609 -36.479748 6.388453 42 42 42
-1.151917 -4.883422 2.153776 44 49 52
-3.420900 -9.297972 2.756656 44 49 52
-7.958866 -18.127071 3.962416 44 49 52
-17.034798 -35.785271 6.373936 44 49 52
-1.325305 -4.790291 2.151035 205 204 202
-3.767674 -9.111710 2.751174 205 204 202
-8.652414 -17.754547 3.951453 205 204 202
-18.421894 -35.040222 6.352011 205 204 202
-1.493351 -4.691419 2.147403 200 200 198
-4.103768 -8.913966 2.743910 200 200 198
-9.324601 -17.359060 3.936924 200 200 198
-19.766268 -34.249249 6.322953 200 200 198
-1.655446 -4.587450 2.142924 40 38 39
-4.427958 -8.706027 2.734952 40 38 39
-9.972980 -16.943182 3.919009 40 38 39
-21.063026 -33.417492 6.287123 40 38 39
-1.811079 -4.479070 2.137654 30 30 28
-4.739224 -8.489267 2.724412 30 30 28
-10.595513 -16.509663 3.897928 30 30 28
-22.308092 -32.550453 6.244961 30 30 28
-1.959846 -4.366992 2.131655 94 96 95
-5.036757 -8.265112 2.712414 94 96 95
-11.190579 -16.061352 3.873931 94 96 95
-23.498224 -31.653831 6.196967 94 96 95
-2.101449 -4.251936 2.124995 47 49 48
-5.319964 -8.035000 2.699094 47 49 48
-11.756993 -15.601128 3.847291 47 49 48
-24.631052 -30.733383 6.143687 47 49 48
-2.235696 -4.134614 2.117746 57 59 56
-5.588458 -7.800357 2.684597 57 59 56
-12.293982 -15.131842 3.818297 57 59 56
-25.705029 -29.794811 6.085699 57 59 56
-2.362494 -4.015714 2.109982 89 89 87
-5.842053 -7.562555 2.669069 89 89 87
-12.801172 -14.656239 3.787243 89 89 87
-26.719410 -28.843605 6.023591 89 89 87
-2.481837 -3.895887 2.101778 140 129 123
-6.080739 -7.322902 2.652660 140 129 123
-13.278543 -14.176931 3.754424 140 129 123
-27.674152 -27.884991 5.957952 140 129 123
-2.593800 -3.775741 2.093204 70 63 47
-6.304665 -7.082610 2.635512 70 63 47
-13.726395 -13.696348 3.720129 70 63 47
-28.569855 -26.923824 5.889362 70 63 47
-2.698527 -3.655831 2.084331 73 75 72
-6.514119 -6.842790 2.617765 73 75 72
-14.145304 -13.216707 3.684635 73 75 72
-29.407673 -25.964542 5.818375 73 75 72
-2.796218 -3.536654 2.075223 103 103 95
-6.709502 -6.604437 2.599551 103 103 95
-14.536069 -12.740002 3.648206 103 103 95
-30.189203 -25.011131 5.745515 103 103 95
-2.887121 -3.418655 2.065943 70 71 65
-6.891308 -6.368438 2.580990 70 71 65
-14.899681 -12.268003 3.611085 70 71 65
-30.916428 -24.067135 5.671274 70 71 65
1.985216 -5.380515 1.900289 139 143 146
2.853367 -10.292158 2.249683 139 143 146
4.589669 -20.115444 2.948470 139 143 146
8.062272 -39.762016 4.346045 139 143 146
1.842856 -5.403136 1.906242 138 143 146
2.568646 -10.337400 2.261587 138 143 146
4.020227 -20.205929 2.972279 138 143 146
6.923389 -39.942986 4.393662 138 143 146
1.694766 -5.422235 1.912095 94 83 63
2.272466 -10.375597 2.273294 94 83 63
3.427866 -20.282322 2.995692 94 83 63
5.738667 -40.095772 4.440488 94 83 63
1.541017 -5.437337 1.917811 57 53 38
1.964968 -10.405802 2.284726 57 53 38
2.812870 -20.342731 3.018555 57 53 38
4.508675 -40.216591 4.486215 57 53 38
1.381747 -5.447950 1.923347 73 76 67
1.646428 -10.427029 2.295799 73 76 67
2.175790 -20.385185 3.040703 73 76 67
3.234515 -40.301498 4.530510 73 76 67
1.217168 -5.453576 1.928661 65 62 57
1.317270 -10.438279 2.306426 65 62 57
1.517475 -20.407686 3.061957 65 62 57
1.917884 -40.346500 4.573018 65 62 57
1.047572 -5.453712 1.933704 66 71 75
0.978080 -10.438551 2.316512 66 71 75
0.839094 -20.408230 3.082128 66 71 75
0.561122 -40.347588 4.613361 66 71 75
0.873340 -5.447869 1.938428 93 96 101
0.629614 -10.426867 2.325960 93 96 101
0.142163 -20.384861 3.101024 93 96 101
-0.832739 -40.300850 4.651153 93 96 101
0.694938 -5.435585 1.942783 48 51 58
0.272810 -10.402297 2.334671 48 51 58
-0.571446 -20.335722 3.118447 48 51 58
-2.259957 -40.202572 4.685997 48 51 58
0.512924 -5.416430 1.946722 41 49 52
-0.091217 -10.363989 2.342547 41 49 52
-1.299499 -20.259106 3.134199 41 49 52
-3.716063 -40.049339 4.717503 41 49 52
0.327945 -5.390036 1.950195 46 51 55
-0.461176 -10.311199 2.349494 46 51 55
-2.039417 -20.153526 3.148091 46 51 55
-5.195899 -39.838181 4.745286 46 51 55
0.140726 -5.356095 1.953158 59 63 64
-0.835613 -10.243318 2.355420 59 63 64
-2.788292 -20.017763 3.159944 59 63 64
-6.693650 -39.566654 4.768991 59 63 64
-0.047935 -5.314387 1.955570 51 55 58
-1.212934 -10.159902 2.360245 51 55 58
-3.542934 -19.850931 3.169594 51 55 58
-8.202934 -39.232990 4.788292 51 55 58
-0.237181 -5.264784 1.957397 39 40 45
-1.591428 -10.060697 2.363899 39 40 45
-4.299922 -19.652521 3.176902 39 40 45
-9.716909 -38.836170 4.802909 39 40 45
-0.426117 -5.207263 1.958610 29 33 44
-1.969300 -9.945655 2.366325 29 33 44
-5.055665 -19.422438 3.181754 29 33 44
-11.228395 -38.376003 4.812613 29 33 44
-0.613825 -5.141914 1.959189 43 50 56
-2.344715 -9.814956 2.367482 43 50 56
-5.806496 -19.161039 3.184069 43 50 56
-12.730057 -37.853207 4.817242 43 50 56
-0.799385 -5.068934 1.959121 81 81 81
-2.715836 -9.668996 2.367346 81 81 81
-6.548737 -18.869120 3.183797 81 81 81
-14.214539 -37.269367 4.816698 81 81 81
-0.981902 -4.988637 1.958404 87 87 89
-3.080870 -9.508402 2.365912 87 87 89
-7.278805 -18.547932 3.180928 87 87 89
-15.674675 -36.626991 4.810961 87 87 89
-1.160522 -4.901438 1.957044 44 56 54
-3.438110 -9.334003 2.363192 44 56 54
-7.993285 -18.199135 3.175489 44 56 54
-17.103636 -35.929398 4.800082 44 56 54
-1.334455 -4.807847 1.955057 198 197 193
-3.785976 -9.146821 2.359218 198 197 193
-8.689018 -17.824770 3.167539 198 197 193
-18.495102 -35.180668 4.784183 198 197 193
-1.502993 -4.708452 1.952466 163 163 163
-4.123051 -8.948031 2.354036 163 163 163
-9.363167 -17.427191 3.157177 163 163 163
-19.843399 -34.385509 4.763458 163 163 163
-1.665517 -4.603907 1.949303 31 33 30
-4.448099 -8.738941 2.347711 31 33 30
-10.013263 -17.009010 3.144527 31 33 30
-21.143591 -33.549149 4.738158 31 33 30
-1.821514 -4.494906 1.945607 30 30 28
-4.760094 -8.520941 2.340318 30 30 28
-10.637253 -16.573009 3.129741 30 30 28
-22.391571 -32.677147 4.708587 30 30 28
-1.970580 -4.382174 1.941420 62 64 61
-5.058225 -8.295477 2.331944 62 64 61
-11.233515 -16.122082 3.112993 62 64 61
-23.584095 -31.775291 4.675089 62 64 61
-2.112417 -4.266441 1.936789 55 57 54
-5.341899 -8.064011 2.322682 55 57 54
-11.800863 -15.659149 3.094469 55 57 54
-24.718792 -30.849426 4.638042 55 57 54
-2.246833 -4.148427 1.931764 42 44 43
-5.610732 -7.827981 2.312632 42 44 43
-12.338530 -15.187091 3.074367 42 44 43
-25.794125 -29.905310 4.597839 42 44 43
-2.373739 -4.028828 1.926394 36 41 35
-5.864543 -7.588783 2.301893 36 41 35
-12.846152 -14.708694 3.052890 36 41 35
-26.809370 -28.948517 4.554885 36 41 35
-2.493132 -3.908304 1.920732 75 71 67
-6.103330 -7.347736 2.290567 75 71 67
-13.323725 -14.226601 3.030239 75 71 67
-27.764515 -27.984329 4.509583 75 71 67
-2.605093 -3.787471 1.914824 88 83 78
-6.327250 -7.106069 2.278753 88 83 78
-13.771566 -13.743266 3.006611 88 83 78
-28.660198 -27.017660 4.462326 88 83 78
-2.709769 -3.666887 1.908720 86 87 79
-6.536603 -6.864902 2.266545 86 87 79
-14.190271 -13.260933 2.982194 86 87 79
-29.497608 -26.052994 4.413493 86 87 79
-2.807367 -3.547058 1.902464 88 87 82
-6.731799 -6.625244 2.254032 88 87 82
-14.580664 -12.781616 2.957168 88 87 82
-30.278393 -25.094360 4.363441 88 87 82
-2.898139 -3.428428 1.896096 79 80 75
-6.913342 -6.387984 2.241297 79 80 75
-14.943750 -12.307096 2.931699 79 80 75
-31.004566 -24.145321 4.312501 79 80 75
1.985992 -5.389442 1.732416 84 86 81
2.854918 -10.310013 1.913936 84 86 81
4.592772 -20.151154 2.276976 84 86 81
8.068478 -39.833435 3.003056 84 86 81
1.843459 -5.412386 1.735353 60 64 63
2.569852 -10.355900 1.919811 60 64 63
4.022639 -20.242928 2.288726 60 64 63
6.928214 -40.016983 3.026556 60 64 63
1.695173 -5.431804 1.738234 93 86 60
2.273281 -10.394736 1.925572 93 86 60
3.429496 -20.320601 2.300248 93 86 60
5.741926 -40.172329 3.049600 93 86 60
1.541204 -5.447220 1.741038 80 79 75
1.965343 -10.425569 1.931180 80 79 75
2.813620 -20.382265 2.311464 80 79 75
4.510174 -40.295658 3.072032 80 79 75
1.381689 -5.458139 1.743743 59 60 64
1.646313 -10.447406 1.936591 59 60 64
2.175561 -20.425940 2.322287 59 60 64
3.234056 -40.383007 3.093678 59 60 64
1.216841 -5.464055 1.746328 36 43 49
1.316616 -10.459238 1.941761 36 43 49
1.516167 -20.449604 2.332626 36 43 49
1.915268 -40.430336 3.114356 36 43 49
1.046951 -5.464463 1.748768 31 39 42
0.976837 -10.460054 1.946640 31 39 42
0.836608 -20.451237 2.342384 31 39 42
0.556151 -40.433601 3.133873 31 39 42
0.872400 -5.458870 1.751037 30 39 46
0.627735 -10.448869 1.951179 30 39 46
0.138405 -20.428865 2.351462 30 39 46
-0.840255 -40.388859 3.152029 30 39 46
0.693658 -5.446807 1.753112 32 37 41
0.270250 -10.424742 1.955328 32 37 41
-0.576565 -20.380611 2.359760 32 37 41
-2.270195 -40.292351 3.168624 32 37 41
0.511285 -5.427842 1.754966 20 31 37
-0.094496 -10.386812 1.959036 20 31 37
-1.306057 -20.304752 2.367177 20 31 37
-3.729179 -40.140633 3.183458 20 31 37
0.325929 -5.401599 1.756576 55 59 62
-0.465208 -10.334326 1.962256 55 59 62
-2.047481 -20.199780 2.373616 55 59 62
-5.212027 -39.930687 3.196337 55 59 62
0.138321 -5.367770 1.757919 40 42 41
-0.840424 -10.266668 1.964942 40 42 41
-2.797914 -20.064465 2.378989 40 42 41
-6.712893 -39.660057 3.207082 40 42 41
-0.050738 -5.326129 1.758975 27 30 35
-1.218540 -10.183386 1.967054 27 30 35
-3.554146 -19.897900 2.383212 27 30 35
-8.225358 -39.326927 3.215529 27 30 35
-0.240385 -5.276545 1.759726 32 35 40
-1.597836 -10.084218 1.968557 32 35 40
-4.312737 -19.699564 2.386218 32 35 40
-9.742538 -38.930256 3.221539 32 35 40
-0.429719 -5.218995 1.760159 20 25 31
-1.976504 -9.969117 1.969422 20 25 31
-5.070073 -19.469362 2.387949 20 25 31
-11.257211 -38.469852 3.225002 20 25 31
-0.617817 -5.153565 1.760264 35 33 38
-2.352700 -9.838259 1.969632 35 33 38
-5.822465 -19.207645 2.388368 35 33 38
-12.761995 -37.946419 3.225840 35 33 38
-0.803754 -5.080457 1.760035 59 56 47
-2.724573 -9.692041 1.969174 59 56 47
-6.566212 -18.915211 2.387453 59 56 47
-14.249490 -37.361549 3.224010 59 56 47
-0.986629 -4.999983 1.759472 23 30 36
-3.090322 -9.531094 1.968049 23 30 36
-7.297710 -18.593315 2.385202 23 30 36
-15.712486 -36.717758 3.219509 23 30 36
-1.165582 -4.912562 1.758580 48 52 53
-3.448230 -9.356253 1.966264 48 52 53
-8.013525 -18.243633 2.381633 48 52 53
-17.144115 -36.018394 3.212370 48 52 53
-1.339821 -4.818709 1.757367 71 70 66
-3.796708 -9.168546 1.963838 71 70 66
-8.710481 -17.868219 2.376780 71 70 66
-18.538027 -35.267567 3.202665 71 70 66
-1.508631 -4.719015 1.755846 75 75 73
-4.134327 -8.969157 1.960796 75 75 73
-9.385719 -17.469442 2.370697 75 75 73
-19.888504 -34.470013 3.190499 75 75 73
-1.671393 -4.614139 1.754035 29 30 25
-4.459851 -8.759405 1.957174 29 30 25
-10.036768 -17.049938 2.363452 29 30 25
-21.190601 -33.631004 3.176009 29 30 25
-1.827592 -4.504782 1.751953 32 33 28
-4.772250 -8.540691 1.953011 32 33 28
-10.661565 -16.612511 2.355126 32 33 28
-22.440195 -32.756149 3.159357 32 33 28
-1.976822 -4.391673 1.749625 74 79 75
-5.070710 -8.314474 1.948354 74 79 75
-11.258485 -16.160076 2.345811 74 79 75
-23.634035 -31.851280 3.140727 74 79 75
-2.118786 -4.275548 1.747073 39 44 38
-5.354638 -8.082224 1.943251 39 44 38
-11.826342 -15.695576 2.335607 39 44 38
-24.769749 -30.922279 3.120317 39 44 38
-2.253294 -4.157132 1.744326 65 66 61
-5.623653 -7.845393 1.937755 65 66 61
-12.364371 -15.221913 2.324615 65 66 61
-25.845808 -29.974955 3.098334 65 66 61
-2.380256 -4.037128 1.741407 36 40 38
-5.877577 -7.605384 1.931919 36 40 38
-12.872219 -14.741896 2.312942 36 40 38
-26.861504 -29.014919 3.074989 36 40 38
-2.499673 -3.916200 1.738345 48 47 45
-6.116412 -7.363527 1.925795 48 47 45
-13.349889 -14.258183 2.300694 48 47 45
-27.816843 -28.047493 3.050492 48 47 45
-2.611627 -3.794965 1.735165 55 53 38
-6.340320 -7.121058 1.919433 55 53 38
-13.797705 -13.773245 2.287971 55 53 38
-28.712475 -27.077618 3.025046 55 53 38
-2.716270 -3.673989 1.731890 51 50 45
-6.549606 -6.879107 1.912884 51 50 45
-14.216278 -13.289341 2.274872 51 50 45
-29.549622 -26.109810 2.998847 51 50 45
-2.813811 -3.553778 1.728544 76 73 58
-6.744688 -6.638685 1.906192 76 73 58
-14.606441 -12.808497 2.261488 76 73 58
-30.329948 -25.148123 2.972080 76 73 58
-2.904505 -3.434780 1.725148 65 65 57
-6.926075 -6.400688 1.899400 65 65 57
-14.969215 -12.332503 2.247904 65 65 57
-31.055496 -24.196135 2.944913 65 65 57
1.985784 -5.392809 1.564051 63 55 52
2.854503 -10.316746 1.577206 63 55 52
4.591940 -20.164619 1.603516 63 55 52
8.066814 -39.860367 1.656136 63 55 52
1.843210 -5.415845 1.563947 62 67 63
2.569354 -10.362818 1.576998 62 67 63
4.021643 -20.256763 1.603100 62 67 63
6.926220 -40.044655 1.655303 62 67 63
1.694878 -5.435356 1.563827 51 58 66
2.272691 -10.401840 1.576759 51 58 66
3.428316 -20.334808 1.602623 51 58 66
5.739566 -40.200745 1.654349 51 58 66
1.540858 -5.450863 1.563692 61 66 70
1.964651 -10.432855 1.576488 61 66 70
2.812237 -20.396837 1.602080 61 66 70
4.507409 -40.324802 1.653265 61 66 70
1.381288 -5.461870 1.563539 39 42 47
1.645511 -10.454868 1.576182 39 42 47
2.173957 -20.440865 1.601468 39 42 47
3.230848 -40.412857 1.652041 39 42 47
1.216379 -5.467870 1.563367 31 35 44
1.315693 -10.466868 1.575839 31 35 44
1.514322 -20.464865 1.600783 31 35 44
1.911578 -40.460857 1.650670 31 35 44
1.046425 -5.468358 1.563177 27 36 43
0.975784 -10.467844 1.575458 27 36 43
0.834503 -20.466816 1.600020 27 36 43
0.551941 -40.464760 1.649144 27 36 43
0.871805 -5.462839 1.562966 31 36 40
0.626544 -10.456805 1.575036 31 36 40
0.136022 -20.444738 1.599177 31 36 40
-0.845021 -40.420605 1.647458 31 36 40
0.692989 -5.450841 1.562734 68 73 77
0.268912 -10.432811 1.574573 68 73 77
-0.579241 -20.396749 1.598250 68 73 77
-2.275548 -40.324627 1.645605 68 73 77
0.510539 -5.431935 1.562482 83 91 93
-0.095988 -10.394998 1.574067 83 91 93
-1.309042 -20.321123 1.597239 83 91 93
-3.735149 -40.173374 1.643583 83 91 93
0.325103 -5.405740 1.562207 59 63 66
-0.466859 -10.342608 1.573519 59 63 66
-2.050784 -20.216345 1.596143 59 63 66
-5.218634 -39.963818 1.641389 59 63 66
0.137413 -5.371949 1.561912 24 29 38
-0.842240 -10.275026 1.572928 24 29 38
-2.801545 -20.081181 1.594961 24 29 38
-6.720156 -39.693489 1.639026 24 29 38
-0.051728 -5.330334 1.561595 18 27 36
-1.220522 -10.191795 1.572295 18 27 36
-3.558109 -19.914719 1.593695 18 27 36
-8.233284 -39.360565 1.636494 18 27 36
-0.241459 -5.280764 1.561259 19 27 30
-1.599983 -10.092656 1.571622 19 27 30
-4.317032 -19.716440 1.592348 19 27 30
-9.751129 -38.964008 1.633799 19 27 30
-0.430875 -5.223215 1.560902 23 30 38
-1.978815 -9.977558 1.570909 23 30 38
-5.074696 -19.486244 1.590923 23 30 38
-11.266458 -38.503616 1.630950 23 30 38
-0.619053 -5.157774 1.560528 22 26 33
-2.355171 -9.846677 1.570161 22 26 33
-5.827407 -19.224482 1.589426 22 26 33
-12.771879 -37.980091 1.627956 22 26 33
-0.805066 -5.084641 1.560137 32 31 37
-2.727197 -9.700411 1.569379 32 31 37
-6.571459 -18.931950 1.587862 32 31 37
-14.259984 -37.395027 1.624829 32 31 37
-0.988012 -5.004131 1.559732 30 32 43
-3.093090 -9.539390 1.568568 30 32 43
-7.303246 -18.609907 1.586240 30 32 43
-15.723557 -36.750942 1.621584 30 32 43
-1.167032 -4.916662 1.559313 45 50 53
-3.451129 -9.364451 1.567731 45 50 53
-8.019324 -18.260031 1.584566 45 50 53
-17.155714 -36.051189 1.618236 45 50 53
-1.341330 -4.822747 1.558884 68 64 61
-3.799726 -9.176622 1.566873 68 64 61
-8.716517 -17.884373 1.582850 68 64 61
-18.550100 -35.299873 1.614804 68 64 61
-1.510193 -4.722983 1.558447 78 70 71
-4.137451 -8.977094 1.565998 78 70 71
-9.391967 -17.485315 1.581101 78 70 71
-19.900999 -34.501759 1.611305 78 70 71
-1.672999 -4.618027 1.558004 22 24 23
-4.463064 -8.767182 1.565112 22 24 23
-10.043194 -17.065493 1.579327 22 24 23
-21.203453 -33.662113 1.607759 22 24 23
-1.829236 -4.508583 1.557557 21 21 23
-4.775537 -8.548294 1.564217 21 21 23
-10.668139 -16.627716 1.577539 21 21 23
-22.453342 -32.786560 1.604183 21 21 23
-1.978494 -4.395380 1.557108 72 72 70
-5.074054 -8.321889 1.563321 72 72 70
-11.265174 -16.174906 1.575745 72 72 70
-23.647413 -31.880939 1.600595 72 72 70
-2.120480 -4.279157 1.556660 27 28 26
-5.358026 -8.089441 1.562425 27 28 26
-11.833117 -15.710011 1.573955 27 28 26
-24.783298 -30.951149 1.597014 27 28 26
-2.255001 -4.160639 1.556216 72 74 73
-5.627067 -7.852405 1.561535 72 74 73
-12.371199 -15.235938 1.572175 72 74 73
-25.859463 -30.003004 1.593454 72 74 73
-2.381968 -4.040530 1.555775 36 37 41
-5.881002 -7.612188 1.560655 36 37 41
-12.879069 -14.755504 1.570414 36 37 41
-26.875204 -29.042135 1.589932 36 37 41
-2.501384 -3.919495 1.555341 45 46 41
-6.119834 -7.370118 1.559787 45 46 41
-13.356734 -14.271364 1.568677 45 46 41
-27.830534 -28.073856 1.586459 45 46 41
-2.613332 -3.798154 1.554915 45 45 37
-6.343729 -7.127437 1.558934 45 45 37
-13.804523 -13.786001 1.566972 45 45 37
-28.726110 -27.103130 1.583048 45 45 37
-2.717962 -3.677073 1.554497 54 55 49
-6.552989 -6.885274 1.558099 54 55 49
-14.223042 -13.301676 1.565302 54 55 49
-29.563150 -26.134480 1.579708 54 55 49
-2.815485 -3.556758 1.554090 49 54 50
-6.748035 -6.644643 1.557284 49 54 50
-14.613135 -12.820415 1.563671 49 54 50
-30.343336 -25.171957 1.576447 49 54 50
-2.906156 -3.437657 1.553693 70 71 66
-6.929377 -6.406441 1.556490 70 71 66
-14.975819 -12.344010 1.562084 70 71 66
-31.068703 -24.219149 1.573272 70 71 66
1.984592 -5.390593 1.395766 62 45 35
2.852118 -10.312313 1.240636 62 45 35
4.587171 -20.155754 0.930376 62 45 35
8.057276 -39.842636 0.309856 62 45 35
1.842108 -5.413492 1.392625 40 40 38
2.567151 -10.358112 1.234354 40 40 38
4.017236 -20.247353 0.917813 40 40 38
6.917406 -40.025833 0.284731 40 40 38
1.693881 -5.432866 1.389511 77 81 67
2.270696 -10.396860 1.228126 77 81 67
3.424326 -20.324848 0.905357 77 81 67
5.731586 -40.180824 0.259818 77 81 67
1.539980 -5.448239 1.386441 44 49 52
1.962895 -10.427607 1.221986 44 49 52
2.808724 -20.386341 0.893077 44 49 52
4.500382 -40.303810 0.235257 44 49 52
1.380544 -5.459116 1.383434 70 74 78
1.644024 -10.449361 1.215973 70 74 78
2.170982 -20.429850 0.881050 70 74 78
3.224898 -40.390827 0.211205 70 74 78
1.215786 -5.464993 1.380512 42 47 51
1.314506 -10.461115 1.210128 42 47 51
1.511946 -20.453358 0.869361 42 47 51
1.906827 -40.437843 0.187826 42 47 51
1.045996 -5.465366 1.377696 39 46 54
0.974927 -10.461860 1.204496 39 46 54
0.832789 -20.454847 0.858097 39 46 54
0.548513 -40.440823 0.165299 39 46 54
0.871556 -5.459743 1.375010 45 50 53
0.626047 -10.450614 1.199124 45 50 53
0.135029 -20.432356 0.847352 45 50 53
-0.847007 -40.395840 0.143809 45 50 53
0.692935 -5.447655 1.372477 45 48 53
0.268804 -10.426438 1.194059 45 48 53
-0.579457 -20.384005 0.837221 45 48 53
-2.275980 -40.299137 0.123547 45 48 53
0.510692 -5.428674 1.370122 27 30 35
-0.095682 -10.388475 1.189348 27 30 35
-1.308430 -20.308079 0.827801 27 30 35
-3.733926 -40.147285 0.104706 27 30 35
0.325474 -5.402422 1.367968 22 29 35
-0.466118 -10.335973 1.185040 22 29 35
-2.049301 -20.203074 0.819185 22 29 35
-5.215668 -39.937275 0.087474 22 29 35
0.138010 -5.368594 1.366038 25 26 31
-0.841045 -10.268316 1.181180 25 26 31
-2.799155 -20.067760 0.811464 25 26 31
-6.715376 -39.666649 0.072033 25 26 31
-0.050898 -5.326964 1.364352 19 24 27
-1.218862 -10.185057 1.177809 19 24 27
-3.554789 -19.901241 0.804723 19 24 27
-8.226643 -39.333611 0.058550 19 24 27
-0.240393 -5.277403 1.362930 39 41 36
-1.597851 -10.085935 1.174965 39 41 36
-4.312768 -19.702997 0.799035 39 41 36
-9.742600 -38.937122 0.047174 39 41 36
-0.429573 -5.219887 1.361788 24 28 31
-1.976212 -9.970902 1.172679 24 28 31
-5.069489 -19.472933 0.794463 24 28 31
-11.256044 -38.476994 0.038030 24 28 31
-0.617519 -5.154502 1.360936 16 30 31
-2.352103 -9.840133 1.170976 16 30 31
-5.821270 -19.211393 0.791057 16 30 31
-12.759606 -37.953915 0.031217 16 30 31
-0.803306 -5.081450 1.360384 25 30 34
-2.723678 -9.694029 1.169872 25 30 34
-6.564421 -18.919186 0.788848 25 30 34
-14.245908 -37.369499 0.026801 25 30 34
-0.986037 -5.001042 1.360136 29 24 21
-3.089140 -9.533213 1.169375 29 24 21
-7.295345 -18.597553 0.787855 29 24 21
-15.707756 -36.726234 0.024815 29 24 21
-1.164855 -4.913697 1.360191 46 50 51
-3.446775 -9.358522 1.169486 46 50 51
-8.010616 -18.248173 0.788076 46 50 51
-17.138298 -36.027473 0.025256 46 50 51
-1.338967 -4.819926 1.360545 40 39 35
-3.794999 -9.170980 1.170194 40 39 35
-8.707064 -17.873089 0.789492 40 39 35
-18.531193 -35.277306 0.028088 40 39 35
-1.507661 -4.720322 1.361189 32 33 28
-4.132387 -8.971771 1.171482 32 33 28
-9.381840 -17.474670 0.792069 32 33 28
-19.880745 -34.480469 0.033243 32 33 28
-1.670319 -4.615539 1.362111 58 55 52
-4.457704 -8.762206 1.173327 58 55 52
-10.032473 -17.055540 0.795758 58 55 52
-21.182011 -33.642208 0.040621 58 55 52
-1.826427 -4.506279 1.363296 31 34 25
-4.769920 -8.543687 1.175696 31 34 25
-10.656906 -16.618502 0.800497 31 34 25
-22.430878 -32.768131 0.050097 31 34 25
-1.975580 -4.393269 1.364724 74 78 79
-5.068225 -8.317665 1.178553 74 78 79
-11.253516 -16.166458 0.806211 74 78 79
-23.624098 -31.864044 0.061526 74 78 79
-2.117480 -4.277240 1.366377 40 40 38
-5.352025 -8.085608 1.181858 40 40 38
-11.821115 -15.702345 0.812819 40 40 38
-24.759295 -30.935818 0.074743 40 40 38
-2.251936 -4.158920 1.368231 65 69 70
-5.620938 -7.848969 1.185565 65 69 70
-12.358942 -15.229066 0.820235 65 69 70
-25.834949 -29.989260 0.089574 65 69 70
-2.378860 -4.039009 1.370264 51 53 50
-5.874784 -7.609146 1.189632 51 53 50
-12.866634 -14.749420 0.828368 51 53 50
-26.850334 -29.029968 0.105839 51 53 50
-2.498250 -3.918169 1.372453 51 47 38
-6.113566 -7.367466 1.194010 51 47 38
-13.344198 -14.266060 0.837125 51 47 38
-27.805462 -28.063248 0.123355 51 47 38
-2.610189 -3.797018 1.374776 40 42 39
-6.337444 -7.125163 1.198657 40 42 39
-13.791954 -13.781454 0.846418 40 42 39
-28.700974 -27.094036 0.141940 40 42 39
-2.714828 -3.676119 1.377211 36 37 39
-6.546721 -6.883366 1.203527 36 37 39
-14.210506 -13.297859 0.856158 36 37 39
-29.538078 -26.126846 0.161420 36 37 39
-2.812373 -3.555978 1.379737 51 48 38
-6.741811 -6.643084 1.208579 51 48 38
-14.600687 -12.817295 0.866262 51 48 38
-30.318439 -25.165718 0.181628 51 48 38
-2.903078 -3.437043 1.382335 50 40 39
-6.923221 -6.405213 1.213774 50 40 39
-14.963507 -12.341555 0.876652 50 40 39
-31.044079 -24.214237 0.202408 50 40 39
1.982424 -5.382830 1.228131 54 59 63
2.847783 -10.296787 0.905366 54 59 63
4.578500 -20.124702 0.259836 54 59 63
8.039934 -39.780533 -1.031223 54 59 63
1.840162 -5.405364 1.221990 49 58 65
2.563258 -10.341856 0.893084 49 58 65
4.009450 -20.214840 0.235272 49 58 65
6.901834 -39.960808 -1.080353 49 58 65
1.692188 -5.424376 1.215918 54 59 64
2.267311 -10.379881 0.880939 54 59 64
3.417556 -20.290890 0.210983 54 59 64
5.718047 -40.112907 -1.128929 54 59 64
1.538576 -5.439394 1.209951 47 51 51
1.960086 -10.409915 0.869006 47 51 51
2.803106 -20.350958 0.187115 47 51 51
4.489146 -40.233044 -1.176665 47 51 51
1.379463 -5.449926 1.204128 48 50 45
1.641860 -10.430981 0.857360 48 50 45
2.166655 -20.393089 0.163825 48 50 45
3.216245 -40.317307 -1.223245 48 50 45
1.215062 -5.455475 1.198492 33 40 46
1.313059 -10.442078 0.846089 33 40 46
1.509053 -20.415283 0.141282 33 40 46
1.901041 -40.361694 -1.268331 33 40 46
1.045667 -5.455542 1.193088 37 42 48
0.974268 -10.442212 0.835281 37 42 48
0.831470 -20.415552 0.119666 37 42 48
0.545875 -40.362232 -1.311565 37 42 48
0.871654 -5.449640 1.187962 38 45 53
0.626243 -10.430408 0.825029 38 45 53
0.135420 -20.391945 0.099163 38 45 53
-0.846225 -40.315018 -1.352571 38 45 53
0.693492 -5.437308 1.183163 31 38 45
0.269918 -10.405745 0.815430 31 38 45
-0.577229 -20.342617 0.079964 31 38 45
-2.271523 -40.216362 -1.390967 31 38 45
0.511737 -5.418122 1.178737 31 35 36
-0.093592 -10.367373 0.806579 31 35 36
-1.304250 -20.265873 0.062263 31 35 36
-3.725565 -40.062874 -1.426371 31 35 36
0.327031 -5.391711 1.174733 27 30 39
-0.463003 -10.314550 0.798570 27 30 39
-2.043071 -20.160229 0.046245 27 30 39
-5.203207 -39.851585 -1.458405 27 30 39
0.140100 -5.357774 1.171194 25 29 34
-0.836866 -10.246676 0.791493 25 29 34
-2.790797 -20.024481 0.032090 25 29 34
-6.698660 -39.580090 -1.486715 25 29 34
-0.048264 -5.316091 1.168162 22 25 30
-1.213593 -10.163309 0.785429 22 25 30
-3.544251 -19.857746 0.019962 22 25 30
-8.205567 -39.246620 -1.510972 22 25 30
-0.237207 -5.266533 1.165673 23 28 34
-1.591480 -10.064194 0.780451 23 28 34
-4.300025 -19.659515 0.010005 23 28 34
-9.717115 -38.850159 -1.530885 23 28 34
-0.425838 -5.209080 1.163757 16 26 25
-1.968741 -9.949288 0.776618 16 26 25
-5.054547 -19.429705 0.002340 16 26 25
-11.226159 -38.390537 -1.546215 16 26 25
-0.613242 -5.143820 1.162436 38 39 42
-2.343550 -9.818768 0.773977 38 39 42
-5.804166 -19.168663 -0.002942 38 39 42
-12.725397 -37.868454 -1.556780 38 39 42
-0.798506 -5.070951 1.161726 39 41 40
-2.714078 -9.673030 0.772557 39 41 40
-6.545221 -18.877188 -0.005782 39 41 40
-14.207507 -37.285503 -1.562459 39 41 40
-0.980738 -4.990785 1.161633 14 26 30
-3.078541 -9.512698 0.772371 14 26 30
-7.274148 -18.556524 -0.006153 14 26 30
-15.665361 -36.644176 -1.563203 14 26 30
-1.159088 -4.903735 1.162155 39 48 47
-3.435241 -9.338597 0.773414 39 48 47
-7.987547 -18.208323 -0.004067 39 48 47
-17.092159 -35.947773 -1.559030 39 48 47
-1.332769 -4.810308 1.163280 51 52 46
-3.782604 -9.151743 0.775664 51 52 46
-8.682273 -17.834614 0.000433 51 52 46
-18.481611 -35.200356 -1.550029 51 52 46
-1.501076 -4.711090 1.164989 77 40 32
-4.119218 -8.953308 0.779083 77 40 32
-9.355501 -17.437744 0.007270 77 40 32
-19.828068 -34.406616 -1.536356 77 40 32
-1.663393 -4.606730 1.167256 123 116 108
-4.443852 -8.744588 0.783616 123 116 108
-10.004770 -17.020304 0.016337 123 116 108
-21.126606 -33.571735 -1.518222 123 116 108
-1.819210 -4.497921 1.170047 31 30 35
-4.755486 -8.526971 0.789198 31 30 35
-10.628036 -16.585070 0.027501 31 30 35
-22.373138 -32.701267 -1.495893 31 30 35
-1.968121 -4.385384 1.173324 72 74 73
-5.053307 -8.301895 0.795753 72 74 73
-11.223680 -16.134918 0.040609 72 74 73
-23.564425 -31.800966 -1.469677 72 74 73
-2.109829 -4.269844 1.177045 34 39 34
-5.336724 -8.070815 0.803194 34 39 34
-11.790514 -15.672758 0.055493 34 39 34
-24.698093 -30.876644 -1.439910 34 39 34
-2.244144 -4.152019 1.181164 59 64 58
-5.605353 -7.835165 0.811433 59 64 58
-12.327772 -15.201458 0.071970 59 64 58
-25.772610 -29.934044 -1.406956 59 64 58
-2.370972 -4.032603 1.185636 37 43 41
-5.859010 -7.596334 0.820376 37 43 41
-12.835086 -14.723795 0.089855 37 43 41
-26.787237 -28.978718 -1.371185 37 43 41
-2.490312 -3.912254 1.190412 51 53 49
-6.097690 -7.355635 0.829929 51 53 49
-13.312445 -14.242398 0.108962 51 53 49
-27.741955 -28.015924 -1.332973 51 53 49
-2.602242 -3.791584 1.195448 35 37 34
-6.321549 -7.114296 0.840000 35 37 34
-13.760163 -13.759720 0.129104 35 37 34
-28.637392 -27.050568 -1.292687 35 37 34
-2.706906 -3.671153 1.200698 52 54 53
-6.530878 -6.873433 0.850500 52 54 53
-14.178821 -13.277994 0.150105 52 54 53
-29.474707 -26.087116 -1.250686 52 54 53
-2.804511 -3.551462 1.206120 47 49 44
-6.726088 -6.634052 0.861345 47 49 44
-14.569242 -12.799232 0.171795 47 49 44
-30.255548 -25.129593 -1.207307 47 49 44
-2.895306 -3.432958 1.211675 41 43 42
-6.907677 -6.397045 0.872455 41 43 42
-14.932419 -12.325217 0.194014 41 43 42
-30.981903 -24.181562 -1.162868 41 43 42
1.979300 -5.369612 1.061705 39 44 48
2.841534 -10.270351 0.572513 39 44 48
4.566002 -20.071831 -0.405869 39 44 48
8.014939 -39.674789 -2.362633 39 44 48
1.837388 -5.391561 1.052629 43 51 54
2.557710 -10.314250 0.554363 43 51 54
3.998354 -20.159628 -0.442170 43 51 54
6.879643 -39.850384 -2.435236 43 51 54
1.689815 -5.409993 1.043667 45 50 54
2.262565 -10.351114 0.536438 45 50 54
3.408065 -20.233356 -0.478019 45 50 54
5.699065 -39.997841 -2.506933 45 50 54
1.536657 -5.424441 1.034872 76 54 33
1.956248 -10.380011 0.518848 76 54 33
2.795430 -20.291149 -0.513199 76 54 33
4.473795 -40.113426 -2.577294 76 54 33
1.378052 -5.434422 1.026303 21 32 34
1.639039 -10.399973 0.501709 21 32 34
2.161012 -20.331074 -0.547477 21 32 34
3.204959 -40.193275 -2.645849 21 32 34
1.214214 -5.439446 1.018022 17 15 18
1.311363 -10.410021 0.485148 17 15 18
1.505661 -20.351170 -0.580599 17 15 18
1.894258 -40.233467 -2.712093 17 15 18
1.045436 -5.439023 1.010097 19 16 7
0.973806 -10.409175 0.469299 19 16 7
0.830546 -20.349478 -0.612298 19 16 7
0.544028 -40.230083 -2.775493 19 16 7
0.872092 -5.432677 1.002597 13 15 10
0.627119 -10.396482 0.454299 13 15 10
0.137174 -20.324091 -0.642298 13 15 10
-0.842718 -40.179310 -2.835491 13 15 10
0.694648 -5.419953 0.995593 8 12 11
0.272231 -10.371035 0.440291 8 12 11
-0.572603 -20.273197 -0.670314 8 12 11
-2.262270 -40.077522 -2.891524 8 12 11
0.513656 -5.400438 0.989156 15 17 14
-0.089754 -10.332005 0.427416 15 17 14
-1.296574 -20.195137 -0.696063 15 17 14
-3.710213 -39.921402 -2.943022 15 17 14
0.329750 -5.373771 0.983355 16 15 12
-0.457565 -10.278669 0.415813 16 15 12
-2.032195 -20.088467 -0.719269 16 15 12
-5.181456 -39.708061 -2.989433 16 15 12
0.143648 -5.339657 0.978255 10 17 23
-0.829769 -10.210442 0.405614 10 17 23
-2.776604 -19.952011 -0.739669 10 17 23
-6.670274 -39.435150 -3.030233 10 17 23
-0.043866 -5.297881 0.973916 15 14 10
-1.204798 -10.126890 0.396937 15 14 10
-3.526660 -19.784908 -0.757022 15 14 10
-8.170386 -39.100945 -3.064939 15 14 10
-0.231951 -5.248325 0.970392 19 14 18
-1.580968 -10.027778 0.389889 19 14 18
-4.279001 -19.586683 -0.771117 19 14 18
-9.675068 -38.704494 -3.093131 19 14 18
-0.419726 -5.190968 0.967727 17 16 11
-1.956517 -9.913063 0.384558 17 16 11
-5.030100 -19.357254 -0.781780 17 16 11
-11.177265 -38.245636 -3.114456 17 16 11
-0.606289 -5.125898 0.965952 16 16 16
-2.329643 -9.782924 0.381009 16 16 16
-5.776352 -19.096975 -0.788878 16 16 16
-12.669769 -37.725079 -3.128653 16 16 16
-0.790738 -5.053315 0.965090 27 29 18
-2.698542 -9.637758 0.379284 27 29 18
-6.514149 -18.806644 -0.792328 27 29 18
-14.145363 -37.144417 -3.135551 27 29 18
-0.972193 -4.973525 0.965148 53 52 48
-3.061452 -9.478177 0.379401 53 52 48
-7.239970 -18.487482 -0.792094 53 52 48
-15.597006 -36.506092 -3.135085 53 52 48
-1.149816 -4.886936 0.966123 93 90 81
-3.416698 -9.304999 0.381350 93 90 81
-7.950461 -18.141127 -0.788196 93 90 81
-17.017988 -35.813381 -3.127288 93 90 81
-1.322829 -4.794047 0.967996 113 112 107
-3.762724 -9.119222 0.385096 113 112 107
-8.642514 -17.769571 -0.780703 113 112 107
-18.402094 -35.070271 -3.112302 113 112 107
-1.490534 -4.695436 0.970739 107 106 101
-4.098134 -8.921999 0.390582 107 106 101
-9.313333 -17.375126 -0.769732 107 106 101
-19.743731 -34.281380 -3.090360 107 106 101
-1.652322 -4.591740 0.974311 38 25 24
-4.421709 -8.714608 0.397726 38 25 24
-9.960483 -16.960344 -0.755444 38 25 24
-21.038031 -33.451817 -3.061783 38 25 24
-1.807685 -4.483643 0.978662 35 28 22
-4.732435 -8.498413 0.406429 35 28 22
-10.581935 -16.527954 -0.738038 35 28 22
-22.280935 -32.587036 -3.026972 35 28 22
-1.956220 -4.371851 0.983736 76 80 79
-5.029506 -8.274830 0.416575 76 80 79
-11.176078 -16.080788 -0.717745 76 80 79
-23.469221 -31.692703 -2.986386 76 80 79
-2.097632 -4.257080 0.989467 47 42 38
-5.312329 -8.045288 0.428039 47 42 38
-11.741724 -15.621703 -0.694818 47 42 38
-24.600513 -30.774534 -2.940531 47 42 38
-2.231726 -4.140037 0.995790 50 53 46
-5.580517 -7.811202 0.440685 50 53 46
-12.278100 -15.153532 -0.669525 50 53 46
-25.673265 -29.838192 -2.889946 50 53 46
-2.358407 -4.021407 1.002635 99 104 97
-5.833879 -7.573942 0.454375 99 104 97
-12.784824 -14.679011 -0.642146 99 104 97
-26.686714 -28.889151 -2.835188 99 104 97
-2.477668 -3.901837 1.009932 30 32 29
-6.072402 -7.334802 0.468968 30 32 29
-13.261869 -14.200732 -0.612959 30 32 29
-27.640804 -27.932592 -2.776814 30 32 29
-2.589583 -3.781932 1.017612 38 42 41
-6.296231 -7.094992 0.484328 38 42 41
-13.709528 -13.721112 -0.582239 38 42 41
-28.536121 -26.973352 -2.715374 38 42 41
-2.694291 -3.662246 1.025609 34 36 35
-6.505647 -6.855620 0.500322 34 36 35
-14.128359 -13.242368 -0.550252 34 36 35
-29.373783 -26.015863 -2.651400 34 36 35
-2.791991 -3.543275 1.033859 23 28 24
-6.701047 -6.617678 0.516822 23 28 24
-14.519159 -12.766484 -0.517251 23 28 24
-30.155384 -25.064096 -2.585399 23 28 24
-2.882925 -3.425460 1.042304 35 44 41
-6.882915 -6.382049 0.533712 35 44 41
-14.882895 -12.295225 -0.483472 35 44 41
-30.882856 -24.121578 -2.517840 35 44 41
1.975247 -5.351083 0.897025 20 26 25
2.833428 -10.233294 0.243154 20 26 25
4.549791 -19.997715 -1.064589 20 26 25
7.982517 -39.526558 -3.680073 20 26 25
1.833812 -5.372239 0.885110 29 36 44
2.550559 -10.275605 0.219325 29 36 44
3.984052 -20.082338 -1.112247 29 36 44
6.851038 -39.695805 -3.775389 29 36 44
1.686785 -5.389884 0.873355 59 43 30
2.256504 -10.310896 0.195814 59 43 30
3.395941 -20.152920 -1.159268 59 43 30
5.674818 -39.836967 -3.869432 59 43 30
1.534241 -5.403561 0.861829 19 31 32
1.951417 -10.338249 0.172763 19 31 32
2.785769 -20.207626 -1.205370 19 31 32
4.454472 -39.946381 -3.961637 19 31 32
1.376324 -5.412796 0.850611 5 11 10
1.635583 -10.356721 0.150327 5 11 10
2.154101 -20.244570 -1.250242 5 11 10
3.191138 -40.020267 -4.051379 5 11 10
1.213248 -5.417111 0.839784 20 22 19
1.309430 -10.365350 0.128672 20 22 19
1.501795 -20.261827 -1.293553 20 22 19
1.886524 -40.054783 -4.138001 20 22 19
1.045302 -5.416027 0.829434 43 45 42
0.973539 -10.363182 0.107972 43 45 42
0.830013 -20.257492 -1.334952 43 45 42
0.542960 -40.046112 -4.220799 43 45 42
0.872862 -5.409080 0.819653 24 26 21
0.628658 -10.349287 0.088409 24 26 21
0.140251 -20.229702 -1.374077 24 26 21
-0.836564 -39.990532 -4.299049 24 26 21
0.696386 -5.395828 0.810532 24 29 23
0.275706 -10.322783 0.070169 24 29 23
-0.565653 -20.176695 -1.410557 24 29 23
-2.248372 -39.884518 -4.372010 24 29 23
0.516419 -5.375870 0.802166 20 25 21
-0.084227 -10.282868 0.053436 20 25 21
-1.285519 -20.096865 -1.444023 20 25 21
-3.688104 -39.724857 -4.438942 20 25 21
0.333590 -5.348856 0.794643 16 17 19
-0.449885 -10.228841 0.038390 16 17 19
-2.016836 -19.988810 -1.474115 16 17 19
-5.150737 -39.508747 -4.499126 16 17 19
0.148603 -5.314504 0.788048 15 27 28
-0.819860 -10.160135 0.025201 15 27 28
-2.756785 -19.851398 -1.500494 15 27 28
-6.630635 -39.233925 -4.551883 15 27 28
-0.037770 -5.272606 0.782461 25 30 24
-1.192605 -10.076340 0.014026 25 30 24
-3.502276 -19.683807 -1.522844 25 30 24
-8.121617 -38.898743 -4.596584 25 30 24
-0.224702 -5.223050 0.777948 76 77 72
-1.566469 -9.977228 0.005000 76 77 72
-4.250004 -19.485584 -1.540895 76 77 72
-9.617073 -38.502296 -4.632687 76 77 72
-0.411327 -5.165821 0.774566 72 73 67
-1.939719 -9.862770 -0.001763 72 73 67
-4.996504 -19.256668 -1.554422 72 73 67
-11.110073 -38.044464 -4.659739 72 73 67
-0.596760 -5.101008 0.772358 74 73 68
-2.310586 -9.733144 -0.006179 74 73 68
-5.738237 -18.997416 -1.563253 74 73 68
-12.593539 -37.525959 -4.677402 74 73 68
-0.780115 -5.028808 0.771351 40 43 36
-2.677296 -9.588744 -0.008193 40 43 36
-6.471657 -18.708616 -1.567282 40 43 36
-14.060380 -36.948360 -4.685460 40 43 36
-0.960528 -4.949523 0.771555 44 44 36
-3.038121 -9.430174 -0.007786 44 44 36
-7.193308 -18.391476 -1.566468 44 44 36
-15.503681 -36.314079 -4.683832 44 44 36
-1.137173 -4.863554 0.772963 45 46 38
-3.391412 -9.258235 -0.004970 45 46 38
-7.899890 -18.047598 -1.560836 45 46 38
-16.916845 -35.626324 -4.672568 45 46 38
-1.309288 -4.771389 0.775552 39 40 35
-3.735642 -9.073906 0.000208 39 40 35
-8.588349 -17.678940 -1.550479 39 40 35
-18.293764 -34.889008 -4.651854 39 40 35
-1.476182 -4.673593 0.779284 37 38 33
-4.069430 -8.878314 0.007673 37 38 33
-9.255926 -17.287756 -1.535551 37 38 33
-19.628918 -34.106640 -4.621997 37 38 33
-1.637257 -4.570792 0.784106 28 23 19
-4.391579 -8.672711 0.017316 28 23 19
-9.900224 -16.876551 -1.516264 28 23 19
-20.917513 -33.284229 -4.583424 28 23 19
-1.792008 -4.463651 0.789952 39 30 25
-4.701082 -8.458429 0.029008 39 30 25
-10.519230 -16.447987 -1.492880 39 30 25
-22.155525 -32.427101 -4.536656 39 30 25
-1.940037 -4.352863 0.796747 78 80 77
-4.997139 -8.236855 0.042598 78 80 77
-11.111342 -16.004837 -1.465700 78 80 77
-23.339750 -31.540800 -4.482295 78 80 77
-2.081045 -4.239130 0.804408 44 43 41
-5.279156 -8.009387 0.057921 44 43 41
-11.675378 -15.549902 -1.435054 44 43 41
-24.467821 -30.630932 -4.421004 44 43 41
-2.214839 -4.123142 0.812847 49 51 46
-5.546744 -7.777413 0.074799 49 51 46
-12.210553 -15.085954 -1.401298 49 51 46
-25.538172 -29.703035 -4.353492 49 51 46
-2.341318 -4.005573 0.821974 44 48 51
-5.799702 -7.542274 0.093051 44 48 51
-12.716469 -14.615675 -1.364793 44 48 51
-26.550003 -28.762478 -4.280481 44 48 51
-2.460471 -3.887057 0.831695 106 84 71
-6.038007 -7.305241 0.112495 106 84 71
-13.193079 -14.141610 -1.325906 106 84 71
-27.503223 -27.814348 -4.202707 106 84 71
-2.572361 -3.768188 0.841922 65 43 29
-6.261788 -7.067504 0.132949 65 43 29
-13.640642 -13.666137 -1.284997 65 43 29
-28.398350 -26.863401 -4.120891 65 43 29
-2.677123 -3.649512 0.852568 91 96 92
-6.471312 -6.830152 0.154240 91 96 92
-14.059690 -13.191431 -1.242417 91 96 92
-29.236444 -25.913990 -4.035729 91 96 92
-2.774946 -3.531517 0.863548 55 47 44
-6.666958 -6.594162 0.176201 55 47 44
-14.450982 -12.719453 -1.198494 55 47 44
-30.019030 -24.970034 -3.947885 55 47 44
-2.866065 -3.414640 0.874786 36 39 32
-6.849195 -6.360407 0.198677 36 39 32
-14.815456 -12.251943 -1.153542 36 39 32
-30.747978 -24.035013 -3.857979 36 39 32
1.970302 -5.327437 0.734601 65 66 61
2.823539 -10.186002 -0.081694 65 66 61
4.530012 -19.903131 -1.714283 65 66 61
7.942958 -39.337391 -4.979463 65 66 61
1.829467 -5.347606 0.719968 76 77 72
2.541869 -10.226340 -0.110960 76 77 72
3.966673 -19.983809 -1.772816 76 77 72
6.816281 -39.498745 -5.096527 76 77 72
1.683124 -5.364274 0.705542 58 28 17
2.249182 -10.259675 -0.139812 58 28 17
3.381299 -20.050478 -1.830520 58 28 17
5.645532 -39.632084 -5.211936 58 28 17
1.531352 -5.376993 0.691410 8 10 9
1.945638 -10.285114 -0.168075 8 10 9
2.774210 -20.101357 -1.887046 8 10 9
4.431355 -39.733841 -5.324987 8 10 9
1.374296 -5.385305 0.677668 28 28 25
1.631526 -10.301738 -0.195560 28 28 25
2.145986 -20.134604 -1.942015 28 28 25
3.174907 -39.800335 -5.434926 28 28 25
1.212170 -5.388741 0.664417 32 34 36
1.307274 -10.308610 -0.222062 32 34 36
1.497482 -20.148348 -1.995020 32 34 36
1.877899 -39.827824 -5.540936 32 34 36
1.045264 -5.386840 0.651763 27 32 28
0.973462 -10.304808 -0.247370 27 32 28
0.829859 -20.140743 -2.045635 27 32 28
0.542652 -39.812614 -5.642166 27 32 28
0.873949 -5.379150 0.639818 86 90 91
0.630832 -10.289429 -0.271260 86 90 91
0.144599 -20.109985 -2.093417 86 90 91
-0.827868 -39.751099 -5.737729 86 90 91
0.698678 -5.365248 0.628693 72 72 72
0.280290 -10.261623 -0.293510 72 72 72
-0.556485 -20.054375 -2.137916 72 72 72
-2.230035 -39.639877 -5.826727 72 72 72
0.519989 -5.344745 0.618501 26 23 18
-0.077088 -10.220618 -0.313894 26 23 18
-1.271242 -19.972364 -2.178683 26 23 18
-3.659550 -39.475857 -5.908262 26 23 18
0.338497 -5.317307 0.609351 34 29 26
-0.440071 -10.165743 -0.332194 34 29 26
-1.997208 -19.862614 -2.215283 34 29 26
-5.111481 -39.256355 -5.981462 34 29 26
0.154895 -5.282663 0.601346 53 58 62
-0.807275 -10.096454 -0.348204 53 58 62
-2.731615 -19.724035 -2.247303 53 58 62
-6.580295 -38.979198 -6.045502 53 58 62
-0.030060 -5.240619 0.594580 81 86 90
-1.177186 -10.012365 -0.361736 81 86 90
-3.471437 -19.555859 -2.274367 81 86 90
-8.059940 -38.642845 -6.099629 81 86 90
-0.215560 -5.191067 0.589136 119 81 68
-1.548186 -9.913261 -0.372624 119 81 68
-4.213438 -19.357651 -2.296144 119 81 68
-9.543941 -38.246429 -6.143185 119 81 68
-0.400759 -5.133999 0.585080 140 97 80
-1.918583 -9.799127 -0.380735 140 97 80
-4.954231 -19.129381 -2.312366 140 97 80
-11.025527 -37.789890 -6.175627 140 97 80
-0.584789 -5.069506 0.582465 151 153 150
-2.286644 -9.670140 -0.385965 151 153 150
-5.690353 -18.871408 -2.322827 151 153 150
-12.497771 -37.273945 -6.196549 151 153 150
-0.766786 -4.997782 0.581322 143 143 134
-2.650637 -9.526692 -0.388252 143 143 134
-6.418340 -18.584513 -2.327399 143 143 134
-13.953745 -36.700153 -6.205693 143 143 134
-0.945903 -4.919125 0.581663 123 75 52
-3.008872 -9.369377 -0.387570 123 75 52
-7.134809 -18.269882 -2.326035 123 75 52
-15.386684 -36.070892 -6.202967 123 75 52
-1.121334 -4.833923 0.583480 106 65 45
-3.359734 -9.198975 -0.383936 106 65 45
-7.836534 -17.929077 -2.318767 106 65 45
-16.790133 -35.389282 -6.188430 106 65 45
-1.292331 -4.742656 0.586745 101 103 100
-3.701727 -9.016439 -0.377407 101 103 100
-8.520520 -17.564007 -2.305709 101 103 100
-18.158106 -34.659142 -6.162313 101 103 100
-1.458215 -4.645870 0.591410 74 79 75
-4.033496 -8.822868 -0.368076 74 79 75
-9.184058 -17.176865 -2.287048 74 79 75
-19.485182 -33.884857 -6.124992 74 79 75
-1.618399 -4.544176 0.597411 38 29 24
-4.353864 -8.619480 -0.356074 38 29 24
-9.824794 -16.770088 -2.263044 38 29 24
-20.766653 -33.071304 -6.076984 38 29 24
-1.772386 -4.438221 0.604669 10 15 9
-4.661837 -8.407570 -0.341558 10 15 9
-10.440739 -16.346268 -2.234012 10 15 9
-21.998543 -32.223663 -6.018920 10 15 9
-1.919777 -4.328679 0.613092 67 73 71
-4.956620 -8.188486 -0.324712 67 73 71
-11.030306 -15.908100 -2.200319 67 73 71
-23.177677 -31.347328 -5.951534 67 73 71
-2.060279 -4.216232 0.622579 45 47 44
-5.237624 -7.963593 -0.305737 45 47 44
-11.592314 -15.458314 -2.162369 45 47 44
-24.301693 -30.447756 -5.875634 45 47 44
-2.193692 -4.101556 0.633024 41 43 38
-5.504450 -7.734241 -0.284847 41 43 38
-12.125965 -14.999609 -2.120590 41 43 38
-25.368996 -29.530346 -5.792077 41 43 38
-2.319912 -3.985305 0.644315 27 27 27
-5.756890 -7.501738 -0.262265 27 27 27
-12.630845 -14.534603 -2.075426 27 27 27
-26.378756 -28.600334 -5.701747 27 27 27
-2.438920 -3.868099 0.656342 26 31 27
-5.994905 -7.267326 -0.238212 26 31 27
-13.106874 -14.065780 -2.027320 26 31 27
-27.330814 -27.662687 -5.605536 26 31 27
-2.550772 -3.750520 0.668993 36 39 30
-6.218609 -7.032169 -0.212910 36 39 30
-13.554284 -13.595466 -1.976715 36 39 30
-28.225634 -26.722059 -5.504326 36 39 30
-2.655592 -3.633103 0.682163 88 93 89
-6.428250 -6.797333 -0.186570 88 93 89
-13.973566 -13.125794 -1.924036 88 93 89
-29.064198 -25.782717 -5.398968 88 93 89
-2.753561 -3.516326 0.695750 67 56 50
-6.624187 -6.563781 -0.159397 67 56 50
-14.365438 -12.658689 -1.869689 67 56 50
-29.847942 -24.848507 -5.290273 67 56 50
-2.844901 -3.400620 0.709658 26 28 23
-6.806867 -6.332367 -0.131579 26 28 23
-14.730800 -12.195862 -1.814054 26 28 23
-30.578665 -23.922852 -5.179003 26 28 23
1.964509 -5.298912 0.574906 83 84 79
2.811953 -10.128951 -0.401084 83 84 79
4.506841 -19.789030 -2.353063 83 84 79
7.896616 -39.109188 -6.257021 83 84 79
1.824393 -5.317918 0.557697 86 76 67
2.531721 -10.166964 -0.435501 86 76 67
3.946377 -19.865055 -2.421898 86 76 67
6.775688 -39.261238 -6.394692 86 76 67
1.678867 -5.333435 0.540746 69 37 26
2.240669 -10.197998 -0.469403 69 37 26
3.364272 -19.927124 -2.489702 69 37 26
5.611479 -39.385376 -6.530300 69 37 26
1.528015 -5.345031 0.524155 76 77 71
1.938965 -10.221190 -0.502585 76 77 71
2.760864 -19.973509 -2.556065 76 77 71
4.404662 -39.478146 -6.663026 76 77 71
1.371984 -5.352258 0.508036 18 29 23
1.626902 -10.235644 -0.534823 18 29 23
2.136739 -20.002417 -2.620542 18 29 23
3.156413 -39.535961 -6.791980 18 29 23
1.210988 -5.354667 0.492507 10 16 12
1.304911 -10.240462 -0.565882 10 16 12
1.492757 -20.012053 -2.682660 10 16 12
1.868449 -39.555233 -6.916215 10 16 12
1.045317 -5.351810 0.477692 86 87 82
0.973569 -10.234748 -0.595512 86 87 82
0.830072 -20.000624 -2.741920 86 87 82
0.543079 -39.532375 -7.034735 86 87 82
0.875337 -5.343256 0.463720 16 12 9
0.633608 -10.217640 -0.623456 16 12 9
0.150150 -19.966408 -2.797809 16 12 9
-0.816765 -39.463943 -7.146513 16 12 9
0.701494 -5.328596 0.450721 70 67 62
0.285922 -10.188319 -0.649453 70 67 62
-0.545222 -19.907766 -2.849802 70 67 62
-2.207509 -39.346661 -7.250501 70 67 62
0.524315 -5.307462 0.438826 60 61 56
-0.068434 -10.146051 -0.673244 60 61 56
-1.253934 -19.823231 -2.897384 60 61 56
-3.624934 -39.177589 -7.345664 60 61 56
0.344406 -5.279533 0.428160 33 38 32
-0.428253 -10.090195 -0.694576 33 38 32
-1.973571 -19.711517 -2.940047 33 38 32
-5.064208 -38.954163 -7.430990 33 38 32
0.162442 -5.244555 0.418842 15 16 20
-0.792182 -10.020238 -0.713211 15 16 20
-2.701430 -19.571604 -2.977317 15 16 20
-6.519925 -38.674335 -7.505530 15 16 20
-0.020840 -5.202345 0.410982 73 74 66
-1.158745 -9.935818 -0.728933 73 74 66
-3.434556 -19.402763 -3.008761 73 74 66
-7.986176 -38.336655 -7.568418 73 74 66
-0.204650 -5.152807 0.404672 66 67 61
-1.526365 -9.836741 -0.741551 66 67 61
-4.169795 -19.204611 -3.033998 66 67 61
-9.456656 -37.940350 -7.618892 66 67 61
-0.388163 -5.095935 0.399992 44 45 40
-1.893391 -9.722998 -0.750911 44 45 40
-4.903848 -18.977123 -3.052718 44 45 40
-10.924761 -37.485374 -7.656332 44 45 40
-0.570537 -5.031823 0.397000 31 32 26
-2.258139 -9.594774 -0.756896 31 32 26
-5.633344 -18.720676 -3.064688 31 32 26
-12.383754 -36.972481 -7.680272 31 32 26
-0.750929 -4.960664 0.395731 34 36 31
-2.618923 -9.452456 -0.759433 34 36 31
-6.354912 -18.436041 -3.069762 34 36 31
-13.826889 -36.403210 -7.690420 34 36 31
-0.928515 -4.882746 0.396200 30 32 27
-2.974095 -9.296619 -0.758495 30 32 27
-7.065256 -18.124367 -3.067885 30 32 27
-15.247578 -35.779861 -7.686666 30 32 27
-1.102509 -4.798449 0.398398 33 39 29
-3.322083 -9.128026 -0.754100 33 39 29
-7.761231 -17.787180 -3.059096 33 39 29
-16.639528 -35.105488 -7.669087 33 39 29
-1.272180 -4.708236 0.402290 65 66 60
-3.661425 -8.947600 -0.746316 65 66 60
-8.439916 -17.426329 -3.043527 65 66 60
-17.996897 -34.383785 -7.637950 65 66 60
-1.436867 -4.612640 0.407823 66 67 61
-3.990799 -8.756408 -0.735250 66 67 61
-9.098664 -17.043943 -3.021397 66 67 61
-19.314394 -33.619015 -7.593689 66 67 61
-1.595991 -4.512247 0.414921 64 65 59
-4.309048 -8.555622 -0.721054 64 65 59
-9.735162 -16.642372 -2.993003 64 65 59
-20.587389 -32.815872 -7.536901 64 65 59
-1.749065 -4.407687 0.423494 29 31 30
-4.615195 -8.346502 -0.703908 29 31 30
-10.347455 -16.224133 -2.958712 29 31 30
-21.811975 -31.979393 -7.468319 29 31 30
-1.895694 -4.299611 0.433435 62 67 63
-4.908454 -8.130350 -0.684026 62 67 63
-10.933974 -15.791828 -2.918947 62 67 63
-22.985014 -31.114784 -7.388789 62 67 63
-2.035585 -4.188680 0.444628 25 29 28
-5.188236 -7.908487 -0.661640 25 29 28
-11.493537 -15.348103 -2.874176 25 29 28
-24.104139 -30.227333 -7.299248 25 29 28
-2.168535 -4.075547 0.456948 54 59 53
-5.454136 -7.682222 -0.637000 54 59 53
-12.025338 -14.895573 -2.824895 54 59 53
-25.167742 -29.322273 -7.200686 54 59 53
-2.294435 -3.960849 0.470267 33 34 26
-5.705936 -7.452826 -0.610361 33 34 26
-12.528937 -14.436779 -2.771617 33 34 26
-26.174940 -28.404686 -7.094131 33 34 26
-2.413258 -3.845190 0.484456 28 29 31
-5.943582 -7.221507 -0.581983 28 29 31
-13.004230 -13.974142 -2.714862 28 29 31
-27.125525 -27.479412 -6.980620 28 29 31
-2.525051 -3.729135 0.499386 25 31 29
-6.167168 -6.989398 -0.552123 25 31 29
-13.451402 -13.509924 -2.655141 25 31 29
-28.019869 -26.550976 -6.861178 25 31 29
-2.629927 -3.613205 0.514934 14 26 20
-6.376920 -6.757539 -0.521028 14 26 20
-13.870905 -13.046206 -2.592951 14 26 20
-28.858875 -25.623539 -6.736797 14 26 20
-2.728054 -3.497871 0.530981 82 69 61
-6.573173 -6.526869 -0.488935 82 69 61
-14.263412 -12.584867 -2.528765 82 69 61
-29.643888 -24.700861 -6.608425 82 69 61
-2.819643 -3.383551 0.547415 18 22 21
-6.756352 -6.298230 -0.456066 18 22 21
-14.629770 -12.127587 -2.463028 18 22 21
-30.376606 -23.786303 -6.476953 18 22 21
1.957920 -5.265783 0.418371 85 86 81
2.798774 -10.062694 -0.714153 85 86 81
4.480482 -19.656515 -2.979202 85 86 81
7.843898 -38.844158 -7.509300 85 86 81
1.818635 -5.283471 0.398749 73 50 31
2.520205 -10.098069 -0.753398 73 50 31
3.923346 -19.727266 -3.057692 73 50 31
6.729626 -38.985661 -7.666280 73 50 31
1.674053 -5.297687 0.379437 67 45 28
2.231041 -10.126501 -0.792021 67 45 28
3.345017 -19.784130 -3.134938 67 45 28
5.572969 -39.099388 -7.820772 67 45 28
1.524262 -5.308012 0.360553 76 77 72
1.931458 -10.147152 -0.829789 76 77 72
2.745851 -19.825432 -3.210474 76 77 72
4.374636 -39.181992 -7.971843 76 77 72
1.369410 -5.314017 0.342222 17 23 21
1.621754 -10.159163 -0.866451 17 23 21
2.126443 -19.849453 -3.283797 17 23 21
3.135821 -39.230034 -8.118490 17 23 21
1.209713 -5.315269 0.324579 9 15 15
1.302361 -10.161666 -0.901739 9 15 15
1.487656 -19.854460 -3.354373 9 15 15
1.858247 -39.240047 -8.259642 9 15 15
1.045458 -5.311340 0.307762 62 63 57
0.973850 -10.153808 -0.935372 62 63 57
0.830635 -19.838743 -3.421639 62 63 57
0.544205 -39.208614 -8.394175 62 63 57
0.877006 -5.301816 0.291917 17 12 8
0.636947 -10.134760 -0.967062 17 12 8
0.156828 -19.800648 -3.485019 17 12 8
-0.803409 -39.132423 -8.520933 17 12 8
0.704797 -5.286310 0.277191 59 61 54
0.292528 -10.103747 -0.996514 59 61 54
-0.532010 -19.738623 -3.543924 59 61 54
-2.181086 -39.008373 -8.638743 59 61 54
0.529346 -5.264472 0.263728 55 54 49
-0.058374 -10.060072 -1.023439 55 54 49
-1.233814 -19.651272 -3.597774 55 54 49
-3.584693 -38.833672 -8.746443 55 54 49
0.351243 -5.236002 0.251670 27 29 28
-0.414580 -10.003132 -1.047555 27 29 28
-1.946225 -19.537392 -3.646007 27 29 28
-5.009516 -38.605911 -8.842909 27 29 28
0.171146 -5.200658 0.241149 21 27 17
-0.774773 -9.932445 -1.068597 21 27 17
-2.666611 -19.396017 -3.688090 21 27 17
-6.450288 -38.323162 -8.927076 21 27 17
-0.010226 -5.158273 0.232286 11 16 12
-1.137517 -9.847673 -1.086323 11 16 12
-3.392099 -19.226475 -3.723543 11 16 12
-7.901264 -37.984077 -8.997981 11 16 12
-0.192108 -5.108759 0.225186 14 20 16
-1.501282 -9.748647 -1.100523 14 20 16
-4.119629 -19.028421 -3.751943 14 20 16
-9.356323 -37.587971 -9.054781 14 20 16
-0.373700 -5.052120 0.219936 17 20 9
-1.864466 -9.635368 -1.111024 17 20 9
-4.845998 -18.801865 -3.772943 17 20 9
-10.809061 -37.134857 -9.096783 17 20 9
-0.554186 -4.988449 0.216599 17 19 16
-2.225437 -9.508025 -1.117697 17 19 16
-5.567939 -18.547178 -3.786290 17 19 16
-12.252943 -36.625484 -9.123475 17 19 16
-0.732747 -4.917935 0.215217 18 28 19
-2.582559 -9.366998 -1.120461 18 28 19
-6.282183 -18.265123 -3.791819 18 28 19
-13.681431 -36.061375 -9.134533 18 28 19
-0.908584 -4.840859 0.215804 26 28 23
-2.934234 -9.212847 -1.119287 26 28 23
-6.985533 -17.956821 -3.789470 26 28 23
-15.088131 -35.444771 -9.129835 26 28 23
-1.080935 -4.757592 0.218349 33 34 29
-3.278935 -9.046311 -1.114197 33 34 29
-7.674936 -17.623751 -3.779289 33 34 29
-16.466938 -34.778629 -9.109474 33 34 29
-1.249089 -4.668577 0.222817 37 39 34
-3.615244 -8.868281 -1.105263 37 39 34
-8.347553 -17.267691 -3.761421 37 39 34
-17.812172 -34.066509 -9.073737 37 39 34
-1.412402 -4.574327 0.229144 40 40 38
-3.941869 -8.679783 -1.092608 40 40 38
-9.000804 -16.890694 -3.736113 40 40 38
-19.118673 -33.312515 -9.023121 40 40 38
-1.570308 -4.475411 0.237248 45 46 41
-4.257681 -8.481951 -1.076400 45 46 41
-9.632427 -16.495029 -3.703695 45 46 41
-20.381920 -32.521187 -8.958286 45 46 41
-1.722328 -4.372432 0.247027 44 44 42
-4.561721 -8.275991 -1.056841 44 44 42
-10.240507 -16.083111 -3.664577 44 44 42
-21.598080 -31.697348 -8.880051 44 44 42
-1.868073 -4.266017 0.258364 62 67 63
-4.853211 -8.063162 -1.034168 62 67 63
-10.823488 -15.657451 -3.619231 62 67 63
-22.764042 -30.846029 -8.789358 62 67 63
-2.007250 -4.156804 0.271127 38 41 34
-5.131566 -7.844737 -1.008642 38 41 34
-11.380198 -15.220601 -3.568181 38 41 34
-23.877460 -29.972330 -8.687257 38 41 34
-2.139655 -4.045424 0.285177 43 49 45
-5.396376 -7.621977 -0.980541 43 49 45
-11.909817 -14.775082 -3.511978 43 49 45
-24.936699 -29.081291 -8.574851 43 49 45
-2.265172 -3.932491 0.300371 22 23 25
-5.647409 -7.396111 -0.950153 22 23 25
-12.411883 -14.323349 -3.451202 22 23 25
-25.940832 -28.177826 -8.453300 22 23 25
-2.383765 -3.818590 0.316563 24 29 21
-5.884594 -7.168308 -0.917769 24 29 21
-12.886254 -13.867743 -3.386434 24 29 21
-26.889574 -27.266615 -8.323764 24 29 21
-2.495471 -3.704269 0.333609 17 24 17
-6.108007 -6.939667 -0.883677 17 24 17
-13.333079 -13.410461 -3.318250 17 24 17
-27.783224 -26.352051 -8.187396 17 24 17
-2.600390 -3.590035 0.351370 15 15 15
-6.317846 -6.711197 -0.848156 15 15 15
-13.752758 -12.953523 -3.247209 15 15 15
-28.622581 -25.438173 -8.045313 15 15 15
-2.698679 -3.476345 0.369711 86 45 33
-6.514424 -6.483818 -0.811475 86 45 33
-14.145914 -12.498763 -3.173845 86 45 33
-29.408894 -24.528654 -7.898585 86 45 33
-2.790536 -3.363609 0.388506 41 31 22
-6.698137 -6.258347 -0.773884 41 31 22
-14.513340 -12.047821 -3.098664 41 31 22
-30.143745 -23.626770 -7.748224 41 31 22
1.950588 -5.228356 0.265381 64 66 61
2.784111 -9.987840 -1.020134 64 66 61
4.451158 -19.506807 -3.591165 64 66 61
7.785249 -38.544743 -8.733225 64 66 61
1.812244 -5.244592 0.243522 81 45 29
2.507422 -10.020311 -1.063853 81 45 29
3.897778 -19.571751 -3.678601 81 45 29
6.678491 -38.674629 -8.908097 81 45 29
1.668725 -5.257378 0.222029 67 38 22
2.220385 -10.045883 -1.106838 67 38 22
3.323704 -19.622894 -3.764571 67 38 22
5.530342 -38.776917 -9.080037 67 38 22
1.520125 -5.266310 0.201032 66 67 62
1.923185 -10.063747 -1.148832 66 67 62
2.729304 -19.658623 -3.848560 66 67 62
4.341543 -38.848373 -9.248016 66 67 62
1.366596 -5.270977 0.180669 13 19 17
1.616127 -10.073082 -1.189558 13 19 17
2.115188 -19.677292 -3.930012 13 19 17
3.113311 -38.885712 -9.410919 13 19 17
1.208354 -5.270966 0.161088 16 17 11
1.299641 -10.073059 -1.228720 16 17 11
1.482218 -19.677246 -4.008337 16 17 11
1.847370 -38.885620 -9.567569 16 17 11
1.045681 -5.265867 0.142442 58 59 54
0.974297 -10.062862 -1.266011 58 59 54
0.831528 -19.656853 -4.082918 58 59 54
0.545991 -38.844833 -9.716732 58 59 54
0.878935 -5.255291 0.124891 52 53 48
0.640805 -10.041710 -1.301113 52 53 48
0.164546 -19.614548 -4.153121 52 53 48
-0.787974 -38.760223 -9.857139 52 53 48
0.708547 -5.238870 0.108595 47 48 42
0.300028 -10.008868 -1.333706 47 48 42
-0.517010 -19.548864 -4.218307 47 48 42
-2.151085 -38.628857 -9.987511 47 48 42
0.535019 -5.216275 0.093711 20 26 22
-0.047028 -9.963678 -1.363474 20 26 22
-1.211122 -19.458485 -4.277843 20 26 22
-3.539309 -38.448097 -10.106582 20 26 22
0.358925 -5.187224 0.080393 22 27 23
-0.399215 -9.905576 -1.390109 22 27 23
-1.915495 -19.342279 -4.331114 22 27 23
-4.948056 -38.215687 -10.213123 22 27 23
0.180905 -5.151495 0.068786 28 28 31
-0.755255 -9.834117 -1.413324 28 28 31
-2.627575 -19.199362 -4.377543 28 28 31
-6.372216 -37.929852 -10.305983 28 28 31
0.001654 -5.108933 0.059020 35 37 32
-1.113757 -9.748994 -1.432857 35 37 32
-3.344580 -19.029116 -4.416609 35 37 32
-7.806225 -37.589359 -10.384113 35 37 32
-0.178087 -5.059462 0.051209 33 40 32
-1.473240 -9.650052 -1.448478 33 40 32
-4.063546 -18.831232 -4.447852 33 40 32
-9.244157 -37.193592 -10.446600 33 40 32
-0.357546 -5.003091 0.045446 33 37 36
-1.832158 -9.537310 -1.460004 33 37 36
-4.781381 -18.605747 -4.470904 33 37 36
-10.679828 -36.742622 -10.492703 33 37 36
-0.535933 -4.939916 0.041801 33 38 32
-2.188931 -9.410959 -1.467294 33 38 32
-5.494928 -18.353046 -4.485484 33 38 32
-12.106922 -36.237221 -10.521863 33 38 32
-0.712459 -4.870121 0.040317 34 39 33
-2.541983 -9.271371 -1.470261 34 39 33
-6.201031 -18.073870 -4.491418 34 39 33
-13.519128 -35.678867 -10.533731 34 39 33
-0.886351 -4.793982 0.041011 37 44 37
-2.889768 -9.119091 -1.468873 37 44 37
-6.896602 -17.769310 -4.488642 37 44 37
-14.910269 -35.069748 -10.528180 37 44 37
-1.056872 -4.711851 0.043870 42 43 38
-3.230810 -8.954830 -1.463155 42 43 38
-7.578685 -17.440788 -4.477206 42 43 38
-16.274435 -34.412704 -10.505307 42 43 38
-1.223333 -4.624158 0.048855 43 43 38
-3.563732 -8.779445 -1.453186 43 43 38
-8.244529 -17.090017 -4.457267 43 43 38
-17.606123 -33.711163 -10.465429 43 43 38
-1.385109 -4.531396 0.055898 45 50 46
-3.887283 -8.593921 -1.439099 45 50 46
-8.891631 -16.718969 -4.429094 45 50 46
-18.900328 -32.969067 -10.409084 45 50 46
-1.541648 -4.434108 0.064910 52 53 47
-4.200361 -8.399343 -1.421075 52 53 47
-9.517787 -16.329815 -4.393045 52 53 47
-20.152639 -32.190758 -10.336987 52 53 47
-1.692481 -4.332871 0.075781 58 59 54
-4.502027 -8.196870 -1.399334 58 59 54
-10.121119 -15.924868 -4.349564 58 59 54
-21.359304 -31.380863 -10.250024 58 59 54
-1.837225 -4.228289 0.088381 62 67 61
-4.791516 -7.987705 -1.374134 62 67 61
-10.700098 -15.506538 -4.299164 62 67 61
-22.517262 -30.544205 -10.149224 62 67 61
-1.975589 -4.120972 0.102569 60 61 56
-5.068244 -7.773072 -1.345759 60 61 56
-11.253553 -15.077272 -4.242413 60 61 56
-23.624172 -29.685673 -10.035722 60 61 56
-2.107366 -4.011527 0.118192 66 68 65
-5.331797 -7.554182 -1.314511 66 68 65
-11.780659 -14.639492 -4.179918 66 68 65
-24.678383 -28.810112 -9.910732 66 68 65
-2.232432 -3.900545 0.135095 25 29 28
-5.581930 -7.332217 -1.280706 25 29 28
-12.280926 -14.195562 -4.112308 25 29 28
-25.678917 -27.922253 -9.775511 25 29 28
-2.350745 -3.788587 0.153118 23 26 19
-5.818555 -7.108302 -1.244660 23 26 19
-12.754176 -13.747732 -4.040215 23 26 19
-26.625418 -27.026592 -9.631326 23 26 19
-2.462330 -3.676186 0.172103 16 26 18
-6.041725 -6.883500 -1.206689 16 26 18
-13.200515 -13.298127 -3.964274 16 26 18
-27.518095 -26.127382 -9.479444 16 26 18
-2.567274 -3.563830 0.191897 16 18 15
-6.251613 -6.658789 -1.167102 16 18 15
-13.620292 -12.848705 -3.885099 16 18 15
-28.357649 -25.228539 -9.321095 16 18 15
-2.665719 -3.451965 0.212352 73 46 29
-6.448503 -6.435059 -1.126191 73 46 29
-14.014072 -12.401245 -3.803277 73 46 29
-29.145210 -24.333618 -9.157451 73 46 29
-2.757849 -3.340990 0.233330 52 35 21
-6.632763 -6.213107 -1.084237 52 35 21
-14.382591 -11.957342 -3.719369 52 35 21
-29.882248 -23.445812 -8.989634 52 35 21
