ply
format ascii 1.0
element vertex 2304
property float x
property float y
property float z
property uchar red
property uchar green
property uchar blue
end_header
5.738824 2.606375 2.993862 104 116 130
9.736437 5.208783 4.492717 104 116 130
17.731663 10.413599 7.490426 104 116 130
33.722115 20.823231 13.485844 104 116 130
5.806411 2.485669 3.016621 108 120 134
9.871611 4.967371 4.538235 108 120 134
18.002010 9.930774 7.581461 108 120 134
34.262810 19.857580 13.667915 108 120 134
5.872854 2.358965 3.038869 112 124 138
10.004498 4.713963 4.582730 112 124 138
18.267784 9.423958 7.670452 112 124 138
34.794357 18.843948 13.845896 112 124 138
5.937762 2.226199 3.060462 115 127 141
10.134314 4.448431 4.625915 115 127 141
18.527416 8.892896 7.756822 115 127 141
35.313622 17.781824 14.018635 115 127 141
6.000710 2.087358 3.081244 118 130 144
10.260210 4.170750 4.667480 118 130 144
18.779209 8.337532 7.839953 118 130 144
35.817207 16.671097 14.184898 118 130 144
6.061254 1.942484 3.101055 124 136 150
10.381296 3.881002 4.707101 124 136 150
19.021381 7.758036 7.919195 124 136 150
36.301552 15.512105 14.343382 124 136 150
6.118923 1.791684 3.119725 142 146 158
10.496635 3.579401 4.744441 142 146 158
19.252060 7.154836 7.993875 142 146 158
36.762909 14.305704 14.492741 142 146 158
6.173240 1.635134 3.137082 165 168 173
10.605269 3.266301 4.779155 165 168 173
19.469328 6.528636 8.063303 165 168 173
37.197445 13.053304 14.631598 165 168 173
6.223722 1.473086 3.152953 175 174 179
10.706232 2.942206 4.810899 175 174 179
19.671253 5.880444 8.126789 175 174 179
37.601295 11.756921 14.758572 175 174 179
6.269888 1.305871 3.167170 181 181 183
10.798566 2.607776 4.839333 181 181 183
19.855921 5.211584 8.183657 181 181 183
37.970631 10.419201 14.872307 181 181 183
6.311277 1.133900 3.179570 189 189 189
10.881343 2.263833 4.864132 189 189 189
20.021475 4.523699 8.233256 189 189 189
38.301739 9.043430 14.971504 189 189 189
6.347453 0.957663 3.190002 182 180 181
10.953694 1.911358 4.884995 182 180 181
20.166178 3.818749 8.274982 182 180 181
38.591145 7.633532 15.054958 182 180 181
6.378019 0.777726 3.198329 180 178 179
11.014828 1.551484 4.901650 180 178 179
20.288445 3.099001 8.308293 180 178 179
38.835678 6.194034 15.121578 180 178 179
6.402633 0.594723 3.204438 183 182 178
11.064055 1.185480 4.913868 183 182 178
20.386900 2.366992 8.332727 183 182 178
39.032589 4.730016 15.170448 183 182 178
6.421010 0.409350 3.208234 180 179 175
11.100809 0.814733 4.921461 180 179 175
20.460407 1.625499 8.347914 180 179 175
39.179604 3.247032 15.200819 180 179 175
6.432938 0.222349 3.209653 216 211 207
11.124664 0.440730 4.924298 216 211 207
20.508118 0.877493 8.353588 216 211 207
39.275024 1.751019 15.212170 216 211 207
6.438282 0.034494 3.208657 216 213 208
11.135353 0.065021 4.922306 216 213 208
20.529495 0.126074 8.349605 216 213 208
39.317780 0.248181 15.204201 216 213 208
6.436989 -0.153421 3.205240 191 189 190
11.132768 -0.310808 4.915472 191 189 190
20.524324 -0.625584 8.335936 191 189 190
39.307438 -1.255136 15.176863 191 189 190
6.429092 -0.340601 3.199425 196 194 195
11.116974 -0.685170 4.903843 196 194 195
20.492737 -1.374307 8.312677 196 194 195
39.244263 -2.752580 15.130346 196 194 195
6.414706 -0.526269 3.191267 193 193 195
11.088201 -1.056506 4.887526 193 193 195
20.435190 -2.116978 8.280045 193 193 195
39.129169 -4.237924 15.065081 193 193 195
6.394022 -0.709678 3.180848 194 192 193
11.046833 -1.423324 4.866688 194 192 193
20.352455 -2.850615 8.238367 194 192 193
38.963699 -5.705196 14.981728 194 192 193
6.367308 -0.890127 3.168275 180 178 179
10.993404 -1.784222 4.841543 180 178 179
20.245598 -3.572411 8.188078 180 178 179
38.749985 -7.148789 14.881147 180 178 179
6.334891 -1.066974 3.153680 176 174 175
10.928572 -2.137915 4.812351 176 174 175
20.115932 -4.279798 8.129694 176 174 175
38.490654 -8.563563 14.764381 176 174 175
6.297153 -1.239644 3.137208 176 176 176
10.853095 -2.483254 4.779408 176 176 176
19.964979 -4.970476 8.063809 176 176 176
38.188747 -9.944920 14.632610 176 176 176
6.254519 -1.407636 3.119025 169 169 169
10.767826 -2.819240 4.743041 169 169 169
19.794441 -5.642447 7.991075 169 169 169
37.847672 -11.288862 14.487141 169 169 169
6.207440 -1.570532 3.099300 162 162 162
10.673669 -3.145031 4.703591 162 162 162
19.606127 -6.294030 7.912175 162 162 162
37.471043 -12.592028 14.329342 162 162 162
6.156389 -1.727989 3.078211 154 158 159
10.571567 -3.459946 4.661415 154 158 159
19.401922 -6.923859 7.827821 154 158 159
37.062634 -13.851685 14.160635 154 158 159
6.101844 -1.879746 3.055938 154 158 159
10.462477 -3.763460 4.616868 154 158 159
19.183743 -7.530887 7.738728 154 158 159
36.626274 -15.065741 13.982449 154 158 159
6.044282 -2.025617 3.032657 148 152 153
10.347354 -4.055201 4.570306 148 152 153
18.953497 -8.114369 7.645604 148 152 153
36.165783 -16.232706 13.796200 148 152 153
5.984170 -2.165485 3.008539 139 143 144
10.227129 -4.334938 4.522070 139 143 144
18.713047 -8.673843 7.549132 139 143 144
35.684883 -17.351654 13.603256 139 143 144
5.921953 -2.299301 2.983748 143 147 148
10.102695 -4.602570 4.472489 143 147 148
18.464180 -9.209106 7.449970 143 147 148
35.187149 -18.422180 13.404932 143 147 148
5.858057 -2.427070 2.958441 127 134 140
9.974903 -4.858107 4.421874 127 134 140
18.208595 -9.720181 7.348739 127 134 140
34.675980 -19.444330 13.202471 127 134 140
5.775486 2.631338 2.844656 24 28 27
9.809761 5.258708 4.194303 24 28 27
17.878311 10.513450 6.893598 24 28 27
34.015411 21.022932 12.292189 24 28 27
5.844904 2.510339 2.865338 42 46 47
9.948597 5.016711 4.235667 42 46 47
18.155983 10.029454 6.976327 42 46 47
34.570755 20.054941 12.457645 42 46 47
5.913207 2.383213 2.885564 39 47 46
10.085202 4.762458 4.276120 39 47 46
18.429193 9.520948 7.057232 39 47 46
35.117176 19.037930 12.619457 39 47 46
5.979986 2.249884 2.905201 46 53 53
10.218761 4.495800 4.315395 46 53 53
18.696312 8.987633 7.135782 46 53 53
35.651413 17.971298 12.776556 46 53 53
6.044804 2.110329 2.924107 77 78 82
10.348397 4.216691 4.353206 77 78 82
18.955584 8.429414 7.211404 77 78 82
36.169956 16.854860 12.927799 77 78 82
6.107195 1.964583 2.942130 142 148 160
10.473180 3.925200 4.389252 142 148 160
19.205149 7.846432 7.283496 142 148 160
36.669086 15.688896 13.071985 142 148 160
6.166672 1.812747 2.959114 132 144 158
10.592134 3.621526 4.423220 132 144 158
19.443056 7.239085 7.351432 132 144 158
37.144901 14.474203 13.207855 132 144 158
6.222733 1.654993 2.974899 134 146 160
10.704254 3.306019 4.454789 134 146 160
19.667297 6.608071 7.414570 134 146 160
37.593384 13.212174 13.334133 134 146 160
6.274868 1.491574 2.989323 135 147 161
10.808526 2.979180 4.483637 135 147 161
19.875841 5.954392 7.472267 135 147 161
38.010471 11.904818 13.449526 135 147 161
6.322576 1.322822 3.002228 137 149 163
10.903941 2.641677 4.509448 137 149 163
20.066671 5.279387 7.523889 137 149 163
38.392132 10.554806 13.552769 137 149 163
6.365369 1.149157 3.013463 147 154 164
10.989527 2.294347 4.531918 147 154 164
20.237843 4.584726 7.568827 147 154 164
38.734474 9.165484 13.642647 147 154 164
6.402786 0.971080 3.022885 172 172 174
11.064361 1.938193 4.550763 172 172 174
20.387510 3.872418 7.606517 172 172 174
39.033810 7.740869 13.718027 172 172 174
6.434410 0.789173 3.030369 174 172 173
11.127609 1.574378 4.565730 174 172 173
20.514008 3.144789 7.636452 174 172 173
39.286804 6.285610 13.777895 174 172 173
6.459876 0.604089 3.035805 183 181 182
11.178541 1.204211 4.576602 183 181 182
20.615871 2.404454 7.658195 183 181 182
39.490532 4.804940 13.821383 183 181 182
6.478883 0.416546 3.039107 179 177 178
11.216556 0.829125 4.583206 179 177 178
20.691900 1.654283 7.671404 179 177 178
39.642590 3.304599 13.847801 179 177 178
6.491206 0.227313 3.040214 173 171 172
11.241201 0.450658 4.585420 173 171 172
20.741192 0.897349 7.675831 173 171 172
39.741173 1.790731 13.856653 173 171 172
6.496703 0.037192 3.039091 177 176 172
11.252194 0.070416 4.583175 177 176 172
20.763178 0.136864 7.671341 177 176 172
39.785145 0.269761 13.847673 177 176 172
6.495317 -0.152995 3.035734 193 192 188
11.249424 -0.309958 4.576459 193 192 188
20.757637 -0.623883 7.657911 193 192 188
39.774063 -1.251733 13.820814 193 192 188
6.487083 -0.342424 3.030165 187 185 186
11.232956 -0.688816 4.565322 187 185 186
20.724701 -1.381599 7.635635 187 185 186
39.708191 -2.767166 13.776262 187 185 186
6.472123 -0.530289 3.022437 181 181 181
11.203035 -1.064546 4.549865 181 181 181
20.664860 -2.133059 7.604722 181 181 181
39.588509 -4.270084 13.714436 181 181 181
6.450642 -0.715817 3.012628 170 173 180
11.160073 -1.435602 4.530247 170 173 180
20.578936 -2.875171 7.565486 170 173 180
39.416660 -5.754309 13.635963 170 173 180
6.422922 -0.898284 3.000840 180 178 179
11.104632 -1.800535 4.506672 180 178 179
20.468054 -3.605037 7.518336 180 178 179
39.194897 -7.214041 13.541664 180 178 179
6.389310 -1.077026 2.987197 174 174 174
11.037410 -2.158019 4.479386 174 174 174
20.333609 -4.320006 7.463765 174 174 174
38.926006 -8.643979 13.432522 174 174 174
6.350212 -1.251453 2.971839 173 173 175
10.959213 -2.506874 4.448671 173 173 175
20.177216 -5.017715 7.402334 173 173 175
38.613220 -10.039396 13.309660 173 173 175
6.306074 -1.421053 2.954920 164 165 167
10.870937 -2.846074 4.414832 164 165 167
20.000664 -5.696115 7.334655 164 165 167
38.260117 -11.396196 13.174303 164 165 167
6.257374 -1.585397 2.936600 161 161 161
10.773538 -3.174762 4.378191 161 161 161
19.805864 -6.353490 7.261375 161 161 161
37.870518 -12.710948 13.027742 161 161 161
6.204610 -1.744140 2.917046 155 159 160
10.668009 -3.492247 4.339084 155 159 160
19.594807 -6.988461 7.183160 155 159 160
37.448402 -13.980890 12.871311 155 159 160
6.148283 -1.897019 2.896425 148 156 158
10.555354 -3.798005 4.297843 148 156 158
19.369497 -7.599978 7.100678 148 156 158
36.997784 -15.203923 12.706348 148 156 158
6.088892 -2.043850 2.874903 165 165 165
10.436574 -4.091668 4.254798 165 165 165
19.131937 -8.187304 7.014589 165 165 165
36.522663 -16.378574 12.534170 165 165 165
6.026925 -2.184524 2.852639 164 160 161
10.312639 -4.373015 4.210269 164 160 161
18.884068 -8.749998 6.925530 164 160 161
36.026924 -17.503963 12.356052 164 160 161
5.962848 -2.318995 2.829784 171 172 167
10.184484 -4.641958 4.164559 171 172 167
18.627758 -9.287883 6.834111 171 172 167
35.514305 -18.579733 12.173214 171 172 167
5.897101 -2.447280 2.806482 158 160 159
10.052991 -4.898527 4.117956 158 160 159
18.364771 -9.801022 6.740903 158 160 159
34.988331 -19.606010 11.986799 158 160 159
5.808755 2.654109 2.691600 34 33 18
9.876300 5.304251 3.888192 34 33 18
18.011389 10.604535 6.281377 34 33 18
34.281567 21.205103 11.067745 34 33 18
5.879858 2.532868 2.710020 50 49 44
10.018506 5.061769 3.925033 50 49 44
18.295801 10.119571 6.355057 50 49 44
34.850391 20.235174 11.215107 50 49 44
5.949874 2.405381 2.728038 51 47 44
10.158538 4.806796 3.961068 51 47 44
18.575865 9.609624 6.427128 51 47 44
35.410519 19.215281 11.359249 51 47 44
6.018382 2.271564 2.745533 46 50 52
10.295553 4.539160 3.996057 46 50 52
18.849895 9.074353 6.497107 46 50 52
35.958580 18.144739 11.499205 46 50 52
6.084929 2.131383 2.762374 55 59 60
10.428646 4.258799 4.029740 55 59 60
19.116081 8.513631 6.564473 55 59 60
36.490952 17.023294 11.633938 55 59 60
6.149031 1.984867 2.778426 73 71 76
10.556850 3.965766 4.061844 73 71 76
19.372490 7.927565 6.628680 73 71 76
37.003769 15.851162 11.762352 73 71 76
6.210182 1.832108 2.793545 179 179 181
10.679153 3.660248 4.092083 179 179 181
19.617096 7.316529 6.689158 179 179 181
37.492981 14.629091 11.883308 179 179 181
6.267859 1.673277 2.807586 175 174 179
10.794507 3.342587 4.120164 175 174 179
19.847803 6.681206 6.745321 175 174 179
37.954395 13.358445 11.995634 175 174 179
6.321532 1.508625 2.820401 157 160 171
10.901853 3.013283 4.145793 157 160 171
20.062494 6.022599 6.796579 157 160 171
38.383778 12.041230 12.098150 157 160 171
6.370673 1.338489 2.831845 147 156 171
11.000135 2.673011 4.168682 147 156 171
20.259060 5.342055 6.842355 147 156 171
38.776909 10.680142 12.189703 147 156 171
6.414772 1.163293 2.841779 149 156 169
11.088333 2.322619 4.188550 149 156 169
20.435455 4.641272 6.882092 149 156 169
39.129700 9.278576 12.269176 149 156 169
6.453346 0.983550 2.850074 160 167 177
11.165481 1.963132 4.205139 160 167 177
20.589750 3.922297 6.915271 160 167 177
39.438290 7.840628 12.335533 160 167 177
6.485955 0.799854 2.856613 160 167 171
11.230699 1.595741 4.218217 160 167 171
20.720186 3.187515 6.941427 160 167 171
39.699162 6.371062 12.387846 160 167 171
6.512216 0.612878 2.861297 165 168 177
11.283220 1.221790 4.227586 165 168 177
20.825230 2.439612 6.960164 165 168 177
39.909248 4.875257 12.425320 165 168 177
6.531810 0.423361 2.864047 172 175 178
11.322409 0.842755 4.233086 172 175 178
20.903606 1.681543 6.971163 172 175 178
40.066002 3.359118 12.447319 172 175 178
6.544502 0.232094 2.864807 200 200 196
11.347794 0.460221 4.234607 200 200 196
20.954376 0.916475 6.974205 200 200 196
40.167542 1.828983 12.453402 200 200 196
6.550141 0.039907 2.863547 199 197 198
11.359071 0.075847 4.232087 199 197 198
20.976931 0.147727 6.969165 199 197 198
40.212650 0.291486 12.443323 199 197 198
6.548668 -0.152351 2.860263 202 198 197
11.356125 -0.308670 4.225519 202 198 197
20.971039 -0.621307 6.956029 202 198 197
40.200867 -1.246581 12.417051 202 198 197
6.540119 -0.343831 2.854978 179 178 178
11.339026 -0.691628 4.214948 179 178 178
20.936842 -1.387224 6.934888 179 178 178
40.132473 -2.778415 12.374767 179 178 178
6.524623 -0.533698 2.847740 184 182 183
11.308035 -1.071363 4.200473 184 182 183
20.874859 -2.146693 6.905938 184 182 183
40.008507 -4.297352 12.316868 184 182 183
6.502397 -0.721156 2.838624 218 214 211
11.263583 -1.446279 4.182241 218 214 211
20.785955 -2.896525 6.869474 218 214 211
39.830700 -5.797018 12.243940 218 214 211
6.473738 -0.905458 2.827725 224 220 217
11.206264 -1.814884 4.160442 224 220 217
20.671318 -3.633735 6.825877 224 220 217
39.601425 -7.271438 12.156746 224 220 217
6.439013 -1.085924 2.815158 201 200 196
11.136815 -2.175815 4.135307 201 200 196
20.532419 -4.355598 6.775607 201 200 196
39.323627 -8.715163 12.056206 201 200 196
6.398647 -1.261946 2.801052 178 178 180
11.056083 -2.527860 4.107096 178 178 180
20.370955 -5.059688 6.719183 178 178 180
39.000698 -10.123343 11.943359 178 178 180
6.353111 -1.433003 2.785549 172 175 177
10.965011 -2.869973 4.076090 172 175 177
20.188810 -5.743913 6.657173 172 175 177
38.636410 -11.491794 11.819338 172 175 177
6.302906 -1.598657 2.768798 173 171 174
10.864600 -3.201281 4.042589 173 171 174
19.987989 -6.406529 6.590170 173 171 174
38.234768 -12.817025 11.685331 173 171 174
6.248549 -1.758559 2.750953 162 165 167
10.755888 -3.521085 4.006898 162 165 167
19.770565 -7.046137 6.518788 162 165 167
37.799919 -14.096242 11.542568 162 165 167
6.190570 -1.912447 2.732166 130 144 157
10.639929 -3.828861 3.969325 130 144 157
19.538647 -7.661690 6.443641 130 144 157
37.336082 -15.327348 11.392275 130 144 157
6.129486 -2.060139 2.712589 142 149 154
10.517761 -4.124246 3.930170 142 149 154
19.294312 -8.252460 6.365331 142 149 154
36.847412 -16.508886 11.235655 142 149 154
6.065804 -2.201531 2.692366 143 148 151
10.390398 -4.407029 3.889724 143 148 151
19.039585 -8.818026 6.284441 143 148 151
36.337959 -17.640018 11.073874 143 148 151
6.000009 -2.336585 2.671637 137 141 142
10.258807 -4.677137 3.848266 137 141 142
18.776403 -9.358241 6.201523 137 141 142
35.811596 -18.720449 10.908039 137 141 142
5.932555 -2.465324 2.650530 133 135 134
10.123899 -4.934615 3.806051 133 135 134
18.506588 -9.873198 6.117095 133 135 134
35.271965 -19.750362 10.739182 133 135 134
5.838352 2.674505 2.535039 29 30 25
9.935493 5.345042 3.575070 29 30 25
18.129774 10.686116 5.655132 29 30 25
34.518337 21.368265 9.815256 29 30 25
5.910973 2.553069 2.551023 45 42 35
10.080734 5.102170 3.607039 45 42 35
18.420258 10.200373 5.719070 45 42 35
35.099304 20.396778 9.943132 45 42 35
5.982532 2.425282 2.566657 52 49 44
10.223853 4.846596 3.638306 52 49 44
18.706495 9.689225 5.781603 52 49 44
35.671780 19.374483 10.068199 52 49 44
6.052599 2.291050 2.581832 55 52 47
10.363987 4.578133 3.668655 55 52 47
18.986763 9.152298 5.842303 55 52 47
36.232315 18.300629 10.189598 55 52 47
6.120706 2.150333 2.596434 55 51 48
10.500201 4.296698 3.697859 55 51 48
19.259192 8.589429 5.900711 55 51 48
36.777172 17.174891 10.306414 55 51 48
6.186356 2.003148 2.610341 64 64 64
10.631500 4.002329 3.725673 64 64 64
19.521790 8.000691 5.956339 64 64 64
37.302368 15.997416 10.417669 64 64 64
6.249022 1.849586 2.623426 78 78 78
10.756833 3.695205 3.751845 78 78 78
19.772455 7.386444 6.008682 78 78 78
37.803699 14.768920 10.522356 78 78 78
6.308164 1.689813 2.635561 185 183 184
10.875117 3.375659 3.776114 185 183 184
20.009024 6.747351 6.057220 185 183 184
38.276836 13.490734 10.619431 185 183 184
6.363231 1.524079 2.646613 179 179 181
10.985250 3.044190 3.798218 179 179 181
20.229290 6.084413 6.101427 179 179 181
38.717369 12.164859 10.707846 179 179 181
6.413673 1.352722 2.656453 172 179 187
11.086136 2.701477 3.817898 172 179 187
20.431061 5.398986 6.140788 172 179 187
39.120911 10.794004 10.786568 172 179 187
6.458960 1.176173 2.664958 177 176 180
11.176708 2.348378 3.834907 177 176 180
20.612206 4.692789 6.174806 177 176 180
39.483200 9.381611 10.854603 177 176 180
6.498585 0.994953 2.672011 183 182 186
11.255960 1.985938 3.849014 183 182 186
20.770708 3.967908 6.203020 183 182 186
39.800205 7.931849 10.911032 183 182 186
6.532091 0.809669 2.677510 189 189 189
11.322971 1.615372 3.860012 189 189 189
20.904732 3.226776 6.225016 189 189 189
40.068253 6.449584 10.955025 189 189 189
6.559074 0.621011 2.681366 181 180 182
11.376938 1.238056 3.867724 181 180 182
21.012665 2.472144 6.240440 181 180 182
40.284119 4.940320 10.985872 181 180 182
6.579205 0.429736 2.683509 185 183 184
11.417199 0.855505 3.872011 185 183 184
21.093187 1.707044 6.249013 185 183 184
40.445164 3.410120 11.003019 185 183 184
6.592233 0.236658 2.683891 207 203 200
11.443254 0.469348 3.872773 207 203 200
21.145298 0.934729 6.250539 207 203 200
40.549385 1.865492 11.006069 207 203 200
6.598001 0.042629 2.682484 206 202 199
11.454790 0.081290 3.869960 206 202 199
21.168369 0.158613 6.244912 206 202 199
40.595528 0.313259 10.994816 206 202 199
6.596447 -0.151477 2.679287 213 210 205
11.451683 -0.306922 3.863566 213 210 205
21.162155 -0.617810 6.232124 213 210 205
40.583099 -1.239588 10.969240 213 210 205
6.587611 -0.344785 2.674322 213 209 206
11.434011 -0.693537 3.853636 213 209 206
21.126810 -1.391041 6.212263 213 209 206
40.512409 -2.786050 10.929518 213 209 206
6.571627 -0.536438 2.667634 221 217 214
11.402042 -1.076843 3.840260 221 217 214
21.062874 -2.157653 6.185512 221 217 214
40.384537 -4.319273 10.876015 221 217 214
6.548721 -0.725616 2.659290 197 196 192
11.356231 -1.455200 3.823573 197 196 192
20.971251 -2.914366 6.152137 197 196 192
40.201290 -5.832700 10.809267 197 196 192
6.519207 -0.911554 2.649379 184 182 183
11.297204 -1.827075 3.803750 184 182 183
20.853197 -3.658118 6.112492 184 182 183
39.965183 -7.320204 10.729977 184 182 183
6.483469 -1.093553 2.638003 191 189 190
11.225726 -2.191073 3.780999 191 189 190
20.710241 -4.386114 6.066990 191 189 190
39.679272 -8.776196 10.638971 191 189 190
6.441951 -1.270994 2.625282 200 199 195
11.142691 -2.545955 3.755556 200 199 195
20.544170 -5.095877 6.016103 200 199 195
39.347130 -10.195721 10.537199 200 199 195
6.395144 -1.443343 2.611341 195 193 194
11.049078 -2.890652 3.727675 195 193 194
20.356945 -5.785272 5.960342 195 193 194
38.972679 -11.574512 10.425676 195 193 194
6.343572 -1.610157 2.596317 160 168 181
10.945932 -3.224281 3.697626 160 168 181
20.150654 -6.452529 5.900243 160 168 181
38.560097 -12.909025 10.305479 160 168 181
6.287774 -1.771084 2.580345 162 167 175
10.834337 -3.546136 3.665682 162 167 175
19.927464 -7.096239 5.836357 162 167 175
38.113716 -14.196445 10.177706 162 167 175
6.228298 -1.925863 2.563564 140 153 161
10.715384 -3.855692 3.632119 140 153 161
19.689558 -7.715352 5.769230 140 153 161
37.637905 -15.434671 10.043453 140 153 161
6.165682 -2.074312 2.546107 138 148 157
10.590154 -4.152592 3.597206 138 148 157
19.439096 -8.309151 5.699404 138 148 157
37.136982 -16.622269 9.903801 138 148 157
6.100451 -2.216333 2.528104 133 143 147
10.459692 -4.436633 3.561201 133 143 147
19.178173 -8.877234 5.627393 133 143 147
36.615135 -17.758434 9.759779 133 143 147
6.033106 -2.351895 2.509679 131 139 141
10.325001 -4.707757 3.524349 131 139 141
18.908791 -9.419482 5.553690 131 139 141
36.076370 -18.842932 9.612373 131 139 141
5.964114 -2.481029 2.490944 125 129 130
10.187016 -4.966025 3.486880 125 129 130
18.632822 -9.936017 5.478751 125 129 130
35.524433 -19.876001 9.462495 125 129 130
5.864020 2.692353 2.375364 28 25 20
9.986830 5.380739 3.255720 28 25 20
18.232449 10.757511 5.016433 28 25 20
34.723686 21.511055 8.537857 28 25 20
5.937967 2.570766 2.388755 48 52 52
10.134723 5.137565 3.282503 48 52 52
18.528234 10.271163 5.069998 48 52 52
35.315258 20.538359 8.644987 48 52 52
6.010877 2.442738 2.401844 72 76 75
10.280543 4.881508 3.308680 72 76 75
18.819876 9.759048 5.122351 72 76 75
35.898540 19.514130 8.749695 72 76 75
6.082310 2.308165 2.414538 73 77 78
10.423409 4.612363 3.334068 73 77 78
19.105606 9.220758 5.173127 73 77 78
36.470001 18.437550 8.851247 73 77 78
6.151786 2.167000 2.426739 47 48 43
10.562361 4.330033 3.358470 47 48 43
19.383511 8.656099 5.221932 47 48 43
37.025810 17.308231 8.948856 47 48 43
6.218792 2.019255 2.438343 52 51 49
10.696373 4.034543 3.381677 52 51 49
19.651535 8.065118 5.268347 52 51 49
37.561859 16.126268 9.041685 52 51 49
6.282791 1.865013 2.449240 64 61 56
10.824370 3.726059 3.403471 64 61 56
19.907530 7.448151 5.311935 64 61 56
38.073849 14.892335 9.128862 64 61 56
6.343222 1.704439 2.459319 86 86 88
10.945232 3.404910 3.423629 86 86 88
20.149254 6.805853 5.352251 86 86 88
38.557297 13.607739 9.209494 86 86 88
6.399515 1.537780 2.468466 179 178 174
11.057819 3.071592 3.441924 179 178 174
20.374428 6.139217 5.388841 179 178 174
39.007645 12.274467 9.282673 179 178 174
6.451104 1.365377 2.476571 183 182 178
11.160997 2.726787 3.458135 183 182 178
20.580784 5.449607 5.421261 183 182 178
39.420357 10.895247 9.347515 183 182 178
6.497437 1.187666 2.483528 179 177 177
11.253664 2.371365 3.472047 179 177 177
20.766117 4.738762 5.449086 179 177 177
39.791023 9.473557 9.403164 179 177 177
6.537991 1.005174 2.489235 184 183 179
11.334770 2.006381 3.483463 184 183 179
20.928329 4.008795 5.471917 184 183 179
40.115448 8.013622 9.448826 184 183 179
6.572288 0.818522 2.493606 196 192 189
11.403364 1.633076 3.492204 196 192 189
21.065517 3.262186 5.489400 196 192 189
40.389824 6.520404 9.483792 196 192 189
6.599910 0.628411 2.496564 205 201 198
11.458610 1.252854 3.498120 205 201 198
21.176008 2.501741 5.501233 205 201 198
40.610806 4.999514 9.507458 205 201 198
6.620512 0.435615 2.498050 207 203 200
11.499814 0.867263 3.501092 207 203 200
21.258417 1.730558 5.507175 207 203 200
40.775623 3.457150 9.519342 207 203 200
6.633837 0.240968 2.498023 209 205 202
11.526464 0.477969 3.501037 209 205 202
21.311716 0.951971 5.507066 209 205 202
40.882221 1.899975 9.519125 209 205 202
6.639719 0.045344 2.496461 206 202 199
11.538226 0.086720 3.497913 206 202 199
21.335241 0.169472 5.500819 206 202 199
40.929272 0.334977 9.506630 206 202 199
6.638094 -0.150364 2.493364 205 201 198
11.534978 -0.304695 3.491720 205 201 198
21.328745 -0.613356 5.488432 205 201 198
40.916279 -1.230680 9.481855 205 201 198
6.629004 -0.345256 2.488753 208 204 201
11.516796 -0.694480 3.482498 208 204 201
21.292381 -1.392928 5.469989 208 204 201
40.843552 -2.789823 9.444969 208 204 201
6.612586 -0.538457 2.482669 205 201 198
11.483962 -1.080881 3.470331 205 201 198
21.226713 -2.165730 5.445654 205 201 198
40.712215 -4.335426 9.396299 205 201 198
6.589081 -0.729126 2.475173 219 214 210
11.436952 -1.462220 3.455338 219 214 210
21.132692 -2.928407 5.415669 219 214 210
40.524174 -5.860782 9.336330 219 214 210
6.558813 -0.916481 2.466342 232 227 223
11.376415 -1.836929 3.437676 232 227 223
21.011620 -3.677825 5.380343 232 227 223
40.282028 -7.359618 9.265679 232 227 223
6.522180 -1.099807 2.456267 195 191 188
11.303148 -2.203582 3.417526 195 191 188
20.865086 -4.411131 5.340044 195 191 188
39.988960 -8.826229 9.185081 195 191 188
6.479645 -1.278474 2.445052 240 235 231
11.218079 -2.560916 3.395097 240 235 231
20.694946 -5.125799 5.295185 240 235 231
39.648682 -10.255565 9.095362 240 235 231
6.431719 -1.451940 2.432809 197 193 190
11.122227 -2.907847 3.370611 197 193 190
20.503242 -5.819661 5.246213 197 193 190
39.265274 -11.643290 8.997418 197 193 190
6.378942 -1.619756 2.419655 174 178 179
11.016674 -3.243479 3.344302 174 178 179
20.292137 -6.490924 5.193597 174 178 179
38.843063 -12.985816 8.892185 174 178 179
6.321876 -1.781567 2.405710 201 201 201
10.902541 -3.567101 3.316411 201 201 201
20.063871 -7.138169 5.137814 201 201 201
38.386532 -14.280305 8.780620 201 201 201
6.261085 -1.937110 2.391091 154 165 166
10.780958 -3.878188 3.287174 154 165 166
19.820705 -7.760343 5.079340 154 165 166
37.900200 -15.524653 8.663671 154 165 166
6.197124 -2.086210 2.375916 140 154 163
10.653036 -4.176387 3.256824 140 154 163
19.564861 -8.356741 5.018640 140 154 163
37.388512 -16.717449 8.542273 140 154 163
6.130534 -2.228770 2.360296 135 152 159
10.519857 -4.461507 3.225585 135 152 159
19.298504 -8.926981 4.956161 135 152 159
36.855797 -17.857929 8.417315 135 152 159
6.061830 -2.364765 2.344337 160 162 161
10.382448 -4.733498 3.193667 160 162 161
19.023685 -9.470963 4.892325 160 162 161
36.306160 -18.945894 8.289642 160 162 161
5.991491 -2.494235 2.328137 192 188 185
10.241772 -4.992437 3.161265 192 188 185
18.742332 -9.988841 4.827523 192 188 185
35.743454 -19.981649 8.160038 192 188 185
5.885529 2.707502 2.213013 27 26 21
10.029846 5.411036 2.931017 27 26 21
18.318481 10.818106 4.367027 27 26 21
34.895752 21.632244 7.239046 27 26 21
5.960591 2.585804 2.223672 38 40 35
10.179971 5.167642 2.952337 38 40 35
18.618731 10.331316 4.409665 38 40 35
35.496250 20.658665 7.324323 38 40 35
6.034638 2.457590 2.234076 76 80 79
10.328065 4.911212 2.973143 76 80 79
18.914919 9.818458 4.451278 76 80 79
36.088627 19.632948 7.407548 76 80 79
6.107221 2.322749 2.244147 82 86 85
10.473230 4.641531 2.993286 82 86 85
19.205250 9.279094 4.491565 82 86 85
36.669289 18.554220 7.488121 82 86 85
6.177851 2.181226 2.253806 59 60 62
10.614491 4.358485 3.012604 59 60 62
19.487770 8.713002 4.530200 59 60 62
37.234329 17.422037 7.565392 59 60 62
6.246003 2.033028 2.262966 32 34 33
10.750795 4.062089 3.030925 32 34 33
19.760380 8.120211 4.566841 32 34 33
37.779549 16.236454 7.638674 32 34 33
6.311126 1.878234 2.271538 45 46 41
10.881041 3.752501 3.048069 45 46 41
20.020870 7.501036 4.601129 45 46 41
38.300529 14.998104 7.707250 45 46 41
6.372645 1.717005 2.279430 91 93 92
11.004080 3.430043 3.063851 91 93 92
20.266949 6.856118 4.632694 91 93 92
38.792686 13.708268 7.770381 91 93 92
6.429976 1.549588 2.286548 190 186 183
11.118742 3.095208 3.078088 190 186 183
20.496273 6.186449 4.661168 190 186 183
39.251335 12.368931 7.827328 190 186 183
6.482535 1.376324 2.292802 189 185 186
11.223860 2.748681 3.090596 189 185 186
20.706509 5.493395 4.686184 189 185 186
39.671806 10.982823 7.877360 189 185 186
6.529755 1.197653 2.298104 193 192 188
11.318298 2.391339 3.101201 193 192 188
20.895386 4.778711 4.707394 193 192 188
40.049561 9.553455 7.919779 193 192 188
6.571094 1.014110 2.302374 186 185 181
11.400977 2.024252 3.109740 186 185 181
21.060743 4.044537 4.724472 186 185 181
40.380276 8.085106 7.953936 186 185 181
6.606062 0.826322 2.305538 203 200 195
11.470913 1.648677 3.116069 203 200 195
21.200615 3.293386 4.737130 203 200 195
40.660019 6.582804 7.979251 203 200 195
6.634225 0.635004 2.307537 214 211 206
11.527240 1.266041 3.120065 214 211 206
21.313269 2.528114 4.745122 214 211 206
40.885326 5.052261 7.995237 214 211 206
6.655229 0.440944 2.308321 213 210 205
11.569246 0.877921 3.121633 213 210 205
21.397282 1.751875 4.748259 213 210 205
41.053352 3.499783 8.001509 213 210 205
6.668804 0.244992 2.307858 209 206 201
11.596397 0.486016 3.120709 209 206 201
21.451584 0.968065 4.746410 209 206 201
41.161957 1.932163 7.997812 209 206 201
6.674783 0.048038 2.306134 209 206 201
11.608355 0.092108 3.117261 209 206 201
21.475498 0.180249 4.739513 209 206 201
41.209785 0.356531 7.984019 209 206 201
6.673098 -0.149004 2.303150 205 201 198
11.604984 -0.301976 3.111292 205 201 198
21.468758 -0.607918 4.727576 205 201 198
41.196304 -1.219804 7.960145 205 201 198
6.663791 -0.345219 2.298925 212 209 204
11.586370 -0.694405 3.102842 212 209 204
21.431530 -1.392777 4.710676 212 209 204
41.121849 -2.789521 7.926344 212 209 204
6.647007 -0.539710 2.293495 211 208 203
11.552802 -1.083387 3.091982 211 208 203
21.364393 -2.170742 4.688956 211 208 203
40.987576 -4.345451 7.882905 211 208 203
6.622993 -0.731623 2.286913 198 197 193
11.504774 -1.467214 3.078818 198 197 193
21.268337 -2.938394 4.662628 198 197 193
40.795464 -5.880756 7.830248 198 197 193
6.592083 -0.920159 2.279244 216 213 208
11.442955 -1.844285 3.063481 216 213 208
21.144699 -3.692537 4.631953 216 213 208
40.548187 -7.389042 7.768898 216 213 208
6.554692 -1.104592 2.270567 194 193 189
11.368174 -2.213151 3.046127 194 193 189
20.995136 -4.430270 4.597245 194 193 189
40.249062 -8.864508 7.699482 194 193 189
6.511297 -1.284281 2.260969 188 187 183
11.281383 -2.572530 3.026930 188 187 183
20.821554 -5.149026 4.558852 188 187 183
39.901897 -10.302020 7.622695 188 187 183
6.462422 -1.458677 2.250543 194 193 189
11.183634 -2.921321 3.006079 194 193 189
20.626057 -5.846610 4.517149 194 193 189
39.510902 -11.697186 7.539290 194 193 189
6.408628 -1.627326 2.239388 174 174 174
11.076044 -3.258620 2.983768 174 174 174
20.410877 -6.521207 4.472529 174 174 174
39.080544 -13.046381 7.450050 174 174 174
6.350489 -1.789873 2.227603 215 216 210
10.959767 -3.583712 2.960199 215 216 210
20.178324 -7.171392 4.425389 215 216 210
38.615437 -14.346751 7.355771 215 216 210
6.288587 -1.946053 2.215288 207 207 199
10.835962 -3.896072 2.935567 207 207 199
19.930714 -7.796112 4.376126 207 207 199
38.120216 -15.596191 7.257245 207 207 199
6.223491 -2.095692 2.202537 160 160 160
10.705770 -4.195352 2.910066 160 160 160
19.670330 -8.394670 4.325124 160 160 160
37.599449 -16.793308 7.155241 160 160 160
6.155756 -2.238699 2.189444 139 143 142
10.570300 -4.481365 2.883880 139 143 142
19.399389 -8.966698 4.272752 139 143 142
37.057568 -17.937363 7.050497 139 143 142
6.085906 -2.375054 2.176095 135 139 138
10.430601 -4.754076 2.857182 135 139 138
19.119991 -9.512118 4.219357 135 139 138
36.498772 -19.028204 6.943705 135 139 138
6.014434 -2.504802 2.162570 133 137 136
10.287658 -5.013571 2.830133 133 137 136
18.834105 -10.031109 4.165257 133 137 136
35.926998 -20.066185 6.835507 133 137 136
5.902682 2.719819 2.048463 23 22 17
10.064153 5.435670 2.601918 23 22 17
18.387094 10.867373 3.708827 23 22 17
35.032978 21.730778 5.922647 23 22 17
5.978630 2.598048 2.056275 46 43 36
10.216049 5.192128 2.617543 46 43 36
18.690887 10.380289 3.740078 46 43 36
35.640564 20.756611 5.985148 46 43 36
6.053582 2.469701 2.063877 50 47 40
10.365953 4.935435 2.632745 50 47 40
18.990696 9.866902 3.770482 50 47 40
36.240181 19.729837 6.045956 50 47 40
6.127080 2.334662 2.071208 46 43 38
10.512950 4.665358 2.647407 46 43 38
19.284689 9.326748 3.799807 46 43 38
36.828167 18.649529 6.104605 46 43 38
6.198629 2.192872 2.078206 54 51 44
10.656048 4.381777 2.661404 54 51 44
19.570885 8.759586 3.827801 54 51 44
37.400558 17.515205 6.160594 54 51 44
6.267694 2.044331 2.084806 55 56 50
10.794178 4.084695 2.674604 55 56 50
19.847145 8.165422 3.854200 55 56 50
37.953079 16.326878 6.213392 55 56 50
6.333714 1.889115 2.090938 46 41 38
10.926216 3.774263 2.686868 46 41 38
20.111221 7.544559 3.878729 46 41 38
38.481232 15.085152 6.262449 46 41 38
6.396102 1.727383 2.096532 110 114 113
11.050993 3.450798 2.698056 110 114 113
20.360775 6.897628 3.901104 110 114 113
38.980339 13.791289 6.307200 110 114 113
6.454261 1.559379 2.101516 172 172 170
11.167311 3.114791 2.708025 172 172 170
20.593410 6.225615 3.921042 172 172 170
39.445610 12.447262 6.347076 172 172 170
6.507595 1.385448 2.105822 188 187 183
11.273979 2.766929 2.716636 188 187 183
20.806747 5.529890 3.938265 188 187 183
39.872284 11.055813 6.381521 188 187 183
6.555522 1.206030 2.109383 198 194 191
11.369833 2.408093 2.723757 198 194 191
20.998455 4.812219 3.952506 198 194 191
40.255699 9.620470 6.410004 198 194 191
6.597489 1.021666 2.112136 188 187 183
11.453768 2.039364 2.729264 188 187 183
21.166325 4.074760 3.963521 188 187 183
40.591438 8.145554 6.432034 188 187 183
6.632993 0.832990 2.114029 184 183 179
11.524776 1.662013 2.733050 184 183 179
21.308340 3.320059 3.971092 184 183 179
40.875469 6.636151 6.447177 184 183 179
6.661590 0.640727 2.115016 186 185 181
11.581968 1.277486 2.735023 186 185 181
21.422726 2.551005 3.975038 186 185 181
41.104240 5.098043 6.455069 186 185 181
6.682914 0.445675 2.115061 186 185 181
11.624617 0.887383 2.735114 186 185 181
21.508022 1.770799 3.975220 186 185 181
41.274834 3.537631 6.455432 186 185 181
6.696691 0.248697 2.114143 183 182 178
11.652170 0.493427 2.733277 183 182 178
21.563129 0.982887 3.971547 183 182 178
41.385048 1.961806 6.448086 183 182 178
6.702745 0.050698 2.112251 198 195 190
11.664280 0.097428 2.729494 198 195 190
21.587349 0.190889 3.963980 198 195 190
41.433487 0.377810 6.432953 198 195 190
6.701012 -0.147395 2.109390 184 181 176
11.660812 -0.298757 2.723773 184 181 176
21.580414 -0.601482 3.952538 184 181 176
41.419617 -1.206931 6.410067 184 181 176
6.691531 -0.344651 2.105578 179 178 174
11.641850 -0.693269 2.716148 179 178 174
21.542490 -1.390505 3.937288 179 178 174
41.343769 -2.784976 6.379567 179 178 174
6.674454 -0.540160 2.100845 184 183 179
11.607697 -1.084287 2.706681 184 183 179
21.474184 -2.172541 3.918355 184 183 179
41.207157 -4.349049 6.341702 184 183 179
6.650033 -0.733053 2.095234 173 172 168
11.558854 -1.470074 2.695460 173 172 168
21.376497 -2.944115 3.895911 173 172 168
41.011784 -5.892198 6.296814 173 172 168
6.618611 -0.922521 2.088799 172 172 170
11.496011 -1.849010 2.682589 172 172 170
21.250811 -3.701987 3.870170 172 172 170
40.760410 -7.407941 6.245332 172 172 170
6.580614 -1.107828 2.081602 162 162 162
11.420016 -2.219623 2.668195 162 162 162
21.098822 -4.443213 3.841383 162 162 162
40.456432 -8.890392 6.187757 162 162 162
6.536530 -1.288324 2.073713 153 155 154
11.331848 -2.580614 2.652417 153 155 154
20.922485 -5.165196 3.809826 153 155 154
40.103760 -10.334359 6.124644 153 155 154
6.486898 -1.463454 2.065206 150 150 150
11.232586 -2.930875 2.635403 150 150 150
20.723961 -5.865717 3.775799 150 150 150
39.706711 -11.735401 6.056590 150 150 150
6.432291 -1.632762 2.056158 154 156 155
11.123371 -3.269491 2.617308 154 156 155
20.505531 -6.542949 3.739609 154 156 155
39.269852 -13.089866 5.984210 154 156 155
6.373296 -1.795889 2.046648 204 201 194
11.005382 -3.595744 2.598288 204 201 194
20.269552 -7.195456 3.701567 204 201 194
38.797894 -14.394879 5.908127 204 201 194
6.310507 -1.952572 2.036752 201 198 191
10.879804 -3.909111 2.578496 201 198 191
20.018396 -7.822190 3.661985 201 198 191
38.295582 -15.648347 5.828961 201 198 191
6.244507 -2.102639 2.026546 160 161 156
10.747804 -4.209246 2.558083 160 161 156
19.754396 -8.422459 3.621159 160 161 156
37.767582 -16.848885 5.747309 160 161 156
6.175859 -2.246001 2.016100 151 153 148
10.610508 -4.495969 2.537191 151 153 148
19.479805 -8.995906 3.579375 151 153 148
37.218399 -17.995779 5.663741 151 153 148
6.105098 -2.382642 2.005481 130 134 133
10.468986 -4.769251 2.515954 130 134 133
19.196760 -9.542470 3.536899 130 134 133
36.652309 -19.088907 5.578790 130 134 133
6.032724 -2.512611 1.994750 120 124 123
10.324238 -5.029190 2.494493 120 124 123
18.907265 -10.062346 3.493978 120 124 123
36.073318 -20.128660 5.492948 120 124 123
5.915320 2.729196 1.882227 25 22 15
10.089430 5.454425 2.269446 25 22 15
18.437649 10.904883 3.043884 25 22 15
35.134087 21.805799 4.592760 25 22 15
5.991913 2.607387 1.887104 37 40 33
10.242615 5.210807 2.279200 37 40 33
18.744019 10.417647 3.063393 37 40 33
35.746826 20.831327 4.631778 37 40 33
6.067521 2.478960 1.891813 44 41 36
10.393831 4.953952 2.288617 44 41 36
19.046452 9.903936 3.082226 44 41 36
36.351692 19.803905 4.669445 44 41 36
6.141685 2.343793 1.896312 51 48 40
10.542158 4.683619 2.297616 51 48 40
19.343105 9.363271 3.100223 51 48 40
36.945000 18.722574 4.705438 51 48 40
6.213901 2.201824 1.900559 55 52 45
10.686590 4.399682 2.306109 55 52 45
19.631969 8.795396 3.117210 55 52 45
37.522728 17.586824 4.739413 55 52 45
6.283629 2.053051 1.904507 58 55 48
10.826048 4.102134 2.314007 58 55 48
19.910885 8.200301 3.133006 58 55 48
38.080559 16.396635 4.771004 58 55 48
6.350301 1.897546 1.908111 120 105 74
10.959391 3.791124 2.321215 120 105 74
20.177570 7.578280 3.147422 120 105 74
38.613930 15.152594 4.799835 120 105 74
6.413321 1.735464 1.911322 69 64 58
11.085430 3.466960 2.327636 69 64 58
20.429649 6.929953 3.160264 69 64 58
39.118088 13.855939 4.825521 69 64 58
6.472082 1.567052 1.914092 155 157 156
11.202952 3.130136 2.333176 155 157 156
20.664694 6.256305 3.171343 155 157 156
39.588177 12.508642 4.847678 155 157 156
6.525979 1.392652 1.916374 162 162 162
11.310747 2.781337 2.337739 162 162 162
20.880283 5.558708 3.180471 162 162 162
40.019356 11.113448 4.865934 162 162 162
6.574421 1.212709 1.918124 167 165 166
11.407631 2.421450 2.341240 167 165 166
21.074051 4.838933 3.187472 167 165 166
40.406891 9.673900 4.879935 167 165 166
6.616846 1.027764 1.919302 162 162 160
11.492481 2.051561 2.343596 162 162 160
21.243752 4.099155 3.192184 162 162 160
40.746292 8.194344 4.889361 162 162 160
6.652739 0.838460 1.919873 164 164 164
11.564267 1.672952 2.344738 164 164 164
21.387323 3.341937 3.194468 164 164 164
41.033436 6.679906 4.893929 164 164 164
6.681651 0.645524 1.919809 161 161 161
11.622091 1.287081 2.344609 161 161 161
21.502972 2.570195 3.194210 161 161 161
41.264732 5.136423 4.893412 161 161 161
6.703208 0.449766 1.919087 152 152 152
11.665205 0.895565 2.343166 152 152 152
21.589199 1.787162 3.191325 152 152 152
41.437187 3.570358 4.887641 152 152 152
6.717132 0.252056 1.917697 160 160 158
11.693052 0.500145 2.340386 160 160 158
21.644894 0.996322 3.185764 160 160 158
41.548576 1.988677 4.876520 160 160 158
6.723243 0.053309 1.915635 157 157 155
11.705275 0.102651 2.336262 157 157 155
21.669338 0.201335 3.177516 157 157 155
41.597466 0.398702 4.860023 157 157 155
6.721473 -0.145536 1.912907 151 151 151
11.701735 -0.295039 2.330806 151 151 151
21.662258 -0.594045 3.166605 151 151 151
41.583305 -1.192058 4.838201 151 151 151
6.711866 -0.343538 1.909530 146 146 146
11.682521 -0.691044 2.324051 146 146 146
21.623831 -1.386055 3.153095 146 146 146
41.506451 -2.776078 4.811181 146 146 146
6.694574 -0.539778 1.905527 143 145 144
11.647938 -1.083523 2.316046 143 145 144
21.554665 -2.171014 3.137085 143 145 144
41.368118 -4.345994 4.779161 143 145 144
6.669857 -0.733377 1.900933 135 136 138
11.598502 -1.470721 2.306858 135 136 138
21.455793 -2.945409 3.118708 135 136 138
41.170376 -5.894785 4.742407 135 136 138
6.638062 -0.923516 1.895787 129 133 134
11.534914 -1.850999 2.296566 129 133 134
21.328617 -3.705964 3.098124 129 133 134
40.916023 -7.415896 4.701240 129 133 134
6.599624 -1.109452 1.890135 151 153 152
11.458036 -2.222871 2.285263 151 153 152
21.174862 -4.449710 3.075518 151 153 152
40.608513 -8.903387 4.656027 151 153 152
6.555038 -1.290530 1.884029 146 146 146
11.368866 -2.585028 2.273049 146 146 146
20.996521 -5.174024 3.051091 146 146 146
40.251831 -10.352015 4.607173 146 146 146
6.504856 -1.466192 1.877520 132 136 137
11.268501 -2.936351 2.260033 132 136 137
20.795792 -5.876670 3.025057 132 136 137
39.850372 -11.757307 4.555106 132 136 137
6.449656 -1.635977 1.870665 133 137 138
11.158102 -3.275922 2.246323 133 137 138
20.574993 -6.555811 2.997637 133 137 138
39.408775 -13.115589 4.500266 133 137 138
6.390039 -1.799526 1.863519 143 147 146
11.038868 -3.603020 2.232029 143 147 146
20.336525 -7.210007 2.969050 143 147 146
38.931839 -14.423981 4.443093 143 147 146
6.326607 -1.956577 1.856135 146 149 148
10.912003 -3.917121 2.217261 146 149 148
20.082794 -7.838209 2.939515 146 149 148
38.424377 -15.680386 4.384021 146 149 148
6.259949 -2.106957 1.848565 140 144 143
10.778687 -4.217882 2.202123 140 144 143
19.816164 -8.439731 2.909237 140 144 143
37.891117 -16.883429 4.323466 140 144 143
6.190638 -2.250580 1.840860 153 154 149
10.640065 -4.505128 2.186712 153 154 149
19.538919 -9.014223 2.878416 153 154 149
37.336628 -18.032413 4.261823 153 154 149
6.119215 -2.387434 1.833064 144 146 141
10.497219 -4.778834 2.171121 144 146 141
19.253227 -9.561636 2.847233 144 146 141
36.765244 -19.127239 4.199458 144 146 141
6.046186 -2.517569 1.825220 114 116 111
10.351162 -5.039106 2.155433 114 116 111
18.961113 -10.082179 2.815857 114 116 111
36.181015 -20.168325 4.136706 114 116 111
5.923327 2.735555 1.714845 26 26 18
10.105444 5.467144 1.934682 26 26 18
18.469677 10.930320 2.374355 26 26 18
35.198143 21.856672 3.253703 26 26 18
6.000310 2.613740 1.716726 38 38 30
10.259409 5.223513 1.938444 38 38 30
18.777607 10.443059 2.381881 38 38 30
35.814003 20.882151 3.268754 38 38 30
6.076317 2.485281 1.718481 42 40 28
10.411423 4.966596 1.941953 42 40 28
19.081635 9.929224 2.388899 42 40 28
36.422058 19.854481 3.282790 42 40 28
6.150883 2.350056 1.720086 63 67 68
10.560555 4.696145 1.945164 63 67 68
19.379898 9.388323 2.395321 63 67 68
37.018585 18.772678 3.295634 63 67 68
6.223503 2.207998 1.721519 78 82 81
10.705795 4.412029 1.948031 78 82 81
19.670380 8.820090 2.401054 78 82 81
37.599548 17.636213 3.307099 78 82 81
6.293633 2.059103 1.722756 86 86 86
10.846055 4.114238 1.950504 86 86 86
19.950899 8.224508 2.406001 86 86 86
38.160587 16.445049 3.316993 86 86 86
6.360699 1.903441 1.723772 113 113 77
10.980186 3.802916 1.952536 113 113 77
20.219162 7.601864 2.410064 113 113 77
38.697113 15.199760 3.325119 113 113 77
6.424099 1.741168 1.724542 95 101 101
11.106988 3.478369 1.954076 95 101 101
20.472765 6.952771 2.413144 95 101 101
39.204319 13.901575 3.331280 95 101 101
6.483226 1.572528 1.725042 143 143 143
11.225241 3.141089 1.955077 143 143 143
20.709270 6.278212 2.415145 143 143 143
39.677330 12.552456 3.335282 143 143 143
6.537464 1.397865 1.725250 145 145 145
11.333716 2.791763 1.955492 145 145 145
20.926222 5.579558 2.415976 145 145 145
40.111233 11.155149 3.336945 145 145 145
6.586217 1.217622 1.725144 148 148 148
11.431223 2.431277 1.955281 148 148 148
21.121235 4.858587 2.415554 148 148 148
40.501259 9.713207 3.336099 148 148 148
6.628918 1.032345 1.724707 148 148 148
11.516624 2.060723 1.954406 148 148 148
21.292038 4.117479 2.413804 148 148 148
40.842865 8.230990 3.332600 148 148 148
6.665047 0.842677 1.723923 146 146 148
11.588882 1.681388 1.952838 146 146 148
21.436554 3.358808 2.410668 146 146 148
41.131897 6.713649 3.326327 146 146 148
6.694149 0.649353 1.722781 144 148 147
11.647087 1.294738 1.950554 144 148 147
21.552963 2.585508 2.406101 144 148 147
41.364716 5.167049 3.317193 144 148 147
6.715847 0.453183 1.721275 149 149 149
11.690484 0.902398 1.947543 149 149 149
21.639757 1.800829 2.400077 149 149 149
41.538303 3.597691 3.305146 149 149 149
6.729858 0.255044 1.719404 153 153 153
11.718506 0.506122 1.943799 153 153 153
21.695801 1.008276 2.392591 153 153 153
41.650391 2.012584 3.290174 153 153 153
6.736003 0.055858 1.717170 156 156 156
11.730796 0.107750 1.939332 156 156 156
21.720381 0.211532 2.383657 156 156 156
41.699551 0.419097 3.272305 156 156 156
6.734212 -0.143430 1.714583 154 155 150
11.727213 -0.290827 1.934159 154 155 150
21.713215 -0.585622 2.373309 154 155 150
41.685219 -1.175212 3.251610 154 155 150
6.724529 -0.341874 1.711657 156 155 151
11.707847 -0.687716 1.928306 156 155 151
21.674482 -1.379399 2.361604 156 155 151
41.607754 -2.762766 3.228200 156 155 151
6.707108 -0.538548 1.708410 153 152 150
11.673005 -1.081063 1.921812 153 152 150
21.604799 -2.166093 2.348616 153 152 150
41.468388 -4.336154 3.202224 153 152 150
6.682210 -0.732567 1.704865 150 150 148
11.623210 -1.469101 1.914721 150 150 148
21.505209 -2.942170 2.334435 150 150 148
41.269207 -5.888307 3.173862 150 150 148
6.650190 -0.923108 1.701047 147 149 146
11.559170 -1.850182 1.907087 147 149 146
21.377129 -3.704332 2.319165 147 149 146
41.013046 -7.412631 3.143323 147 149 146
6.611485 -1.109422 1.696987 143 145 144
11.481758 -2.222812 1.898965 143 145 144
21.222305 -4.449591 2.302923 143 145 144
40.703400 -8.903150 3.110837 143 145 144
6.566597 -1.290853 1.692713 141 142 137
11.391983 -2.585673 1.890419 141 142 137
21.042755 -5.175313 2.285829 141 142 137
40.344299 -10.354594 3.076650 141 142 137
6.516081 -1.466837 1.688259 136 135 130
11.290952 -2.937642 1.881510 136 135 130
20.840693 -5.879251 2.268011 136 135 130
39.940174 -11.762468 3.041015 136 135 130
6.460525 -1.636914 1.683655 76 75 71
11.179838 -3.277796 1.872302 76 75 71
20.618465 -6.559559 2.249596 76 75 71
39.495720 -13.123085 3.004185 76 75 71
6.400531 -1.800724 1.678934 55 57 52
11.059851 -3.605414 1.862859 55 57 52
20.378490 -7.214796 2.230710 55 57 52
39.015770 -14.433559 2.966412 55 57 52
6.336708 -1.958002 1.674124 53 57 58
10.932205 -3.919972 1.853240 53 57 58
20.123199 -7.843911 2.211473 53 57 58
38.505188 -15.691790 2.927938 53 57 58
6.269653 -2.108580 1.669256 44 48 49
10.798095 -4.221128 1.843504 44 48 49
19.854979 -8.446222 2.192000 44 48 49
37.968746 -16.896412 2.888991 44 48 49
6.199940 -2.252370 1.664355 52 57 53
10.658669 -4.508708 1.833702 52 57 53
19.576126 -9.021383 2.172397 52 57 53
37.411041 -18.046734 2.849786 52 57 53
6.128116 -2.389362 1.659446 25 31 29
10.515020 -4.782692 1.823885 25 31 29
19.288830 -9.569351 2.152761 25 31 29
36.836449 -19.142670 2.810515 25 31 29
6.054690 -2.519610 1.654551 30 36 36
10.368169 -5.043188 1.814095 30 36 36
18.995127 -10.090343 2.133181 30 36 36
36.249043 -20.184654 2.771354 30 36 36
5.926632 2.738845 1.546875 29 33 36
10.112053 5.473723 1.598741 29 33 36
18.482895 10.943480 1.702475 29 33 36
35.224579 21.882992 1.909942 29 33 36
6.003745 2.617055 1.545730 41 35 21
10.266279 5.230143 1.596453 41 35 21
18.791348 10.456319 1.697898 41 35 21
35.841484 20.908670 1.900788 41 35 21
6.079884 2.488613 1.544501 43 40 35
10.418556 4.973259 1.593993 43 40 35
19.095901 9.942552 1.692979 43 40 35
36.450592 19.881136 1.890950 43 40 35
6.154583 2.353397 1.543182 62 65 64
10.567956 4.702827 1.591356 62 65 64
19.394701 9.401688 1.687704 62 65 64
37.048191 18.799408 1.880400 62 65 64
6.227337 2.211339 1.541771 44 45 40
10.713463 4.418710 1.588534 44 45 40
19.685715 8.833452 1.682061 44 45 40
37.630219 17.662937 1.869114 44 45 40
6.297599 2.062433 1.540266 49 50 45
10.853987 4.120898 1.585524 49 50 45
19.966763 8.237828 1.676040 49 50 45
38.192314 16.471689 1.857072 49 50 45
6.364793 1.906749 1.538664 64 67 58
10.988375 3.809532 1.582321 64 67 58
20.235538 7.615096 1.669634 64 67 58
38.729866 15.226225 1.844260 64 67 58
6.428319 1.744443 1.536966 33 33 33
11.115428 3.484919 1.578924 33 33 33
20.489645 6.965871 1.662840 33 33 33
39.238079 13.927774 1.830672 33 33 33
6.487563 1.575758 1.535171 43 43 41
11.233915 3.147549 1.575333 43 43 41
20.726620 6.291131 1.655659 43 43 41
39.712029 12.578296 1.816309 43 43 41
6.541912 1.401038 1.533280 87 86 91
11.342612 2.798108 1.571552 87 86 91
20.944014 5.592249 1.648097 87 86 91
40.146816 11.180531 1.801185 87 86 91
6.590766 1.220726 1.531297 68 67 72
11.440321 2.437484 1.567586 68 67 72
21.139431 4.871001 1.640165 68 67 72
40.537651 9.738034 1.785321 68 67 72
6.633556 1.035368 1.529226 100 99 104
11.525902 2.066768 1.563444 100 99 104
21.310593 4.129569 1.631879 100 99 104
40.879974 8.255171 1.768750 100 99 104
6.669762 0.845608 1.527072 86 87 89
11.598313 1.687249 1.559135 86 87 89
21.455416 3.370530 1.623262 86 87 89
41.169621 6.737093 1.751517 86 87 89
6.698925 0.652181 1.524842 46 48 43
11.656639 1.300394 1.554675 46 48 43
21.572067 2.596822 1.614342 46 48 43
41.402924 5.189676 1.733676 46 48 43
6.720668 0.455900 1.522544 71 71 73
11.700126 0.907833 1.550080 71 71 73
21.659040 1.811698 1.605152 71 71 73
41.576870 3.619429 1.715295 71 71 73
6.734708 0.257643 1.520188 65 65 67
11.728206 0.511319 1.545368 65 65 67
21.715200 1.018670 1.595728 65 65 67
41.689190 2.033373 1.696448 65 65 67
6.740863 0.058333 1.517784 75 71 70
11.740516 0.112698 1.540561 75 71 70
21.739820 0.221429 1.586114 75 71 70
41.738430 0.438890 1.677220 75 71 70
6.739065 -0.141084 1.515344 70 74 73
11.736918 -0.286136 1.535681 70 74 73
21.732626 -0.576240 1.576354 70 74 73
41.724041 -1.156446 1.657699 70 74 73
6.729357 -0.339659 1.512880 81 80 85
11.717504 -0.683286 1.530751 81 80 85
21.693796 -1.370540 1.566495 81 80 85
41.646381 -2.745047 1.637981 81 80 85
6.711895 -0.536464 1.510402 118 119 121
11.682578 -1.076896 1.525796 118 119 121
21.623945 -2.157759 1.556585 118 119 121
41.506680 -4.319485 1.618161 118 119 121
6.686939 -0.730613 1.507924 128 127 123
11.632667 -1.465194 1.520840 128 127 123
21.524122 -2.934355 1.546672 128 127 123
41.307034 -5.872676 1.598336 128 127 123
6.654846 -0.921281 1.505457 77 77 77
11.568481 -1.846529 1.515905 77 77 77
21.395752 -3.697025 1.536802 77 77 77
41.050293 -7.398017 1.578597 77 77 77
6.616053 -1.107718 1.503011 58 54 53
11.490895 -2.219403 1.511014 58 54 53
21.240580 -4.442774 1.527021 58 54 53
40.739948 -8.889515 1.559034 58 54 53
6.571068 -1.289266 1.500598 50 52 49
11.400925 -2.582500 1.506188 50 52 49
21.060638 -5.168966 1.517368 50 52 49
40.380066 -10.341900 1.539729 50 52 49
6.520444 -1.465361 1.498227 75 76 71
11.299677 -2.934690 1.501445 75 76 71
20.858143 -5.873346 1.507882 75 76 71
39.975075 -11.750660 1.520756 75 76 71
6.464770 -1.635542 1.495905 56 58 55
11.188330 -3.275051 1.496801 56 58 55
20.635448 -6.554070 1.498595 56 58 55
39.529686 -13.112107 1.502182 56 58 55
6.404654 -1.799447 1.493640 117 119 119
11.068096 -3.602861 1.492272 117 119 119
20.394981 -7.209690 1.489535 117 119 119
39.048752 -14.423347 1.484063 117 119 119
6.340703 -1.956814 1.491438 73 77 78
10.940195 -3.917595 1.487867 73 77 78
20.139179 -7.839158 1.480727 73 77 78
38.537148 -15.682283 1.466446 73 77 78
6.273516 -2.107472 1.489303 87 84 79
10.805821 -4.218911 1.483598 87 84 79
19.870432 -8.441790 1.472189 87 84 79
37.999653 -16.887547 1.449369 87 84 79
6.203671 -2.251335 1.487240 30 34 36
10.666131 -4.506637 1.479471 30 34 36
19.591051 -9.017241 1.463935 30 34 36
37.440891 -18.038448 1.432862 30 34 36
6.131714 -2.388392 1.485250 26 30 31
10.522217 -4.780751 1.475492 26 30 31
19.303223 -9.565470 1.455976 26 30 31
36.865234 -19.134907 1.416943 26 30 31
6.058157 -2.518699 1.483335 22 28 28
10.375103 -5.041365 1.471663 22 28 28
19.008995 -10.086697 1.448317 22 28 28
36.276779 -20.177361 1.401626 22 28 28
5.925211 2.739047 1.378884 51 52 47
10.109211 5.474126 1.262760 51 52 47
18.477211 10.944284 1.030512 51 52 47
35.213211 21.884602 0.566016 51 52 47
6.002192 2.617312 1.374715 58 60 59
10.263173 5.230656 1.254423 58 60 59
18.785135 10.457345 1.013837 58 60 59
35.829060 20.910723 0.532667 58 60 59
6.078195 2.488935 1.370503 54 53 49
10.415179 4.973903 1.245998 54 53 49
19.089148 9.943839 0.996988 54 53 49
36.437084 19.883711 0.498967 54 53 49
6.152757 2.353795 1.366262 59 58 53
10.564302 4.703623 1.237516 59 58 53
19.387394 9.403278 0.980023 59 58 53
37.033577 18.802589 0.465038 59 58 53
6.225369 2.211824 1.362009 72 73 68
10.709528 4.419681 1.229010 72 73 68
19.677845 8.835395 0.963012 72 73 68
37.614479 17.666822 0.431017 72 73 68
6.295492 2.063018 1.357764 78 79 74
10.849772 4.122069 1.220520 78 79 74
19.958334 8.240171 0.946032 78 79 74
38.175457 16.476376 0.397056 78 79 74
6.362547 1.907448 1.353548 80 81 76
10.983883 3.810928 1.212088 80 81 76
20.226555 7.617889 0.929168 80 81 76
38.711899 15.231812 0.363327 80 81 76
6.425939 1.745267 1.349384 80 80 72
11.110666 3.486566 1.203759 80 80 72
20.480122 6.969165 0.912511 80 80 72
39.219032 13.934363 0.330013 80 80 72
6.485053 1.576720 1.345296 90 89 85
11.228895 3.149472 1.195584 90 89 85
20.716579 6.294978 0.896160 90 89 85
39.691948 12.585988 0.297311 90 89 85
6.539279 1.402149 1.341311 90 87 80
11.337348 2.800331 1.187613 90 87 80
20.933485 5.596695 0.880218 90 87 80
40.125759 11.189424 0.265428 90 87 80
6.588022 1.221999 1.337454 96 91 88
11.434834 2.440030 1.179899 96 91 88
21.128456 4.876093 0.864791 96 91 88
40.515701 9.748219 0.234573 96 91 88
6.630713 1.036812 1.333752 41 43 40
11.520215 2.069657 1.172496 41 43 40
21.299219 4.135347 0.849984 41 43 40
40.857227 8.266726 0.204961 41 43 40
6.666833 0.847233 1.330232 25 30 24
11.592455 1.690498 1.165455 25 30 24
21.443699 3.377028 0.835903 25 30 24
41.146187 6.750090 0.176797 25 30 24
6.695927 0.653992 1.326917 27 27 29
11.650643 1.304017 1.158826 27 27 29
21.560076 2.604066 0.822645 27 27 29
41.378941 5.204165 0.150282 27 27 29
6.717620 0.457902 1.323832 66 67 72
11.694029 0.911837 1.152656 66 67 72
21.646847 1.819707 0.810303 66 67 72
41.552483 3.635447 0.125598 66 67 72
6.731627 0.259838 1.320996 55 55 55
11.722042 0.515709 1.146983 55 55 55
21.702873 1.027450 0.798959 55 55 55
41.664536 2.050933 0.102909 55 55 55
6.737769 0.060720 1.318426 92 88 85
11.734327 0.117472 1.141844 92 88 85
21.727444 0.230976 0.788680 92 88 85
41.713676 0.457985 0.082352 92 88 85
6.735979 -0.138509 1.316137 85 75 66
11.730747 -0.280986 1.137265 85 75 66
21.720284 -0.565938 0.779522 85 75 66
41.699356 -1.135844 0.064036 85 75 66
6.726298 -0.336902 1.314137 76 77 72
11.711386 -0.677771 1.133266 76 77 72
21.681561 -1.359510 0.771523 76 77 72
41.621910 -2.722987 0.048039 76 77 72
6.708882 -0.533534 1.312432 74 73 69
11.676554 -1.071034 1.129857 74 73 69
21.611897 -2.146036 0.764705 74 73 69
41.482582 -4.296039 0.034402 74 73 69
6.683991 -0.727520 1.311024 73 73 71
11.626771 -1.459007 1.127041 73 73 71
21.512331 -2.921982 0.759073 73 73 71
41.283451 -5.847931 0.023138 73 73 71
6.651979 -0.918038 1.309910 61 62 57
11.562748 -1.840044 1.124812 61 62 57
21.384285 -3.684055 0.754615 61 62 57
41.027359 -7.372077 0.014222 61 62 57
6.613283 -1.104341 1.309082 74 69 63
11.485355 -2.212650 1.123156 74 69 63
21.229500 -4.429266 0.751305 74 69 63
40.717789 -8.862500 0.007601 74 69 63
6.568406 -1.285770 1.308531 63 64 59
11.395600 -2.575507 1.122055 63 64 59
21.049990 -5.154982 0.749102 63 64 59
40.358768 -10.313931 0.003195 63 64 59
6.517900 -1.461762 1.308244 41 46 40
11.294588 -2.927492 1.121481 41 46 40
20.847965 -5.858951 0.747954 41 46 40
39.954720 -11.721869 0.000900 41 46 40
6.462353 -1.631857 1.308206 95 96 91
11.183495 -3.267682 1.121404 95 96 91
20.625778 -6.539331 0.747800 95 96 91
39.510345 -13.082630 0.000593 95 96 91
6.402369 -1.795694 1.308399 94 95 90
11.063528 -3.595355 1.121790 94 95 90
20.385845 -7.194676 0.748572 94 95 90
39.030479 -14.393320 0.002136 94 95 90
6.338555 -1.953008 1.308805 89 89 89
10.935899 -3.909983 1.122602 89 89 89
20.130587 -7.823933 0.750196 89 89 89
38.519962 -15.651833 0.005383 89 89 89
6.271508 -2.103629 1.309404 92 93 88
10.801805 -4.211225 1.123801 92 93 88
19.862398 -8.426417 0.752594 92 93 88
37.983585 -16.856802 0.010179 92 93 88
6.201801 -2.247469 1.310178 63 64 59
10.662392 -4.498906 1.125349 63 64 59
19.583572 -9.001780 0.755690 63 64 59
37.425934 -18.007526 0.016371 63 64 59
6.129982 -2.384518 1.311108 57 58 53
10.518754 -4.773004 1.127207 57 58 53
19.296297 -9.549975 0.759406 57 58 53
36.851383 -19.103918 0.023804 57 58 53
6.056561 -2.514828 1.312173 44 45 40
10.371910 -5.033624 1.129338 44 45 40
19.002609 -10.071216 0.763669 44 45 40
36.264008 -20.146399 0.032329 44 45 40
5.919087 2.736171 1.211440 81 81 79
10.096963 5.468375 0.927872 81 81 79
18.452715 10.932783 0.360736 81 81 79
35.164219 21.861599 -0.773535 81 81 79
5.995677 2.614522 1.204279 51 53 48
10.250143 5.225076 0.913551 51 53 48
18.759075 10.446185 0.332094 51 53 48
35.776939 20.888403 -0.830820 51 53 48
6.071280 2.486259 1.197118 50 50 48
10.401348 4.968550 0.899227 50 50 48
19.061485 9.933133 0.303447 50 50 48
36.381760 19.862299 -0.888114 50 50 48
6.145433 2.351262 1.189988 52 55 50
10.549655 4.698556 0.884968 52 55 50
19.358099 9.393145 0.274929 52 55 50
36.974987 18.782322 -0.945150 52 55 50
6.217636 2.209466 1.182928 58 58 58
10.694060 4.414966 0.870848 58 58 58
19.646910 8.825964 0.246688 58 58 58
37.552608 17.647961 -1.001632 58 58 58
6.287349 2.060871 1.175978 62 62 60
10.833487 4.117774 0.856947 62 62 60
19.925762 8.231582 0.218887 62 62 60
38.110313 16.459196 -1.057235 62 62 60
6.354001 1.905546 1.169181 65 65 63
10.966791 3.807125 0.843354 65 65 63
20.192371 7.610283 0.191700 65 65 63
38.643532 15.216599 -1.111608 65 65 63
6.417000 1.743648 1.162585 67 68 63
11.092790 3.483329 0.830161 67 68 63
20.444368 6.962690 0.165315 67 68 63
39.147526 13.921412 -1.164379 67 68 63
6.475740 1.575420 1.156237 69 69 67
11.210270 3.146874 0.817466 69 69 67
20.679329 6.289780 0.139923 69 69 67
39.617447 12.575593 -1.215162 69 69 67
6.529616 1.401206 1.150187 69 70 65
11.318021 2.798444 0.805366 69 70 65
20.894831 5.592921 0.115724 69 70 65
40.048450 11.181875 -1.263560 69 70 65
6.578036 1.221445 1.144485 76 77 72
11.414862 2.438923 0.793962 76 77 72
21.088512 4.873879 0.092916 76 77 72
40.435814 9.743791 -1.309176 76 77 72
6.620441 1.036681 1.139179 77 78 73
11.499672 2.069394 0.783350 77 78 73
21.258133 4.134821 0.071692 77 78 73
40.775055 8.265676 -1.351625 77 78 73
6.656317 0.847551 1.134315 75 76 71
11.571423 1.691135 0.773622 75 76 71
21.401634 3.378302 0.052236 75 76 71
41.062057 6.752636 -1.390536 75 76 71
6.685214 0.654783 1.129935 76 77 72
11.629216 1.305599 0.764863 76 77 72
21.517221 2.607232 0.034717 76 77 72
41.293232 5.210496 -1.425574 76 77 72
6.706759 0.459184 1.126077 78 79 74
11.672307 0.914401 0.757146 78 79 74
21.603403 1.824834 0.019285 78 79 74
41.465595 3.645700 -1.456439 78 79 74
6.720674 0.261621 1.122772 76 77 72
11.700137 0.519275 0.750535 76 77 72
21.659063 1.034583 0.006062 76 77 72
41.576916 2.065199 -1.482884 76 77 72
6.726782 0.063008 1.120042 80 79 75
11.712353 0.122049 0.745076 80 79 75
21.683495 0.240132 -0.004856 80 79 75
41.625778 0.476296 -1.504720 80 79 75
6.725013 -0.135718 1.117905 80 79 77
11.708816 -0.275403 0.740802 80 79 77
21.676420 -0.554773 -0.013405 80 79 77
41.611629 -1.113513 -1.521817 80 79 77
6.715411 -0.333618 1.116367 79 80 75
11.689610 -0.671203 0.737726 79 80 75
21.638010 -1.346374 -0.019555 79 80 75
41.534809 -2.696716 -1.534119 79 80 75
6.698129 -0.529774 1.115428 79 80 75
11.655047 -1.063515 0.735848 79 80 75
21.568884 -2.130998 -0.023311 79 80 75
41.396557 -4.265964 -1.541631 79 80 75
6.673424 -0.723308 1.115078 78 79 74
11.605638 -1.450584 0.735149 78 79 74
21.470064 -2.905136 -0.024711 78 79 74
41.198917 -5.814239 -1.544429 78 79 74
6.641645 -0.913403 1.115301 79 79 77
11.542079 -1.830773 0.735594 79 79 77
21.342947 -3.665514 -0.023820 79 79 77
40.944683 -7.334994 -1.542648 79 79 77
6.603224 -1.099315 1.116072 79 80 75
11.465238 -2.202598 0.737135 79 80 75
21.189264 -4.409163 -0.020738 79 80 75
40.637318 -8.822292 -1.536483 79 80 75
6.558659 -1.280390 1.117360 78 79 74
11.376107 -2.564748 0.739713 78 79 74
21.011003 -5.133463 -0.015582 78 79 74
40.280796 -10.270893 -1.526172 78 79 74
6.508497 -1.456068 1.119133 78 79 74
11.275783 -2.916103 0.743258 78 79 74
20.810354 -5.836174 -0.008492 78 79 74
39.879498 -11.676315 -1.511993 78 79 74
6.453318 -1.625889 1.121350 74 75 70
11.165424 -3.255745 0.747692 74 75 70
20.589638 -6.515457 0.000376 74 75 70
39.438065 -13.034882 -1.494255 74 75 70
6.393720 -1.789491 1.123971 69 72 66
11.046228 -3.582950 0.752935 69 72 66
20.351246 -7.169867 0.010861 69 72 66
38.961281 -14.343701 -1.473285 69 72 66
6.330304 -1.946612 1.126954 68 71 66
10.919397 -3.897192 0.758900 68 71 66
20.097584 -7.798351 0.022793 68 71 66
38.453957 -15.600670 -1.449422 68 71 66
6.263662 -2.097079 1.130256 65 70 64
10.786113 -4.198124 0.765504 65 70 64
19.831015 -8.400216 0.036001 65 70 64
37.920818 -16.804399 -1.423006 65 70 64
6.194364 -2.240802 1.133836 67 69 67
10.647516 -4.485570 0.772663 67 69 67
19.553822 -8.975108 0.050318 67 69 67
37.366432 -17.954184 -1.394372 67 69 67
6.122950 -2.377767 1.137651 64 66 61
10.504688 -4.759502 0.780295 64 66 61
19.268166 -9.522971 0.065581 64 66 61
36.795120 -19.049910 -1.363845 64 66 61
6.049927 -2.508026 1.141665 62 64 59
10.358644 -5.020020 0.788322 62 64 59
18.976076 -10.044007 0.081636 62 64 59
36.210941 -20.091982 -1.331735 62 64 59
5.908332 2.730262 1.045101 46 51 47
10.075454 5.456556 0.595194 46 51 47
18.409697 10.909145 -0.304621 46 51 47
35.078182 21.814323 -2.104249 46 51 47
5.984278 2.608729 1.035011 46 51 47
10.227345 5.213491 0.575014 46 51 47
18.713480 10.423016 -0.344980 46 51 47
35.685749 20.842064 -2.184968 46 51 47
6.059221 2.480628 1.024964 50 55 51
10.377232 4.957288 0.554920 50 55 51
19.013252 9.910608 -0.385168 50 55 51
36.285294 19.817249 -2.265344 50 55 51
6.132706 2.345841 1.015011 54 56 53
10.524200 4.687715 0.535015 54 56 53
19.307190 9.371463 -0.424979 54 56 53
36.873169 18.738958 -2.344965 54 56 53
6.204236 2.204309 1.005209 58 58 56
10.667260 4.404652 0.515411 58 58 56
19.593309 8.805336 -0.464187 58 58 56
37.445408 17.606705 -2.423382 58 58 56
6.273278 2.056033 0.995619 57 58 53
10.805346 4.108099 0.496231 57 58 53
19.869480 8.212230 -0.502547 57 58 53
37.997749 16.420492 -2.500101 57 58 53
6.339272 1.901086 0.986307 58 59 54
10.937332 3.798205 0.477606 58 59 54
20.133453 7.592443 -0.539796 58 59 54
38.525696 15.180920 -2.574601 58 59 54
6.401630 1.739626 0.977341 62 62 62
11.062050 3.475284 0.459675 62 62 62
20.382889 6.946601 -0.575659 62 62 62
39.024567 13.889235 -2.646326 62 62 62
6.459759 1.571897 0.968794 64 64 64
11.178307 3.139827 0.442580 64 64 64
20.615402 6.275686 -0.609849 64 64 64
39.489594 12.547405 -2.714706 64 64 64
6.513062 1.398240 0.960737 65 66 61
11.284912 2.792513 0.426465 65 66 61
20.828613 5.581059 -0.642078 65 66 61
39.916016 11.158151 -2.779163 65 66 61
6.560957 1.219094 0.953242 69 70 65
11.380704 2.434221 0.411475 69 70 65
21.020197 4.864475 -0.672057 69 70 65
40.299183 9.724983 -2.839122 69 70 65
6.602896 1.034997 0.946378 69 70 65
11.464581 2.066026 0.397749 69 70 65
21.187950 4.128086 -0.699511 69 70 65
40.634689 8.252204 -2.894030 69 70 65
6.638373 0.846581 0.940211 71 72 67
11.535536 1.689194 0.385415 71 72 67
21.329861 3.374422 -0.724178 71 72 67
40.918510 6.744876 -2.943365 71 72 67
6.666948 0.654566 0.934800 70 70 68
11.592685 1.305165 0.374592 70 70 68
21.444159 2.606364 -0.745824 70 70 68
41.147106 5.208760 -2.986655 70 70 68
6.688255 0.459750 0.930195 74 74 72
11.635300 0.915533 0.365382 74 74 72
21.529388 1.827098 -0.764245 74 74 72
41.317566 3.650229 -3.023497 74 74 72
6.702021 0.262990 0.926437 76 77 72
11.662830 0.522014 0.357866 76 77 72
21.584450 1.040060 -0.779276 76 77 72
41.427689 2.076152 -3.053560 76 77 72
6.708070 0.065190 0.923556 74 75 70
11.674930 0.126412 0.352105 74 75 70
21.608648 0.248857 -0.790799 74 75 70
41.476086 0.493747 -3.076605 74 75 70
6.706338 -0.132727 0.921571 75 76 71
11.671465 -0.269421 0.348134 75 76 71
21.601719 -0.542808 -0.798741 75 76 71
41.462227 -1.089584 -3.092489 75 76 71
6.696865 -0.329831 0.920486 74 75 70
11.652518 -0.663630 0.345964 74 75 70
21.563826 -1.331226 -0.803080 74 75 70
41.386440 -2.666420 -3.101169 74 75 70
6.679801 -0.525216 0.920294 75 76 71
11.618390 -1.054399 0.345581 75 76 71
21.495569 -2.112766 -0.803847 75 76 71
41.249928 -4.229498 -3.102701 75 76 71
6.655397 -0.718014 0.920977 75 76 71
11.569584 -1.439995 0.346946 75 76 71
21.397957 -2.883958 -0.801117 75 76 71
41.054703 -5.771883 -3.097242 75 76 71
6.623999 -0.907416 0.922502 73 74 69
11.506786 -1.818799 0.349997 73 74 69
21.272362 -3.641566 -0.795014 73 74 69
40.803513 -7.287099 -3.085037 73 74 69
6.586028 -1.092687 0.924831 75 76 71
11.430844 -2.189341 0.354654 75 76 71
21.120478 -4.382649 -0.785701 75 76 71
40.499744 -8.769266 -3.066410 75 76 71
6.541972 -1.273177 0.927913 75 76 71
11.342733 -2.550321 0.360818 75 76 71
20.944256 -5.104609 -0.773372 75 76 71
40.147301 -10.213186 -3.041753 75 76 71
6.492370 -1.448331 0.931693 68 73 67
11.243528 -2.900630 0.368378 68 73 67
20.745846 -5.805226 -0.758253 68 73 67
39.750481 -11.614420 -3.011514 68 73 67
6.437790 -1.617691 0.936110 71 72 67
11.134370 -3.239350 0.377212 71 72 67
20.527529 -6.482667 -0.740584 71 72 67
39.313847 -12.969301 -2.976177 71 72 67
6.378823 -1.780897 0.941100 66 67 62
11.016435 -3.565762 0.387193 66 67 62
20.291658 -7.135490 -0.720622 66 67 62
38.842106 -14.274948 -2.936252 66 67 62
6.316059 -1.937685 0.946599 62 67 61
10.890907 -3.879337 0.398190 62 67 61
20.040604 -7.762641 -0.698627 62 67 61
38.339996 -15.529250 -2.892263 62 67 61
6.250081 -2.087879 0.952541 63 65 62
10.758950 -4.179726 0.410074 63 65 62
19.776690 -8.363420 -0.674860 63 65 62
37.812168 -16.730806 -2.844729 63 65 62
6.181450 -2.231390 0.958862 62 63 58
10.621690 -4.466746 0.422716 62 63 58
19.502169 -8.937460 -0.649576 62 63 58
37.263126 -17.878887 -2.794160 62 63 58
6.110703 -2.368197 0.965501 59 64 58
10.480195 -4.740361 0.435994 59 64 58
19.219179 -9.484690 -0.623020 59 64 58
36.697147 -18.973347 -2.741049 59 64 58
6.038337 -2.498348 0.972400 53 58 52
10.335464 -5.000664 0.449791 53 58 52
18.929716 -10.005295 -0.595425 53 58 52
36.118221 -20.014557 -2.685858 53 58 52
5.893063 2.721391 0.880405 46 48 43
10.044914 5.438815 0.265802 46 48 43
18.348618 10.873662 -0.963404 46 48 43
34.956024 21.743357 -3.421817 46 48 43
5.968122 2.600008 0.867477 46 48 45
10.195033 5.196049 0.239946 46 48 45
18.648855 10.388130 -1.015116 46 48 45
35.556499 20.772293 -3.525240 46 48 45
6.042160 2.472117 0.854638 50 52 50
10.343108 4.940268 0.214268 50 52 50
18.945005 9.876568 -1.066473 50 52 50
36.148800 19.749168 -3.627954 50 52 50
6.114727 2.337610 0.841956 51 53 50
10.488242 4.671252 0.188905 51 53 50
19.235273 9.338536 -1.117198 51 53 50
36.729336 18.673105 -3.729405 51 53 50
6.185334 2.196428 0.829508 54 56 51
10.629457 4.388889 0.164007 54 56 51
19.517702 8.773810 -1.166994 54 56 51
37.294193 17.543653 -3.828996 54 56 51
6.253458 2.048579 0.817372 56 58 53
10.765705 4.093190 0.139737 56 58 53
19.790199 8.182413 -1.215534 56 58 53
37.839188 16.360859 -3.926077 56 58 53
6.318548 1.894140 0.805637 56 61 57
10.895885 3.784313 0.116267 56 61 57
20.050560 7.564658 -1.262474 56 61 57
38.359909 15.125349 -4.019957 56 61 57
6.380031 1.733269 0.794393 61 62 57
11.018851 3.462572 0.093778 61 62 57
20.296492 6.921176 -1.307452 61 62 57
38.851772 13.838385 -4.109912 61 62 57
6.437324 1.566213 0.783732 61 61 61
11.133436 3.128459 0.072457 61 61 61
20.525661 6.252952 -1.350095 61 61 61
39.310112 12.501936 -4.195198 61 61 61
6.489843 1.393311 0.773749 60 60 58
11.238476 2.782654 0.052490 60 60 58
20.735741 5.561340 -1.390028 60 60 58
39.730270 11.118713 -4.275064 60 60 58
6.537024 1.214997 0.764536 62 63 58
11.332836 2.426027 0.034064 62 63 58
20.924461 4.848086 -1.426881 62 63 58
40.107712 9.692205 -4.348770 62 63 58
6.578327 1.031804 0.756182 63 65 60
11.415442 2.059641 0.017355 63 65 60
21.089674 4.115315 -1.460298 63 65 60
40.438137 8.226664 -4.415604 63 65 60
6.613261 0.844357 0.748769 64 69 63
11.485311 1.684747 0.002530 64 69 63
21.229410 3.365527 -1.489948 64 69 63
40.717609 6.727087 -4.474903 64 69 63
6.641397 0.653366 0.742373 71 72 67
11.541583 1.302765 -0.010262 71 72 67
21.341955 2.601562 -1.515533 71 72 67
40.942699 5.199158 -4.526074 71 72 67
6.662379 0.459615 0.737056 71 72 66
11.583547 0.915263 -0.020896 71 72 66
21.425882 1.826558 -1.536800 71 72 66
41.110554 3.649149 -4.568609 71 72 66
6.675941 0.263949 0.732869 70 72 67
11.610670 0.523931 -0.029270 70 72 67
21.480129 1.043895 -1.553549 70 72 67
41.219048 2.083823 -4.602106 70 72 67
6.681912 0.067256 0.729847 72 72 70
11.622613 0.130545 -0.035313 72 72 70
21.504015 0.257122 -1.565635 72 72 70
41.266819 0.510277 -4.626277 72 72 70
6.680228 -0.129555 0.728011 72 73 68
11.619246 -0.263077 -0.038986 72 73 68
21.497280 -0.530121 -1.572979 72 73 68
41.253349 -1.064209 -4.640967 72 73 68
6.670930 -0.325571 0.727364 70 71 66
11.600649 -0.655109 -0.040281 70 71 66
21.460087 -1.314185 -1.575569 70 71 66
41.178963 -2.632338 -4.646146 70 71 66
6.654163 -0.519899 0.727892 72 73 67
11.567115 -1.043766 -0.039224 72 73 67
21.393019 -2.091499 -1.573456 72 73 67
41.044827 -4.186965 -4.641920 72 73 67
6.630172 -0.711687 0.729567 73 75 70
11.519133 -1.427341 -0.035874 73 75 70
21.297054 -2.858649 -1.566756 73 75 70
40.852898 -5.721266 -4.628520 73 75 70
6.599291 -0.900136 0.732346 70 71 66
11.457371 -1.804239 -0.030317 70 71 66
21.173531 -3.612446 -1.555641 70 71 66
40.605850 -7.228858 -4.606290 70 71 66
6.561933 -1.084522 0.736172 69 70 65
11.382654 -2.173011 -0.022665 69 70 65
21.024097 -4.349990 -1.540337 69 70 65
40.306984 -8.703947 -4.575683 69 70 65
6.518572 -1.264203 0.740978 65 67 62
11.295934 -2.532374 -0.013052 65 67 62
20.850657 -5.068715 -1.521111 65 67 62
39.960102 -10.141397 -4.537231 65 67 62
6.469735 -1.438630 0.746690 69 70 65
11.198258 -2.881227 -0.001629 69 70 65
20.655306 -5.766421 -1.498266 69 70 65
39.569401 -11.536809 -4.491539 69 70 65
6.415976 -1.607347 0.753225 65 67 62
11.090740 -3.218662 0.011441 65 67 62
20.440269 -6.441290 -1.472125 65 67 62
39.139328 -12.886548 -4.439258 65 67 62
6.357871 -1.769996 0.760498 68 69 64
10.974530 -3.543960 0.025988 68 69 64
20.207850 -7.091887 -1.443031 68 69 64
38.674488 -14.187742 -4.381071 68 69 64
6.295999 -1.926313 0.768423 64 67 61
10.850786 -3.856593 0.041838 64 67 61
19.960361 -7.717154 -1.411332 64 67 61
38.179512 -15.438274 -4.317672 64 67 61
6.230930 -2.076119 0.776913 59 61 56
10.720650 -4.156206 0.058817 59 61 56
19.700089 -8.316379 -1.377373 59 61 56
37.658966 -16.636724 -4.249755 59 61 56
6.163217 -2.219320 0.785883 55 60 54
10.585222 -4.442607 0.076757 55 60 54
19.429234 -8.889182 -1.341493 55 60 54
37.117256 -17.782331 -4.177995 55 60 54
6.093382 -2.355894 0.795252 55 57 54
10.445554 -4.715755 0.095496 55 57 54
19.149897 -9.435476 -1.304016 55 57 54
36.558582 -18.874920 -4.103039 55 57 54
6.021920 -2.485880 0.804944 51 53 50
10.302629 -4.975728 0.114880 51 53 50
18.864046 -9.955423 -1.265248 51 53 50
35.986881 -19.914814 -4.025503 51 53 50
5.873436 2.709658 0.717864 37 43 39
10.005661 5.415349 -0.059280 37 43 39
18.270111 10.826731 -1.613569 37 43 39
34.799011 21.649494 -4.722145 37 43 39
5.947382 2.588460 0.702215 43 48 42
10.153553 5.172953 -0.090579 43 48 42
18.565895 10.341938 -1.676165 43 48 42
35.390579 20.679909 -4.847339 43 48 42
6.020283 2.460832 0.686703 50 52 49
10.299356 4.917696 -0.121602 50 52 49
18.857500 9.831425 -1.738212 50 52 49
35.973789 19.658882 -4.971432 50 52 49
6.091699 2.326670 0.671414 51 56 52
10.442186 4.649373 -0.152181 51 56 52
19.143162 9.294779 -1.799369 51 56 52
36.545113 18.585590 -5.093747 51 56 52
6.161150 2.185926 0.656439 51 53 50
10.581088 4.367885 -0.182129 51 53 50
19.420965 8.731803 -1.859267 51 53 50
37.100719 17.459639 -5.213542 51 53 50
6.228125 2.038611 0.641880 50 55 51
10.715039 4.073255 -0.211249 50 55 51
19.688868 8.142542 -1.917505 50 55 51
37.636524 16.281116 -5.330019 50 55 51
6.292086 1.884806 0.627841 55 57 54
10.842961 3.765645 -0.239326 55 57 54
19.944712 7.527323 -1.973661 55 57 54
38.148212 15.050678 -5.442330 55 57 54
6.352475 1.724673 0.614432 54 56 53
10.963739 3.445379 -0.266143 54 56 53
20.186268 6.886792 -2.027294 54 56 53
38.631325 13.769616 -5.549596 54 56 53
6.408724 1.558459 0.601768 62 63 58
11.076238 3.112950 -0.291472 62 63 58
20.411264 6.221932 -2.077952 62 63 58
39.081318 12.439898 -5.650911 62 63 58
6.460268 1.386499 0.589962 63 63 61
11.179324 2.769031 -0.315085 63 63 61
20.617437 5.534095 -2.125178 63 63 61
39.493664 11.064222 -5.745363 63 63 61
6.506556 1.209227 0.579124 60 62 57
11.271900 2.414486 -0.336760 60 62 57
20.802589 4.825005 -2.168527 60 62 57
39.863968 9.646042 -5.832063 60 62 57
6.547066 1.027166 0.569363 61 63 59
11.352921 2.050364 -0.356282 61 63 59
20.964632 4.096760 -2.207573 61 63 59
40.188053 8.189553 -5.910153 61 63 59
6.581325 0.840931 0.560777 64 66 61
11.421439 1.677894 -0.373455 64 66 61
21.101667 3.351821 -2.241918 64 66 61
40.462124 6.699676 -5.978843 64 66 61
6.608914 0.651220 0.553454 65 66 61
11.476618 1.298473 -0.388101 65 66 61
21.212025 2.592978 -2.271209 65 66 61
40.682838 5.181989 -6.037426 65 66 61
6.629492 0.458803 0.547469 67 68 63
11.517774 0.913638 -0.400070 67 68 63
21.294336 1.823309 -2.295149 67 68 63
40.847462 3.642650 -6.085305 67 68 63
6.642800 0.264507 0.542881 65 66 61
11.544390 0.525046 -0.409246 65 66 61
21.347569 1.046125 -2.313500 65 66 61
40.953926 2.088283 -6.122009 65 66 61
6.648674 0.069201 0.539731 68 70 65
11.556136 0.134435 -0.415546 68 70 65
21.371061 0.264903 -2.326101 68 70 65
41.000912 0.525839 -6.147210 68 70 65
6.647050 -0.126223 0.538040 67 68 63
11.552890 -0.256413 -0.418929 67 68 63
21.364569 -0.516794 -2.332866 67 68 63
40.987926 -1.037555 -6.160739 67 68 63
6.637970 -0.320873 0.537809 67 68 63
11.534729 -0.645713 -0.419389 67 68 63
21.328247 -1.295393 -2.333787 67 68 63
40.915283 -2.594753 -6.162581 67 68 63
6.621573 -0.513874 0.539021 68 69 64
11.501935 -1.031715 -0.416966 68 69 64
21.262659 -2.067396 -2.328940 68 69 64
40.784107 -4.138760 -6.152889 68 69 64
6.598094 -0.704389 0.541638 68 69 64
11.454977 -1.412745 -0.411733 68 69 64
21.168743 -2.829458 -2.318474 68 69 64
40.596275 -5.662884 -6.131956 68 69 64
6.567858 -0.891637 0.545604 66 67 62
11.394506 -1.787241 -0.403800 66 67 62
21.047800 -3.578450 -2.302608 66 67 62
40.354389 -7.160868 -6.100224 66 67 62
6.531263 -1.074905 0.550850 66 68 63
11.321316 -2.153778 -0.393308 66 68 63
20.901421 -4.311522 -2.281623 66 68 63
40.061630 -8.627012 -6.058255 66 68 63
6.488769 -1.253562 0.557293 61 66 60
11.236327 -2.511091 -0.380422 61 66 60
20.731443 -5.026149 -2.255853 61 66 60
39.721676 -10.056266 -6.006714 61 66 60
6.440885 -1.427064 0.564838 68 69 64
11.140558 -2.858096 -0.365332 68 69 64
20.539906 -5.720160 -2.225671 68 69 64
39.338600 -11.444286 -5.946350 68 69 64
6.388150 -1.594963 0.573386 63 68 62
11.035089 -3.193893 -0.348236 63 68 62
20.328966 -6.391753 -2.191479 63 68 62
38.916721 -12.787474 -5.877966 63 68 62
6.331122 -1.756899 0.582832 60 65 59
10.921033 -3.517766 -0.329345 60 65 59
20.100855 -7.039499 -2.153697 60 65 59
38.460499 -14.082966 -5.802402 60 65 59
6.270365 -1.912609 0.593067 57 62 58
10.799520 -3.829186 -0.308873 57 62 58
19.857828 -7.662339 -2.112754 57 62 58
37.974445 -15.328646 -5.720517 57 62 58
6.206435 -2.061913 0.603987 55 60 56
10.671659 -4.127792 -0.287034 55 60 56
19.602106 -8.259552 -2.069076 55 60 56
37.463001 -16.523071 -5.633159 55 60 56
6.139869 -2.204709 0.615487 52 57 53
10.538527 -4.413386 -0.264034 52 57 53
19.335842 -8.830739 -2.023076 52 57 53
36.930473 -17.665445 -5.541159 52 57 53
6.071180 -2.340972 0.627468 56 57 59
10.401150 -4.685911 -0.240073 56 57 59
19.061089 -9.375790 -1.975153 56 57 59
36.380966 -18.755547 -5.445314 56 57 59
6.000850 -2.470734 0.639835 49 54 50
10.260489 -4.945436 -0.215339 49 54 50
18.779768 -9.894839 -1.925685 49 54 50
35.818325 -19.793646 -5.346379 49 54 50
5.849648 2.695189 0.557955 42 44 43
9.958086 5.386410 -0.379099 42 44 43
18.174961 10.768853 -2.253206 42 44 43
34.608711 21.533739 -6.001420 42 44 43
5.922272 2.574213 0.539724 43 45 44
10.103333 5.144458 -0.415560 43 45 44
18.465456 10.284949 -2.326128 43 45 44
35.189701 20.565931 -6.147263 43 45 44
5.993824 2.446899 0.521682 44 49 43
10.246438 4.889832 -0.451643 44 49 43
18.751665 9.775696 -2.398295 44 49 43
35.762119 19.547424 -6.291597 44 49 43
6.063874 2.313154 0.503929 44 46 41
10.386538 4.622340 -0.487150 44 46 41
19.031864 9.240712 -2.469307 44 46 41
36.322517 18.477457 -6.433623 44 46 41
6.131957 2.172933 0.486574 51 53 52
10.522702 4.341899 -0.521861 51 53 52
19.304193 8.679832 -2.538730 51 53 52
36.867176 17.355696 -6.572467 51 53 52
6.197572 2.026256 0.469733 51 53 48
10.653934 4.048545 -0.555542 51 53 48
19.566656 8.093122 -2.606092 51 53 48
37.392101 16.182278 -6.707193 51 53 48
6.260200 1.873209 0.453530 54 59 55
10.779188 3.742451 -0.587948 54 59 55
19.817165 7.480934 -2.670904 54 59 55
37.893120 14.957901 -6.836816 54 59 55
6.319297 1.713956 0.438094 54 56 53
10.897383 3.423945 -0.618820 54 56 53
20.053555 6.843922 -2.732649 54 56 53
38.365898 13.683877 -6.960306 54 56 53
6.374315 1.548744 0.423555 58 58 56
11.007419 3.093520 -0.647897 58 58 56
20.273626 6.183073 -2.790802 58 58 56
38.806042 12.362179 -7.076613 58 58 56
6.424708 1.377908 0.410046 57 61 60
11.108205 2.751848 -0.674916 57 61 60
20.475199 5.499730 -2.844839 57 61 60
39.209187 10.995492 -7.184686 57 61 60
6.469944 1.201874 0.397695 57 59 56
11.198678 2.399781 -0.699617 57 59 56
20.656145 4.795595 -2.894243 57 59 56
39.571079 9.587222 -7.283494 57 59 56
6.509524 1.021159 0.386625 63 65 60
11.277837 2.038351 -0.721758 63 65 60
20.814463 4.072735 -2.938525 63 65 60
39.887714 8.141502 -7.372057 63 65 60
6.542988 0.836366 0.376949 64 65 60
11.344765 1.668764 -0.741111 64 65 60
20.948318 3.333561 -2.977229 64 65 60
40.155426 6.663155 -7.449466 64 65 60
6.569935 0.648177 0.368767 63 63 61
11.398659 1.292386 -0.757473 63 63 61
21.056107 2.580805 -3.009954 63 63 61
40.371002 5.157643 -7.514917 63 63 61
6.590037 0.457345 0.362165 65 65 63
11.438864 0.910722 -0.770677 65 65 63
21.136517 1.817476 -3.036362 65 65 63
40.531822 3.630985 -7.567732 65 65 63
6.603046 0.264677 0.357209 64 66 63
11.464882 0.525386 -0.780590 64 66 63
21.188553 1.046806 -3.056188 64 66 63
40.635895 2.089644 -7.607383 64 66 63
6.608806 0.071021 0.353943 65 65 63
11.476400 0.138076 -0.787121 65 65 63
21.211590 0.272184 -3.069250 65 65 63
40.681969 0.540400 -7.633508 65 65 63
6.607254 -0.122753 0.352392 67 68 63
11.473296 -0.249474 -0.790225 67 68 63
21.205381 -0.502915 -3.075458 67 68 63
40.669552 -1.009797 -7.645923 67 68 63
6.598428 -0.315777 0.352553 63 65 60
11.455646 -0.635521 -0.789902 63 65 60
21.170080 -1.275008 -3.074811 63 65 60
40.598949 -2.553984 -7.644631 63 65 60
6.582465 -0.507195 0.354405 63 65 60
11.423719 -1.018358 -0.786198 63 65 60
21.106228 -2.040684 -3.067404 63 65 60
40.471245 -4.085335 -7.629816 63 65 60
6.559589 -0.696193 0.357902 62 67 61
11.377967 -1.396354 -0.779204 62 67 61
21.014723 -2.796676 -3.053416 62 67 61
40.288235 -5.597319 -7.601840 62 67 61
6.530111 -0.882006 0.362979 63 64 59
11.319011 -1.767979 -0.769050 63 64 59
20.896811 -3.539926 -3.033107 63 64 59
40.052410 -7.083819 -7.561223 63 64 59
6.494413 -1.063936 0.369553 58 63 57
11.247616 -2.131840 -0.755901 58 63 57
20.754021 -4.267647 -3.006810 58 63 57
39.766830 -8.539261 -7.508628 58 63 57
6.452940 -1.241364 0.377527 62 67 61
11.164668 -2.486695 -0.739954 62 67 61
20.588125 -4.977358 -2.974916 62 67 61
39.435040 -9.958683 -7.444839 62 67 61
6.406178 -1.413755 0.386791 57 62 56
11.071145 -2.831477 -0.721426 57 62 56
20.401079 -5.666922 -2.937860 57 62 56
39.060947 -11.337811 -7.370728 57 62 56
6.354650 -1.580665 0.397227 59 61 58
10.968088 -3.165297 -0.700554 59 61 58
20.194965 -6.334562 -2.896116 59 61 58
38.648720 -12.673091 -7.287241 59 61 58
6.298894 -1.741739 0.408712 57 59 58
10.856577 -3.487445 -0.677583 57 59 58
19.971943 -6.978857 -2.850175 57 59 58
38.202675 -13.961681 -7.195358 57 59 58
6.239454 -1.896710 0.421122 56 61 57
10.737698 -3.797388 -0.652764 56 61 57
19.734184 -7.598742 -2.800536 56 61 57
37.727158 -15.201452 -7.096079 56 61 57
6.176870 -2.045397 0.434332 62 64 61
10.612529 -4.094761 -0.626345 62 64 61
19.483847 -8.193490 -2.747698 62 64 61
37.226482 -16.390947 -6.990404 62 64 61
6.111663 -2.187695 0.448219 54 59 55
10.482116 -4.379357 -0.598569 54 59 55
19.223021 -8.762681 -2.692147 54 59 55
36.704830 -17.529329 -6.879302 54 59 55
6.044332 -2.323568 0.462669 53 55 52
10.347453 -4.651104 -0.569670 53 55 52
18.953695 -9.306175 -2.634348 53 55 52
36.166180 -18.616318 -6.763705 53 55 52
5.975347 -2.453045 0.477570 47 49 46
10.209482 -4.910058 -0.539869 47 49 46
18.677753 -9.824083 -2.574745 47 49 46
35.614296 -19.652134 -6.644498 47 49 46
5.821929 2.678128 0.401113 35 40 36
9.902647 5.352290 -0.692781 35 40 36
18.064083 10.700612 -2.880571 35 40 36
34.386955 21.397257 -7.256150 35 40 36
5.893040 2.557416 0.380461 40 45 41
10.044869 5.110865 -0.734086 40 45 41
18.348528 10.217762 -2.963181 40 45 41
34.955845 20.431557 -7.421369 40 45 41
5.963052 2.430472 0.360051 39 44 38
10.184894 4.856977 -0.774907 39 44 38
18.628576 9.709986 -3.044821 39 44 38
35.515942 19.416004 -7.584651 39 44 38
6.031547 2.297211 0.339997 46 48 45
10.321882 4.590456 -0.815014 46 48 45
18.902554 9.176944 -3.125037 46 48 45
36.063896 18.349920 -7.745081 46 48 45
6.098069 2.157600 0.320423 46 51 45
10.454927 4.311234 -0.854161 46 51 45
19.168644 8.618500 -3.203331 46 51 45
36.596077 17.233032 -7.901669 46 51 45
6.162139 2.011663 0.301463 52 54 51
10.583068 4.019360 -0.892083 52 54 51
19.424925 8.034752 -3.279173 52 54 51
37.108639 16.065536 -8.053354 52 54 51
6.223250 1.859493 0.283254 51 56 52
10.705290 3.715018 -0.928500 51 56 52
19.669369 7.426069 -3.352007 51 56 52
37.597527 14.848170 -8.199022 51 56 52
6.280882 1.701256 0.265943 50 55 49
10.820554 3.398544 -0.963123 50 55 49
19.899897 6.793120 -3.421254 50 55 49
38.058582 13.582273 -8.337515 50 55 49
6.334505 1.537199 0.249675 56 58 55
10.927798 3.070431 -0.995657 56 58 55
20.114386 6.136895 -3.486323 56 58 55
38.487560 12.269822 -8.467653 56 58 55
6.383594 1.367656 0.234599 52 57 51
11.025977 2.731345 -1.025810 52 57 51
20.310743 5.458723 -3.546627 52 57 51
38.880276 10.913479 -8.588263 52 57 51
6.427642 1.193047 0.220858 56 58 53
11.114073 2.382126 -1.053292 56 58 53
20.486935 4.760285 -3.601592 56 58 53
39.232658 9.516603 -8.698193 56 58 53
6.466166 1.013877 0.208588 55 60 53
11.191122 2.023787 -1.077832 55 60 53
20.641033 4.043607 -3.650671 55 60 53
39.540855 8.083247 -8.796350 55 60 53
6.498731 0.830738 0.197916 58 58 58
11.256251 1.657508 -1.099177 58 58 58
20.771292 3.311049 -3.693362 58 58 58
39.801373 6.618132 -8.881731 58 58 58
6.524954 0.644294 0.188951 61 66 60
11.308697 1.284621 -1.117106 61 66 60
20.876183 2.565276 -3.729220 61 66 60
40.011154 5.126584 -8.953447 61 66 60
6.544519 0.455279 0.181788 55 60 54
11.347828 0.906591 -1.131432 55 60 54
20.954445 1.809215 -3.757871 55 60 54
40.167679 3.614463 -9.010750 55 60 54
6.557191 0.264478 0.176499 56 61 55
11.373172 0.524989 -1.142010 56 61 55
21.005133 1.046011 -3.779027 56 61 55
40.269054 2.088054 -9.053062 56 61 55
6.562821 0.072714 0.173133 65 66 61
11.384431 0.141461 -1.148743 65 66 61
21.027651 0.278956 -3.792493 65 66 61
40.314091 0.553944 -9.079994 65 66 61
6.561349 -0.119169 0.171713 56 61 55
11.381487 -0.242305 -1.151582 56 61 55
21.021763 -0.488576 -3.798173 56 61 55
40.302315 -0.981120 -9.091354 56 61 55
6.552812 -0.310325 0.172238 62 63 58
11.364412 -0.624618 -1.150532 62 63 58
20.987614 -1.253204 -3.796072 62 63 58
40.234016 -2.510375 -9.087152 62 63 58
6.537337 -0.499927 0.174680 61 63 60
11.333464 -1.003822 -1.145647 61 63 60
20.925716 -2.011611 -3.786302 61 63 60
40.110222 -4.027190 -9.067612 61 63 60
6.515141 -0.687180 0.178989 62 64 61
11.289071 -1.378328 -1.137030 62 64 61
20.836931 -2.760624 -3.769067 62 64 61
39.932652 -5.525215 -9.033142 62 64 61
6.486519 -0.871340 0.185090 56 61 55
11.231828 -1.746648 -1.124828 56 61 55
20.722445 -3.497263 -3.744665 56 61 55
39.703678 -6.998494 -8.984337 56 61 55
6.451837 -1.051727 0.192889 59 61 56
11.162462 -2.107421 -1.109231 59 61 56
20.583714 -4.218809 -3.713469 59 61 56
39.426216 -8.441586 -8.921946 59 61 56
6.411517 -1.227734 0.202276 56 60 59
11.081822 -2.459435 -1.090457 56 60 59
20.422434 -4.922837 -3.675922 56 60 59
39.103657 -9.849641 -8.846851 56 60 59
6.366027 -1.398837 0.213127 55 60 54
10.990843 -2.801641 -1.068754 55 60 54
20.240475 -5.607248 -3.632516 55 60 54
38.739738 -11.218464 -8.760040 55 60 54
6.315866 -1.564597 0.225310 57 59 56
10.890522 -3.133162 -1.044387 57 59 56
20.039833 -6.270292 -3.583783 57 59 56
38.338455 -12.544551 -8.662573 57 59 56
6.261553 -1.724664 0.238687 50 54 53
10.781896 -3.453295 -1.017634 50 54 53
19.822580 -6.910558 -3.530276 50 54 53
37.903950 -13.825084 -8.555561 50 54 53
6.203610 -1.878770 0.253116 53 58 54
10.666009 -3.761508 -0.988777 53 58 54
19.590807 -7.526982 -3.472561 53 58 54
37.440403 -15.057932 -8.440130 53 58 54
6.142556 -2.026730 0.268456 50 55 49
10.543901 -4.057427 -0.958096 50 55 49
19.346592 -8.118821 -3.411199 50 55 49
36.951973 -16.241610 -8.317406 50 55 49
6.078897 -2.168434 0.284571 49 56 50
10.416582 -4.340836 -0.925866 49 56 50
19.091953 -8.685639 -3.346740 49 56 50
36.442696 -17.375246 -8.188488 49 56 50
6.013113 -2.303841 0.301328 49 51 48
10.285015 -4.611650 -0.892352 49 51 48
18.828819 -9.227267 -3.279712 49 51 48
35.916428 -18.458502 -8.054432 49 51 48
5.945662 -2.432970 0.318602 43 48 42
10.150113 -4.869906 -0.857804 43 48 42
18.559015 -9.743780 -3.210616 43 48 42
35.376820 -19.491528 -7.916239 43 48 42
5.790532 2.658643 0.247731 28 37 32
9.839853 5.313318 -0.999547 28 37 32
17.938496 10.622668 -3.494102 28 37 32
34.135780 21.241369 -8.483212 28 37 32
5.859964 2.538236 0.224831 36 41 35
9.978718 5.072505 -1.045346 36 41 35
18.216225 10.141044 -3.585701 36 41 35
34.691238 20.278120 -8.666409 36 41 35
5.928269 2.411719 0.202229 39 44 40
10.115328 4.819470 -1.090549 39 44 40
18.489445 9.634974 -3.676107 39 44 40
35.237679 19.265980 -8.847221 39 44 40
5.995040 2.279014 0.180053 42 46 45
10.248869 4.554060 -1.134902 42 46 45
18.756527 9.104153 -3.764812 42 46 45
35.771843 18.204338 -9.024632 42 46 45
6.059838 2.140095 0.158440 46 48 45
10.378465 4.276224 -1.178129 46 48 45
19.015718 8.548480 -3.851265 46 48 45
36.290226 17.092993 -9.197538 46 48 45
6.122200 1.994998 0.137535 46 48 43
10.503188 3.986028 -1.219938 46 48 43
19.265165 7.968088 -3.934885 46 48 43
36.789120 15.932209 -9.364777 46 48 43
6.181639 1.843818 0.117492 48 48 48
10.622067 3.683668 -1.260024 48 48 48
19.502924 7.363369 -4.015056 48 48 48
37.264637 14.722771 -9.525120 48 48 48
6.237655 1.686725 0.098470 48 53 49
10.734098 3.369483 -1.298067 48 53 49
19.726986 6.734999 -4.091142 48 53 49
37.712761 13.466030 -9.677292 48 53 49
6.289742 1.523968 0.080631 50 55 49
10.838273 3.043970 -1.333746 50 55 49
19.935335 6.083972 -4.162501 50 55 49
38.129459 12.163977 -9.820009 50 55 49
6.337399 1.355876 0.064134 41 46 42
10.933586 2.707786 -1.366741 41 46 42
20.125961 5.411604 -4.228489 41 46 42
38.510712 10.819241 -9.951986 41 46 42
6.380139 1.182862 0.049135 52 57 51
11.019068 2.361758 -1.396737 52 57 51
20.296925 4.719548 -4.288483 52 57 51
38.852638 9.435128 -10.071974 52 57 51
6.417508 1.005423 0.035784 56 58 55
11.093804 2.006878 -1.423441 56 58 55
20.446398 4.009789 -4.341890 56 58 55
39.151585 8.015610 -10.178787 56 58 55
6.449087 0.824132 0.024214 54 56 53
11.156963 1.644296 -1.446579 54 56 53
20.572716 3.284626 -4.388167 54 56 53
39.404221 6.565284 -10.271341 54 56 53
6.474514 0.639638 0.014548 56 58 55
11.207817 1.275308 -1.465913 56 58 55
20.674423 2.546649 -4.426834 56 58 55
39.607635 5.089331 -10.348675 56 58 55
6.493491 0.452651 0.006884 55 60 56
11.245771 0.901334 -1.481241 55 60 56
20.750332 1.798701 -4.457489 55 60 56
39.759453 3.593435 -10.409986 55 60 56
6.505794 0.263932 0.001300 57 57 55
11.270377 0.523898 -1.492409 57 57 55
20.799543 1.043828 -4.479826 57 57 55
39.857876 2.083689 -10.454660 57 57 55
6.511281 0.074279 -0.002153 56 60 61
11.281350 0.144592 -1.499314 56 60 61
20.821489 0.285216 -4.493636 56 60 61
39.901768 0.566465 -10.482279 56 60 61
6.509896 -0.115492 -0.003449 54 59 53
11.278581 -0.234952 -1.501905 54 59 53
20.815950 -0.473870 -4.498819 54 59 53
39.890690 -0.951708 -10.492645 54 59 53
6.501674 -0.304565 -0.002591 55 61 51
11.262136 -0.613096 -1.500190 55 61 51
20.783062 -1.230160 -4.495389 55 61 51
39.824913 -2.464288 -10.485785 55 61 51
6.486734 -0.492136 0.000389 55 59 58
11.232258 -0.988239 -1.494230 55 59 58
20.723305 -1.980445 -4.483469 55 59 58
39.705399 -3.964857 -10.461945 55 59 58
6.465283 -0.677436 0.005435 56 61 55
11.189356 -1.358840 -1.484138 56 61 55
20.637501 -2.721647 -4.463285 56 61 55
39.533791 -5.447262 -10.421577 56 61 55
6.437600 -0.859744 0.012465 55 60 54
11.133989 -1.723456 -1.470078 55 60 54
20.526768 -3.450879 -4.435165 55 60 54
39.312325 -6.905725 -10.365337 55 60 54
6.404030 -1.038398 0.021377 52 57 53
11.066850 -2.080763 -1.452255 52 57 53
20.392488 -4.165493 -4.399518 52 57 53
39.043766 -8.334954 -10.294043 52 57 53
6.364977 -1.212806 0.032049 55 60 56
10.988743 -2.429580 -1.430910 55 60 56
20.236275 -4.863127 -4.356829 55 60 56
38.731339 -9.730222 -10.208666 55 60 56
6.320884 -1.382456 0.044347 52 57 51
10.900558 -2.768880 -1.406315 52 57 51
20.059904 -5.541727 -4.307638 52 57 51
38.378597 -11.087421 -10.110283 52 57 51
6.272229 -1.546917 0.058125 49 54 50
10.803246 -3.097801 -1.378759 49 54 50
19.865282 -6.199570 -4.252525 49 54 50
37.989353 -12.403107 -10.000059 49 54 50
6.219504 -1.705840 0.073231 49 54 50
10.697798 -3.415647 -1.348547 49 54 50
19.654385 -6.835260 -4.192101 49 54 50
37.567558 -13.674488 -9.879210 49 54 50
6.163211 -1.858958 0.089510 46 51 47
10.585211 -3.721883 -1.315987 46 51 47
19.429211 -7.447734 -4.126982 46 51 47
37.117210 -14.899435 -9.748972 46 51 47
6.103848 -2.006084 0.106809 48 53 49
10.466484 -4.016136 -1.281390 48 53 49
19.191757 -8.036239 -4.057788 48 53 49
36.642303 -16.076445 -9.610584 48 53 49
6.041898 -2.147102 0.124975 45 50 46
10.342586 -4.298172 -1.245058 45 50 46
18.943960 -8.600310 -3.985124 45 50 46
36.146709 -17.204588 -9.465256 45 50 46
5.977829 -2.281964 0.143863 39 48 43
10.214446 -4.567894 -1.207282 39 48 43
18.687681 -9.139756 -3.909572 39 48 43
35.634151 -18.283480 -9.314152 39 48 43
5.912078 -2.410678 0.163335 42 47 43
10.082945 -4.825324 -1.168338 42 47 43
18.424679 -9.654614 -3.831685 42 47 43
35.108147 -19.313196 -9.158377 42 47 43
