ply
format ascii 1.0
element vertex 2304
property float x
property float y
property float z
property uchar red
property uchar green
property uchar blue
end_header
5.937492 -2.567140 2.962502 162 167 171
10.255233 -4.633486 4.407259 162 167 171
18.890715 -8.766179 7.296773 162 167 171
36.161678 -17.031565 13.075801 162 167 171
5.869726 -2.689101 2.983699 161 165 168
10.119701 -4.877409 4.449653 161 165 168
18.619652 -9.254024 7.381560 161 165 168
35.619553 -18.007254 13.245375 161 165 168
5.796197 -2.813209 3.004361 172 176 179
9.972644 -5.125625 4.490977 172 176 179
18.325537 -9.750456 7.464210 172 176 179
35.031322 -19.000118 13.410674 172 176 179
5.716646 -2.939152 3.024349 179 180 184
9.813541 -5.377511 4.530952 179 180 184
18.007332 -10.254228 7.544160 179 180 184
34.394913 -20.007662 13.570576 179 180 184
5.630841 -3.066566 3.043512 180 181 185
9.641932 -5.632338 4.569279 180 181 185
17.664112 -10.763883 7.620813 180 181 185
33.708473 -21.026972 13.723882 180 181 185
5.538587 -3.195036 3.061695 180 184 187
9.457423 -5.889278 4.605645 180 184 187
17.295095 -11.277762 7.693544 180 184 187
32.970440 -22.054731 13.869344 180 184 187
5.439734 -3.324097 3.078735 198 197 202
9.259716 -6.147400 4.639725 198 197 202
16.899681 -11.794006 7.761704 198 197 202
32.179611 -23.087219 14.005663 198 197 202
5.334187 -3.453236 3.094467 194 193 198
9.048622 -6.405678 4.671189 194 193 198
16.477493 -12.310562 7.824634 194 193 198
31.335236 -24.120331 14.131523 194 193 198
5.221914 -3.581896 3.108728 196 196 198
8.824077 -6.662999 4.699711 196 196 198
16.028402 -12.825204 7.881676 196 196 198
30.437054 -25.149614 14.245607 196 196 198
5.102956 -3.709487 3.121357 203 201 204
8.586161 -6.918180 4.724968 203 201 204
15.552571 -13.335567 7.932192 203 201 204
29.485392 -26.170341 14.346639 203 201 204
4.977430 -3.835388 3.132201 205 203 206
8.335110 -7.169983 4.746657 205 203 206
15.050469 -13.839172 7.975570 205 203 206
28.481188 -27.177551 14.433394 205 203 206
4.845539 -3.958965 3.141120 220 218 219
8.071326 -7.417136 4.764496 220 218 219
14.522902 -14.333479 8.011248 220 218 219
27.426052 -28.166164 14.504749 220 218 219
4.707567 -4.079576 3.147990 207 205 208
7.795384 -7.658360 4.778234 207 205 208
13.971017 -14.815926 8.038725 207 205 208
26.322283 -29.131058 14.559704 207 205 208
4.563891 -4.196594 3.152705 214 213 211
7.508032 -7.892395 4.787665 214 213 211
13.396313 -15.283997 8.057585 214 213 211
25.172874 -30.067200 14.597425 214 213 211
4.414966 -4.309411 3.155184 219 217 218
7.210181 -8.118029 4.792623 219 217 218
12.800611 -15.735265 8.067499 219 217 218
23.981470 -30.969736 14.617254 219 217 218
4.261324 -4.417459 3.155370 208 206 209
6.902897 -8.334126 4.792996 208 206 209
12.186043 -16.167458 8.068247 208 206 209
22.752335 -31.834124 14.618749 208 206 209
4.103569 -4.520223 3.153238 176 176 178
6.587386 -8.539652 4.788732 176 176 178
11.555021 -16.578510 8.059718 176 176 178
21.490292 -32.656227 14.601691 176 176 178
3.942358 -4.617248 3.148790 171 171 173
6.264964 -8.733702 4.779834 171 171 173
10.910177 -16.966610 8.041924 171 171 173
20.200603 -33.432426 14.566102 171 171 173
3.778392 -4.708154 3.142055 166 166 168
5.937034 -8.915515 4.766365 166 166 168
10.254316 -17.330236 8.014985 166 166 168
18.888882 -34.159679 14.512225 166 166 168
3.612402 -4.792645 3.133095 165 165 165
5.605054 -9.084496 4.748446 165 165 165
9.590357 -17.668198 7.979146 165 165 165
17.560963 -34.835602 14.440546 165 165 165
3.445130 -4.870503 3.121996 163 163 163
5.270509 -9.240213 4.726247 163 163 163
8.921267 -17.979633 7.934750 163 163 163
16.222782 -35.458473 14.351754 163 163 163
3.277312 -4.941606 3.108869 149 153 154
4.934874 -9.382419 4.699993 149 153 154
8.249996 -18.264044 7.882240 149 153 154
14.880241 -36.027294 14.246736 149 153 154
3.109669 -5.005908 3.093844 157 161 162
4.599587 -9.511022 4.669943 157 161 162
7.579424 -18.521250 7.822140 157 161 162
13.539097 -36.541706 14.126535 157 161 162
2.942887 -5.063448 3.077068 142 146 147
4.266022 -9.626103 4.636392 142 146 147
6.912293 -18.751413 7.755038 142 146 147
12.204836 -37.002033 13.992332 142 146 147
2.777608 -5.114340 3.058702 66 60 47
3.935466 -9.727887 4.599660 66 60 47
6.251181 -18.954981 7.681575 66 60 47
10.882610 -37.409168 13.845405 66 60 47
2.614424 -5.158762 3.038914 41 36 30
3.609097 -9.816730 4.560083 41 36 30
5.598444 -19.132668 7.602421 41 36 30
9.577137 -37.764542 13.687097 41 36 30
2.453864 -5.196948 3.017875 55 50 45
3.287977 -9.893103 4.518004 55 50 45
4.956203 -19.285412 7.518264 55 50 45
8.292656 -38.070030 13.518783 55 50 45
2.296393 -5.229179 2.995757 138 142 143
2.973036 -9.957565 4.473769 138 142 143
4.326321 -19.414337 7.429792 138 142 143
7.032890 -38.327881 13.341840 138 142 143
2.142413 -5.255774 2.972731 151 155 156
2.665075 -10.010755 4.427716 151 155 156
3.710399 -19.520716 7.337687 151 155 156
5.801046 -38.540638 13.157630 151 155 156
1.992255 -5.277075 2.948959 154 158 159
2.364759 -10.053357 4.380174 154 158 159
3.109767 -19.605921 7.242602 154 158 159
4.599783 -38.711048 12.967460 154 158 159
1.846190 -5.293443 2.924599 153 157 158
2.072629 -10.086092 4.331453 153 157 158
2.525508 -19.671391 7.145162 153 157 158
3.431264 -38.841988 12.772578 153 157 158
1.704426 -5.305246 2.899796 140 146 146
1.789101 -10.109699 4.281847 140 146 146
1.958450 -19.718605 7.045950 140 146 146
2.297150 -38.936417 12.574155 140 146 146
5.976938 -2.584175 2.811748 157 161 170
10.334126 -4.667556 4.105750 157 161 170
19.048500 -8.834319 6.693755 157 161 170
36.477249 -17.167845 11.869764 157 161 170
5.909857 -2.707792 2.830814 174 178 181
10.199963 -4.914790 4.143882 174 178 181
18.780174 -9.328787 6.770020 174 178 181
35.940598 -18.156780 12.022294 174 178 181
5.836918 -2.833644 2.849401 198 198 200
10.054086 -5.166494 4.181058 198 198 200
18.488420 -9.832194 6.844371 198 198 200
35.357090 -19.163595 12.170997 198 198 200
5.757847 -2.961412 2.867382 193 192 197
9.895943 -5.422030 4.217020 193 192 197
18.172134 -10.343267 6.916294 193 192 197
34.724518 -20.185741 12.314843 193 192 197
5.672394 -3.090724 2.884619 176 179 184
9.725038 -5.680655 4.251493 176 179 184
17.830324 -10.860518 6.985240 176 179 184
34.040897 -21.220242 12.452735 176 179 184
5.580349 -3.221154 2.900966 179 182 187
9.540947 -5.941515 4.284187 179 182 187
17.462143 -11.382237 7.050630 179 182 187
33.304535 -22.263681 12.583515 179 182 187
5.481546 -3.352222 2.916276 170 174 183
9.343342 -6.203650 4.314807 170 174 183
17.066933 -11.906507 7.111870 170 174 183
32.514114 -23.312222 12.705995 170 174 183
5.375878 -3.483397 2.930396 183 186 193
9.132006 -6.466002 4.343047 183 186 193
16.644260 -12.431210 7.168349 183 186 193
31.668768 -24.361626 12.818954 183 186 193
5.263300 -3.614104 2.943174 212 210 213
8.906849 -6.727415 4.368603 212 210 213
16.193947 -12.954037 7.219461 212 210 213
30.768143 -25.407280 12.921177 212 210 213
5.143842 -3.743728 2.954461 209 207 208
8.667933 -6.986663 4.391177 209 207 208
15.716115 -13.472533 7.264610 209 207 208
29.812479 -26.444273 13.011475 209 207 208
5.017617 -3.871627 2.964117 214 212 213
8.415483 -7.242460 4.410489 214 212 213
15.211214 -13.984127 7.303233 214 212 213
28.802677 -27.467461 13.088721 214 212 213
4.884823 -3.997137 2.972010 217 215 216
8.149895 -7.493481 4.426275 217 215 216
14.680038 -14.486168 7.334806 217 215 216
27.740326 -28.471542 13.151867 217 215 216
4.745749 -4.119594 2.978026 215 213 216
7.871748 -7.738394 4.438307 215 213 216
14.123745 -14.975995 7.358869 215 213 216
26.627739 -29.451197 13.199993 215 213 216
4.600775 -4.238340 2.982067 234 230 231
7.581800 -7.975886 4.446388 234 230 231
13.543848 -15.450979 7.375031 234 230 231
25.467945 -30.401165 13.232318 234 230 231
4.450369 -4.352745 2.984057 225 223 224
7.280987 -8.204696 4.450370 225 223 224
12.942223 -15.908598 7.382995 225 223 224
24.264694 -31.316402 13.248244 225 223 224
4.295078 -4.462217 2.983947 214 212 213
6.970406 -8.423640 4.450149 214 212 213
12.321060 -16.346487 7.382553 214 212 213
23.022369 -32.192181 13.247361 214 212 213
4.135525 -4.566219 2.981711 185 189 192
6.651299 -8.631645 4.445678 185 189 192
11.682847 -16.762497 7.373611 185 189 192
21.745943 -33.024200 13.229477 185 189 192
3.972389 -4.664282 2.977354 202 202 204
6.325027 -8.827770 4.436962 202 202 204
11.030304 -17.154747 7.356180 202 202 204
20.440857 -33.808701 13.194614 202 202 204
3.806399 -4.756013 2.970904 180 180 180
5.993048 -9.011232 4.424064 180 180 180
10.366344 -17.521671 7.330382 180 180 180
19.112938 -34.542549 13.143020 180 180 180
3.638311 -4.841108 2.962421 158 160 162
5.656871 -9.181422 4.407097 158 160 162
9.693991 -17.862051 7.296449 158 160 162
17.768230 -35.223309 13.075153 158 160 162
3.468894 -4.919348 2.951986 152 152 154
5.318036 -9.337903 4.386227 152 152 154
9.016321 -18.175013 7.254708 152 152 154
16.412891 -35.849232 12.991672 152 152 154
3.298913 -4.990610 2.939703 149 153 154
4.978074 -9.480426 4.361661 149 153 154
8.336397 -18.460058 7.205578 149 153 154
15.053043 -36.419323 12.893411 149 153 154
3.129114 -5.054857 2.925696 144 148 149
4.638476 -9.608921 4.333648 144 148 149
7.657202 -18.717049 7.149550 144 148 149
13.694653 -36.933304 12.781355 144 148 149
2.960208 -5.112140 2.910103 72 65 49
4.300664 -9.723486 4.302462 72 65 49
6.981578 -18.946178 7.087179 72 65 49
12.343405 -37.391563 12.656612 72 65 49
2.792860 -5.162583 2.893074 69 63 49
3.965969 -9.824372 4.268404 69 63 49
6.312187 -19.147951 7.019062 69 63 49
11.004623 -37.795109 12.520379 69 63 49
2.627679 -5.206384 2.874765 57 53 50
3.635607 -9.911974 4.231786 57 53 50
5.651463 -19.323154 6.945827 57 53 50
9.683174 -38.145515 12.373908 57 53 50
2.465210 -5.243793 2.855337 38 33 30
3.310669 -9.986793 4.192929 38 33 30
5.001588 -19.472792 6.868113 38 33 30
8.383425 -38.444790 12.218481 38 33 30
2.305932 -5.275113 2.834949 137 141 142
2.992112 -10.049433 4.152153 137 141 142
4.364473 -19.598072 6.786561 137 141 142
7.109196 -38.695351 12.055377 137 141 142
2.150253 -5.300680 2.813759 163 167 168
2.680754 -10.100567 4.109772 163 167 168
3.741757 -19.700340 6.701799 163 167 168
5.863763 -38.899887 11.885854 163 167 168
1.998512 -5.320858 2.791916 158 160 159
2.377272 -10.140924 4.066088 158 160 159
3.134794 -19.781054 6.614431 158 160 159
4.649836 -39.061314 11.711117 158 160 159
1.850982 -5.336026 2.769566 164 166 165
2.082214 -10.171259 4.021387 164 166 165
2.544676 -19.841724 6.525029 164 166 165
3.469602 -39.182655 11.532313 164 166 165
1.707873 -5.346570 2.746841 152 156 155
1.795994 -10.192348 3.975938 152 156 155
1.972238 -19.883902 6.434131 152 156 155
2.324725 -39.267010 11.350517 152 156 155
6.012634 -2.599388 2.657254 151 156 159
10.405518 -4.697982 3.796764 151 156 159
19.191284 -8.895170 6.075782 151 156 159
36.762817 -17.289547 10.633820 151 156 159
5.946201 -2.724502 2.674011 158 162 165
10.272651 -4.948211 3.830276 158 162 165
18.925550 -9.395629 6.142807 158 162 165
36.231350 -18.290464 10.767869 158 162 165
5.873826 -2.851933 2.690342 164 168 171
10.127901 -5.203073 3.862940 164 168 171
18.636051 -9.905353 6.208135 164 168 171
35.652351 -19.309912 10.898524 164 168 171
5.795219 -2.981357 2.706135 172 172 174
9.970687 -5.461921 3.894525 172 172 174
18.321623 -10.423048 6.271304 172 172 174
35.023495 -20.345303 11.024863 172 172 174
5.710117 -3.112392 2.721264 176 175 180
9.800483 -5.723991 3.924783 176 175 180
17.981215 -10.947189 6.331821 176 175 180
34.342678 -21.393585 11.145897 176 175 180
5.618293 -3.244603 2.735600 177 177 179
9.616836 -5.988412 3.953455 177 177 179
17.613920 -11.476030 6.389165 177 177 179
33.608089 -22.451267 11.260585 177 177 179
5.519568 -3.377495 2.749008 181 181 183
9.419386 -6.254197 3.980271 181 181 183
17.219021 -12.007601 6.442797 181 181 183
32.818291 -23.514408 11.367849 181 181 183
5.413821 -3.510524 2.761351 185 185 187
9.207891 -6.520254 4.004957 185 185 187
16.796030 -12.539715 6.492169 185 185 187
31.972309 -24.578636 11.466594 185 185 187
5.300995 -3.643095 2.772491 183 183 185
8.982239 -6.785396 4.027238 183 183 185
16.344727 -13.069998 6.536730 183 183 185
31.069702 -25.639202 11.555716 183 183 185
5.181111 -3.774572 2.782295 189 189 191
8.742472 -7.048350 4.046844 189 189 191
15.865192 -13.595907 6.575943 189 189 191
30.110634 -26.691021 11.634141 189 189 191
5.054277 -3.904290 2.790633 200 198 199
8.488803 -7.307787 4.063521 200 198 199
15.357855 -14.114780 6.609297 200 198 199
29.095959 -27.728767 11.700850 200 198 199
4.920687 -4.031563 2.797389 196 194 195
8.221622 -7.562333 4.077033 196 194 195
14.823494 -14.623873 6.636320 196 194 195
28.027237 -28.746952 11.754895 196 194 195
4.780632 -4.155701 2.802457 203 201 202
7.941512 -7.810608 4.087170 203 201 202
14.263273 -15.120422 6.656594 203 201 202
26.906796 -29.740051 11.795444 203 201 202
4.634497 -4.276022 2.805751 224 220 217
7.649242 -8.051250 4.093757 224 220 217
13.678733 -15.601707 6.669769 224 220 217
25.737715 -30.702621 11.821794 224 220 217
4.482759 -4.391871 2.807202 255 254 250
7.345767 -8.282948 4.096660 255 254 250
13.071782 -16.065104 6.675574 255 254 250
24.523813 -31.629414 11.833403 255 254 250
4.325981 -4.502636 2.806766 170 172 184
7.032210 -8.504478 4.095788 170 172 184
12.444670 -16.508163 6.673830 170 172 184
23.269588 -32.515533 11.829915 170 172 184
4.164802 -4.607760 2.804422 190 189 194
6.709853 -8.714727 4.091099 190 189 194
11.799955 -16.928661 6.664453 190 189 194
21.980160 -33.356529 11.811160 190 189 194
3.999923 -4.706760 2.800174 191 191 193
6.380096 -8.912727 4.082603 191 191 193
11.140441 -17.324661 6.647460 191 191 193
20.661131 -34.148529 11.777174 191 191 193
3.832097 -4.799232 2.794051 219 218 214
6.044442 -9.097670 4.070357 219 218 214
10.469133 -17.694546 6.622970 219 218 214
19.318516 -34.888298 11.728194 219 218 214
3.662102 -4.884862 2.786108 203 199 200
5.704453 -9.268930 4.054472 203 199 200
9.789156 -18.037067 6.591199 203 199 200
17.958561 -35.573341 11.664653 203 199 200
3.490737 -4.963432 2.776422 195 195 197
5.361722 -9.426070 4.035099 195 195 197
9.103694 -18.351347 6.552453 195 195 197
16.587637 -36.201900 11.587161 195 195 197
3.318790 -5.034821 2.765089 179 179 181
5.017828 -9.568848 4.012433 179 179 181
8.415906 -18.636902 6.507121 179 179 181
15.212061 -36.773010 11.496496 179 179 181
3.147032 -5.098997 2.752222 71 68 52
4.674313 -9.697201 3.986700 71 68 52
7.728875 -18.893608 6.455654 71 68 52
13.837998 -37.286423 11.393563 71 68 52
2.976196 -5.156023 2.737950 89 81 78
4.332642 -9.811252 3.958155 89 81 78
7.045533 -19.121710 6.398564 89 81 78
12.471314 -37.742626 11.279384 89 81 78
2.806969 -5.206035 2.722408 144 148 149
3.994186 -9.911277 3.927072 144 148 149
6.368621 -19.321760 6.336399 144 148 149
11.117492 -38.142727 11.155052 144 148 149
2.639975 -5.249247 2.705742 142 146 147
3.660198 -9.997701 3.893738 142 146 147
5.700645 -19.494608 6.269732 142 146 147
9.781540 -38.488422 11.021718 142 146 147
2.475774 -5.285927 2.688095 62 55 39
3.331797 -10.071061 3.858444 62 55 39
5.043843 -19.641329 6.199143 62 55 39
8.467936 -38.781864 10.880542 62 55 39
2.314856 -5.316396 2.669614 140 144 145
3.009961 -10.131999 3.821482 140 144 145
4.400172 -19.763205 6.125219 140 144 145
7.180593 -39.025616 10.732694 140 144 145
2.157638 -5.341008 2.650440 145 149 148
2.695526 -10.181223 3.783135 145 149 148
3.771301 -19.861652 6.048526 145 149 148
5.922850 -39.222511 10.579307 145 149 148
2.004464 -5.360146 2.630711 170 172 171
2.389178 -10.219499 3.743676 170 172 171
3.158605 -19.938204 5.969607 170 172 171
4.697459 -39.375614 10.421470 170 172 171
1.855611 -5.374205 2.610554 150 154 153
2.091470 -10.247616 3.703363 150 154 153
2.563190 -19.994438 5.888981 150 154 153
3.506629 -39.488083 10.260217 150 154 153
1.711286 -5.383590 2.590091 139 143 142
1.802821 -10.266386 3.662436 139 143 142
1.985891 -20.031979 5.807127 139 143 142
2.352032 -39.563164 10.096510 139 143 142
6.044283 -2.612640 2.499385 142 158 174
10.468815 -4.724487 3.481024 142 158 174
19.317879 -8.948181 5.444304 142 158 174
37.016006 -17.395569 9.370861 142 158 174
5.978447 -2.739077 2.513664 147 161 178
10.337143 -4.977361 3.509583 147 161 178
19.054535 -9.453928 5.501422 147 161 178
36.489319 -18.407063 9.485099 147 161 178
5.906596 -2.867903 2.527572 156 163 168
10.193440 -5.235013 3.537399 156 163 168
18.767130 -9.969234 5.557053 156 163 168
35.914509 -19.437674 9.596360 156 163 168
5.828426 -2.998791 2.541007 149 153 156
10.037101 -5.496789 3.564269 149 153 156
18.454451 -10.492784 5.610793 149 153 156
35.289150 -20.484774 9.703841 149 153 156
5.743660 -3.131352 2.553861 152 156 159
9.867569 -5.761910 3.589977 152 156 159
18.115387 -11.023026 5.662209 152 156 159
34.611023 -21.545259 9.806672 152 156 159
5.652059 -3.265140 2.566020 159 159 161
9.684366 -6.029487 3.614295 159 159 161
17.748981 -11.558180 5.710844 159 159 161
33.878212 -22.615566 9.903943 159 159 161
5.553429 -3.399651 2.577365 70 71 66
9.487107 -6.298509 3.636986 70 71 66
17.354464 -12.096225 5.756227 70 71 66
33.089176 -23.691656 9.994709 70 71 66
5.447638 -3.534325 2.587778 162 162 164
9.275524 -6.567857 3.657810 162 162 164
16.931297 -12.634921 5.797875 162 162 164
32.242844 -24.769049 10.078006 162 162 164
5.334617 -3.668551 2.597135 171 171 173
9.049483 -6.836309 3.676525 171 171 173
16.479216 -13.171824 5.835306 171 171 173
31.338680 -25.842855 10.152866 171 171 173
5.214379 -3.801675 2.605320 168 168 170
8.809008 -7.102557 3.692896 168 168 170
15.998265 -13.704321 5.868047 168 168 170
30.376780 -26.907848 10.218349 168 168 170
5.087028 -3.933012 2.612221 152 152 150
8.554304 -7.365230 3.706698 152 152 150
15.488856 -14.229666 5.895650 152 152 150
29.357962 -27.958538 10.273556 152 152 150
4.952751 -4.061852 2.617734 134 134 133
8.285751 -7.622910 3.717723 134 134 133
14.951751 -14.745027 5.917702 134 134 133
28.283751 -28.989260 10.317658 134 134 133
4.811843 -4.187483 2.621768 147 146 141
8.003936 -7.874173 3.725790 147 146 141
14.388121 -15.247553 5.933835 147 146 141
27.156490 -29.994312 10.349925 147 146 141
4.664694 -4.309203 2.624246 180 178 179
7.709636 -8.117613 3.730746 180 178 179
13.799521 -15.734432 5.943747 180 178 179
25.979292 -30.968071 10.369749 180 178 179
4.511787 -4.426334 2.625110 225 221 218
7.403824 -8.351875 3.732474 225 221 218
13.187897 -16.202957 5.947204 225 221 218
24.756042 -31.905119 10.376662 225 221 218
4.353700 -4.538245 2.624321 199 198 196
7.087648 -8.575696 3.730897 199 198 196
12.555546 -16.650599 5.944050 199 198 196
23.491341 -32.800404 10.370355 199 198 196
4.191086 -4.644361 2.621864 255 254 250
6.762422 -8.787930 3.725983 255 254 250
11.905092 -17.075066 5.934221 255 254 250
22.190434 -33.649338 10.350697 255 254 250
4.024667 -4.744187 2.617743 200 200 200
6.429582 -8.987580 3.717742 200 200 200
11.239413 -17.474367 5.917738 200 200 200
20.859076 -34.447941 10.317732 200 200 200
3.855214 -4.837306 2.611988 191 189 190
6.090677 -9.173819 3.706230 191 189 190
10.561603 -17.846844 5.894715 191 189 190
19.503454 -35.192894 10.271686 191 189 190
3.683531 -4.923401 2.604646 206 205 201
5.747310 -9.346009 3.691548 206 205 201
9.874869 -18.191225 5.865351 206 205 201
18.129988 -35.881657 10.212956 206 205 201
3.510437 -5.002252 2.595790 188 188 188
5.401123 -9.503710 3.673835 188 188 188
9.182495 -18.506626 5.829925 188 188 188
16.745239 -36.512459 10.142104 188 188 188
3.336746 -5.073737 2.585505 67 63 50
5.053740 -9.646681 3.653266 67 63 50
8.487729 -18.792568 5.788787 67 63 50
15.355707 -37.084343 10.059829 67 63 50
3.163249 -5.137835 2.573895 67 64 55
4.706748 -9.774877 3.630045 67 64 55
7.793744 -19.048960 5.742346 67 64 55
13.967737 -37.597126 9.966947 67 64 55
2.990702 -5.194615 2.561074 177 180 179
4.361652 -9.888437 3.604402 177 180 179
7.103554 -19.276081 5.691059 177 180 179
12.587357 -38.051369 9.864373 177 180 179
2.819806 -5.244227 2.547163 151 155 156
4.019861 -9.987661 3.576580 151 155 156
6.419971 -19.474529 5.635416 151 155 156
11.220192 -38.448265 9.753086 151 155 156
2.651204 -5.286899 2.532290 142 146 145
3.682657 -10.073004 3.546835 142 146 145
5.745564 -19.645214 5.575925 142 146 145
9.871376 -38.789635 9.634105 142 146 145
2.485469 -5.322915 2.516585 47 45 33
3.351186 -10.145036 3.515425 47 45 33
5.082622 -19.789278 5.513106 47 45 33
8.545492 -39.077763 9.508467 47 45 33
2.323098 -5.352611 2.500176 137 143 141
3.026445 -10.204428 3.482608 137 143 141
4.433139 -19.908062 5.447471 137 143 141
7.246528 -39.315331 9.377197 137 143 141
2.164518 -5.376360 2.483190 136 140 141
2.709285 -10.251926 3.448635 136 140 141
3.798818 -20.003059 5.379524 136 140 141
5.977885 -39.505325 9.241302 136 140 141
2.010076 -5.394559 2.465744 132 136 135
2.400401 -10.288325 3.413743 132 136 135
3.181050 -20.075857 5.309741 132 136 135
4.742349 -39.650921 9.101737 132 136 135
1.860051 -5.407622 2.447953 133 137 136
2.100351 -10.314451 3.378160 133 137 136
2.580950 -20.128109 5.238575 133 137 136
3.542150 -39.755424 8.959404 133 137 136
1.714652 -5.415967 2.429920 132 136 135
1.809553 -10.331141 3.342095 132 136 135
1.999354 -20.161488 5.166445 132 136 135
2.378958 -39.822182 8.815144 132 136 135
6.071614 -2.623810 2.338548 152 169 185
10.523477 -4.746826 3.159351 152 169 185
19.427202 -8.992859 4.800956 152 169 185
37.234653 -17.484924 8.084167 152 169 185
6.006309 -2.751376 2.350202 153 171 185
10.392867 -5.001959 3.182658 153 171 185
19.165983 -9.503125 4.847571 153 171 185
36.712215 -18.505457 8.177398 153 171 185
5.934928 -2.881396 2.361534 216 217 221
10.250105 -5.261999 3.205323 216 217 221
18.880459 -10.023204 4.892900 216 217 221
36.141167 -19.545614 8.268057 216 217 221
5.857154 -3.013537 2.372459 216 216 216
10.094557 -5.526280 3.227173 216 216 216
18.569363 -10.551767 4.936602 216 216 216
35.518974 -20.602741 8.355459 216 216 216
5.772699 -3.147405 2.382886 209 210 212
9.925648 -5.794016 3.248028 209 210 212
18.231544 -11.087238 4.978311 209 210 212
34.843338 -21.673683 8.438877 209 210 212
5.681311 -3.282547 2.392719 156 159 164
9.742871 -6.064300 3.267694 156 159 164
17.865992 -11.627807 5.017642 156 159 164
34.112232 -22.754820 8.517538 156 159 164
5.582786 -3.418447 2.401857 163 167 170
9.545820 -6.336101 3.285969 163 167 170
17.471889 -12.171408 5.054194 163 167 170
33.324028 -23.842022 8.590643 163 167 170
5.476977 -3.554534 2.410199 169 169 171
9.334204 -6.608274 3.302653 169 169 171
17.048656 -12.715755 5.087561 169 169 171
32.477562 -24.930716 8.657376 169 169 171
5.363811 -3.690183 2.417643 162 164 158
9.107870 -6.879572 3.317540 162 164 158
16.595989 -13.258350 5.117335 162 164 158
31.572227 -26.015907 8.716925 162 164 158
5.243290 -3.824723 2.424088 156 152 149
8.866829 -7.148652 3.330431 156 152 149
16.113907 -13.796511 5.143117 156 152 149
30.608065 -27.092228 8.768490 156 152 149
5.115511 -3.957450 2.429441 138 137 133
8.611271 -7.414106 3.341138 138 137 133
15.602790 -14.327419 5.164531 138 137 133
29.585829 -28.154045 8.811317 138 137 133
4.980662 -4.087638 2.433616 144 143 138
8.341574 -7.674483 3.349487 144 143 138
15.063397 -14.848173 5.181229 144 143 138
28.507044 -29.195553 8.844713 144 143 138
4.839037 -4.214554 2.436535 142 139 134
8.058323 -7.928315 3.355325 142 139 134
14.496896 -15.355837 5.192905 142 139 134
27.374041 -30.210880 8.868065 142 139 134
4.691028 -4.337477 2.438135 151 150 146
7.762305 -8.174160 3.358525 151 150 146
13.904860 -15.847526 5.199305 151 150 146
26.189968 -31.194258 8.880865 151 150 146
4.537128 -4.455709 2.438369 158 158 158
7.454506 -8.410625 3.358992 158 158 158
13.289262 -16.320457 5.200239 158 158 158
24.958773 -32.140121 8.882732 158 158 158
4.377925 -4.568604 2.437204 151 150 146
7.136098 -8.636414 3.356664 151 150 146
12.652446 -16.772034 5.195582 151 150 146
23.685141 -33.043274 8.873421 151 150 146
4.214084 -4.675570 2.434631 190 189 185
6.808417 -8.850347 3.351516 190 189 185
11.997083 -17.199900 5.185287 190 189 185
22.374414 -33.899006 8.852830 190 189 185
4.046345 -4.776100 2.430655 191 190 186
6.472938 -9.051406 3.343564 191 190 186
11.326125 -17.602018 5.169384 191 190 186
21.032499 -34.703243 8.821022 191 190 186
3.875497 -4.869770 2.425303 235 230 226
6.131242 -9.238747 3.332861 235 230 226
10.642734 -17.976700 5.147977 235 230 226
19.665716 -35.452606 8.778208 235 230 226
3.702363 -4.956256 2.418620 188 188 189
5.784976 -9.411719 3.319495 188 188 189
9.950201 -18.322645 5.121244 188 188 189
18.280651 -36.144497 8.724744 188 188 189
3.527785 -5.035338 2.410668 70 60 48
5.435819 -9.569882 3.303591 70 60 48
9.251886 -18.638971 5.089437 70 60 48
16.884022 -36.777149 8.661127 70 60 48
3.352594 -5.106897 2.401524 81 73 60
5.085437 -9.713000 3.285302 81 73 60
8.551123 -18.925207 5.052859 81 73 60
15.482494 -37.349621 8.587973 81 73 60
3.177603 -5.170916 2.391276 175 175 175
4.735455 -9.841039 3.264807 175 175 175
7.851158 -19.181284 5.011869 175 175 175
14.082565 -37.861774 8.505993 175 175 175
3.003582 -5.227471 2.380024 179 179 179
4.387413 -9.954149 3.242303 179 179 179
7.155075 -19.407505 4.966861 179 179 179
12.690398 -38.314217 8.415977 179 179 179
2.831252 -5.276728 2.367874 184 184 184
4.042753 -10.052662 3.218002 184 184 184
6.465755 -19.604530 4.918260 184 184 184
11.311760 -38.708267 8.318774 184 184 184
2.661267 -5.318922 2.354935 183 184 179
3.702783 -10.137051 3.192124 183 184 179
5.785815 -19.773308 4.866503 183 184 179
9.951879 -39.045822 8.215261 183 184 179
2.494211 -5.354354 2.341317 32 28 25
3.368672 -10.207914 3.164890 32 28 25
5.117592 -19.915035 4.812035 32 28 25
8.615434 -39.329277 8.106323 32 28 25
2.330592 -5.383374 2.327132 98 96 101
3.041433 -10.265955 3.136519 98 96 101
4.463116 -20.031116 4.755293 98 96 101
7.306480 -39.561440 7.992840 98 96 101
2.170841 -5.406371 2.312485 155 157 156
2.721930 -10.311948 3.107225 155 157 156
3.824110 -20.123102 4.696704 155 157 156
6.028468 -39.745411 7.875664 155 157 156
2.015309 -5.423755 2.297477 152 154 151
2.410867 -10.346717 3.077210 152 154 151
3.201983 -20.192640 4.636675 152 154 151
4.784215 -39.884487 7.755605 152 154 151
1.864278 -5.435954 2.282205 137 141 140
2.108805 -10.371114 3.046666 137 141 140
2.597858 -20.241434 4.575586 137 141 140
3.575966 -39.982075 7.633427 137 141 140
1.717956 -5.443398 2.266756 129 133 132
1.816162 -10.386002 3.015768 129 133 132
2.012572 -20.271210 4.513790 129 133 132
2.405393 -40.041626 7.509835 129 133 132
6.094386 -2.632787 2.175198 185 189 190
10.569021 -4.764780 2.832651 185 189 190
19.518291 -9.028767 4.147557 185 189 190
37.416832 -17.556740 6.777369 185 189 190
6.029535 -2.761276 2.184097 152 157 160
10.439320 -5.021758 2.850450 152 157 160
19.258888 -9.542722 4.183154 152 157 160
36.898026 -18.584650 6.848563 152 157 160
5.958557 -2.892271 2.192724 159 163 166
10.297363 -5.283749 2.867702 159 163 166
18.974976 -10.066704 4.217659 159 163 166
36.330200 -19.632614 6.917573 159 163 166
5.881127 -3.025437 2.201008 171 171 173
10.142503 -5.550081 2.884272 171 171 173
18.665255 -10.599369 4.250798 171 171 173
35.710758 -20.697945 6.983851 171 171 173
5.796946 -3.160376 2.208878 172 176 179
9.974140 -5.819958 2.900011 172 176 179
18.328529 -11.139122 4.282277 172 176 179
35.037308 -21.777451 7.046809 172 176 179
5.705752 -3.296626 2.216255 178 179 183
9.791754 -6.092459 2.914766 178 179 183
17.963757 -11.684124 4.311786 178 179 183
34.307762 -22.867455 7.105827 178 179 183
5.607330 -3.433666 2.223060 141 141 141
9.594910 -6.366539 2.928375 141 141 141
17.570068 -12.232284 4.339005 141 141 141
33.520386 -23.963774 7.160264 141 141 141
5.501527 -3.570912 2.229210 127 126 121
9.383303 -6.641031 2.940676 127 126 121
17.146854 -12.781269 4.363607 127 126 121
32.673958 -25.061745 7.209469 127 126 121
5.388258 -3.707729 2.234626 144 143 138
9.156765 -6.914664 2.951507 144 143 138
16.693779 -13.328535 4.385268 144 143 138
31.767807 -26.156277 7.252791 144 143 138
5.267522 -3.843432 2.239227 150 149 145
8.915293 -7.186071 2.960708 150 149 145
16.210835 -13.871349 4.403671 150 149 145
30.801916 -27.241905 7.289597 150 149 145
5.139407 -3.977303 2.242938 155 154 149
8.659062 -7.453813 2.968130 155 154 149
15.698374 -14.406832 4.418516 155 154 149
29.776997 -28.312870 7.319286 155 154 149
5.004103 -4.108599 2.245691 159 155 152
8.388454 -7.716404 2.973637 159 155 152
15.157157 -14.932014 4.429529 159 155 152
28.694563 -29.363235 7.341313 159 155 152
4.861900 -4.236571 2.247427 155 154 149
8.104050 -7.972349 2.977108 155 154 149
14.588347 -15.443905 4.436471 155 154 149
27.556944 -30.387016 7.355196 155 154 149
4.713196 -4.360481 2.248095 155 154 149
7.806641 -8.220169 2.978445 155 154 149
13.993530 -15.939545 4.439145 155 154 149
26.367310 -31.378296 7.360545 155 154 149
4.558489 -4.479618 2.247660 154 153 148
7.497226 -8.458443 2.977576 154 153 148
13.374701 -16.416092 4.437407 154 153 148
25.129652 -32.331390 7.357068 154 153 148
4.398373 -4.593318 2.246101 147 146 141
7.176995 -8.685843 2.974456 147 146 141
12.734239 -16.870892 4.431168 147 146 141
23.848726 -33.240990 7.344590 147 146 141
4.233530 -4.700981 2.243409 158 159 154
6.847308 -8.901169 2.969072 158 159 154
12.074865 -17.301544 4.420399 158 159 154
22.529980 -34.102295 7.323053 158 159 154
4.064708 -4.802086 2.239593 129 128 123
6.509665 -9.103378 2.961441 129 128 123
11.399580 -17.705963 4.405137 129 128 123
21.179409 -34.911133 7.292528 129 128 123
3.892716 -4.896204 2.234678 195 191 188
6.165680 -9.291615 2.951612 195 191 188
10.711610 -18.082438 4.385478 195 191 188
19.803469 -35.664082 7.253211 195 191 188
3.718391 -4.983008 2.228704 181 183 182
5.817031 -9.465223 2.939663 181 183 182
10.014312 -18.429653 4.361580 181 183 182
18.408873 -36.358513 7.205416 181 183 182
3.542591 -5.062273 2.221722 36 37 31
5.465431 -9.623753 2.925699 36 37 31
9.311111 -18.746712 4.333654 36 37 31
17.002472 -36.992630 7.149563 36 37 31
3.366166 -5.133885 2.213799 181 182 176
5.112580 -9.766977 2.909852 181 182 176
8.605410 -19.033161 4.301959 181 182 176
15.591069 -37.565529 7.086172 181 182 176
3.189943 -5.197832 2.205007 197 196 192
4.760136 -9.894870 2.892269 197 196 192
7.900520 -19.288946 4.266793 197 196 192
14.181290 -38.077099 7.015841 197 196 192
3.014709 -5.254196 2.195430 185 185 185
4.409668 -10.007598 2.873114 185 185 185
7.199585 -19.514402 4.228483 185 185 185
12.779419 -38.528011 6.939222 185 185 185
2.841197 -5.303151 2.185154 185 186 181
4.062643 -10.105508 2.852562 185 186 181
6.505535 -19.710222 4.187380 185 186 181
11.391319 -38.919651 6.857015 185 186 181
2.670072 -5.344944 2.174269 50 50 48
3.720393 -10.189095 2.830794 50 50 48
5.821035 -19.877398 4.143843 50 50 48
10.022319 -39.254002 6.769940 50 50 48
2.501928 -5.379890 2.162867 57 57 47
3.384105 -10.258987 2.807989 57 57 47
5.148459 -20.017181 4.098232 57 57 47
8.677167 -39.533569 6.678720 57 57 47
2.337279 -5.408349 2.151035 70 74 70
3.054807 -10.315904 2.784326 70 74 70
4.489862 -20.131014 4.050906 70 74 70
7.359974 -39.761234 6.584067 70 74 70
2.176561 -5.430720 2.138861 157 157 157
2.733372 -10.360647 2.759977 157 157 157
3.846992 -20.220501 4.002210 157 157 157
6.074234 -39.940208 6.486674 157 157 157
2.020131 -5.447429 2.126426 147 152 148
2.420510 -10.394065 2.735107 147 152 148
3.221270 -20.287336 3.952469 147 152 148
4.822788 -40.073879 6.387194 147 152 148
1.868269 -5.458913 2.113806 151 153 150
2.116787 -10.417032 2.709868 151 153 150
2.613823 -20.333271 3.901991 151 153 150
3.607895 -40.165749 6.286236 151 153 150
1.721186 -5.465613 2.101073 137 141 140
1.822620 -10.430433 2.684400 137 141 140
2.025489 -20.360073 3.851055 137 141 140
2.431228 -40.219353 6.184366 137 141 140
6.112398 -2.639480 2.009827 173 173 175
10.605044 -4.778166 2.501910 173 173 175
19.590338 -9.055539 3.486075 173 173 175
37.560925 -17.610285 5.454404 173 173 175
6.047911 -2.768672 2.015868 167 168 170
10.476071 -5.036551 2.513991 167 168 170
19.332392 -9.572309 3.510237 167 168 170
37.045033 -18.643824 5.502728 167 168 170
5.977259 -2.900412 2.021682 153 157 160
10.334767 -5.300030 2.525620 153 157 160
19.049784 -10.099266 3.533494 153 157 160
36.479816 -19.697739 5.549244 153 157 160
5.900110 -3.034361 2.027220 145 149 152
10.180469 -5.567928 2.536695 145 149 152
18.741186 -10.635062 3.555644 145 149 152
35.862621 -20.769331 5.593543 145 149 152
5.816156 -3.170117 2.032425 152 156 159
10.012562 -5.839441 2.547106 152 156 159
18.405373 -11.178088 3.576466 152 156 159
35.190994 -21.855383 5.635188 152 156 159
5.725127 -3.307216 2.037242 133 131 132
9.830503 -6.113638 2.556739 133 131 132
18.041256 -11.726482 3.595733 133 131 132
34.462761 -22.952171 5.673721 133 131 132
5.626802 -3.445127 2.041611 183 183 183
9.633854 -6.389461 2.565477 183 183 183
17.647957 -12.278128 3.613209 183 183 183
33.676163 -24.055462 5.708673 183 183 183
5.521019 -3.583262 2.045472 153 152 148
9.422288 -6.665730 2.573199 153 152 148
17.224825 -12.830667 3.628654 153 152 148
32.829899 -25.160540 5.739562 153 152 148
5.407688 -3.720973 2.048766 156 155 151
9.195624 -6.941152 2.579788 156 155 151
16.771498 -13.381511 3.641830 156 155 151
31.923244 -26.262228 5.765915 156 155 151
5.286799 -3.857567 2.051436 162 161 157
8.953848 -7.214341 2.585127 162 161 157
16.287945 -13.927888 3.652510 162 161 157
30.956139 -27.354982 5.787274 162 161 157
5.158441 -3.992314 2.053428 162 161 157
8.697131 -7.483835 2.589111 162 161 157
15.774511 -14.466876 3.660476 162 161 157
29.929272 -28.432959 5.803207 162 161 157
5.022799 -4.124459 2.054693 163 162 158
8.425846 -7.748125 2.591640 163 162 158
15.231941 -14.995457 3.665535 163 162 158
28.844131 -29.490120 5.813325 163 162 158
4.880163 -4.253242 2.055189 161 160 156
8.140575 -8.005690 2.592632 161 160 156
14.661400 -15.510586 3.667519 161 160 156
27.703049 -30.520378 5.817294 161 160 156
4.730934 -4.377909 2.054883 160 159 154
7.842116 -8.255024 2.592020 160 159 154
14.064482 -16.009254 3.666295 160 159 154
26.509212 -31.517715 5.814844 160 159 154
4.575614 -4.497738 2.053750 158 157 153
7.531477 -8.494683 2.589756 158 157 153
13.443204 -16.488573 3.661766 158 157 153
25.266657 -32.476353 5.805787 158 157 153
4.414804 -4.612057 2.051779 160 159 154
7.209858 -8.723320 2.585814 160 159 154
12.799965 -16.945847 3.653882 160 159 154
23.980179 -33.390900 5.790020 160 159 154
4.249194 -4.720252 2.048968 153 152 147
6.878638 -8.939710 2.580191 153 152 147
12.137525 -17.378626 3.642637 153 152 147
22.655298 -34.256458 5.767529 153 152 147
4.079545 -4.821797 2.045327 147 152 158
6.539339 -9.142801 2.572909 147 152 158
11.458926 -17.784809 3.628073 147 152 158
21.298101 -35.068825 5.738401 147 152 158
3.906673 -4.916257 2.040878 141 142 146
6.193596 -9.331721 2.564011 141 142 146
10.767441 -18.162649 3.610277 141 142 146
19.915131 -35.824505 5.702808 141 142 146
3.731432 -5.003301 2.035654 234 229 223
5.843114 -9.505808 2.553563 234 229 223
10.066477 -18.510822 3.589381 234 229 223
18.513203 -36.520851 5.661017 234 229 223
3.554693 -5.082705 2.029698 71 62 47
5.489635 -9.664616 2.541652 71 62 47
9.359518 -18.828438 3.565558 71 62 47
17.099285 -37.156082 5.613372 71 62 47
3.377316 -5.154354 2.023062 141 140 145
5.134881 -9.807914 2.528379 141 140 145
8.650011 -19.115034 3.539014 141 140 145
15.680271 -37.729275 5.560283 141 140 145
3.200143 -5.218239 2.015804 173 173 173
4.780536 -9.935685 2.513864 173 173 173
7.941320 -19.370577 3.509982 173 173 173
14.262890 -38.240360 5.502220 173 173 173
3.023972 -5.274453 2.007988 172 176 179
4.428194 -10.048113 2.498231 172 176 179
7.236636 -19.595432 3.478718 172 176 179
12.853521 -38.690071 5.439691 172 176 179
2.849546 -5.323173 1.999681 92 93 95
4.079341 -10.145552 2.481617 92 93 95
6.538932 -19.790310 3.445489 92 93 95
11.458113 -39.079826 5.373233 92 93 95
2.677539 -5.364656 1.990951 44 45 40
3.735327 -10.228518 2.464158 44 45 40
5.850904 -19.956244 3.410570 44 45 40
10.082056 -39.411694 5.303395 44 45 40
2.508553 -5.399224 1.981868 50 49 45
3.397354 -10.297655 2.445991 50 49 45
5.174957 -20.094517 3.374237 50 49 45
8.730163 -39.688240 5.230728 50 49 45
2.343105 -5.427248 1.972498 146 150 149
3.066460 -10.353703 2.427250 146 150 149
4.513168 -20.206612 3.336756 146 150 149
7.406585 -39.912430 5.155766 146 150 149
2.181638 -5.449138 1.962906 133 137 136
2.743526 -10.397483 2.408066 133 137 136
3.867301 -20.294172 3.298387 133 137 136
6.114851 -40.087551 5.079029 133 137 136
2.024510 -5.465327 1.953152 53 46 30
2.429269 -10.429860 2.388559 53 46 30
3.238786 -20.358927 3.259373 53 46 30
4.857821 -40.217060 5.001001 53 46 30
1.872003 -5.476261 1.943294 49 46 39
2.124254 -10.451729 2.368843 49 46 39
2.628758 -20.402664 3.219940 49 46 39
3.637765 -40.304535 4.922135 49 46 39
1.724327 -5.482390 1.933382 73 65 44
1.828902 -10.463987 2.349020 73 65 44
2.038054 -20.427181 3.180295 73 65 44
2.456356 -40.353569 4.842844 73 65 44
6.125488 -2.643821 1.842961 152 156 159
10.631226 -4.786848 2.168177 152 156 159
19.642700 -9.072902 2.818609 152 156 159
37.665649 -17.645010 4.119473 152 156 159
6.061268 -2.773486 1.846065 173 175 174
10.502785 -5.046179 2.174386 173 175 174
19.385818 -9.591564 2.831026 173 175 174
37.151886 -18.682335 4.144307 173 175 174
5.990857 -2.905728 1.848989 173 174 176
10.361962 -5.310663 2.180234 173 174 176
19.104174 -10.120533 2.842722 173 174 176
36.588596 -19.740273 4.167700 173 174 176
5.913917 -3.040206 1.851700 142 142 142
10.208082 -5.579618 2.185655 142 142 142
18.796413 -10.658443 2.853566 142 142 142
35.973076 -20.816093 4.189386 142 142 142
5.830135 -3.176515 1.854163 139 140 135
10.040520 -5.852237 2.190581 139 140 135
18.461288 -11.203681 2.863417 139 140 135
35.302826 -21.906569 4.209088 139 140 135
5.739237 -3.314187 1.856341 145 145 145
9.858724 -6.127581 2.194938 145 145 145
18.097696 -11.754369 2.872130 145 145 145
34.575642 -23.007944 4.226515 145 145 145
5.640996 -3.452689 1.858198 146 146 144
9.662240 -6.404585 2.198652 146 146 144
17.704729 -12.308376 2.879559 146 146 144
33.789707 -24.115959 4.241372 146 146 144
5.535242 -3.591424 1.859697 158 157 153
9.450733 -6.682055 2.201650 158 157 153
17.281715 -12.863317 2.885554 158 157 153
32.943680 -25.225842 4.253363 158 157 153
5.421882 -3.729743 1.860802 163 162 158
9.224013 -6.958692 2.203858 163 162 158
16.828276 -13.416590 2.889972 163 162 158
32.036800 -26.332386 4.262198 163 162 158
5.300905 -3.866941 1.861477 165 164 160
8.982059 -7.233088 2.205210 165 164 160
16.344368 -13.965384 2.892674 165 164 160
31.068985 -27.429974 4.267603 165 164 160
5.172394 -4.002283 1.861692 164 163 159
8.725037 -7.503772 2.205640 164 163 159
15.830323 -14.506751 2.893535 164 163 159
30.040895 -28.512709 4.269325 164 163 159
5.036532 -4.135005 1.861419 165 164 160
8.453314 -7.769216 2.205094 165 164 160
15.286876 -15.037638 2.892443 165 164 160
28.954000 -29.574482 4.267140 165 164 160
4.893612 -4.264337 1.860635 163 162 157
8.167473 -8.027880 2.203526 163 162 157
14.715196 -15.554966 2.889307 163 162 157
27.810640 -30.609138 4.260868 163 162 157
4.744034 -4.389519 1.859323 164 163 158
7.868316 -8.278244 2.200901 164 163 158
14.116881 -16.055695 2.884058 164 163 158
26.614012 -31.610594 4.250370 164 163 158
4.588303 -4.509819 1.857472 161 160 155
7.556855 -8.518845 2.197200 161 160 155
13.493958 -16.536896 2.876655 161 160 155
25.368166 -32.572998 4.235565 161 160 155
4.427024 -4.624557 1.855080 100 102 99
7.234298 -8.748320 2.192415 100 102 99
12.848845 -16.995846 2.867085 100 102 99
24.077938 -33.490898 4.216426 100 102 99
4.260895 -4.733113 1.852150 55 62 72
6.902038 -8.965433 2.186556 55 62 72
12.184325 -17.430073 2.855367 55 62 72
22.748899 -34.359352 4.192989 55 62 72
4.090681 -4.834958 1.848696 157 156 151
6.561610 -9.169122 2.179646 157 156 151
11.503469 -17.837450 2.841547 157 156 151
21.387188 -35.174107 4.165350 157 156 151
3.917210 -4.929649 1.844735 165 169 169
6.214668 -9.358505 2.171725 165 169 169
10.809586 -18.216217 2.825705 165 169 169
19.999420 -35.931641 4.133665 165 169 169
3.741342 -5.016855 1.840295 170 172 171
5.862933 -9.532917 2.162845 170 172 171
10.106114 -18.565041 2.807944 170 172 171
18.592478 -36.629288 4.098143 170 172 171
3.563956 -5.096352 1.835407 70 63 47
5.508162 -9.691910 2.153070 70 63 47
9.396573 -18.883026 2.788395 70 63 47
17.173395 -37.265259 4.059045 70 63 47
3.385925 -5.168025 1.830111 117 129 125
5.152100 -9.835258 2.142476 117 129 125
8.684448 -19.169722 2.767207 117 129 125
15.749146 -37.838650 4.016669 117 129 125
3.208098 -5.231871 1.824445 87 93 88
4.796446 -9.962948 2.131146 87 93 88
7.973141 -19.425102 2.744546 87 93 88
14.326531 -38.349411 3.971348 87 93 88
3.031280 -5.287981 1.818456 179 178 174
4.442809 -10.075168 2.119167 179 178 174
7.265868 -19.649542 2.720590 179 178 174
12.911984 -38.798290 3.923434 179 178 174
2.856222 -5.336540 1.812189 119 117 118
4.092692 -10.172286 2.106633 119 117 118
6.565634 -19.843779 2.695520 119 117 118
11.511517 -39.186764 3.873296 119 117 118
2.683603 -5.377811 1.805690 72 73 67
3.747455 -10.254829 2.093634 72 73 67
5.875160 -20.008865 2.669523 72 73 67
10.130569 -39.516937 3.821301 72 73 67
2.514031 -5.412123 1.799004 96 99 92
3.408310 -10.323452 2.080263 96 99 92
5.196870 -20.146111 2.642780 96 99 92
8.773989 -39.791428 3.767815 96 99 92
2.348028 -5.439852 1.792176 127 131 130
3.076305 -10.378910 2.066607 127 131 130
4.532859 -20.257027 2.615468 127 131 130
7.445966 -40.013260 3.713191 127 131 130
2.186038 -5.461414 1.785247 126 130 131
2.752325 -10.422035 2.052749 126 130 131
3.884898 -20.343277 2.587754 126 130 131
6.150045 -40.185760 3.657763 126 130 131
2.028420 -5.477251 1.778257 83 70 51
2.437090 -10.453708 2.038769 83 70 51
3.254429 -20.406622 2.559794 83 70 51
4.889106 -40.312450 3.601842 83 70 51
1.875460 -5.487812 1.771241 42 38 26
2.131169 -10.474830 2.024738 42 38 26
2.642587 -20.448866 2.531731 42 38 26
3.665422 -40.396938 3.545717 42 38 26
1.727366 -5.493554 1.764232 15 14 10
1.834981 -10.486315 2.010720 15 14 10
2.050210 -20.471836 2.503695 15 14 10
2.480670 -40.442879 3.489644 15 14 10
6.133546 -2.645760 1.675148 45 46 48
10.647341 -4.790727 1.832551 45 46 48
19.674931 -9.080660 2.147356 45 46 48
37.730110 -17.660526 2.776967 45 46 48
6.069487 -2.775664 1.675268 42 46 47
10.519222 -5.050535 1.832790 42 46 47
19.418694 -9.600277 2.147835 42 46 47
37.217636 -18.699760 2.777925 42 46 47
5.999224 -2.908159 1.675252 28 33 39
10.378697 -5.315524 1.832760 28 33 39
19.137644 -10.130255 2.147774 28 33 39
36.655537 -19.759716 2.777803 28 33 39
5.922416 -3.042903 1.675087 31 36 30
10.225080 -5.585013 1.832430 31 36 30
18.830410 -10.669233 2.147115 31 36 30
36.041069 -20.837673 2.776484 31 36 30
5.838747 -3.179492 1.674758 30 39 38
10.057742 -5.858191 1.831772 30 39 38
18.495733 -11.215588 2.145798 30 39 38
35.371716 -21.930382 2.773851 30 39 38
5.747938 -3.317454 1.674250 113 114 109
9.876125 -6.134114 1.830755 113 114 109
18.132500 -11.767435 2.143765 113 114 109
34.645248 -23.034077 2.769786 113 114 109
5.649760 -3.456254 1.673549 102 107 103
9.679770 -6.411716 1.829352 102 107 103
17.739788 -12.322638 2.140960 102 107 103
33.859825 -24.144482 2.764174 102 107 103
5.544043 -3.595295 1.672640 68 69 73
9.468334 -6.689797 1.827536 68 69 73
17.316917 -12.878801 2.137327 68 69 73
33.014084 -25.256809 2.756908 68 69 73
5.430688 -3.733921 1.671513 39 48 55
9.241625 -6.967049 1.825281 39 48 55
16.863499 -13.433304 2.132817 39 48 55
32.107246 -26.365814 2.747890 39 48 55
5.309683 -3.871427 1.670156 53 46 40
8.999616 -7.242061 1.822567 53 46 40
16.379480 -13.983328 2.127388 53 46 40
31.139210 -27.465862 2.737032 53 46 40
5.181109 -4.007072 1.668560 47 41 37
8.742467 -7.513350 1.819375 47 41 37
15.865183 -14.525908 2.121006 47 41 37
30.110615 -28.551022 2.724266 47 41 37
5.045148 -4.140088 1.666720 50 47 42
8.470546 -7.779382 1.815695 50 47 42
15.321341 -15.057970 2.113644 50 47 42
29.022930 -29.615147 2.709544 50 47 42
4.902093 -4.269700 1.664632 142 142 142
8.184435 -8.038606 1.811518 142 142 142
14.749119 -15.576418 2.105291 142 142 142
27.878487 -30.652042 2.692838 142 142 142
4.752343 -4.395144 1.662295 98 100 99
7.884936 -8.289495 1.806846 98 100 99
14.150121 -16.078196 2.095947 98 100 99
26.680490 -31.655598 2.674149 98 100 99
4.596408 -4.515686 1.659715 100 99 95
7.573065 -8.530578 1.801685 100 99 95
13.526379 -16.560362 2.085624 100 99 95
25.433006 -32.619930 2.653503 100 99 95
4.434893 -4.630638 1.656896 68 64 61
7.250034 -8.760482 1.796048 68 64 61
12.880318 -17.020170 2.074351 68 64 61
24.140884 -33.539547 2.630956 68 64 61
4.268497 -4.739381 1.653851 26 24 15
6.917243 -8.977968 1.789957 26 24 15
12.214735 -17.455143 2.062168 26 24 15
22.809719 -34.409492 2.606591 26 24 15
4.097992 -4.841378 1.650591 37 34 25
6.576233 -9.181963 1.783438 37 34 25
11.532716 -17.863132 2.049131 37 34 25
21.445681 -35.225471 2.580517 37 34 25
3.924209 -4.936189 1.647135 72 60 44
6.228666 -9.371585 1.776525 72 60 44
10.837582 -18.242376 2.035306 72 60 44
20.055412 -35.983959 2.552867 72 60 44
3.748012 -5.023479 1.643501 69 61 40
5.876273 -9.546165 1.769258 69 61 40
10.132795 -18.591537 2.020770 69 61 40
18.645840 -36.682281 2.523795 69 61 40
3.570287 -5.103025 1.639711 66 57 42
5.520822 -9.705257 1.761677 66 57 42
9.421893 -18.909721 2.005609 66 57 42
17.224035 -37.318649 2.493473 66 57 42
3.391908 -5.174714 1.635787 31 32 27
5.164065 -9.848634 1.753829 31 32 27
8.708380 -19.196474 1.989914 31 32 27
15.797009 -37.892155 2.462082 31 32 27
3.213732 -5.238539 1.631754 26 28 25
4.807712 -9.976284 1.745762 26 28 25
7.995673 -19.451775 1.973779 26 28 25
14.371595 -38.402756 2.429814 26 28 25
3.036566 -5.294598 1.627634 104 101 94
4.453380 -10.088403 1.737523 104 101 94
7.287009 -19.676012 1.957302 104 101 94
12.954268 -38.851231 2.396858 104 101 94
2.861165 -5.343078 1.623453 110 112 107
4.102580 -10.185362 1.729161 110 112 107
6.585408 -19.869930 1.940576 110 112 107
11.551065 -39.239067 2.363407 110 112 107
2.688214 -5.384244 1.619232 56 52 41
3.756677 -10.267694 1.720720 56 52 41
5.893604 -20.034595 1.923694 56 52 41
10.167457 -39.568398 2.329643 56 52 41
2.518321 -5.418426 1.614995 68 67 63
3.416891 -10.336059 1.712244 68 67 63
5.214031 -20.171324 1.906744 68 67 63
8.808311 -39.841854 2.295742 68 67 63
2.352012 -5.446008 1.610760 88 90 85
3.084273 -10.391222 1.703775 88 90 85
4.548795 -20.281651 1.889805 88 90 85
7.477839 -40.062508 2.261866 88 90 85
2.189731 -5.467405 1.606547 55 55 53
2.759712 -10.434017 1.695349 55 55 53
3.899672 -20.367241 1.872954 55 55 53
6.179593 -40.233688 2.228162 55 55 53
2.031840 -5.483064 1.602372 82 71 53
2.443929 -10.465335 1.687000 82 71 53
3.268108 -20.429876 1.856255 82 71 53
4.916465 -40.358959 2.194764 82 71 53
1.878624 -5.493438 1.598251 33 36 27
2.137496 -10.486083 1.678756 33 36 27
2.655242 -20.471373 1.839767 33 36 27
3.690733 -40.441952 2.161789 33 36 27
1.730292 -5.498987 1.594194 31 33 30
1.840832 -10.497180 1.670643 31 33 30
2.061913 -20.493567 1.823541 31 33 30
2.504076 -40.486340 2.129338 31 33 30
6.136506 -2.645275 1.506952 21 25 24
10.653261 -4.789757 1.496158 21 25 24
19.686771 -9.078721 1.474572 21 25 24
37.753792 -17.656649 1.431398 21 25 24
6.072501 -2.775179 1.504069 23 27 28
10.525251 -5.049564 1.490394 23 27 28
19.430752 -9.598335 1.463042 23 27 28
37.241753 -18.695877 1.408340 23 27 28
6.002291 -2.907673 1.501097 22 28 26
10.384830 -5.314553 1.484449 22 28 26
19.149910 -10.128312 1.451153 22 28 26
36.680069 -19.755831 1.384561 22 28 26
5.925533 -3.042418 1.498039 24 25 29
10.231315 -5.584043 1.478333 24 25 29
18.842878 -10.667292 1.438920 24 25 29
36.066006 -20.833790 1.360095 24 25 29
5.841913 -3.179008 1.494900 59 60 52
10.064075 -5.857222 1.472056 59 60 52
18.508398 -11.213651 1.426366 59 60 52
35.397045 -21.926508 1.334988 59 60 52
5.751150 -3.316972 1.491689 106 104 105
9.882549 -6.133151 1.465633 106 104 105
18.145348 -11.765508 1.413520 106 104 105
34.670944 -23.030222 1.309295 106 104 105
5.653016 -3.455775 1.488413 80 78 81
9.686280 -6.410757 1.459080 80 78 81
17.752810 -12.320721 1.400415 80 78 81
33.885868 -24.140648 1.283086 80 78 81
5.547338 -3.594820 1.485082 58 63 67
9.474924 -6.688846 1.452419 58 63 67
17.330097 -12.876898 1.387093 58 63 67
33.040443 -25.253002 1.256442 58 63 67
5.434019 -3.733450 1.481709 41 45 54
9.248287 -6.966106 1.445673 41 45 54
16.876823 -13.431419 1.373601 41 45 54
32.133896 -26.362045 1.229457 41 45 54
5.313045 -3.870960 1.478307 34 38 47
9.006338 -7.241127 1.438868 34 38 47
16.392925 -13.981461 1.359991 34 38 47
31.166100 -27.462128 1.202237 34 38 47
5.184497 -4.006610 1.474889 31 44 50
8.749243 -7.512427 1.432034 31 44 50
15.878735 -14.524060 1.346323 31 44 50
30.137718 -28.547327 1.174900 31 44 50
5.048558 -4.139632 1.471473 31 39 44
8.477365 -7.778470 1.425201 31 39 44
15.334978 -15.056147 1.332658 31 39 44
29.050205 -29.611500 1.147570 31 39 44
4.905518 -4.269250 1.468075 22 22 21
8.191284 -8.037706 1.418404 22 22 21
14.762818 -15.574619 1.319063 22 22 21
27.905886 -30.648445 1.120381 22 22 21
4.755778 -4.394701 1.464711 30 31 33
7.891806 -8.288610 1.411676 30 31 33
14.163860 -16.076426 1.305607 30 31 33
26.707970 -31.652058 1.093470 30 31 33
4.599846 -4.515250 1.461399 23 23 23
7.579942 -8.529707 1.405052 23 23 23
13.540133 -16.558620 1.292359 23 23 23
25.460514 -32.616447 1.066974 23 23 23
4.438329 -4.630208 1.458156 67 53 44
7.256907 -8.759624 1.398566 67 53 44
12.894064 -17.018454 1.279387 67 53 44
24.168377 -33.536114 1.041030 67 53 44
4.271925 -4.738957 1.454998 67 55 43
6.924099 -8.977121 1.392251 67 55 43
12.228447 -17.453449 1.266757 67 55 43
22.837143 -34.406105 1.015768 67 55 43
4.101406 -4.840961 1.451941 55 32 24
6.583061 -9.181129 1.386137 55 32 24
11.546371 -17.861465 1.254528 55 32 24
21.472990 -35.222137 0.991311 55 32 24
3.927603 -4.935779 1.448998 76 71 68
6.235455 -9.370765 1.380251 76 71 68
10.851158 -18.240736 1.242757 76 71 68
20.082565 -35.980679 0.967770 76 71 68
3.751380 -5.023075 1.446182 78 78 74
5.883010 -9.545357 1.374619 78 78 74
10.146269 -18.589920 1.231492 78 78 74
18.672787 -36.679047 0.945239 78 78 74
3.573625 -5.102626 1.443502 85 81 75
5.527498 -9.704458 1.369259 85 81 75
9.435246 -18.908123 1.220773 85 81 75
17.250740 -37.315453 0.923802 85 81 75
3.395211 -5.174319 1.440967 55 48 38
5.170671 -9.847845 1.364189 55 48 38
8.721592 -19.194897 1.210632 55 48 38
15.823434 -37.889000 0.903520 55 48 38
3.216995 -5.238150 1.438582 48 43 34
4.814240 -9.975506 1.359419 48 43 34
8.008728 -19.450218 1.201092 48 43 34
14.397705 -38.399643 0.884439 48 43 34
3.039787 -5.294213 1.436350 49 48 44
4.459823 -10.087633 1.354956 49 48 44
7.299894 -19.674473 1.192167 49 48 44
12.980038 -38.848152 0.866588 49 48 44
2.864340 -5.342697 1.434274 43 42 38
4.108930 -10.184601 1.350803 43 42 38
6.598108 -19.868408 1.183862 43 42 38
11.576466 -39.236023 0.849979 43 42 38
2.691340 -5.383867 1.432353 43 44 36
3.762930 -10.266940 1.346960 43 44 36
5.906109 -20.033087 1.176176 43 44 36
10.192467 -39.565380 0.834606 43 44 36
2.521396 -5.418053 1.430584 54 47 43
3.423041 -10.335312 1.343422 54 47 43
5.226332 -20.169830 1.169099 54 47 43
8.832912 -39.838867 0.820454 54 47 43
2.355034 -5.445637 1.428963 58 49 42
3.090317 -10.390481 1.340181 58 49 42
4.560884 -20.280169 1.162617 58 49 42
7.502017 -40.059544 0.807490 58 49 42
2.192699 -5.467038 1.427486 54 49 45
2.765648 -10.433282 1.337228 54 49 45
3.911544 -20.365770 1.156710 54 49 45
6.203338 -40.230747 0.795675 54 49 45
2.034753 -5.482699 1.426147 80 84 69
2.449755 -10.464605 1.334549 80 84 69
3.279760 -20.428417 1.151354 80 84 69
4.939768 -40.356041 0.784962 80 84 69
1.881481 -5.493076 1.424939 53 54 49
2.143211 -10.485358 1.332133 53 54 49
2.666671 -20.469923 1.146521 53 54 49
3.713591 -40.439053 0.775296 53 54 49
1.733093 -5.498627 1.423854 32 34 29
1.846435 -10.496461 1.329964 32 34 29
2.073118 -20.492128 1.142182 32 34 29
2.526485 -40.483463 0.766620 32 34 29
6.134359 -2.642368 1.338943 59 60 55
10.648968 -4.783942 1.160141 59 60 55
19.678185 -9.067091 0.802537 59 60 55
37.736618 -17.633389 0.087329 59 60 55
6.070299 -2.772031 1.333072 69 71 68
10.520847 -5.043268 1.148399 69 71 68
19.421944 -9.585743 0.779053 69 71 68
37.224136 -18.670692 0.040360 69 71 68
6.000044 -2.904272 1.327156 65 66 61
10.380338 -5.307750 1.136568 65 66 61
19.140924 -10.114707 0.755390 65 66 61
36.662098 -19.728621 -0.006964 65 66 61
5.923255 -3.038751 1.321219 59 58 53
10.226760 -5.576709 1.124693 59 58 53
18.833769 -10.652624 0.731641 59 58 53
36.047787 -20.804455 -0.054462 59 58 53
5.839619 -3.175064 1.315286 58 59 54
10.059487 -5.849334 1.112827 58 59 54
18.499224 -11.197874 0.707910 58 59 54
35.378696 -21.894955 -0.101926 58 59 54
5.748859 -3.312742 1.309386 47 48 43
9.877967 -6.124690 1.101027 47 48 43
18.136183 -11.748587 0.684309 47 48 43
34.652615 -22.996380 -0.149126 47 48 43
5.650745 -3.451252 1.303550 95 65 54
9.681740 -6.401710 1.089356 95 65 54
17.743729 -12.302626 0.660966 95 65 54
33.867706 -24.104458 -0.195813 95 65 54
5.545111 -3.589998 1.297812 99 69 58
9.470470 -6.679202 1.077880 99 69 58
17.321190 -12.857610 0.638015 99 69 58
33.022629 -25.214426 -0.241715 99 69 58
5.431858 -3.728328 1.292208 96 66 54
9.243964 -6.955862 1.066672 96 66 54
16.868177 -13.410931 0.615599 96 66 54
32.116604 -26.321068 -0.286547 96 66 54
5.310974 -3.865541 1.286775 89 62 50
9.002196 -7.230289 1.055805 89 62 50
16.384642 -13.959784 0.593866 89 62 50
31.149532 -27.418774 -0.330014 89 62 50
5.182541 -4.000898 1.281550 97 69 56
8.745331 -7.501003 1.045355 97 69 56
15.870912 -14.501213 0.572966 97 69 56
30.122072 -28.501633 -0.371814 97 69 56
5.046743 -4.133638 1.276571 101 97 94
8.473736 -7.766483 1.035397 101 97 94
15.327721 -15.032172 0.553048 101 97 94
29.035690 -29.563551 -0.411648 101 97 94
4.903870 -4.262989 1.271874 82 83 78
8.187988 -8.025185 1.026002 82 83 78
14.756226 -15.549575 0.534259 82 83 78
27.892700 -30.598356 -0.449227 82 83 78
4.754320 -4.388189 1.267492 84 84 80
7.888889 -8.275585 1.017239 84 84 80
14.158027 -16.050377 0.516734 84 84 80
26.696302 -31.599962 -0.484277 84 84 80
4.598600 -4.508510 1.263458 85 84 80
7.577450 -8.516227 1.009171 85 84 80
13.535149 -16.531660 0.500597 85 84 80
25.450546 -32.562527 -0.516552 85 84 80
4.437315 -4.623268 1.259798 18 18 15
7.254880 -8.745742 1.001850 18 18 15
12.890009 -16.990690 0.485955 18 18 15
24.160267 -33.480587 -0.545834 18 18 15
4.271161 -4.731844 1.256534 34 38 37
6.922571 -8.962895 0.995322 34 38 37
12.225391 -17.424997 0.472899 34 38 37
22.831032 -34.349201 -0.571947 34 38 37
4.100905 -4.833707 1.253682 55 54 52
6.582059 -9.166621 0.989619 55 54 52
11.544367 -17.832449 0.461494 55 54 52
21.468983 -35.164104 -0.594757 55 54 52
3.927374 -4.928418 1.251255 73 79 67
6.234998 -9.356043 0.984765 73 79 67
10.850245 -18.211292 0.451785 73 79 67
20.080738 -35.921791 -0.614176 73 79 67
3.751431 -5.015642 1.249256 49 44 38
5.883111 -9.530490 0.980768 49 44 38
10.146471 -18.560186 0.443790 49 44 38
18.673191 -36.619579 -0.630165 49 44 38
3.573955 -5.095155 1.247685 38 37 32
5.528159 -9.689516 0.977626 38 37 32
9.436567 -18.878239 0.437506 38 37 32
17.253384 -37.255684 -0.642733 38 37 32
3.395819 -5.166844 1.246535 29 30 26
5.171887 -9.832895 0.975325 29 30 26
8.724024 -19.164997 0.432905 29 30 26
15.828298 -37.829201 -0.651935 29 30 26
3.217875 -5.230703 1.245793 33 35 30
4.815999 -9.960612 0.973841 33 35 30
8.012247 -19.420431 0.429938 33 35 30
14.404743 -38.340069 -0.657869 33 35 30
3.040929 -5.286826 1.245443 31 35 34
4.462107 -10.072859 0.973141 31 35 34
7.304462 -19.644924 0.428538 31 35 34
12.989174 -38.789055 -0.660670 31 35 34
2.865732 -5.335397 1.245464 41 37 28
4.111713 -10.170000 0.973183 41 37 28
6.603676 -19.839207 0.428622 41 37 28
11.587601 -39.177620 -0.660501 41 37 28
2.692968 -5.376680 1.245832 32 36 37
3.766185 -10.252566 0.973920 32 36 37
5.912619 -20.004339 0.430094 32 36 37
10.205486 -39.507885 -0.657556 32 36 37
2.523243 -5.411001 1.246522 78 53 33
3.426735 -10.321209 0.975298 78 53 33
5.233718 -20.141624 0.432852 78 53 33
8.847686 -39.782455 -0.652042 78 53 33
2.357082 -5.438740 1.247504 62 43 37
3.094413 -10.376686 0.977264 62 43 37
4.569075 -20.252579 0.436783 62 43 37
7.518399 -40.004364 -0.644179 62 43 37
2.194930 -5.460311 1.248752 31 31 29
2.770109 -10.419828 0.979760 31 31 29
3.920467 -20.338863 0.441774 31 31 29
6.221183 -40.176933 -0.634196 31 31 29
2.037148 -5.476155 1.250237 64 75 60
2.454545 -10.451516 0.982729 64 75 60
3.289338 -20.402239 0.447713 64 75 60
4.958925 -40.303684 -0.622319 64 75 60
1.884021 -5.486724 1.251930 32 34 31
2.148291 -10.472654 0.986116 32 34 31
2.676831 -20.444515 0.454486 32 34 31
3.733910 -40.388237 -0.608773 32 34 31
1.735760 -5.492475 1.253805 36 33 28
1.851769 -10.484156 0.989866 36 33 28
2.083786 -20.467518 0.461987 36 33 28
2.547822 -40.434242 -0.593772 36 33 28
6.127145 -2.637063 1.171688 67 71 69
10.634539 -4.773332 0.825631 67 71 69
19.649326 -9.045870 0.133518 67 71 69
37.678902 -17.590946 -1.250709 67 71 69
6.062923 -2.766250 1.162872 69 73 71
10.506095 -5.031706 0.808000 69 73 71
19.392439 -9.562618 0.098255 69 73 71
37.165127 -18.624443 -1.321236 69 73 71
5.992529 -2.897988 1.154059 71 76 72
10.365308 -5.295182 0.790373 71 76 72
19.110865 -10.089570 0.063000 71 76 72
36.601978 -19.678347 -1.391745 71 76 72
5.915630 -3.031939 1.145289 73 75 72
10.211510 -5.563085 0.772832 73 75 72
18.803268 -10.625376 0.027919 73 75 72
35.986786 -20.749958 -1.461907 73 75 72
5.831916 -3.167701 1.136607 77 77 75
10.044082 -5.834609 0.755470 77 77 75
18.468412 -11.168424 -0.006805 77 77 75
35.317074 -21.836054 -1.531356 77 77 75
5.741116 -3.304809 1.128065 76 77 72
9.862480 -6.108825 0.738385 76 77 72
18.105209 -11.716856 -0.040974 76 77 72
34.590668 -22.932919 -1.599694 76 77 72
5.643003 -3.442734 1.119716 78 79 74
9.666256 -6.384675 0.721686 78 79 74
17.712761 -12.268557 -0.074373 78 79 74
33.805771 -24.036320 -1.666490 78 79 74
5.537416 -3.580885 1.111615 77 80 74
9.455080 -6.660977 0.705486 77 80 74
17.290409 -12.821160 -0.106774 77 80 74
32.961067 -25.141527 -1.731292 77 80 74
5.424259 -3.718617 1.103823 77 78 73
9.228767 -6.936440 0.689902 77 78 73
16.837784 -13.372087 -0.137942 77 78 73
32.055817 -26.243380 -1.793629 77 78 73
5.303525 -3.855235 1.096400 77 78 73
8.987300 -7.209676 0.675054 77 78 73
16.354849 -13.918558 -0.167636 77 78 73
31.089947 -27.336323 -1.853017 77 78 73
5.175297 -3.990008 1.089404 77 78 73
8.730843 -7.479222 0.661064 77 78 73
15.841935 -14.457651 -0.195617 77 78 73
30.064119 -28.414509 -1.908979 77 78 73
5.039759 -4.122182 1.082896 78 79 74
8.459766 -7.743570 0.648047 78 79 74
15.299782 -14.986347 -0.221651 78 79 74
28.979813 -29.471901 -1.961048 78 79 74
4.897201 -4.250994 1.076929 79 80 75
8.174650 -8.001194 0.636114 79 80 75
14.729548 -15.501595 -0.245518 79 80 75
27.839346 -30.502398 -2.008780 79 80 75
4.748019 -4.375693 1.071555 78 79 74
7.876287 -8.250593 0.625365 78 79 74
14.132822 -16.000393 -0.267015 78 79 74
26.645893 -31.499994 -2.051774 78 79 74
4.592718 -4.495556 1.066818 80 80 80
7.565685 -8.490318 0.615890 80 80 80
13.511620 -16.479843 -0.285965 80 80 80
25.403488 -32.458893 -2.089675 80 80 80
4.431898 -4.609907 1.062753 50 49 44
7.244044 -8.719020 0.607761 50 49 44
12.868338 -16.937246 -0.302223 50 49 44
24.116924 -33.373699 -2.122191 50 49 44
4.266246 -4.718135 1.059389 38 38 36
6.912742 -8.935476 0.601034 38 38 36
12.205732 -17.370159 -0.315677 38 38 36
22.791714 -34.239525 -2.149099 38 38 36
4.096527 -4.819712 1.056745 54 49 45
6.573303 -9.138631 0.595745 54 49 45
11.526855 -17.776468 -0.326255 54 49 45
21.433960 -35.052143 -2.170255 54 49 45
3.923558 -4.914203 1.054828 45 42 35
6.227365 -9.327613 0.591910 45 42 35
10.834978 -18.154432 -0.333924 45 42 35
20.050205 -35.808071 -2.185594 45 42 35
3.748192 -5.001276 1.053635 32 33 27
5.876633 -9.501758 0.589526 32 33 27
10.133515 -18.502722 -0.338693 32 33 27
18.647280 -36.504650 -2.195132 32 33 27
3.571302 -5.080707 1.053156 42 40 35
5.522854 -9.660620 0.588567 42 40 35
9.425957 -18.820446 -0.340611 42 40 35
17.232162 -37.140099 -2.198967 42 40 35
3.393753 -5.152381 1.053368 93 91 79
5.167754 -9.803969 0.588991 93 91 79
8.715757 -19.107145 -0.339762 93 91 79
15.811765 -37.713497 -2.197269 93 91 79
3.216387 -5.216291 1.054243 17 16 12
4.813023 -9.931789 0.590740 17 16 12
8.006295 -19.362785 -0.336265 17 16 12
14.392839 -38.224777 -2.190274 17 16 12
3.040004 -5.272527 1.055743 25 28 24
4.460257 -10.044260 0.593740 25 28 24
7.300763 -19.587727 -0.330265 25 28 24
12.981775 -38.674660 -2.178276 25 28 24
2.865350 -5.321266 1.057826 42 40 36
4.110950 -10.141739 0.597906 42 40 36
6.602148 -19.782684 -0.321932 42 40 36
11.584545 -39.064575 -2.161609 42 40 36
2.693102 -5.362768 1.060446 38 39 34
3.766453 -10.224742 0.603147 38 39 34
5.913156 -19.948690 -0.311452 38 39 34
10.206560 -39.396587 -2.140649 38 39 34
2.523863 -5.397353 1.063553 68 69 59
3.427975 -10.293912 0.609362 68 69 59
5.236199 -20.087030 -0.299022 68 69 59
8.852648 -39.673267 -2.115789 68 69 59
2.358155 -5.425393 1.067097 43 50 56
3.096559 -10.349992 0.616450 43 50 56
4.573367 -20.199190 -0.284846 43 50 56
7.526984 -39.897587 -2.087436 43 50 56
2.196420 -5.447297 1.071027 35 40 46
2.773090 -10.393800 0.624309 35 40 46
3.926429 -20.286806 -0.269127 35 40 46
6.233107 -40.072819 -2.055999 35 40 46
2.039019 -5.463499 1.075292 39 47 52
2.458287 -10.426205 0.632839 39 47 52
3.296824 -20.351616 -0.252068 39 47 52
4.973897 -40.202438 -2.021880 39 47 52
1.886237 -5.474447 1.079843 33 41 44
2.152723 -10.448100 0.641941 33 41 44
2.685694 -20.395407 -0.233862 33 41 44
3.751638 -40.290020 -1.985470 33 41 44
1.738284 -5.480589 1.084635 50 30 24
1.856817 -10.460385 0.651524 50 30 24
2.093883 -20.419977 -0.214697 50 30 24
2.568014 -40.339161 -1.947138 50 30 24
6.114954 -2.629409 1.005741 64 66 65
10.610156 -4.758025 0.493737 64 66 65
19.600561 -9.015257 -0.530272 64 66 65
37.581371 -17.529720 -2.578289 64 66 65
6.050468 -2.757891 0.994054 62 66 65
10.481186 -5.014988 0.470362 62 66 65
19.342621 -9.529183 -0.577020 62 66 65
37.065491 -18.557573 -2.671785 62 66 65
5.979848 -2.888884 0.982417 64 66 63
10.339946 -5.276975 0.447089 64 66 63
19.060141 -10.053156 -0.623566 64 66 63
36.500530 -19.605518 -2.764878 64 66 63
5.902764 -3.022053 0.970890 70 70 70
10.185777 -5.543312 0.424035 70 70 70
18.751802 -10.585831 -0.669675 70 70 70
35.883854 -20.670868 -2.857095 70 70 70
5.818915 -3.156999 0.959537 70 72 69
10.018079 -5.813205 0.401330 70 72 69
18.416407 -11.125616 -0.715086 70 72 69
35.213062 -21.750439 -2.947917 70 72 69
5.728034 -3.293262 0.948429 73 73 71
9.836318 -6.085731 0.379114 73 73 71
18.052885 -11.670668 -0.759517 73 73 71
34.486019 -22.840542 -3.036780 73 73 71
5.629907 -3.430320 0.937641 70 75 69
9.640063 -6.359847 0.357537 70 75 69
17.660376 -12.218901 -0.802671 70 75 69
33.701000 -23.937008 -3.123087 70 75 69
5.524374 -3.567590 0.927251 72 76 75
9.428996 -6.634386 0.336758 72 76 75
17.238241 -12.767979 -0.844230 72 76 75
32.856731 -25.035164 -3.206205 72 76 75
5.411347 -3.704434 0.917341 75 76 71
9.202943 -6.908075 0.316937 75 76 71
16.786135 -13.315357 -0.883871 75 76 71
31.952518 -26.129921 -3.285487 75 76 71
5.290823 -3.840170 0.907993 71 75 74
8.961895 -7.179546 0.298240 71 75 74
16.304039 -13.858298 -0.921265 71 75 74
30.988327 -27.215803 -3.360274 71 75 74
5.162888 -3.974076 0.899287 74 76 71
8.706024 -7.447359 0.280829 74 76 71
15.792297 -14.393925 -0.956086 74 76 71
29.964844 -28.287056 -3.429918 74 76 71
5.027727 -4.105412 0.891303 78 79 74
8.435703 -7.710030 0.264861 78 79 74
15.251656 -14.919266 -0.988023 78 79 74
28.883560 -29.337738 -3.493790 78 79 74
4.885630 -4.233426 0.884113 78 79 74
8.151509 -7.966058 0.250482 78 79 74
14.683268 -15.431322 -1.016782 78 79 74
27.746784 -30.361851 -3.551309 78 79 74
4.736992 -4.357379 0.877784 73 74 68
7.854234 -8.213965 0.237823 73 74 68
14.088717 -15.927137 -1.042100 73 74 68
26.557682 -31.353481 -3.601945 73 74 68
4.582311 -4.476561 0.872371 73 72 68
7.544871 -8.452329 0.226998 73 72 68
13.469992 -16.403864 -1.063750 73 72 68
25.320232 -32.306934 -3.645245 73 72 68
4.422180 -4.590307 0.867921 68 67 62
7.224610 -8.679820 0.218098 68 67 62
12.829469 -16.858847 -1.081550 68 67 62
24.039186 -33.216900 -3.680844 68 67 62
4.257280 -4.698015 0.864467 64 63 58
6.894810 -8.895236 0.211188 64 63 58
12.169869 -17.289679 -1.095368 64 63 58
22.719988 -34.078564 -3.708481 64 63 58
4.088363 -4.799164 0.862027 55 56 50
6.556975 -9.097534 0.206309 55 56 50
11.494200 -17.694275 -1.105127 55 56 50
21.368649 -34.887756 -3.727998 55 56 50
3.916235 -4.893325 0.860608 44 45 40
6.212719 -9.285856 0.203470 44 45 40
10.805687 -18.070919 -1.110804 44 45 40
19.991623 -35.641045 -3.739353 44 45 40
3.741738 -4.980169 0.860199 19 24 18
5.863726 -9.459544 0.202654 19 24 18
10.107700 -18.418295 -1.112437 19 24 18
18.595650 -36.335796 -3.742620 19 24 18
3.565732 -5.059472 0.860780 18 23 17
5.511712 -9.618151 0.203815 18 23 17
9.403673 -18.735508 -1.110115 18 23 17
17.187595 -36.970222 -3.737974 18 23 17
3.389068 -5.131121 0.862315 53 52 48
5.158385 -9.761448 0.206884 53 52 48
8.697020 -19.022102 -1.103977 53 52 48
15.774288 -37.543411 -3.725699 53 52 48
3.212578 -5.195099 0.864757 66 65 61
4.805406 -9.889405 0.211769 66 65 61
7.991061 -19.278017 -1.094207 66 65 61
14.362370 -38.055241 -3.706158 66 65 61
3.037052 -5.251494 0.868052 72 73 67
4.454352 -10.002194 0.218359 72 73 67
7.288954 -19.503595 -1.081027 72 73 67
12.958158 -38.506397 -3.679798 72 73 67
2.863225 -5.300477 0.872137 43 42 38
4.106699 -10.100161 0.226529 43 42 38
6.593647 -19.699528 -1.064688 43 42 38
11.567543 -38.898262 -3.647120 43 42 38
2.691767 -5.342297 0.876944 76 75 70
3.763782 -10.183801 0.236142 76 75 70
5.907814 -19.866808 -1.045460 76 75 70
10.195876 -39.232822 -3.608665 76 75 70
2.523274 -5.377266 0.882401 23 30 38
3.426796 -10.253738 0.247056 23 30 38
5.233842 -20.006683 -1.023633 23 30 38
8.847933 -39.512573 -3.565011 23 30 38
2.358264 -5.405747 0.888434 53 55 57
3.096776 -10.310700 0.259124 53 55 57
4.573802 -20.120607 -0.999497 53 55 57
7.527853 -39.740421 -3.516739 53 55 57
2.197176 -5.428139 0.894973 38 46 48
2.774601 -10.355485 0.272201 38 46 48
3.929450 -20.210176 -0.973344 38 46 48
6.239149 -39.919559 -3.464433 38 46 48
2.040368 -5.444868 0.901944 33 38 42
2.460985 -10.388943 0.286143 33 38 42
3.302219 -20.277092 -0.945458 33 38 42
4.984687 -40.053391 -3.408662 33 38 42
1.888125 -5.456370 0.909280 35 40 44
2.156499 -10.411947 0.300814 35 40 44
2.693247 -20.323101 -0.916116 35 40 44
3.766743 -40.145409 -3.349978 35 40 44
1.740658 -5.463089 0.916914 9 15 15
1.861566 -10.425385 0.316084 9 15 15
2.103381 -20.349977 -0.885578 9 15 15
2.587010 -40.199162 -3.288900 9 15 15
6.097925 -2.619479 0.841632 59 63 62
10.576099 -4.738165 0.165518 59 63 62
19.532448 -8.975536 -1.186708 59 63 62
37.445145 -17.450279 -3.891161 59 63 62
6.033084 -2.747036 0.827174 61 63 60
10.446417 -4.993279 0.136603 61 63 60
19.273083 -9.485765 -1.244538 61 63 60
36.926414 -18.470737 -4.006821 61 63 60
5.962155 -2.877053 0.812818 64 66 65
10.304559 -5.253312 0.107890 64 66 65
18.989367 -10.005830 -1.301965 64 66 65
36.358982 -19.510866 -4.121675 64 66 65
5.884819 -3.009196 0.798638 61 65 64
10.149886 -5.517599 0.079531 61 65 64
18.680021 -10.534405 -1.358684 61 65 64
35.740292 -20.568016 -4.235112 61 65 64
5.800784 -3.143074 0.784718 62 66 65
9.981816 -5.785354 0.051691 62 66 65
18.343882 -11.069914 -1.414362 62 66 65
35.068012 -21.639034 -4.346469 62 66 65
5.709792 -3.278231 0.771148 68 68 66
9.799833 -6.055669 0.024552 68 68 66
17.979916 -11.610544 -1.468642 68 68 66
34.340080 -22.720295 -4.455029 68 68 66
5.611638 -3.414154 0.758023 66 67 62
9.603524 -6.327514 -0.001698 66 67 62
17.587297 -12.154234 -1.521142 66 67 62
33.554844 -23.807674 -4.560029 66 67 62
5.506169 -3.550269 0.745443 70 71 66
9.392588 -6.599745 -0.026860 70 71 66
17.165424 -12.698696 -1.571465 70 71 66
32.711098 -24.896599 -4.660674 70 71 66
5.393309 -3.685952 0.733509 73 74 69
9.166866 -6.871111 -0.050728 73 74 69
16.713982 -13.241428 -1.619201 73 74 69
31.808212 -25.982063 -4.756146 73 74 69
5.273056 -3.820532 0.722324 69 70 65
8.926361 -7.140271 -0.073098 69 70 65
16.232971 -13.779749 -1.663941 69 70 65
30.846191 -27.058704 -4.845627 69 70 65
5.145503 -3.953305 0.711989 71 72 67
8.671255 -7.405816 -0.093768 71 72 67
15.722758 -14.310839 -1.705281 71 72 67
29.825766 -28.120884 -4.928307 71 72 67
5.010836 -4.083542 0.702600 83 84 79
8.401920 -7.666290 -0.112544 83 84 79
15.184089 -14.831787 -1.742833 83 84 79
28.748426 -29.162781 -5.003411 83 84 79
4.869343 -4.210511 0.694249 74 75 70
8.118936 -7.920229 -0.129248 74 75 70
14.618120 -15.339664 -1.776241 74 75 70
27.616489 -30.178535 -5.070227 74 75 70
4.721417 -4.333488 0.687013 79 80 75
7.823084 -8.166183 -0.143718 79 80 75
14.026417 -15.831572 -1.805182 79 80 75
26.433083 -31.162350 -5.128109 79 80 75
4.567551 -4.451777 0.680963 81 80 75
7.515351 -8.402761 -0.155819 81 80 75
13.410952 -16.304729 -1.829384 81 80 75
25.202152 -32.108665 -5.176513 81 80 75
4.408327 -4.564728 0.676151 82 83 77
7.196903 -8.628662 -0.165443 82 83 77
12.774055 -16.756531 -1.848631 82 83 77
23.928358 -33.012268 -5.215008 82 83 77
4.244415 -4.671751 0.672615 84 85 79
6.869080 -8.842709 -0.172515 84 85 79
12.118408 -17.184624 -1.862775 84 85 79
22.617065 -33.868454 -5.243296 84 85 79
4.076554 -4.772336 0.670376 82 83 77
6.533358 -9.043880 -0.176994 82 83 77
11.446964 -17.586966 -1.871733 82 83 77
21.274178 -34.673138 -5.261211 82 83 77
3.905536 -4.866061 0.669436 79 80 74
6.191320 -9.231328 -0.178874 79 80 74
10.762890 -17.961863 -1.875493 79 80 74
19.906029 -35.422932 -5.268731 79 80 74
3.732186 -4.952599 0.669779 83 84 78
5.844620 -9.404405 -0.178186 83 84 78
10.069489 -18.308016 -1.874118 83 84 78
18.519228 -36.115238 -5.265981 83 84 78
3.557346 -5.031730 0.671375 86 85 80
5.494942 -9.562666 -0.174995 86 85 80
9.370132 -18.624538 -1.867734 86 85 80
17.120514 -36.748283 -5.253214 86 85 80
3.381855 -5.103334 0.674176 85 84 79
5.143958 -9.705875 -0.169394 85 84 79
8.668165 -18.910957 -1.856533 85 84 79
15.716578 -37.321121 -5.230810 85 84 79
3.206526 -5.167395 0.678119 84 83 78
4.793301 -9.833997 -0.161507 84 83 78
7.966851 -19.167200 -1.840758 84 83 78
14.313951 -37.833607 -5.199262 84 83 78
3.032136 -5.223990 0.683133 85 85 77
4.444521 -9.947187 -0.151479 85 85 77
7.269291 -19.393581 -1.820703 85 85 77
12.918832 -38.286369 -5.159150 85 85 77
2.859409 -5.273283 0.689136 86 85 80
4.099067 -10.045773 -0.139474 86 85 80
6.578382 -19.590752 -1.796693 86 85 80
11.537014 -38.680710 -5.111131 86 85 80
2.689003 -5.315510 0.696038 79 79 71
3.758254 -10.130227 -0.125668 79 79 71
5.896757 -19.759661 -1.769081 79 79 71
10.173763 -39.018528 -5.055908 79 79 71
2.521506 -5.350974 0.703750 65 64 59
3.423261 -10.201155 -0.110246 65 64 59
5.226771 -19.901516 -1.738237 65 64 59
8.833792 -39.302238 -4.994219 65 64 59
2.357430 -5.380024 0.712175 28 30 25
3.095109 -10.259254 -0.093395 28 30 25
4.570467 -20.017715 -1.704535 28 30 25
7.521183 -39.534637 -4.926815 28 30 25
2.197210 -5.403047 0.721221 69 35 26
2.774668 -10.305301 -0.075303 69 35 26
3.929585 -20.109808 -1.668350 69 35 26
6.239420 -39.718822 -4.854445 69 35 26
2.041200 -5.420457 0.730797 42 45 37
2.462650 -10.340121 -0.056151 42 45 37
3.305549 -20.179449 -1.630046 42 45 37
4.991346 -39.858105 -4.777838 42 45 37
1.889686 -5.432681 0.740815 58 43 36
2.159621 -10.364569 -0.036115 58 43 36
2.699491 -20.228344 -1.589974 58 43 36
3.779232 -39.955894 -4.697694 58 43 36
1.742878 -5.440150 0.751192 6 11 7
1.866006 -10.379506 -0.015360 6 11 7
2.112260 -20.258219 -1.548465 6 11 7
2.604770 -40.015644 -4.614676 6 11 7
6.076241 -2.607366 0.679863 60 64 63
10.532732 -4.713938 -0.158020 60 64 63
19.445713 -8.927083 -1.833784 60 64 63
37.271675 -17.353373 -5.185313 60 64 63
6.010961 -2.733791 0.662760 59 63 62
10.402170 -4.966788 -0.192224 59 63 62
19.184589 -9.432782 -1.902193 59 63 62
36.749428 -18.364771 -5.322132 59 63 62
5.939652 -2.862612 0.645812 62 61 59
10.259553 -5.224431 -0.226122 62 61 59
18.899355 -9.948068 -1.969989 62 61 59
36.178959 -19.395342 -5.457722 62 61 59
5.862006 -2.993502 0.629108 61 63 62
10.104261 -5.486211 -0.259529 61 63 62
18.588772 -10.471628 -2.036802 61 63 62
35.557793 -20.442463 -5.591349 61 63 62
5.777742 -3.126073 0.612751 64 64 62
9.935733 -5.751353 -0.292243 64 64 62
18.251715 -11.001912 -2.102231 64 64 62
34.883678 -21.503031 -5.722207 64 64 62
5.686616 -3.259880 0.596847 66 66 64
9.753481 -6.018967 -0.324050 66 66 64
17.887211 -11.537140 -2.165845 66 66 64
34.154671 -22.573486 -5.849436 66 66 64
5.588429 -3.394417 0.581511 67 69 66
9.557108 -6.288040 -0.354722 67 69 66
17.494465 -12.075287 -2.227189 67 69 66
33.369179 -23.649780 -5.972123 67 69 66
5.483044 -3.529124 0.566862 70 72 67
9.346337 -6.557455 -0.384022 70 72 67
17.072924 -12.614116 -2.285789 70 72 67
32.526096 -24.727438 -6.089322 70 72 67
5.370389 -3.663391 0.553019 69 70 65
9.121027 -6.825988 -0.411707 69 70 65
16.622303 -13.151182 -2.341158 69 70 65
31.624855 -25.801571 -6.200062 69 70 65
5.250472 -3.796562 0.540106 75 76 71
8.881192 -7.092330 -0.437534 75 76 71
16.142633 -13.683867 -2.392813 75 76 71
30.665516 -26.866940 -6.303371 75 76 71
5.123388 -3.927951 0.528239 68 70 65
8.627026 -7.355108 -0.461266 68 70 65
15.634299 -14.209422 -2.440278 68 70 65
29.648848 -27.918051 -6.398301 68 70 65
4.989327 -4.056849 0.517534 68 69 64
8.358904 -7.612904 -0.482677 68 69 64
15.098058 -14.725014 -2.483099 68 69 64
28.576365 -28.949234 -6.483942 68 69 64
4.848579 -4.182543 0.508095 80 81 76
8.077407 -7.864292 -0.501556 80 81 76
14.535063 -15.227790 -2.520857 80 81 76
27.450375 -29.954786 -6.559459 80 81 76
4.701529 -4.304327 0.500013 82 83 78
7.783306 -8.107862 -0.517718 82 83 78
13.946860 -15.714930 -2.553181 82 83 78
26.273970 -30.929066 -6.624107 82 83 78
4.548661 -4.421525 0.493369 80 81 76
7.477571 -8.342257 -0.531007 80 81 76
13.335391 -16.183722 -2.579759 80 81 76
25.051031 -31.866650 -6.677263 80 81 76
4.390550 -4.533504 0.488222 78 79 74
7.161348 -8.566216 -0.541300 78 79 74
12.702946 -16.631638 -2.600346 78 79 74
23.786140 -32.762482 -6.718436 78 79 74
4.227851 -4.639689 0.484616 74 75 69
6.835952 -8.778584 -0.548514 74 75 69
12.052153 -17.056376 -2.614773 74 75 69
22.484554 -33.611958 -6.747291 74 75 69
4.061286 -4.739581 0.482570 75 76 71
6.502822 -8.978368 -0.552606 75 76 71
11.385893 -17.455942 -2.622957 75 76 71
21.152035 -34.411091 -6.763659 75 76 71
3.891630 -4.832765 0.482085 75 74 69
6.163509 -9.164736 -0.553576 75 74 69
10.707267 -17.828678 -2.624896 75 74 69
19.794783 -35.156563 -6.767537 75 74 69
3.719687 -4.918922 0.483140 82 83 78
5.819624 -9.337050 -0.551465 82 83 78
10.019497 -18.173307 -2.620674 82 83 78
18.419243 -35.845821 -6.759093 82 83 78
3.546283 -4.997831 0.485695 83 82 77
5.472814 -9.494868 -0.546354 83 82 77
9.325877 -18.488943 -2.610453 83 82 77
17.032003 -36.477093 -6.738651 83 82 77
3.372232 -5.069373 0.489691 103 103 95
5.124713 -9.637952 -0.538363 103 103 95
8.629675 -18.775110 -2.594471 103 103 95
15.639599 -37.049427 -6.706687 103 103 95
3.198333 -5.133522 0.495052 79 80 75
4.776915 -9.766251 -0.527641 79 80 75
7.934078 -19.031708 -2.573026 79 80 75
14.248405 -37.562622 -6.663797 79 80 75
3.025343 -5.190350 0.501690 78 79 73
4.430936 -9.879906 -0.514365 78 79 73
7.242121 -19.259018 -2.546475 78 79 73
12.864491 -38.017242 -6.610696 78 79 73
2.853973 -5.240007 0.509506 78 79 73
4.088195 -9.979221 -0.498734 78 79 73
6.556638 -19.457649 -2.515213 78 79 73
11.493526 -38.414505 -6.548170 78 79 73
2.684867 -5.282720 0.518392 88 87 82
3.749983 -10.064647 -0.480960 88 87 82
5.880214 -19.628500 -2.479666 88 87 82
10.140677 -38.756207 -6.477076 88 87 82
2.518603 -5.318775 0.528240 80 81 75
3.417455 -10.136756 -0.461266 80 81 75
5.215159 -19.772718 -2.440277 80 81 75
8.810568 -39.044643 -6.398298 80 81 75
2.355685 -5.348507 0.538934 74 75 69
3.091620 -10.196220 -0.439878 74 75 69
4.563489 -19.891647 -2.397501 74 75 69
7.507227 -39.282501 -6.312747 74 75 69
2.196543 -5.372290 0.550362 73 37 23
2.773335 -10.243787 -0.417020 73 37 23
3.926919 -19.986780 -2.351786 73 37 23
6.234087 -39.472767 -6.221317 73 37 23
2.041528 -5.390522 0.562416 66 67 62
2.463305 -10.280252 -0.392913 66 67 62
3.306859 -20.059710 -2.303570 66 67 62
4.993967 -39.618626 -6.124886 66 67 62
1.890923 -5.403617 0.574990 28 23 17
2.162095 -10.306440 -0.367765 28 23 17
2.704439 -20.112087 -2.253275 28 23 17
3.789127 -39.723381 -6.024295 28 23 17
1.744940 -5.411992 0.587984 15 16 10
1.870130 -10.323191 -0.341777 15 16 10
2.120508 -20.145588 -2.201298 15 16 10
2.621266 -39.790382 -5.920342 15 16 10
6.050126 -2.593179 0.520897 55 59 58
10.480500 -4.685565 -0.475952 55 59 58
19.341249 -8.870336 -2.469648 55 59 58
37.062748 -17.239878 -6.457041 55 59 58
5.984334 -2.718279 0.501296 55 60 54
10.348917 -4.935765 -0.515152 55 60 54
19.078083 -9.370736 -2.548049 55 60 54
36.536415 -18.240679 -6.613844 55 60 54
5.912586 -2.845704 0.481905 59 61 56
10.205421 -5.190615 -0.553936 59 61 56
18.791092 -9.880436 -2.625617 59 61 56
35.962433 -19.260078 -6.768978 59 61 56
5.834583 -2.975129 0.462828 62 64 61
10.049416 -5.449465 -0.592088 62 64 61
18.479080 -10.398137 -2.701921 62 64 61
35.338409 -20.295481 -6.921588 62 64 61
5.750060 -3.106175 0.444184 61 63 60
9.880368 -5.711557 -0.629377 61 63 60
18.140985 -10.922321 -2.776498 61 63 60
34.662220 -21.343849 -7.070742 61 63 60
5.658783 -3.238406 0.426096 63 68 64
9.697815 -5.976018 -0.665554 63 68 64
17.775879 -11.451243 -2.848852 63 68 64
33.932007 -22.401693 -7.215449 63 68 64
5.560568 -3.371327 0.408695 61 66 60
9.501386 -6.241860 -0.700356 61 66 60
17.383020 -11.982927 -2.918456 61 66 60
33.146290 -23.465061 -7.354657 61 66 60
5.455288 -3.504393 0.392116 63 65 64
9.290826 -6.507993 -0.733513 63 65 64
16.961901 -12.515192 -2.984770 63 65 64
32.304050 -24.529591 -7.487286 63 65 64
5.342882 -3.637009 0.376499 65 70 64
9.066013 -6.773225 -0.764748 65 70 64
16.512276 -13.045656 -3.047240 65 70 64
31.404800 -25.590519 -7.612226 65 70 64
5.223367 -3.768540 0.361980 66 68 63
8.826982 -7.036286 -0.793784 66 68 63
16.034214 -13.571779 -3.105313 66 68 63
30.448675 -26.642765 -7.728372 66 68 63
5.096840 -3.898318 0.348696 70 71 66
8.573930 -7.295842 -0.820352 70 71 66
15.528109 -14.090890 -3.158449 70 71 66
29.436466 -27.680986 -7.834643 70 71 66
4.963498 -4.025657 0.336774 62 64 59
8.307245 -7.550520 -0.844197 62 64 59
14.994739 -14.600247 -3.206140 62 64 59
28.369726 -28.699701 -7.930024 62 64 59
4.823625 -4.149866 0.326331 72 73 68
8.027498 -7.798938 -0.865083 72 73 68
14.435246 -15.097082 -3.247910 72 73 68
27.250742 -29.693371 -8.013566 72 73 68
4.677604 -4.270261 0.317472 63 64 59
7.735456 -8.039728 -0.882801 63 64 59
13.851162 -15.578662 -3.283346 63 64 59
26.082573 -30.656530 -8.084437 63 64 59
4.525910 -4.386187 0.310284 78 79 74
7.432069 -8.271580 -0.897177 78 79 74
13.244387 -16.042366 -3.312099 78 79 74
24.869022 -31.583937 -8.141944 78 79 74
4.369105 -4.497029 0.304834 72 73 67
7.118459 -8.493265 -0.908078 72 73 67
12.617167 -16.485737 -3.333901 72 73 67
23.614582 -32.470680 -8.185547 72 73 67
4.207828 -4.602232 0.301167 75 76 71
6.795905 -8.703670 -0.915412 75 76 71
11.972059 -16.906546 -3.348568 75 76 71
22.324368 -33.312298 -8.214882 75 76 71
4.042782 -4.701308 0.299306 75 76 71
6.465814 -8.901822 -0.919134 75 76 71
11.311876 -17.302851 -3.356013 75 76 71
21.004002 -34.104908 -8.229771 75 76 71
3.874722 -4.793854 0.299247 93 90 85
6.129692 -9.086915 -0.919250 93 90 85
10.639633 -17.673037 -3.356246 93 90 85
19.659515 -34.845280 -8.230236 93 90 85
3.704430 -4.879556 0.300967 98 97 92
5.789108 -9.258319 -0.915812 98 97 92
9.958466 -18.015844 -3.349368 98 97 92
18.297180 -35.530895 -8.216481 98 97 92
3.532706 -4.958196 0.304415 72 73 67
5.445661 -9.415598 -0.908914 72 73 67
9.271571 -18.330402 -3.335574 72 73 67
16.923391 -36.160011 -8.188892 72 73 67
3.360346 -5.029649 0.309524 81 82 77
5.100940 -9.558505 -0.898697 81 82 77
8.582129 -18.616217 -3.315140 81 82 77
15.544508 -36.731640 -8.148025 81 82 77
3.188125 -5.093887 0.316205 76 77 71
4.756498 -9.686980 -0.885335 76 77 71
7.893245 -18.873167 -3.288415 76 77 71
14.166739 -37.245541 -8.094575 76 77 71
3.016780 -5.150969 0.324357 74 75 69
4.413810 -9.801145 -0.869032 74 75 69
7.207868 -19.101496 -3.255809 74 75 69
12.795985 -37.702198 -8.029363 74 75 69
2.847005 -5.201035 0.333864 76 77 72
4.074260 -9.901277 -0.850017 76 77 72
6.528769 -19.301760 -3.217779 76 77 72
11.437786 -38.102726 -7.953303 76 77 72
2.679430 -5.244296 0.344604 83 84 78
3.739109 -9.987799 -0.828537 83 84 78
5.858467 -19.474804 -3.174819 83 84 78
10.097183 -38.448814 -7.867382 83 84 78
2.514621 -5.281024 0.356449 83 84 78
3.409491 -10.061254 -0.804847 83 84 78
5.199230 -19.621714 -3.127439 83 84 78
8.778709 -38.742634 -7.772622 83 84 78
2.353071 -5.311536 0.369269 71 72 66
3.086391 -10.122279 -0.779207 71 72 66
4.553031 -19.743765 -3.076159 71 72 66
7.486311 -38.986736 -7.670062 71 72 66
2.195204 -5.336190 0.382934 67 69 64
2.770657 -10.171587 -0.751877 67 69 64
3.921563 -19.842381 -3.021499 67 69 64
6.223374 -39.183968 -7.560742 67 69 64
2.041368 -5.355367 0.397318 66 67 61
2.462984 -10.209940 -0.723109 66 67 61
3.306217 -19.919086 -2.963963 66 67 61
4.992684 -39.337379 -7.445670 66 67 61
1.891843 -5.369464 0.412299 63 64 59
2.163935 -10.238135 -0.693146 63 64 59
2.708118 -19.975477 -2.904038 63 64 59
3.796486 -39.450161 -7.325821 63 64 59
1.746842 -5.378886 0.427764 61 62 57
1.873933 -10.256979 -0.662218 61 62 57
2.128115 -20.013165 -2.842180 61 62 57
2.636480 -39.525536 -7.202106 61 62 57
6.019832 -2.577045 0.365156 53 59 57
10.419913 -4.653297 -0.787434 53 59 57
19.220076 -8.805800 -3.092612 53 59 57
36.820400 -17.110807 -7.702970 53 59 57
5.953473 -2.700645 0.343222 51 55 54
10.287195 -4.900496 -0.831301 51 55 54
18.954639 -9.300200 -3.180347 51 55 54
36.289528 -18.099606 -7.878440 51 55 54
5.881238 -2.826488 0.321554 56 58 55
10.142725 -5.152183 -0.874636 56 58 55
18.665699 -9.803572 -3.267018 56 58 55
35.711647 -19.106350 -8.051781 56 58 55
5.802845 -2.954258 0.300273 63 65 63
9.985939 -5.407722 -0.917198 63 65 63
18.352127 -10.314651 -3.352141 63 65 63
35.084503 -20.128508 -8.222028 63 65 63
5.718041 -3.083581 0.279510 65 67 66
9.816332 -5.666368 -0.958726 65 67 66
18.012913 -10.831944 -3.435196 65 67 66
34.406075 -21.163094 -8.388138 65 67 66
5.626609 -3.214032 0.259402 66 66 64
9.633468 -5.927270 -0.998941 66 66 64
17.647184 -11.353746 -3.515626 66 66 64
33.674618 -22.206699 -8.548998 66 66 64
5.528378 -3.345130 0.240097 63 63 61
9.437005 -6.189467 -1.037551 63 63 61
17.254259 -11.878141 -3.592847 63 63 61
32.888767 -23.255489 -8.703440 63 63 61
5.423233 -3.476346 0.221745 65 65 65
9.226714 -6.451899 -1.074254 65 65 65
16.833677 -12.403004 -3.666253 65 65 65
32.047604 -24.305214 -8.850251 65 65 65
5.311124 -3.607103 0.204500 69 70 65
9.002497 -6.713412 -1.108744 69 70 65
16.385242 -12.926030 -3.735234 69 70 65
31.150734 -25.351267 -8.988213 69 70 65
5.192076 -3.736784 0.188515 74 75 70
8.764401 -6.972775 -1.140716 74 75 70
15.909052 -13.444757 -3.799176 74 75 70
30.198353 -26.388721 -9.116097 74 75 70
5.066196 -3.864749 0.173936 77 78 73
8.512642 -7.228704 -1.169872 77 78 73
15.405532 -13.956614 -3.857490 77 78 73
29.191313 -27.412436 -9.232724 77 78 73
4.933678 -3.990332 0.160906 75 76 71
8.247604 -7.479870 -1.195932 75 76 71
14.875458 -14.458946 -3.909610 75 76 71
28.131165 -28.417099 -9.336965 75 76 71
4.794807 -4.112866 0.149553 72 73 68
7.969863 -7.724939 -1.218638 72 73 68
14.319976 -14.949084 -3.955022 72 73 68
27.020201 -29.397375 -9.427789 72 73 68
4.649960 -4.231695 0.139991 70 71 66
7.680169 -7.962596 -1.237764 70 71 66
13.740587 -15.424399 -3.993273 70 71 66
25.861423 -30.348005 -9.504291 70 71 66
4.499602 -4.346185 0.132313 76 77 72
7.379453 -8.191576 -1.253120 76 77 72
13.139154 -15.882360 -4.023985 76 77 72
24.658558 -31.263926 -9.565715 76 77 72
4.344280 -4.455743 0.126592 71 72 67
7.068810 -8.410693 -1.264561 71 72 67
12.517869 -16.320593 -4.046868 71 72 67
23.415987 -32.140392 -9.611481 71 72 67
4.184618 -4.559833 0.122877 116 115 110
6.749485 -8.618872 -1.271992 116 115 110
11.879218 -16.736950 -4.061729 116 115 110
22.138685 -32.973106 -9.641203 116 115 110
4.021296 -4.657982 0.121189 111 112 106
6.422840 -8.815170 -1.275367 111 112 106
11.225929 -17.129547 -4.068478 111 112 106
20.832108 -33.758301 -9.654701 111 112 106
3.855044 -4.749798 0.121526 78 79 73
6.090337 -8.998802 -1.274693 78 79 73
10.560923 -17.496811 -4.067132 78 79 73
19.502094 -34.492828 -9.652009 78 79 73
3.686622 -4.834973 0.123856 76 77 70
5.753493 -9.169153 -1.270033 76 77 70
9.887236 -17.837513 -4.057811 76 77 70
18.154720 -35.174232 -9.633368 76 77 70
3.516805 -4.913292 0.128125 78 79 74
5.413858 -9.325790 -1.261495 78 79 74
9.207966 -18.150787 -4.040735 78 79 74
16.796181 -35.800781 -9.599216 78 79 74
3.346362 -4.984628 0.134256 73 74 69
5.072972 -9.468462 -1.249234 73 74 69
8.526194 -18.436131 -4.016213 73 74 69
15.432636 -36.371468 -9.550171 73 74 69
3.176044 -5.048946 0.142149 76 77 71
4.732338 -9.597098 -1.233447 76 77 71
7.844924 -18.693403 -3.984639 76 77 71
14.070098 -36.886013 -9.487023 76 77 71
3.006569 -5.106294 0.151692 100 99 94
4.393387 -9.711794 -1.214362 100 99 94
7.167023 -18.922794 -3.946468 100 99 94
12.714294 -37.344795 -9.410682 100 99 94
2.838608 -5.156799 0.162756 77 78 72
4.057465 -9.812805 -1.192234 77 78 72
6.495179 -19.124817 -3.902212 77 78 72
11.370606 -37.748840 -9.322169 77 78 72
2.672775 -5.200657 0.175204 66 67 61
3.725800 -9.900521 -1.167337 66 67 61
5.831848 -19.300249 -3.852419 66 67 61
10.043945 -38.099705 -9.222583 66 67 61
2.509623 -5.238122 0.188894 65 66 61
3.399495 -9.975451 -1.139957 65 66 61
5.179240 -19.450108 -3.797659 65 66 61
8.738729 -38.399422 -9.113063 65 66 61
2.349635 -5.269494 0.203681 66 68 65
3.079519 -10.038194 -1.110384 66 68 65
4.539287 -19.575594 -3.738513 66 68 65
7.458823 -38.650394 -8.994771 66 68 65
2.193226 -5.295110 0.219419 59 25 15
2.766701 -10.089427 -1.078907 59 25 15
3.913651 -19.678061 -3.675560 59 25 15
6.207551 -38.855328 -8.868865 59 25 15
2.040740 -5.315335 0.235968 60 61 56
2.461729 -10.129877 -1.045810 60 61 56
3.303706 -19.758961 -3.609365 60 61 56
4.987662 -39.017128 -8.736475 60 61 56
1.892455 -5.330549 0.253191 55 57 52
2.165159 -10.160304 -1.011363 55 57 52
2.710567 -19.819815 -3.540472 55 57 52
3.801383 -39.138836 -8.598688 55 57 52
1.748584 -5.341137 0.270960 53 56 49
1.877416 -10.181481 -0.975824 53 56 49
2.135082 -19.862169 -3.469394 53 56 49
2.650413 -39.223545 -8.456532 53 56 49
5.985645 -2.559103 0.213012 49 53 52
10.351540 -4.617413 -1.091720 49 53 52
19.083328 -8.734033 -3.701186 49 53 52
36.546906 -16.967272 -8.920116 49 53 52
5.918674 -2.681044 0.188924 50 52 49
10.217598 -4.861294 -1.139897 50 52 49
18.815445 -9.221794 -3.797539 50 52 49
36.011139 -17.942795 -9.112823 50 52 49
5.845920 -2.805141 0.165161 52 57 53
10.072088 -5.109488 -1.187423 52 57 53
18.524426 -9.718184 -3.892591 52 57 53
35.429100 -18.935574 -9.302928 52 57 53
5.767114 -2.931083 0.141857 50 55 49
9.914477 -5.361373 -1.234032 50 55 49
18.209204 -10.221953 -3.985809 50 55 49
34.798656 -19.943113 -9.489363 50 55 49
5.682021 -3.058508 0.119154 54 59 53
9.744291 -5.616222 -1.279437 54 59 53
17.868832 -10.731650 -4.076619 54 59 53
34.117912 -20.962507 -9.670982 54 59 53
5.590439 -3.186999 0.097205 57 57 55
9.561128 -5.873205 -1.323335 57 57 55
17.502504 -11.245617 -4.164414 57 57 55
33.385258 -21.990440 -9.846574 57 57 55
5.492211 -3.316092 0.076169 58 59 54
9.364672 -6.131392 -1.365407 58 59 54
17.109592 -11.761990 -4.248558 58 59 54
32.599434 -23.023186 -10.014861 58 59 54
5.387237 -3.445274 0.056211 57 62 56
9.154723 -6.389754 -1.405324 57 62 56
16.689695 -12.278715 -4.328393 57 62 56
31.759640 -24.056637 -10.174530 57 62 56
5.275478 -3.573987 0.037495 64 65 60
8.931205 -6.647181 -1.442755 64 65 60
16.242659 -12.793569 -4.403255 64 65 60
30.865566 -25.086344 -10.324256 64 65 60
5.156967 -3.701639 0.020187 64 69 63
8.694183 -6.902485 -1.477370 64 69 63
15.768617 -13.304177 -4.472486 64 69 63
29.917482 -26.107561 -10.462716 64 69 63
5.031819 -3.827612 0.004447 66 71 65
8.443888 -7.154430 -1.508851 66 71 65
15.268024 -13.808067 -4.535447 66 71 65
28.916298 -27.115341 -10.588639 66 71 65
4.900229 -3.951266 -0.009575 73 74 69
8.180706 -7.401739 -1.536894 73 74 69
14.741662 -14.302684 -4.591533 73 74 69
27.863573 -28.104574 -10.700811 73 74 69
4.762479 -4.071962 -0.021740 69 70 65
7.905207 -7.643131 -1.561225 69 70 65
14.190662 -14.785469 -4.640195 69 70 65
26.761574 -29.070145 -10.798135 69 70 65
4.618940 -4.189069 -0.031928 104 105 99
7.618129 -7.877344 -1.581601 104 105 99
13.616508 -15.253895 -4.680948 104 105 99
25.613264 -30.006996 -10.879641 104 105 99
4.470067 -4.301979 -0.040039 107 106 101
7.320383 -8.103164 -1.597823 107 106 101
13.021015 -15.705534 -4.713391 107 106 101
24.422279 -30.910275 -10.944528 107 106 101
4.316392 -4.410122 -0.045996 79 80 74
7.013032 -8.319450 -1.609736 79 80 74
12.406314 -16.138107 -4.737218 79 80 74
23.192877 -31.775419 -10.992181 79 80 74
4.158516 -4.512980 -0.049748 79 80 75
6.697281 -8.525166 -1.617240 79 80 75
11.774811 -16.549538 -4.752226 79 80 75
21.929871 -32.598282 -11.022197 79 80 75
3.997100 -4.610099 -0.051273 72 77 71
6.374450 -8.719404 -1.620291 72 77 71
11.129148 -16.938015 -4.758326 72 77 71
20.638546 -33.375237 -11.034397 72 77 71
3.832849 -4.701098 -0.050576 109 109 101
6.045948 -8.901403 -1.618897 109 109 101
10.472144 -17.302013 -4.755540 109 109 101
19.324537 -34.103233 -11.028825 109 109 101
3.666495 -4.785679 -0.047692 121 118 109
5.713240 -9.070565 -1.613129 121 118 109
9.806728 -17.640337 -4.744003 121 118 109
17.993706 -34.779881 -11.005752 121 118 109
3.498785 -4.863626 -0.042680 76 77 72
5.377819 -9.226458 -1.603106 76 77 72
9.135887 -17.952122 -4.723956 76 77 72
16.652023 -35.403450 -10.965657 76 77 72
3.330461 -4.934811 -0.035626 70 75 68
5.041172 -9.368828 -1.588997 70 75 68
8.462592 -18.236862 -4.695738 70 75 68
15.305433 -35.972931 -10.909222 70 75 68
3.162250 -4.999191 -0.026635 74 75 69
4.704749 -9.497589 -1.571015 74 75 69
7.789748 -18.494385 -4.659776 74 75 69
13.959744 -36.487976 -10.837296 74 75 69
2.994844 -5.056808 -0.015832 69 70 64
4.369938 -9.612822 -1.549410 69 70 64
7.120124 -18.724850 -4.616565 69 70 64
12.620498 -36.948906 -10.750875 69 70 64
2.828893 -5.107769 -0.003356 72 73 67
4.038036 -9.714746 -1.524457 72 73 67
6.456321 -18.928698 -4.566659 72 73 67
11.292891 -37.356602 -10.651064 72 73 67
2.664994 -5.152258 0.010645 66 67 62
3.710237 -9.803722 -1.496454 66 67 62
5.800723 -19.106651 -4.510654 66 67 62
9.981694 -37.712509 -10.539053 66 67 62
2.503683 -5.190506 0.026016 64 64 61
3.387615 -9.880219 -1.465714 64 64 61
5.155479 -19.259645 -4.449172 64 64 61
8.691208 -38.018497 -10.416089 64 64 61
2.345432 -5.222798 0.042598 65 65 63
3.071114 -9.944803 -1.432549 65 65 63
4.522476 -19.388813 -4.382844 65 65 63
7.425201 -38.276833 -10.283433 65 65 63
2.190648 -5.249450 0.060234 58 60 55
2.761546 -9.998106 -1.397278 58 60 55
3.903340 -19.495419 -4.312300 58 60 55
6.186930 -38.490044 -10.142345 58 60 55
2.039670 -5.270806 0.078769 70 72 67
2.459588 -10.040818 -1.360207 70 72 67
3.299425 -19.580843 -4.238159 70 72 67
4.979099 -38.660892 -9.994063 70 72 67
1.892771 -5.287227 0.098055 71 74 67
2.165792 -10.073660 -1.321635 71 74 67
2.711833 -19.646526 -4.161014 71 74 67
3.803915 -38.792259 -9.839773 71 74 67
1.750166 -5.299082 0.117952 41 43 38
1.880582 -10.097370 -1.281841 41 43 38
2.141412 -19.693947 -4.081428 41 43 38
2.663074 -38.887100 -9.680600 41 43 38
