ply
format ascii 1.0
element vertex 2304
property float x
property float y
property float z
property uchar red
property uchar green
property uchar blue
end_header
-3.107653 -3.334199 3.379247 190 188 191
-6.352635 -6.679507 5.190050 190 188 191
-12.842600 -13.370123 8.811656 190 188 191
-25.822529 -26.751354 16.054867 190 188 191
-3.194259 -3.218548 3.431193 171 171 173
-6.525848 -6.448205 5.293942 171 171 173
-13.189025 -12.907518 9.019441 171 171 173
-26.515379 -25.826145 16.470436 171 171 173
-3.282251 -3.093194 3.484110 181 179 182
-6.701832 -6.197496 5.399776 181 179 182
-13.540993 -12.406101 9.231107 181 179 182
-27.219315 -24.823311 16.893768 181 179 182
-3.371160 -2.957458 3.537738 176 176 176
-6.879650 -5.926024 5.507031 176 176 176
-13.896628 -11.863156 9.445619 176 176 176
-27.930586 -23.737421 17.322792 176 176 176
-3.460404 -2.810688 3.591753 166 166 168
-7.058137 -5.632484 5.615063 166 166 168
-14.253603 -11.276077 9.661681 166 166 168
-28.644535 -22.563263 17.754917 166 166 168
-3.549277 -2.652290 3.645761 148 152 153
-7.235884 -5.315688 5.723078 148 152 153
-14.609097 -10.642484 9.877711 148 152 153
-29.355522 -21.296076 18.186977 148 152 153
-3.636945 -2.481754 3.699287 156 156 158
-7.411219 -4.974616 5.830131 156 156 158
-14.959766 -9.960340 10.091817 156 156 158
-30.056862 -19.931789 18.615189 156 156 158
-3.722439 -2.298701 3.751783 161 161 163
-7.582207 -4.608511 5.935122 161 161 163
-15.301743 -9.228130 10.301799 161 161 163
-30.740814 -18.467369 19.035152 161 161 163
-3.804665 -2.102926 3.802620 166 166 168
-7.746659 -4.216960 6.036796 166 166 168
-15.630647 -8.445028 10.505147 166 166 168
-31.398623 -16.901165 19.441849 166 166 168
-3.882416 -1.894441 3.851103 168 168 168
-7.902162 -3.799990 6.133761 168 168 168
-15.941652 -7.611088 10.699078 168 168 168
-32.020634 -15.233285 19.829712 168 168 168
-3.954400 -1.673527 3.896481 171 171 173
-8.046129 -3.358163 6.224518 171 171 173
-16.229588 -6.727434 10.880592 171 171 173
-32.596504 -13.465977 20.192741 171 171 173
-4.019276 -1.440775 3.937973 176 176 176
-8.175881 -2.892659 6.307502 176 176 176
-16.489092 -5.796426 11.046559 176 176 176
-33.115513 -11.603960 20.524673 176 176 176
-4.075709 -1.197114 3.974792 180 178 179
-8.288747 -2.405336 6.381141 180 178 179
-16.714823 -4.821781 11.193837 180 178 179
-33.566975 -9.654671 20.819229 180 178 179
-4.122428 -0.943826 4.006184 189 187 188
-8.382185 -1.898760 6.443924 189 187 188
-16.901699 -3.808629 11.319404 189 187 188
-33.940727 -7.628366 21.070362 189 187 188
-4.158295 -0.682537 4.031465 188 186 187
-8.453919 -1.376183 6.494484 188 186 187
-17.045168 -2.763475 11.420525 188 186 187
-34.227665 -5.538058 21.272606 188 186 187
-4.182376 -0.415187 4.050060 186 184 185
-8.502082 -0.841482 6.531676 186 184 185
-17.141493 -1.694072 11.494908 186 184 185
-34.420315 -3.399252 21.421371 186 184 185
-4.193999 -0.143963 4.061545 183 181 182
-8.525327 -0.299033 6.554646 183 181 182
-17.187983 -0.609175 11.540847 183 181 182
-34.513294 -1.229459 21.513248 183 181 182
-4.192801 0.128779 4.065669 165 163 164
-8.522930 0.246449 6.562894 165 163 164
-17.183189 0.481790 11.557343 165 163 164
-34.503708 0.952472 21.546242 165 163 164
-4.178757 0.400614 4.062375 142 142 142
-8.494843 0.790120 6.556305 142 142 142
-17.127014 1.569132 11.544167 142 142 142
-34.391357 3.127156 21.519890 142 142 142
-4.152182 0.669158 4.051802 138 138 138
-8.441693 1.327207 6.535160 138 138 138
-17.020716 2.643305 11.501876 138 138 138
-34.178761 5.275501 21.435307 138 138 138
-4.113709 0.932165 4.034276 138 138 138
-8.364748 1.853222 6.500107 138 138 138
-16.866825 3.695336 11.431770 138 138 138
-33.870979 7.379563 21.295097 138 138 138
-4.064246 1.187624 4.010283 156 156 156
-8.265821 2.364140 6.452121 156 156 156
-16.668972 4.717171 11.335798 156 156 156
-33.475273 9.423234 21.103153 156 156 156
-4.004914 1.433816 3.980440 170 169 165
-8.147158 2.856524 6.392435 170 169 165
-16.431644 5.701941 11.216426 170 169 165
-33.000618 11.392773 20.864407 170 169 165
-3.936982 1.669365 3.945453 163 163 163
-8.011293 3.327622 6.322462 163 163 163
-16.159916 6.644135 11.076479 163 163 163
-32.457161 13.277163 20.584515 163 163 163
-3.861797 1.893246 3.906081 87 86 81
-7.860923 3.775384 6.243718 87 86 81
-15.859176 7.539660 10.918992 87 86 81
-31.855680 15.068211 20.269539 87 86 81
-3.780719 2.104782 3.863096 86 85 80
-7.698768 4.198455 6.157747 86 85 80
-15.534864 8.385801 10.747050 86 85 80
-31.207058 16.760494 19.925655 86 85 80
-3.695071 2.303612 3.817252 87 87 87
-7.527471 4.596117 6.066060 87 87 87
-15.192270 9.181125 10.563676 87 87 87
-30.521870 18.351141 19.558907 87 87 87
-3.606089 2.489661 3.769262 80 81 73
-7.349506 4.968214 5.970080 80 81 73
-14.836342 9.925319 10.371716 80 81 73
-29.810013 19.839529 19.174988 80 81 73
-3.514903 2.663081 3.719779 76 75 70
-7.167134 5.315054 5.871115 76 75 70
-14.471598 10.619000 10.173785 76 75 70
-29.080524 21.226892 18.779125 76 75 70
-3.422513 2.824216 3.669386 90 92 91
-6.982354 5.637324 5.770328 90 92 91
-14.102037 11.263539 9.972211 90 92 91
-28.341404 22.515970 18.375977 90 92 91
-3.329783 2.973547 3.618588 82 86 85
-6.796895 5.935986 5.668733 82 86 85
-13.731118 11.860864 9.769021 82 86 85
-27.599566 23.710619 17.969597 82 86 85
-3.237446 3.111655 3.567819 59 60 54
-6.612221 6.212202 5.567194 59 60 54
-13.361771 12.413296 9.565944 59 60 54
-26.860870 24.815483 17.563442 59 60 54
-3.155217 -3.379535 3.200216 189 189 189
-6.447763 -6.770178 4.831988 189 189 189
-13.032855 -13.551465 8.095532 189 189 189
-26.203039 -27.114038 14.622621 189 189 189
-3.245790 -3.264789 3.248622 182 180 183
-6.628910 -6.540687 4.928800 182 180 183
-13.395149 -13.092483 8.289154 182 180 183
-26.927628 -26.196074 15.009865 182 180 183
-3.338045 -3.140116 3.298057 184 182 185
-6.813418 -6.291341 5.027669 184 182 185
-13.764166 -12.593791 8.486895 184 182 185
-27.665661 -25.198690 15.405345 184 182 185
-3.431504 -3.004779 3.348291 187 187 187
-7.000336 -6.020667 5.128137 187 187 187
-14.138001 -12.052443 8.687830 187 187 187
-28.413332 -24.115993 15.807216 187 187 187
-3.525570 -2.858061 3.399029 176 176 178
-7.188470 -5.727230 5.229613 176 176 178
-14.514269 -11.465569 8.890781 176 176 178
-29.165867 -22.942245 16.213120 176 176 178
-3.619510 -2.699291 3.449905 176 176 178
-7.376349 -5.409691 5.331367 176 176 178
-14.890027 -10.830491 9.094288 176 176 178
-29.917383 -21.672091 16.620132 176 176 178
-3.712442 -2.527889 3.500479 174 174 176
-7.562213 -5.066885 5.432513 174 174 176
-15.261755 -10.144879 9.296581 174 174 176
-30.660839 -20.300867 17.024719 174 174 176
-3.803336 -2.343396 3.550228 173 173 175
-7.744002 -4.697901 5.532011 173 173 175
-15.625333 -9.406911 9.495578 173 173 175
-31.387995 -18.824930 17.422710 173 173 175
-3.891013 -2.145539 3.598552 161 161 163
-7.919354 -4.302186 5.628660 161 161 163
-15.976038 -8.615480 9.688875 161 161 163
-32.089405 -17.242069 17.809307 161 161 163
-3.974160 -1.934269 3.644780 157 157 157
-8.085649 -3.879646 5.721115 157 157 157
-16.308626 -7.770401 9.873786 157 157 157
-32.754581 -15.551910 18.179127 157 157 157
-4.051359 -1.709826 3.688179 157 157 159
-8.240047 -3.430759 5.807913 157 157 159
-16.617424 -6.872627 10.047382 157 157 159
-33.372177 -13.756363 18.526321 157 157 159
-4.121130 -1.472783 3.727980 161 161 163
-8.379589 -2.956674 5.887516 161 161 163
-16.896507 -5.924456 10.206589 161 161 163
-33.930344 -11.860020 18.844734 161 161 163
-4.181983 -1.224085 3.763404 162 166 165
-8.501294 -2.459278 5.958363 162 166 165
-17.139917 -4.929664 10.348282 162 166 165
-34.417164 -9.870436 19.128120 162 166 165
-4.232492 -0.965067 3.793695 174 172 173
-8.602313 -1.941243 6.018946 174 172 173
-17.341955 -3.893595 10.469448 174 172 173
-34.821239 -7.798297 19.370453 174 172 173
-4.271377 -0.697452 3.818168 177 175 176
-8.680082 -1.406012 6.067893 177 175 176
-17.497494 -2.823132 10.567341 177 175 176
-35.132317 -5.657372 19.566238 177 175 176
-4.297575 -0.423308 3.836244 172 170 171
-8.732478 -0.857724 6.104043 172 170 171
-17.602285 -1.726556 10.639643 172 170 171
-35.341900 -3.464220 19.710842 172 170 171
-4.310321 -0.144989 3.847489 174 172 173
-8.757971 -0.301086 6.126534 174 172 173
-17.653271 -0.613281 10.684624 174 172 173
-35.443871 -1.237671 19.800804 174 172 173
-4.309202 0.134960 3.851649 164 162 163
-8.755733 0.258812 6.134853 164 162 163
-17.648794 0.506516 10.701262 164 162 163
-35.434917 1.001924 19.834080 164 162 163
-4.294188 0.413921 3.848664 148 148 148
-8.725705 0.816733 6.128883 148 148 148
-17.588739 1.622357 10.689322 148 148 148
-35.314808 3.233605 19.810200 148 148 148
-4.265636 0.689314 3.838673 149 149 149
-8.668601 1.367520 6.108901 149 149 149
-17.474531 2.723932 10.649358 149 149 149
-35.086391 5.436755 19.730270 149 149 149
-4.224263 0.958727 3.822004 152 152 152
-8.585855 1.906345 6.075563 152 152 152
-17.309040 3.801582 10.582683 152 152 152
-34.755409 7.592055 19.596920 152 152 152
-4.171097 1.220004 3.799147 153 151 152
-8.479523 2.428899 6.029850 153 151 152
-17.096375 4.846690 10.491256 153 151 152
-34.330078 9.682271 19.414066 153 151 152
-4.107402 1.471325 3.770721 152 153 148
-8.352134 2.931542 5.972997 152 153 148
-16.841597 5.851975 10.377550 152 153 148
-33.820522 11.692842 19.186657 152 153 148
-4.034602 1.711251 3.737431 147 147 145
-8.206533 3.411395 5.906417 147 147 145
-16.550396 6.811681 10.244390 147 147 145
-33.238121 13.612253 18.920338 147 147 145
-3.954199 1.938735 3.700030 85 82 77
-8.045727 3.866361 5.831615 85 82 77
-16.228783 7.721614 10.094786 85 82 77
-32.594894 15.432119 18.621128 85 82 77
-3.867698 2.153109 3.659279 84 85 80
-7.872725 4.295109 5.750113 84 85 80
-15.882778 8.579110 9.931783 84 85 80
-31.902885 17.147112 18.295120 84 85 80
-3.776552 2.354053 3.615918 74 76 75
-7.690433 4.696998 5.663392 74 76 75
-15.518194 9.382887 9.758340 74 76 75
-31.173717 18.754665 17.948235 74 76 75
-3.682108 2.541547 3.570638 78 79 74
-7.501545 5.071985 5.572832 78 79 74
-15.140419 10.132862 9.577219 78 79 74
-30.418167 20.254616 17.585995 78 79 74
-3.585585 2.715816 3.524068 85 82 77
-7.308500 5.420525 5.479692 85 82 77
-14.754329 10.829941 9.390938 85 82 77
-29.645987 21.648773 17.213432 85 82 77
-3.488051 2.877280 3.476762 78 82 81
-7.113431 5.743452 5.385080 78 82 81
-14.364191 11.475795 9.201715 78 82 81
-28.865711 22.940481 16.834988 78 82 81
-3.390420 3.026498 3.429199 66 71 65
-6.918169 6.041888 5.289955 66 71 65
-13.973666 12.072668 9.011465 66 71 65
-28.084661 24.134228 16.454487 66 71 65
-3.293455 3.164126 3.381783 37 44 36
-6.724239 6.317144 5.195122 37 44 36
-13.585807 12.623180 8.821799 37 44 36
-27.308943 25.235252 16.075153 37 44 36
-3.199091 -3.420971 3.013826 180 184 187
-6.535511 -6.853051 4.459208 180 184 187
-13.208352 -13.717211 7.349972 180 184 187
-26.554033 -27.445530 13.131499 180 184 187
-3.293425 -3.307151 3.058102 175 176 180
-6.724179 -6.625411 4.547760 175 176 180
-13.585688 -13.261930 7.527075 175 176 180
-27.308704 -26.534967 13.485706 175 176 180
-3.389734 -3.183207 3.103430 190 190 192
-6.916797 -6.377522 4.638415 190 190 192
-13.970922 -12.766151 7.708386 190 190 192
-28.079174 -25.543411 13.848329 190 190 192
-3.487540 -3.048343 3.149608 218 214 217
-7.112409 -6.107795 4.730771 218 214 217
-14.362146 -12.226699 7.893098 218 214 217
-28.861622 -24.464506 14.217752 218 214 217
-3.586234 -2.901781 3.196374 221 219 220
-7.309796 -5.814671 4.824304 221 219 220
-14.756922 -11.640450 8.080164 221 219 220
-29.651173 -23.292007 14.591883 221 219 220
-3.685055 -2.742780 3.243399 192 190 193
-7.507440 -5.496669 4.918354 192 190 193
-15.152208 -11.004446 8.268265 192 190 193
-30.441746 -22.020000 14.968084 192 190 193
-3.783084 -2.570683 3.290279 206 204 207
-7.703497 -5.152474 5.012115 206 204 207
-15.544323 -10.316057 8.455784 206 204 207
-31.225975 -20.643223 15.343124 206 204 207
-3.879229 -2.384957 3.336532 218 216 219
-7.895786 -4.781023 5.104620 218 216 219
-15.928902 -9.573154 8.640795 218 216 219
-31.995132 -19.157417 15.713146 218 216 219
-3.972229 -2.185255 3.381596 200 198 201
-8.081787 -4.381618 5.194748 200 198 201
-16.300903 -8.774343 8.821053 200 198 201
-32.739136 -17.559795 16.073662 200 198 201
-4.060671 -1.971466 3.424838 165 165 167
-8.258671 -3.954040 5.281231 165 165 167
-16.654671 -7.919188 8.994019 165 165 167
-33.446671 -15.849483 16.419594 165 165 167
-4.143011 -1.743783 3.465559 154 154 156
-8.423351 -3.498675 5.362674 154 154 156
-16.984032 -7.008459 9.156904 154 154 156
-34.105392 -14.028027 16.745365 154 154 156
-4.217624 -1.502759 3.503020 146 146 148
-8.572577 -3.016627 5.437596 146 146 148
-17.282484 -6.044362 9.306749 146 146 148
-34.702297 -12.099833 17.045053 146 146 148
-4.282867 -1.249349 3.536467 142 142 144
-8.703063 -2.509806 5.504489 142 142 144
-17.543455 -5.030721 9.440534 142 142 144
-35.224239 -10.072550 17.312622 142 142 144
-4.337155 -0.984937 3.565163 148 148 150
-8.811640 -1.980982 5.561881 148 148 150
-17.760609 -3.973072 9.555318 148 148 150
-35.658546 -7.957253 17.542191 148 148 150
-4.379054 -0.711333 3.588434 150 150 150
-8.895437 -1.433774 5.608424 150 150 150
-17.928204 -2.878657 9.648404 150 150 150
-35.993736 -5.768423 17.728363 150 150 150
-4.407373 -0.430738 3.605710 157 155 156
-8.952076 -0.872584 5.642975 157 155 156
-18.041481 -1.756276 9.717506 157 155 156
-36.220291 -3.523660 17.866570 157 155 156
-4.421249 -0.145669 3.616561 156 156 156
-8.979828 -0.302446 5.664677 156 156 156
-18.096985 -0.616000 9.760910 156 156 156
-36.331299 -1.243107 17.953377 156 156 156
-4.420215 0.141143 3.620732 157 155 156
-8.977758 0.271178 5.673020 157 155 156
-18.092846 0.531248 9.777596 157 155 156
-36.323021 1.051388 17.986748 157 155 156
-4.404233 0.426882 3.618163 169 167 168
-8.945795 0.842655 5.667881 169 167 168
-18.028919 1.674201 9.767318 169 167 168
-36.195168 3.337293 17.966190 169 167 168
-4.373706 0.708778 3.608988 159 158 162
-8.884741 1.406447 5.649531 159 158 162
-17.906811 2.801785 9.730618 159 158 162
-35.950951 5.592463 17.892792 159 158 162
-4.329441 0.984247 3.593529 151 150 148
-8.796211 1.957385 5.618614 151 150 148
-17.729752 3.903661 9.668784 151 150 148
-35.596832 7.796215 17.769123 151 150 148
-4.272588 1.250996 3.572267 153 151 152
-8.682506 2.490884 5.576090 153 151 152
-17.502340 4.970660 9.583735 153 151 152
-35.142010 9.930212 17.599026 153 151 152
-4.204563 1.507107 3.545807 144 144 142
-8.546454 3.003107 5.523170 144 144 142
-17.230238 5.995105 9.477894 144 144 142
-34.597805 11.979101 17.387344 144 144 142
-4.126946 1.751084 3.514836 144 144 144
-8.391222 3.491059 5.461228 144 144 144
-16.919773 6.971010 9.354012 144 144 144
-33.976875 13.930911 17.139580 144 144 144
-4.041399 1.981859 3.480084 93 92 88
-8.220127 3.952610 5.391724 93 92 88
-16.577583 7.894111 9.215004 93 92 88
-33.292496 15.777114 16.861565 93 92 88
-3.949576 2.198785 3.442285 84 83 78
-8.036481 4.386461 5.316126 84 83 78
-16.210291 8.761813 9.063807 84 83 78
-32.557911 17.512518 16.559170 84 83 78
-3.853057 2.401582 3.402145 79 83 82
-7.843442 4.792055 5.235847 79 83 82
-15.824214 9.573001 8.903248 79 83 82
-31.785757 19.134893 16.238052 79 83 82
-3.753299 2.590292 3.360321 81 80 74
-7.643928 5.169476 5.152197 81 80 74
-15.425184 10.327844 8.735950 81 80 74
-30.987698 20.644579 15.903457 81 80 74
-3.651607 2.765215 3.317403 82 78 75
-7.440543 5.519322 5.066362 82 78 75
-15.018415 11.027536 8.564280 82 78 75
-30.174160 22.043964 15.560116 82 78 75
-3.549113 2.926847 3.273910 83 84 79
-7.235555 5.842587 4.979375 83 84 79
-14.608438 11.674065 8.390306 83 84 79
-29.354206 23.337021 15.212169 83 84 79
-3.446774 3.075826 3.230282 41 43 38
-7.030878 6.140543 4.892120 41 43 38
-14.199085 12.269978 8.215796 41 43 38
-28.535500 24.528847 14.863149 41 43 38
-3.345385 3.212880 3.186889 31 33 27
-6.828099 6.414651 4.805333 31 33 27
-13.793528 12.818193 8.042222 31 33 27
-27.724384 25.625278 14.516000 31 33 27
-3.238728 -3.457958 2.820571 191 191 193
-6.614784 -6.927024 4.072697 191 191 193
-13.366898 -13.865157 6.576950 191 191 193
-26.871124 -27.741423 11.585456 191 191 193
-3.336539 -3.345044 2.860140 159 167 180
-6.810408 -6.701197 4.151835 159 167 180
-13.758144 -13.413502 6.735227 159 167 180
-27.653618 -26.838112 11.902009 159 167 180
-3.436612 -3.221836 2.900742 163 166 178
-7.010552 -6.454780 4.233040 163 166 178
-14.158434 -12.920669 6.897635 163 166 178
-28.454197 -25.852446 12.226827 163 166 178
-3.538468 -3.087487 2.942206 211 209 212
-7.214265 -6.186083 4.315968 211 209 212
-14.565859 -12.383274 7.063491 211 209 212
-29.269047 -24.777657 12.558538 211 209 212
-3.641490 -2.941156 2.984306 225 223 224
-7.420308 -5.893421 4.400167 225 223 224
-14.977945 -11.797951 7.231890 225 223 224
-30.093220 -23.607010 12.895335 225 223 224
-3.744897 -2.782037 3.026751 184 186 190
-7.627122 -5.575183 4.485058 184 186 190
-15.391574 -11.161474 7.401672 184 186 190
-30.920477 -22.334057 13.234900 184 186 190
-3.847731 -2.609401 3.069184 211 211 213
-7.832792 -5.229911 4.569924 211 211 213
-15.802913 -10.470930 7.571404 211 211 213
-31.743155 -20.952969 13.574365 211 211 213
-3.948849 -2.422642 3.111171 210 208 209
-8.035027 -4.856392 4.653898 210 208 209
-16.207382 -9.723893 7.739352 210 208 209
-32.552094 -19.458895 13.910259 210 208 209
-4.046913 -2.221340 3.152202 178 178 180
-8.231155 -4.453788 4.735959 178 178 180
-16.599640 -8.918684 7.903474 178 178 180
-33.336609 -17.848476 14.238503 178 178 180
-4.140412 -2.005321 3.191693 166 166 168
-8.418154 -4.021750 4.814942 166 166 168
-16.973637 -8.054609 8.061441 166 166 168
-34.084602 -16.120327 14.554438 166 166 168
-4.227683 -1.774730 3.229001 162 162 164
-8.592695 -3.560569 4.889558 162 162 164
-17.322720 -7.132246 8.210671 162 162 164
-34.782768 -14.275601 14.852899 162 162 164
-4.306960 -1.530095 3.263434 180 179 184
-8.751248 -3.071298 4.958424 180 179 184
-17.639826 -6.153705 8.348404 180 179 184
-35.416981 -12.318518 15.128364 180 179 184
-4.376445 -1.272375 3.294282 161 161 163
-8.890219 -2.555858 5.020120 161 161 163
-17.917767 -5.122825 8.471796 161 161 163
-35.972862 -10.256759 15.375148 161 161 163
-4.434395 -1.002998 3.320849 144 144 146
-9.006120 -2.017105 5.073254 144 144 146
-18.149569 -4.045318 8.578064 144 144 146
-36.436466 -8.101745 15.587684 144 144 146
-4.479226 -0.723859 3.342493 142 142 144
-9.095780 -1.458826 5.116541 142 142 144
-18.328890 -2.928761 8.664638 142 142 144
-36.795109 -5.868630 15.760831 142 142 144
-4.509612 -0.437281 3.358665 147 147 147
-9.156552 -0.885670 5.148886 147 147 147
-18.450434 -1.782448 8.729326 147 147 147
-37.038197 -3.576004 15.890209 147 147 147
-4.524592 -0.145939 3.368953 143 143 143
-9.186514 -0.302987 5.169461 143 143 143
-18.510357 -0.617082 8.770478 143 143 143
-37.158043 -1.245271 15.972512 143 143 143
-4.523642 0.147253 3.373108 139 139 139
-9.184612 0.283397 5.177772 139 139 139
-18.506554 0.555686 8.787100 139 139 139
-37.150436 1.100263 16.005756 139 139 139
-4.506721 0.439287 3.371069 145 145 145
-9.150772 0.867465 5.173695 145 145 145
-18.438873 1.723821 8.778945 145 145 145
-37.015076 3.436534 15.989446 145 145 145
-4.474276 0.727209 3.362963 153 151 152
-9.085881 1.443309 5.157482 153 151 152
-18.309092 2.875510 8.746520 153 151 152
-36.755512 5.739912 15.924596 153 151 152
-4.427203 1.008270 3.349094 152 152 152
-8.991735 2.005432 5.129744 152 152 152
-18.120800 3.999755 8.691044 152 152 152
-36.378929 7.988401 15.813643 152 152 152
-4.366780 1.280046 3.329919 137 137 137
-8.870890 2.548984 5.091393 137 137 137
-17.879108 5.086859 8.614344 137 137 137
-35.895546 10.162610 15.660242 137 137 137
-4.294571 1.540525 3.306011 134 134 134
-8.726472 3.069942 5.043579 134 134 134
-17.590273 6.128777 8.518713 134 134 134
-35.317875 12.246445 15.468982 134 134 134
-4.212318 1.788161 3.278021 128 128 128
-8.561966 3.565213 4.987598 128 128 128
-17.261261 7.119318 8.406753 128 128 128
-34.659851 14.227528 15.245061 128 128 128
-4.121837 2.021874 3.246634 101 103 100
-8.381003 4.032640 4.924825 101 103 100
-16.899336 8.054173 8.281204 101 103 100
-33.936001 16.097237 14.993965 101 103 100
-4.024927 2.241038 3.212537 84 83 78
-8.187183 4.470967 4.856629 84 83 78
-16.511696 8.930825 8.144814 84 83 78
-33.160721 17.850542 14.721185 84 83 78
-3.923295 2.445418 3.176385 82 87 83
-7.983918 4.879727 4.784325 82 87 83
-16.105165 9.748346 8.000206 82 87 83
-32.347660 19.485584 14.431968 82 87 83
-3.818501 2.635121 3.138783 50 53 44
-7.774330 5.259134 4.709123 50 53 44
-15.685989 10.507160 7.849802 50 53 44
-31.509308 21.003212 14.131159 50 53 44
-3.711930 2.810519 3.100275 76 71 65
-7.561189 5.609930 4.632105 76 71 65
-15.259706 11.208751 7.695766 76 71 65
-30.656742 22.406393 13.823088 76 71 65
-3.604774 2.972184 3.061327 90 88 89
-7.346877 5.933259 4.554211 90 88 89
-14.831083 11.855410 7.539977 90 88 89
-29.799496 23.699711 13.511509 90 88 89
-3.498030 3.120827 3.022339 49 51 48
-7.133389 6.230546 4.476233 49 51 48
-14.404108 12.449984 7.384023 49 51 48
-28.945545 24.888859 13.199601 49 51 48
-3.392515 3.257249 2.983637 43 45 37
-6.922360 6.503389 4.398830 43 45 37
-13.982049 12.995670 7.229216 43 45 37
-28.101427 25.980232 12.889987 43 45 37
-3.273597 -3.489967 2.621085 155 155 157
-6.684524 -6.991042 3.673727 155 155 157
-13.506376 -13.993193 5.779009 155 155 157
-27.150082 -27.997494 9.989573 155 155 157
-3.374529 -3.377901 2.655401 165 165 167
-6.886387 -6.766910 3.742357 165 165 167
-13.910103 -13.544928 5.916271 165 165 167
-27.957535 -27.100964 10.264097 165 165 167
-3.477987 -3.255397 2.690688 190 190 192
-7.093303 -6.521903 3.812931 190 190 192
-14.323936 -13.054914 6.057417 190 190 192
-28.785200 -26.120937 10.546391 190 190 192
-3.583499 -3.121564 2.726806 179 184 190
-7.304328 -6.254236 3.885167 179 184 190
-14.745985 -12.519580 6.201890 179 184 190
-29.629299 -25.050268 10.835335 179 184 190
-3.690442 -2.975504 2.763566 193 192 197
-7.518213 -5.962116 3.958688 193 192 197
-15.173755 -11.935341 6.348931 193 192 197
-30.484838 -23.881790 11.129418 193 192 197
-3.798018 -2.816351 2.800724 197 201 204
-7.733365 -5.643811 4.033003 197 201 204
-15.604059 -11.298731 6.497562 197 201 204
-31.345448 -22.608570 11.426681 197 201 204
-3.905240 -2.643310 2.837971 197 200 207
-7.947808 -5.297729 4.107497 197 200 207
-16.032946 -10.606566 6.646550 197 200 207
-32.203220 -21.224241 11.724656 197 200 207
-4.010914 -2.455706 2.874931 200 203 208
-8.159157 -4.922521 4.181417 200 203 208
-16.455643 -9.856150 6.794391 200 203 208
-33.048615 -19.723408 12.020337 200 203 208
-4.113636 -2.253051 2.911156 195 198 205
-8.364602 -4.517210 4.253869 195 198 205
-16.866533 -9.045528 6.939293 195 198 205
-33.870396 -18.102165 12.310142 195 198 205
-4.211805 -2.035110 2.946133 184 182 185
-8.560939 -4.081327 4.323821 184 182 185
-17.259207 -8.173763 7.079198 184 182 185
-34.655743 -16.358635 12.589952 184 182 185
-4.303645 -1.801979 2.979283 157 157 159
-8.744619 -3.615066 4.390122 157 157 159
-17.626568 -7.241241 7.211801 157 157 159
-35.390465 -14.493590 12.855157 157 157 159
-4.387259 -1.554158 3.009987 181 186 192
-8.911847 -3.119425 4.451530 181 186 192
-17.961023 -6.249958 7.334616 181 186 192
-36.059376 -12.511024 13.100787 181 186 192
-4.460703 -1.292610 3.037601 168 174 186
-9.058735 -2.596329 4.506757 168 174 186
-18.254799 -5.203766 7.445069 168 174 186
-36.646927 -10.418640 13.321694 168 174 186
-4.522082 -1.018799 3.061489 207 208 212
-9.181493 -2.048706 4.554533 207 208 212
-18.500315 -4.108521 7.540623 207 208 212
-37.137959 -8.228149 13.512801 207 208 212
-4.569662 -0.734694 3.081062 219 215 216
-9.276653 -1.480496 4.593680 219 215 216
-18.690636 -2.972100 7.618916 219 215 216
-37.518600 -5.955309 13.669388 219 215 216
-4.601993 -0.442733 3.095815 146 146 148
-9.341314 -0.896575 4.623185 146 146 148
-18.819958 -1.804258 7.677926 146 146 148
-37.777245 -3.619624 13.787408 146 146 148
-4.618013 -0.145740 3.105362 137 137 139
-9.373356 -0.302588 4.642280 137 137 139
-18.884041 -0.616284 7.716115 137 137 139
-37.905411 -1.243676 13.863787 137 137 139
-4.617147 0.153203 3.109472 161 159 160
-9.371623 0.295297 4.650499 161 159 160
-18.880575 0.579486 7.732554 161 159 160
-37.898479 1.147864 13.896664 161 159 160
-4.599346 0.450906 3.108082 147 147 147
-9.336021 0.890704 4.647719 147 147 147
-18.809372 1.770300 7.726995 147 147 147
-37.756073 3.529492 13.885545 147 147 147
-4.565101 0.744244 3.101305 149 149 147
-9.267531 1.477379 4.634167 149 149 147
-18.672392 2.943650 7.699889 149 149 147
-37.482113 5.876191 13.831333 149 149 147
-4.515397 1.030312 3.089418 155 154 150
-9.168122 2.049515 4.610392 155 154 150
-18.473574 4.087922 7.652339 155 154 150
-37.084476 8.164735 13.736234 155 154 150
-4.451635 1.306565 3.072837 142 142 142
-9.040600 2.602022 4.577229 142 142 142
-18.218529 5.192935 7.586014 142 142 142
-36.574387 10.374763 13.603584 142 142 142
-4.375524 1.570909 3.052083 146 146 144
-8.888376 3.130709 4.535721 146 146 144
-17.914082 6.250309 7.502998 146 146 144
-35.965492 12.489510 13.437551 146 146 144
-4.288957 1.821751 3.027746 137 137 135
-8.715243 3.632395 4.487049 137 137 135
-17.567816 7.253681 7.405653 137 137 135
-35.272961 14.496253 13.242862 137 137 135
-4.193902 2.058009 3.000448 105 106 108
-8.525133 4.104910 4.432452 105 106 108
-17.187595 8.198711 7.296461 105 106 108
-34.512520 16.386314 13.024477 105 106 108
-4.092293 2.279076 2.970806 84 85 79
-8.321915 4.547044 4.373168 84 85 79
-16.781158 9.082980 7.177891 84 85 79
-33.699646 18.154852 12.787337 84 85 79
-3.985955 2.484768 2.939407 39 44 36
-8.109239 4.958427 4.310369 39 44 36
-16.355806 9.905746 7.052295 39 44 36
-32.848942 19.800383 12.536145 39 44 36
-3.876544 2.675251 2.906790 34 42 33
-7.890417 5.339393 4.245135 34 42 33
-15.918163 10.667677 6.921826 34 42 33
-31.973656 21.324245 12.275208 34 42 33
-3.765518 2.850966 2.873433 45 51 37
-7.668365 5.690824 4.178422 45 51 37
-15.474058 11.370539 6.788400 45 51 37
-31.085445 22.729969 12.008356 45 51 37
-3.654120 3.012558 2.839749 67 72 66
-7.445569 6.014008 4.111053 67 72 66
-15.028467 12.016907 6.653662 67 72 66
-30.194263 24.022705 11.738880 67 72 66
-3.543383 3.160809 2.806082 58 60 57
-7.224094 6.310509 4.043720 58 60 57
-14.585518 12.609910 6.518996 58 60 57
-29.308365 25.208712 11.469548 58 60 57
-3.434141 3.296581 2.772717 57 58 50
-7.005611 6.582053 3.976989 57 58 50
-14.148551 13.152998 6.385533 57 58 50
-28.434431 26.294888 11.202621 57 58 50
-3.303210 -3.516510 2.416145 165 166 168
-6.743750 -7.044129 3.263846 165 166 168
-13.624828 -14.099366 4.959248 165 166 168
-27.386986 -28.209841 8.350051 165 166 168
-3.406828 -3.405192 2.444709 178 178 180
-6.950984 -6.821493 3.320974 178 178 180
-14.039298 -13.654095 5.073503 178 178 180
-28.215925 -27.319298 8.578564 178 178 180
-3.513211 -3.283322 2.474141 178 176 177
-7.163751 -6.577752 3.379838 178 176 177
-14.464830 -13.166612 5.191231 178 176 177
-29.066990 -26.344332 8.814018 178 176 177
-3.621890 -3.149965 2.504332 160 160 162
-7.381109 -6.311038 3.440219 160 160 162
-14.899548 -12.633184 5.311995 160 160 162
-29.936424 -25.277477 9.055545 160 160 162
-3.732239 -3.004179 2.535131 196 196 198
-7.601807 -6.019467 3.501819 196 196 198
-15.340942 -12.050043 5.435193 196 196 198
-30.819214 -24.111195 9.301941 196 196 198
-3.843448 -2.845045 2.566341 193 192 197
-7.824226 -5.701199 3.564238 193 192 197
-15.785781 -11.413506 5.560032 193 192 197
-31.708891 -22.838120 9.551620 193 192 197
-3.954505 -2.671708 2.597710 239 235 234
-8.046340 -5.354524 3.626975 239 235 234
-16.230009 -10.720156 5.685505 239 235 234
-32.597347 -21.451420 9.802567 239 235 234
-4.064177 -2.483431 2.628925 238 236 237
-8.265682 -4.977971 3.689405 238 236 237
-16.668694 -9.967051 5.810366 238 236 237
-33.474716 -19.945210 10.052288 238 236 237
-4.171000 -2.279667 2.659614 184 191 201
-8.479329 -4.570442 3.750783 184 191 201
-17.095987 -9.151993 5.933122 184 191 201
-34.329304 -18.315094 10.297799 184 191 201
-4.273293 -2.060123 2.689342 184 191 201
-8.683916 -4.131355 3.810239 184 191 201
-17.505161 -8.273819 6.052034 184 191 201
-35.147652 -16.558746 10.535625 184 191 201
-4.369182 -1.824852 2.717619 170 183 192
-8.875692 -3.660813 3.866795 170 183 192
-17.888714 -7.332735 6.165145 170 183 192
-35.914757 -14.676578 10.761847 170 183 192
-4.456652 -1.574327 2.743916 177 185 196
-9.050632 -3.159762 3.919387 177 185 196
-18.238594 -6.330632 6.270329 177 185 196
-36.614517 -12.672373 10.972215 177 185 196
-4.533626 -1.309508 2.767675 205 205 213
-9.204581 -2.630124 3.966906 205 205 213
-18.546492 -5.271356 6.365367 205 205 213
-37.230312 -10.553820 11.162290 205 205 213
-4.598070 -1.031888 2.788346 181 189 200
-9.333468 -2.074885 4.008247 181 189 200
-18.804266 -4.160879 6.448050 181 189 200
-37.745861 -8.332866 11.327657 181 189 200
-4.648114 -0.743505 2.805413 203 206 213
-9.433558 -1.498119 4.042383 203 206 213
-19.004444 -3.007346 6.516321 203 206 213
-38.146217 -6.025800 11.464198 203 206 213
-4.682190 -0.446896 2.818433 202 200 201
-9.501709 -0.904900 4.068422 202 200 201
-19.140747 -1.820909 6.568399 202 200 201
-38.418823 -3.652925 11.568355 202 200 201
-4.699147 -0.145015 2.827064 253 253 253
-9.535624 -0.301138 4.085683 253 253 253
-19.208576 -0.613385 6.602922 253 253 253
-38.554482 -1.237879 11.637400 253 253 253
-4.698358 0.158901 2.831096 178 176 181
-9.534045 0.306694 4.093748 178 176 181
-19.205420 0.602279 6.619051 178 176 181
-38.548168 1.193449 11.669659 178 176 181
-4.679769 0.461503 2.830470 152 152 152
-9.496867 0.911898 4.092496 152 152 152
-19.131063 1.812688 6.616548 152 152 152
-38.399456 3.614267 11.664652 152 152 152
-4.643911 0.759509 2.825279 152 150 151
-9.425152 1.507909 4.082113 152 150 151
-18.987633 3.004709 6.595782 152 150 151
-38.112595 5.998310 11.623119 152 150 151
-4.591854 1.049878 2.815758 151 151 151
-9.321036 2.088648 4.063071 151 151 151
-18.779402 4.166187 6.557697 151 151 151
-37.696133 8.321265 11.546950 151 151 151
-4.525108 1.329959 2.802264 168 167 163
-9.187545 2.648809 4.036084 168 167 163
-18.512419 5.286510 6.503723 168 167 163
-37.162167 10.561912 11.439002 168 167 163
-4.445518 1.597584 2.785248 167 166 162
-9.028364 3.184059 4.002052 167 166 162
-18.194057 6.357010 6.435660 167 166 162
-36.525444 12.702912 11.302876 167 166 162
-4.355116 1.851127 2.765218 150 149 145
-8.847562 3.691145 3.961992 150 149 145
-17.832453 7.371182 6.355539 150 149 145
-35.802235 14.731256 11.142634 150 149 145
-4.256006 2.089500 2.742706 50 53 46
-8.649342 4.167892 3.916967 50 53 46
-17.436012 8.324676 6.265490 50 53 46
-35.009354 16.638243 10.962536 50 53 46
-4.150246 2.312124 2.718240 28 30 25
-8.437820 4.613139 3.868036 28 30 25
-17.012970 9.215169 6.167628 28 30 25
-34.163269 18.419230 10.766812 28 30 25
-4.039763 2.518856 2.692322 45 50 43
-8.216856 5.026603 3.816200 45 50 43
-16.571041 10.042098 6.063956 45 50 43
-33.279411 20.073088 10.559468 45 50 43
-3.926300 2.709921 2.665409 36 36 26
-7.989928 5.408734 3.762373 36 36 26
-16.117186 10.806359 5.956301 36 36 26
-32.371700 21.601610 10.344158 36 36 26
-3.811376 2.885824 2.637903 53 56 47
-7.760080 5.760540 3.707361 53 56 47
-15.657490 11.509972 5.846278 53 56 47
-31.452309 23.008835 10.124111 53 56 47
-3.696279 3.047274 2.610150 35 39 32
-7.529886 6.083439 3.651856 35 39 32
-15.197102 12.155769 5.735268 35 39 32
-30.531532 24.300430 9.902091 35 39 32
-3.582070 3.195113 2.582439 29 39 30
-7.301469 6.379117 3.596435 29 39 30
-14.740268 12.747126 5.624425 29 39 30
-29.617865 25.483143 9.680407 29 39 30
-3.469599 3.330260 2.555005 17 27 16
-7.076526 6.649412 3.541565 17 27 16
-14.290381 13.287716 5.514686 17 27 16
-28.718092 26.564323 9.460928 17 27 16
-3.327130 -3.537160 2.206656 184 184 186
-6.791589 -7.085429 2.844867 184 184 186
-13.720508 -14.181967 4.121289 184 184 186
-27.578344 -28.375042 6.674135 184 184 186
-3.432934 -3.426454 2.229040 175 175 177
-7.003198 -6.864016 2.889635 175 175 177
-14.143724 -13.739141 4.210826 175 175 177
-28.424778 -27.489389 6.853207 175 175 177
-3.541702 -3.305106 2.252150 181 181 181
-7.220733 -6.621320 2.935856 181 181 181
-14.578794 -13.253748 4.303268 181 181 181
-29.294918 -26.518604 7.038092 181 181 181
-3.652969 -3.172149 2.275908 187 187 189
-7.443268 -6.355407 2.983373 187 187 189
-15.023865 -12.721923 4.398301 187 187 189
-30.185059 -25.454954 7.228158 187 187 189
-3.766109 -3.026604 2.300203 198 196 197
-7.669548 -6.064317 3.031962 198 196 197
-15.476425 -12.139743 4.495480 198 196 197
-31.090179 -24.290594 7.422516 198 196 197
-3.880303 -2.867508 2.324885 231 227 224
-7.897936 -5.746124 3.081326 231 227 224
-15.933201 -11.503356 4.594209 231 227 224
-32.003731 -23.017820 7.619973 231 227 224
-3.994519 -2.693956 2.349763 208 206 211
-8.126367 -5.399020 3.131081 208 206 211
-16.390062 -10.809149 4.693718 208 206 211
-32.917454 -21.629406 7.818993 208 206 211
-4.107491 -2.505163 2.374596 191 191 191
-8.352312 -5.021434 3.180747 191 191 191
-16.841953 -10.053976 4.793050 191 191 191
-33.821236 -20.119061 8.017655 191 191 191
-4.217710 -2.300527 2.399093 224 220 219
-8.572749 -4.612163 3.229742 224 220 219
-17.282827 -9.235434 4.891040 224 220 219
-34.702984 -18.481976 8.213635 224 220 219
-4.323428 -2.079710 2.422915 239 235 232
-8.784185 -4.170529 3.277385 239 235 232
-17.705700 -8.352166 4.986325 239 235 232
-35.548729 -16.715441 8.404205 239 235 232
-4.422689 -1.842726 2.445673 233 229 228
-8.982708 -3.696560 3.322901 233 229 228
-18.102745 -7.404229 5.077357 233 229 228
-36.342819 -14.819566 8.586269 233 229 228
-4.513379 -1.590022 2.466943 240 239 234
-9.164086 -3.191152 3.365441 240 239 234
-18.465502 -6.393413 5.162438 240 239 234
-37.068333 -12.797934 8.756433 240 239 234
-4.593307 -1.322557 2.486280 247 243 240
-9.323942 -2.656222 3.404117 247 243 240
-18.785213 -5.323552 5.239789 247 243 240
-37.707756 -10.658213 8.911134 247 243 240
-4.660321 -1.041848 2.503239 252 251 247
-9.457971 -2.094804 3.438035 252 251 247
-19.053270 -4.200716 5.307625 252 251 247
-38.243870 -8.412540 9.046804 252 251 247
-4.712436 -0.749983 2.517399 220 220 220
-9.562201 -1.511075 3.466354 220 220 220
-19.261730 -3.033258 5.364264 220 220 220
-38.660789 -6.077625 9.160084 220 220 220
-4.747981 -0.449586 2.528395 253 252 250
-9.633291 -0.910281 3.488346 253 252 250
-19.403912 -1.831670 5.408248 253 252 250
-38.945152 -3.674448 9.248053 253 252 250
-4.765729 -0.143720 2.535944 187 197 207
-9.668787 -0.298548 3.503444 187 197 207
-19.474903 -0.608204 5.438445 187 197 207
-39.087135 -1.227517 9.308445 187 197 207
-4.765005 0.164251 2.539869 192 201 210
-9.667339 0.317394 3.511293 192 201 210
-19.472008 0.623680 5.454142 192 201 210
-39.081345 1.236251 9.339838 192 201 210
-4.745755 0.470843 2.540111 184 184 184
-9.628839 0.930577 3.511778 184 184 184
-19.395008 1.850045 5.455111 184 184 184
-38.927345 3.688982 9.341778 184 184 184
-4.708543 0.772641 2.536738 240 241 236
-9.554416 1.534173 3.505033 240 241 236
-19.246161 3.057238 5.441621 240 241 236
-38.629650 6.103368 9.314796 240 241 236
-4.654508 1.066493 2.529934 236 231 227
-9.446345 2.121878 3.491424 236 231 227
-19.030020 4.232647 5.414403 236 231 227
-38.197369 8.454186 9.260363 236 231 227
-4.585261 1.349658 2.519980 218 215 208
-9.307851 2.688208 3.471517 218 215 208
-18.753031 5.365308 5.374589 218 215 208
-37.643391 10.719508 9.180735 218 215 208
-4.502759 1.619912 2.507236 160 161 156
-9.142848 3.228715 3.446027 160 161 156
-18.423025 6.446321 5.323609 160 161 156
-36.983379 12.881534 9.078775 160 161 156
-4.409156 1.875598 2.492103 46 47 41
-8.955642 3.740088 3.415762 46 47 41
-18.048613 7.469069 5.263079 46 47 41
-36.234554 14.927029 8.957714 46 47 41
-4.306670 2.115632 2.475007 38 44 34
-8.750669 4.220156 3.381570 38 44 34
-17.638666 8.429203 5.194695 38 44 34
-35.414661 16.847298 8.820948 38 44 34
-4.197460 2.339455 2.456367 39 45 35
-8.532249 4.667801 3.344291 39 45 35
-17.201828 9.324493 5.120138 39 45 35
-34.540985 18.637878 8.671831 39 45 35
-4.083544 2.546964 2.436582 28 30 21
-8.304417 5.082820 3.304720 28 30 21
-16.746162 10.154531 5.040996 28 30 21
-33.629654 20.297955 8.513546 28 30 21
-3.966732 2.738436 2.416012 29 30 16
-8.070793 5.465763 3.263580 29 30 16
-16.278915 10.920417 4.958715 29 30 16
-32.695160 21.829725 8.348988 29 30 16
-3.848596 2.914425 2.394976 23 34 20
-7.834520 5.817741 3.221507 23 34 20
-15.806370 11.624374 4.874570 23 34 20
-31.750069 23.237640 8.180696 23 34 20
-3.730459 3.075697 2.373745 30 32 27
-7.598248 6.140285 3.179046 30 32 27
-15.333825 12.269462 4.789647 30 32 27
-30.804979 24.527815 8.010850 30 32 27
-3.613405 3.223145 2.352546 36 39 32
-7.364140 6.435182 3.136647 36 39 32
-14.865609 12.859255 4.704850 36 39 32
-29.868547 25.707401 7.841256 36 39 32
-3.498293 3.357735 2.331560 32 40 27
-7.133915 6.704361 3.094676 32 40 27
-14.405159 13.397614 4.620909 32 40 27
-28.947647 26.784119 7.673374 32 40 27
-3.344994 -3.551564 1.993637 130 132 131
-6.827317 -7.114236 2.418831 130 132 131
-13.791963 -14.239581 3.269217 130 132 131
-27.721254 -28.490271 4.969990 130 132 131
-3.452426 -3.441300 2.009500 77 76 72
-7.042181 -6.893709 2.450556 77 76 72
-14.221692 -13.798527 3.332668 77 76 72
-28.580713 -27.608162 5.096891 77 76 72
-3.562972 -3.320331 2.025916 79 79 77
-7.263274 -6.651771 2.483388 79 79 77
-14.663877 -13.314651 3.398332 79 79 77
-29.465082 -26.640409 5.228220 79 79 77
-3.676172 -3.187666 2.042836 30 31 33
-7.489674 -6.386440 2.517228 30 31 33
-15.116677 -12.783989 3.466012 30 31 33
-30.370684 -25.579086 5.363579 30 31 33
-3.791399 -3.042296 2.060188 97 94 89
-7.720128 -6.095701 2.551931 97 94 89
-15.577585 -12.202511 3.535418 97 94 89
-31.292500 -24.416130 5.502392 97 94 89
-3.907830 -2.883226 2.077872 92 91 86
-7.952989 -5.777561 2.587300 92 91 86
-16.043306 -11.566231 3.606157 92 91 86
-32.223942 -23.143570 5.643869 92 91 86
-4.024417 -2.709517 2.095761 128 127 122
-8.186163 -5.430143 2.623077 128 127 122
-16.509655 -10.871395 3.677710 128 127 122
-33.156639 -21.753899 5.786975 128 127 122
-4.139872 -2.520345 2.113689 188 187 185
-8.417073 -5.051798 2.658934 188 187 185
-16.971476 -10.114704 3.749423 188 187 185
-34.080280 -20.240517 5.930402 188 187 185
-4.252650 -2.315068 2.131457 175 175 175
-8.642630 -4.641245 2.694470 175 175 175
-17.422588 -9.293598 3.820496 175 175 175
-34.982506 -18.598305 6.072548 175 175 175
-4.360955 -2.093313 2.148828 173 173 173
-8.859240 -4.197735 2.729211 173 173 173
-17.855808 -8.406579 3.889978 173 173 173
-35.848946 -16.824266 6.211513 173 173 173
-4.462769 -1.855063 2.165528 220 216 213
-9.062866 -3.721234 2.762612 220 216 213
-18.263062 -7.453577 3.956781 220 216 213
-36.663452 -14.918262 6.345117 220 216 213
-4.555898 -1.600746 2.181258 248 243 237
-9.249125 -3.212601 2.794072 248 243 237
-18.635580 -6.436311 4.019701 248 243 237
-37.408489 -12.883730 6.470957 248 243 237
-4.638070 -1.331319 2.195699 229 226 221
-9.413469 -2.673747 2.822954 229 226 221
-18.964268 -5.358603 4.077464 229 226 221
-38.065865 -10.728313 6.586483 229 226 221
-4.707040 -1.048316 2.208529 216 212 209
-9.551409 -2.107740 2.848613 216 212 209
-19.240147 -4.226589 4.128781 216 212 209
-38.617622 -8.464287 6.689118 216 212 209
-4.760734 -0.753865 2.219441 208 207 203
-9.658796 -1.518839 2.870437 208 207 203
-19.454922 -3.048786 4.172431 208 207 203
-39.047173 -6.108680 6.776417 208 207 203
-4.797399 -0.450651 2.228166 237 233 230
-9.732127 -0.912411 2.887887 237 233 230
-19.601583 -1.835931 4.207331 237 233 230
-39.340496 -3.682970 6.846217 237 233 230
-4.815751 -0.141823 2.234491 254 250 249
-9.768830 -0.294754 2.900538 254 250 249
-19.674990 -0.600616 4.232632 254 250 249
-39.487309 -1.212341 6.896819 254 250 249
-4.815079 0.169160 2.238278 255 254 252
-9.767487 0.327211 2.908112 255 254 252
-19.672302 0.643314 4.247779 255 254 252
-39.481934 1.275519 6.927114 255 254 252
-4.795324 0.478708 2.239473 254 254 252
-9.727978 0.946309 2.910502 254 254 252
-19.593285 1.881509 4.252561 254 254 252
-39.323898 3.751909 6.936677 254 254 252
-4.757081 0.783312 2.238114 252 251 249
-9.651490 1.555515 2.907784 252 251 249
-19.440310 3.099921 4.247123 252 251 249
-39.017948 6.188734 6.925801 252 251 249
-4.701541 1.079730 2.234320 248 252 251
-9.540411 2.148352 2.900195 248 252 251
-19.218151 4.285596 4.231946 248 252 251
-38.573631 8.560084 6.895449 248 252 251
-4.630392 1.365158 2.228284 91 92 86
-9.398113 2.719207 2.888123 91 92 86
-18.933556 5.427306 4.207802 91 92 86
-38.004440 10.843503 6.847159 91 92 86
-4.545679 1.637325 2.220253 47 52 45
-9.228687 3.263542 2.872062 47 52 45
-18.594704 6.515976 4.175679 47 52 45
-37.326736 13.020844 6.782914 47 52 45
-4.449648 1.894560 2.210510 36 39 32
-9.036626 3.778013 2.852576 36 39 32
-18.210581 7.544917 4.136707 36 39 32
-36.558491 15.078725 6.704970 36 39 32
-4.344605 2.135778 2.199352 35 38 29
-8.826540 4.260447 2.830259 35 38 29
-17.790409 8.509786 4.092074 35 38 29
-35.718147 17.008463 6.615704 35 38 29
-4.232790 2.360439 2.187074 21 27 15
-8.602910 4.709769 2.805703 21 27 15
-17.343149 9.408429 4.042963 21 27 15
-34.823627 18.805750 6.517481 21 27 15
-4.116286 2.568472 2.173956 20 21 14
-8.369902 5.125836 2.779468 20 21 14
-16.877132 10.240564 3.990492 20 21 14
-33.891594 20.470020 6.412540 20 21 14
-3.996954 2.760192 2.160254 18 20 15
-8.131238 5.509275 2.752064 18 20 15
-16.399805 11.007442 3.935683 18 20 15
-32.936939 22.003775 6.302922 18 20 15
-3.876407 2.936195 2.146192 15 26 18
-7.890142 5.861281 2.723939 15 26 18
-15.917614 11.711454 3.879435 15 26 18
-31.972557 23.411800 6.190425 15 26 18
-3.755992 3.097287 2.131962 18 26 15
-7.649312 6.183465 2.695479 18 26 15
-15.435954 12.355823 3.822514 18 26 15
-31.009237 24.700537 6.076583 18 26 15
-3.636809 3.244401 2.117723 15 18 11
-7.410946 6.477693 2.667002 15 18 11
-14.959222 12.944277 3.765560 15 18 11
-30.055773 25.877445 5.962677 15 18 11
-3.519723 3.378536 2.103606 9 15 4
-7.176776 6.745964 2.638768 9 15 4
-14.490881 13.480819 3.709091 9 15 4
-29.119091 26.950529 5.849738 9 15 4
-3.356527 -3.559462 1.778206 41 45 44
-6.850383 -7.130033 1.987967 41 45 44
-13.838095 -14.271173 2.407490 41 45 44
-27.813519 -28.553455 3.246536 41 45 44
-3.464984 -3.449447 1.787308 74 75 67
-7.067297 -6.910002 2.006171 74 75 67
-14.271922 -13.831112 2.443899 74 75 67
-28.681173 -27.673332 3.319353 74 75 67
-3.576650 -3.328687 1.796767 65 66 60
-7.290628 -6.668482 2.025090 65 66 60
-14.718586 -13.348072 2.481735 65 66 60
-29.574501 -26.707253 3.395025 65 66 60
-3.691067 -3.196177 1.806562 35 39 38
-7.519464 -6.403463 2.044680 35 39 38
-15.176257 -12.818034 2.520916 35 39 38
-30.489843 -25.647177 3.473387 35 39 38
-3.807610 -3.050892 1.816660 89 85 82
-7.752548 -6.112893 2.064877 89 85 82
-15.642426 -12.236894 2.561309 89 85 82
-31.422180 -24.484896 3.554173 89 85 82
-3.925450 -2.891816 1.827014 84 85 79
-7.988229 -5.794740 2.085583 84 85 79
-16.113787 -11.600588 2.602722 84 85 79
-32.364902 -23.212284 3.637001 84 85 79
-4.043534 -2.717988 1.837558 49 51 50
-8.224397 -5.447084 2.106671 49 51 50
-16.586123 -10.905276 2.644898 49 51 50
-33.309574 -21.821661 3.721353 49 51 50
-4.160557 -2.528558 1.848208 88 87 83
-8.458444 -5.068225 2.127973 88 87 83
-17.054216 -10.147559 2.687501 88 87 83
-34.245762 -20.306227 3.806558 88 87 83
-4.274952 -2.322864 1.858861 88 90 87
-8.687234 -4.656837 2.149277 88 90 87
-17.511797 -9.324782 2.730110 88 90 87
-35.160923 -18.660673 3.891775 88 90 87
-4.384894 -2.100508 1.869388 40 45 39
-8.907118 -4.212125 2.170331 40 45 39
-17.951565 -8.435359 2.772217 40 45 39
-36.040459 -16.881826 3.975990 40 45 39
-4.488323 -1.861455 1.879641 145 149 150
-9.113976 -3.734018 2.190838 145 149 150
-18.365280 -7.479145 2.813231 145 149 150
-36.867889 -14.969398 4.058019 145 149 150
-4.583001 -1.606122 1.889455 71 76 70
-9.303331 -3.223352 2.210466 71 76 70
-18.743992 -6.457812 2.852489 71 76 70
-37.625313 -12.926732 4.136533 71 76 70
-4.666597 -1.335462 1.898651 153 157 158
-9.470524 -2.682032 2.228858 153 157 158
-19.078377 -5.375173 2.889272 153 157 158
-38.294083 -10.761455 4.210100 153 157 158
-4.736810 -1.051021 1.907045 182 183 178
-9.610949 -2.113151 2.245646 182 183 178
-19.359226 -4.237410 2.922847 182 183 178
-38.855782 -8.485928 4.277249 182 183 178
-4.791507 -0.754953 1.914457 242 239 234
-9.720343 -1.521015 2.260470 242 239 234
-19.578014 -3.053138 2.952497 242 239 234
-39.293358 -6.117385 4.336549 242 239 234
-4.828886 -0.449983 1.920727 200 200 192
-9.795101 -0.911075 2.273010 200 200 192
-19.727531 -1.833258 2.977575 200 200 192
-39.592392 -3.677624 4.386705 200 200 192
-4.847621 -0.139311 1.925721 220 222 219
-9.832571 -0.289730 2.282997 220 222 219
-19.802471 -0.590568 2.997550 220 222 219
-39.742271 -1.192245 4.426655 220 222 219
-4.846983 0.173541 1.929344 244 243 241
-9.831296 0.335973 2.290245 244 243 241
-19.799921 0.660838 3.012045 244 243 241
-39.737171 1.310567 4.455646 244 243 241
-4.826909 0.484919 1.931551 243 239 236
-9.791146 0.958730 2.294658 243 239 236
-19.719622 1.906352 3.020872 243 239 236
-39.576572 3.801596 4.473299 243 239 236
-4.788009 0.791251 1.932343 249 244 240
-9.713347 1.571393 2.296241 249 244 240
-19.564024 3.131679 3.024038 249 244 240
-39.265377 6.252249 4.479631 249 244 240
-4.731513 1.089243 1.931769 93 96 89
-9.600354 2.167378 2.295094 93 96 89
-19.338037 4.323647 3.021744 93 96 89
-38.813404 8.636187 4.475043 93 96 89
-4.659156 1.376048 1.929922 29 34 28
-9.455642 2.740988 2.291399 29 34 28
-19.048613 5.470868 3.014355 29 34 28
-38.234554 10.930627 4.460265 29 34 28
-4.573040 1.649372 1.926926 31 37 27
-9.283410 3.287636 2.285407 31 37 27
-18.704149 6.564164 3.002369 31 37 27
-37.545628 13.117220 4.436295 31 37 27
-4.475471 1.907531 1.922926 32 35 28
-9.088271 3.803954 2.277408 32 35 28
-18.313871 7.596799 2.986372 32 35 28
-36.765072 15.182489 4.404301 32 35 28
-4.368809 2.149442 1.918082 15 23 12
-8.874947 4.287776 2.267719 15 23 12
-17.887222 8.564443 2.966994 15 23 12
-35.911774 17.117777 4.365543 15 23 12
-4.255346 2.374580 1.912550 34 35 29
-8.648022 4.738051 2.256657 34 35 29
-17.433372 9.464993 2.944869 34 35 29
-35.004074 18.918879 4.321294 34 35 29
-4.137206 2.582894 1.906485 24 27 17
-8.411740 5.154679 2.244525 24 27 17
-16.960810 10.298250 2.920607 24 27 17
-34.058949 20.585392 4.272769 24 27 17
-4.016283 2.774722 1.900026 18 23 17
-8.169894 5.538335 2.231607 18 23 17
-16.477118 11.065562 2.894770 18 23 17
-33.091564 22.120016 4.221096 18 23 17
-3.894213 2.950690 1.893298 22 20 23
-7.925755 5.890271 2.218151 22 20 23
-15.988838 11.769434 2.867858 22 20 23
-32.115005 23.527760 4.167272 22 20 23
-3.772362 3.111627 1.886409 14 19 13
-7.682052 6.212146 2.204374 14 19 13
-15.501433 12.413183 2.840304 14 19 13
-31.140196 24.815258 4.112164 14 19 13
-3.651836 3.258492 1.879451 7 17 9
-7.441002 6.505876 2.190458 7 17 9
-15.019333 13.000644 2.812472 7 17 9
-30.175995 25.990179 4.056499 7 17 9
-3.533509 3.392307 1.872498 15 21 11
-7.204346 6.773505 2.176552 15 21 11
-14.546021 13.535902 2.784660 15 21 11
-29.229372 27.060696 4.000876 15 21 11
-3.361553 -3.560695 1.561541 59 61 56
-6.860435 -7.132498 1.554637 59 61 56
-13.858198 -14.276104 1.540831 59 61 56
-27.853725 -28.563316 1.513217 59 61 56
-3.470403 -3.450719 1.563757 48 49 41
-7.078135 -6.912547 1.559069 48 49 41
-14.293599 -13.836203 1.549693 48 49 41
-28.724527 -27.683514 1.530943 48 49 41
-3.582497 -3.329983 1.566121 34 31 27
-7.302322 -6.671075 1.563797 34 31 27
-14.741974 -13.353258 1.559150 34 31 27
-29.621277 -26.717625 1.549855 34 31 27
-3.697377 -3.197478 1.568640 39 40 34
-7.532084 -6.406064 1.568835 39 40 34
-15.201497 -12.823236 1.569226 39 40 34
-30.540323 -25.657579 1.570008 39 40 34
-3.814419 -3.052171 1.571320 30 34 33
-7.766167 -6.115450 1.574195 30 34 33
-15.669662 -12.242009 1.579946 30 34 33
-31.476654 -24.495127 1.591447 30 34 33
-3.932792 -2.893040 1.574164 23 32 29
-8.002913 -5.797188 1.579883 23 32 29
-16.143156 -11.605485 1.591322 23 32 29
-32.423641 -23.222078 1.614200 23 32 29
-4.051440 -2.719118 1.577173 30 32 31
-8.240210 -5.449344 1.585902 30 32 31
-16.617748 -10.909796 1.603359 30 32 31
-33.372826 -21.830700 1.638274 30 32 31
-4.169054 -2.529546 1.580345 31 35 38
-8.475436 -5.070200 1.592245 31 35 38
-17.088202 -10.151508 1.616045 31 35 38
-34.313732 -20.314125 1.663646 31 35 38
-4.284057 -2.323654 1.583672 35 35 35
-8.705442 -4.658416 1.598899 35 35 35
-17.548214 -9.327940 1.629353 35 35 35
-35.233757 -18.666988 1.690262 35 35 35
-4.394613 -2.101037 1.587141 49 54 48
-8.926555 -4.213182 1.605838 49 54 48
-17.990438 -8.437472 1.643232 49 54 48
-36.118206 -16.886053 1.718020 49 54 48
-4.498646 -1.861653 1.590735 50 53 50
-9.134622 -3.734415 1.613026 50 53 50
-18.406572 -7.479938 1.657607 50 53 50
-36.950474 -14.970984 1.746770 50 53 50
-4.593903 -1.605918 1.594427 74 76 75
-9.325134 -3.222944 1.620410 74 76 75
-18.787598 -6.456996 1.672376 74 76 75
-37.712524 -12.925100 1.776309 74 76 75
-4.678030 -1.334784 1.598186 64 69 63
-9.493390 -2.680676 1.627928 64 69 63
-19.124109 -5.372460 1.687411 64 69 63
-38.385548 -10.756028 1.806378 64 69 63
-4.748706 -1.049802 1.601972 73 71 72
-9.634742 -2.110713 1.635501 73 71 72
-19.406813 -4.232534 1.702557 73 71 72
-38.950954 -8.476177 1.836669 73 71 72
-4.803778 -0.753136 1.605743 65 73 75
-9.744884 -1.517381 1.643042 65 73 75
-19.627098 -3.045871 1.717639 65 73 75
-39.391525 -6.102850 1.866834 65 73 75
-4.841424 -0.447527 1.609451 64 49 46
-9.820176 -0.906161 1.650457 64 49 46
-19.777681 -1.823431 1.732470 64 49 46
-39.692692 -3.657971 1.896496 64 49 46
-4.860302 -0.136192 1.613048 69 51 47
-9.857933 -0.283491 1.657651 69 51 47
-19.853195 -0.578091 1.746858 69 51 47
-39.843719 -1.167291 1.925272 69 51 47
-4.859676 0.177323 1.616488 38 43 37
-9.856681 0.343538 1.664533 38 43 37
-19.850691 0.675967 1.760621 38 43 37
-39.838711 1.340825 1.952798 38 43 37
-4.839483 0.489342 1.619732 63 65 61
-9.816296 0.967575 1.671019 63 65 61
-19.769920 1.924042 1.773594 63 65 61
-39.677170 3.836975 1.978744 63 65 61
-4.800340 0.796269 1.622744 53 55 52
-9.738008 1.581429 1.677043 53 55 52
-19.613346 3.151750 1.785642 53 55 52
-39.364021 6.292391 2.002840 53 55 52
-4.743487 1.094793 1.625499 34 36 31
-9.624304 2.178478 1.682555 34 36 31
-19.385937 4.345848 1.796665 34 36 31
-38.909203 8.680588 2.024886 34 36 31
-4.670681 1.382054 1.627984 71 72 66
-9.478692 2.753000 1.687524 71 72 66
-19.094713 5.494891 1.806603 71 72 66
-38.326756 10.978673 2.044762 71 72 66
-4.584043 1.655748 1.630191 74 78 77
-9.305414 3.300387 1.691938 74 78 77
-18.748158 6.589666 1.815433 74 78 77
-37.633644 13.168224 2.062421 74 78 77
-4.485898 1.914189 1.632125 108 110 109
-9.109126 3.817270 1.695805 108 110 109
-18.355581 7.623431 1.823166 108 110 109
-36.848492 15.235754 2.077887 108 110 109
-4.378632 2.156296 1.633794 35 39 42
-8.894592 4.301485 1.699144 35 39 42
-17.926514 8.591861 1.829843 35 39 42
-35.990356 17.172613 2.091242 35 39 42
-4.264551 2.381550 1.635215 26 30 29
-8.666430 4.751992 1.701986 26 30 29
-17.470190 9.492876 1.835527 26 30 29
-35.077709 18.974644 2.102611 26 30 29
-4.145797 2.589910 1.636407 18 20 17
-8.428923 5.168711 1.704370 18 20 17
-16.995174 10.326313 1.840296 18 20 17
-34.127678 20.641518 2.112148 18 20 17
-4.024276 2.781720 1.637392 89 94 88
-8.185881 5.552332 1.706339 89 94 88
-16.509090 11.093556 1.844234 89 94 88
-33.155510 22.176004 2.120025 89 94 88
-3.901632 2.957619 1.638191 111 114 105
-7.940594 5.904130 1.707938 111 114 105
-16.018517 11.797152 1.847432 111 114 105
-32.174362 23.583195 2.126419 111 114 105
-3.779238 3.118446 1.638827 76 78 73
-7.695806 6.225784 1.709210 76 78 73
-15.528941 12.440460 1.849976 76 78 73
-31.195211 24.869812 2.131507 76 78 73
-3.658204 3.265168 1.639320 89 93 92
-7.453738 6.519228 1.710197 89 93 92
-15.044805 13.027347 1.851949 89 93 92
-30.226938 26.043585 2.135455 89 93 92
-3.539404 3.398815 1.639691 13 12 8
-7.216136 6.786522 1.710938 13 12 8
-14.569602 13.561935 1.853431 13 12 8
-29.276533 27.112762 2.138418 13 12 8
-3.360005 -3.555215 1.344858 18 28 20
-6.857338 -7.121539 1.121272 18 28 20
-13.852006 -14.254187 0.674100 18 28 20
-27.841341 -28.519482 -0.220243 18 28 20
-3.468605 -3.445065 1.340181 30 30 28
-7.074539 -6.901238 1.111918 30 30 28
-14.286407 -13.813585 0.655391 30 30 28
-28.710144 -27.638279 -0.257662 30 30 28
-3.580421 -3.324164 1.335442 25 15 14
-7.298172 -6.659436 1.102440 25 15 14
-14.733672 -13.329980 0.636435 25 15 14
-29.604673 -26.671068 -0.295574 25 15 14
-3.694997 -3.191506 1.330676 17 19 14
-7.527323 -6.394121 1.092908 17 19 14
-15.191976 -12.799350 0.617371 17 19 14
-30.521280 -25.609808 -0.333702 17 19 14
-3.811705 -3.046067 1.325927 29 29 29
-7.760738 -6.103241 1.083410 29 29 29
-15.658806 -12.217591 0.598376 29 29 29
-31.454941 -24.446291 -0.371693 29 29 29
-3.929716 -2.886829 1.321250 23 31 28
-7.996760 -5.784767 1.074056 23 31 28
-16.130850 -11.580642 0.579667 23 31 28
-32.399029 -23.172392 -0.409110 23 31 28
-4.047975 -2.712834 1.316711 18 26 15
-8.233278 -5.436776 1.064978 18 26 15
-16.603886 -10.884661 0.561511 18 26 15
-33.345100 -21.780430 -0.445422 18 26 15
-4.165176 -2.523232 1.312389 20 18 19
-8.467682 -5.057573 1.056333 20 18 19
-17.072693 -10.126254 0.544222 20 18 19
-34.282715 -20.263617 -0.480001 20 18 19
-4.279751 -2.317361 1.308374 25 27 24
-8.696831 -4.645830 1.048303 25 27 24
-17.530991 -9.302768 0.528162 25 27 24
-35.199310 -18.616644 -0.512120 25 27 24
-4.389869 -2.094824 1.304768 20 22 21
-8.917067 -4.200757 1.041091 20 22 21
-17.971462 -8.412622 0.513738 20 22 21
-36.080254 -16.836353 -0.540967 20 22 21
-4.493468 -1.855589 1.301682 36 43 33
-9.124266 -3.722286 1.034920 36 43 33
-18.385860 -7.455679 0.501395 36 43 33
-36.909050 -14.922467 -0.565655 36 43 33
-4.588305 -1.600074 1.299231 57 37 38
-9.313938 -3.211256 1.030019 57 37 38
-18.765205 -6.433620 0.491593 57 37 38
-37.667740 -12.878348 -0.585259 57 37 38
-4.672045 -1.329237 1.297531 58 39 28
-9.481420 -2.669582 1.026618 58 39 28
-19.100168 -5.350272 0.484792 58 39 28
-38.337666 -10.711652 -0.598861 58 39 28
-4.742381 -1.044626 1.296689 56 38 36
-9.622091 -2.100360 1.024934 56 38 36
-19.381512 -4.211829 0.481424 56 38 36
-38.900352 -8.434767 -0.605597 56 38 36
-4.797177 -0.748400 1.296797 33 34 36
-9.731684 -1.507908 1.025150 33 34 36
-19.600697 -3.026925 0.481856 33 34 36
-39.338722 -6.064958 -0.604731 33 34 36
-4.834627 -0.443288 1.297924 40 45 41
-9.806582 -0.897684 1.027404 40 45 41
-19.750494 -1.806476 0.486364 40 45 41
-39.638317 -3.624061 -0.595716 40 45 41
-4.853400 -0.132494 1.300108 59 59 57
-9.844129 -0.276097 1.031772 59 59 57
-19.825586 -0.563301 0.495099 59 59 57
-39.788502 -1.137711 -0.578247 59 59 57
-4.852766 0.180454 1.303351 66 65 61
-9.842861 0.349800 1.038259 66 65 61
-19.823051 0.688491 0.508073 66 65 61
-39.783432 1.365874 -0.552298 66 65 61
-4.832662 0.491901 1.307621 69 70 65
-9.802653 0.972694 1.046797 69 70 65
-19.742636 1.934279 0.525150 69 70 65
-39.622601 3.857450 -0.518144 69 70 65
-4.793699 0.798271 1.312846 67 67 65
-9.724728 1.585433 1.057248 67 67 65
-19.586784 3.159757 0.546053 67 67 65
-39.310898 6.308406 -0.476339 67 67 65
-4.737111 1.096269 1.318929 69 69 61
-9.611551 2.181431 1.069413 69 69 61
-19.360432 4.351753 0.570382 69 69 61
-38.858192 8.692397 -0.427681 69 69 61
-4.664637 1.383050 1.325745 18 17 15
-9.466602 2.754992 1.083046 18 17 15
-19.070534 5.498875 0.597648 18 17 15
-38.278397 10.986642 -0.373147 18 17 15
-4.578381 1.656320 1.333160 42 44 39
-9.294091 3.301531 1.097876 42 44 39
-18.725512 6.591954 0.627308 42 44 39
-37.588352 13.172800 -0.313828 42 44 39
-4.480655 1.914397 1.341033 51 53 52
-9.098639 3.817685 1.113621 51 53 52
-18.334606 7.624262 0.658798 51 53 52
-36.806541 15.237416 -0.250848 51 53 52
-4.373826 2.156203 1.349225 62 62 55
-8.884981 4.301297 1.130006 62 62 55
-17.907291 8.591485 0.691568 62 62 55
-35.951912 17.171862 -0.185309 62 62 55
-4.260187 2.381215 1.357609 43 47 46
-8.657702 4.751321 1.146775 43 47 46
-17.452734 9.491533 0.725105 43 47 46
-35.042797 18.971958 -0.118235 43 47 46
-4.141868 2.589387 1.366071 110 116 104
-8.421064 5.167666 1.163698 110 116 104
-16.979458 10.324224 0.758952 110 116 104
-34.096245 20.637339 -0.050540 110 116 104
-4.020766 2.781061 1.374513 132 137 130
-8.178861 5.551013 1.180581 132 137 130
-16.495050 11.090918 0.792718 132 137 130
-33.127430 22.170727 0.016991 132 137 130
-3.898520 2.956865 1.382853 132 137 131
-7.934368 5.902622 1.197261 132 137 131
-16.006065 11.794136 0.826077 132 137 131
-32.149460 23.577164 0.083710 132 137 131
-3.776496 3.117634 1.391026 129 132 123
-7.690320 6.224159 1.213608 129 132 123
-15.517970 12.437209 0.858772 129 132 123
-31.173269 24.863310 0.149100 129 132 123
-3.655803 3.264326 1.398984 124 127 118
-7.448936 6.517544 1.229524 124 127 118
-15.035201 13.023980 0.890605 124 127 118
-30.207731 26.036852 0.212765 124 127 118
-3.537316 3.397968 1.406691 42 48 48
-7.211961 6.784828 1.244937 42 48 48
-14.561252 13.558548 0.921430 42 48 48
-29.259832 27.105988 0.274416 42 48 48
-3.351925 -3.543090 1.129374 17 17 15
-6.841179 -7.097288 0.690304 17 17 15
-13.819687 -14.205685 -0.187836 17 17 15
-27.776703 -28.422478 -1.944117 17 17 15
-3.459640 -3.432557 1.117917 31 37 35
-7.056609 -6.876223 0.667389 31 37 35
-14.250547 -13.763555 -0.233666 31 37 35
-28.638424 -27.538218 -2.035776 31 37 35
-3.570484 -3.311307 1.106198 35 37 38
-7.278297 -6.633723 0.643951 35 37 38
-14.693924 -13.278554 -0.280541 35 37 38
-29.525177 -26.568216 -2.129527 35 37 38
-3.683997 -3.178349 1.094281 46 50 51
-7.505322 -6.367805 0.620117 46 50 51
-15.147974 -12.746719 -0.328210 46 50 51
-30.433277 -25.504547 -2.224865 46 50 51
-3.799550 -3.032672 1.082247 29 41 41
-7.736428 -6.076453 0.596051 29 41 41
-15.610186 -12.164014 -0.376343 29 41 41
-31.357700 -24.339136 -2.321130 29 41 41
-3.916317 -2.873283 1.070204 15 20 16
-7.969962 -5.757675 0.571964 15 20 16
-16.077253 -11.526459 -0.424517 15 20 16
-32.291836 -23.064026 -2.417479 15 20 16
-4.033249 -2.699244 1.058280 17 29 25
-8.203828 -5.409595 0.548117 17 29 25
-16.544985 -10.830299 -0.472211 17 29 25
-33.227299 -21.671707 -2.512866 17 29 25
-4.149056 -2.509729 1.046635 37 42 38
-8.435441 -5.030567 0.524826 37 42 38
-17.008211 -10.072242 -0.518792 37 42 38
-34.153751 -20.155592 -2.606028 37 42 38
-4.262185 -2.304101 1.035454 57 62 54
-8.661699 -4.619311 0.502464 57 62 54
-17.460728 -9.249731 -0.563515 57 62 54
-35.058784 -18.510571 -2.695475 57 62 54
-4.370837 -2.081990 1.024950 36 38 38
-8.879003 -4.175087 0.481457 36 38 38
-17.895334 -8.361283 -0.605531 36 38 38
-35.927998 -16.733675 -2.779507 36 38 38
-4.472982 -1.843379 1.015359 22 26 25
-9.083294 -3.697866 0.462274 22 26 25
-18.303917 -7.406840 -0.643896 22 26 25
-36.745163 -14.824788 -2.856236 22 26 25
-4.566425 -1.588705 1.006932 33 33 30
-9.270180 -3.188518 0.445419 33 33 30
-18.677689 -6.388144 -0.677607 33 33 30
-37.492706 -12.787395 -2.923658 33 33 30
-4.648879 -1.318928 0.999924 31 31 32
-9.435087 -2.648964 0.431403 31 31 32
-19.007504 -5.309036 -0.705637 31 31 32
-38.152336 -10.629180 -2.979719 31 31 32
-4.718091 -1.035590 0.994583 43 45 44
-9.573511 -2.082288 0.420722 43 45 44
-19.284351 -4.175684 -0.727000 43 45 44
-38.706032 -8.362477 -3.022444 43 45 44
-4.771978 -0.740828 0.991131 55 54 49
-9.681286 -1.492764 0.413818 55 54 49
-19.499901 -2.996636 -0.740808 55 54 49
-39.137131 -6.004381 -3.050061 55 54 49
-4.808782 -0.437335 0.989746 57 58 53
-9.754892 -0.885778 0.411048 57 58 53
-19.647114 -1.782665 -0.746348 57 58 53
-39.431557 -3.576438 -3.061140 57 58 53
-4.827206 -0.128268 0.990549 58 59 54
-9.791741 -0.267644 0.412653 58 59 54
-19.720812 -0.546396 -0.743137 58 59 54
-39.578953 -1.103900 -3.054719 58 59 54
-4.826543 0.182905 0.993588 63 64 59
-9.790415 0.354701 0.418732 63 64 59
-19.718159 0.698293 -0.730981 63 64 59
-39.573647 1.385478 -3.030406 63 64 59
-4.806730 0.492588 0.998837 66 67 62
-9.750790 0.974067 0.429230 66 67 62
-19.638908 1.937027 -0.709984 66 67 62
-39.415146 3.862945 -2.988411 66 67 62
-4.768365 0.797266 1.006194 69 67 64
-9.674059 1.583423 0.443943 69 67 64
-19.485447 3.155739 -0.680558 69 67 64
-39.108223 6.300369 -2.929561 69 67 64
-4.712644 1.093698 1.015487 64 65 60
-9.562616 2.176287 0.462530 64 65 60
-19.262562 4.341466 -0.643384 64 65 60
-38.662453 8.671824 -2.855213 64 65 60
-4.641264 1.379077 1.026494 62 63 58
-9.419857 2.747046 0.484543 62 63 58
-18.977043 5.482983 -0.599357 62 63 58
-38.091415 10.954857 -2.767159 62 63 58
-4.556277 1.651138 1.038954 63 64 59
-9.249884 3.291168 0.509464 63 64 59
-18.637096 6.571227 -0.549517 63 64 59
-37.411522 13.131346 -2.667478 63 64 59
-4.459940 1.908213 1.052590 63 64 59
-9.057210 3.805318 0.536735 63 64 59
-18.251749 7.599528 -0.494974 63 64 59
-36.640827 15.187947 -2.558392 63 64 59
-4.354568 2.149223 1.067122 21 17 18
-8.846465 4.287338 0.565800 21 17 18
-17.830259 8.563568 -0.436845 21 17 18
-35.797848 17.116028 -2.442134 21 17 18
-4.242409 2.373637 1.082284 20 23 16
-8.622148 4.736166 0.596124 20 23 16
-17.381624 9.461224 -0.376195 20 23 16
-34.900578 18.911339 -2.320835 20 23 16
-4.125554 2.581392 1.097833 103 103 101
-8.388436 5.151676 0.627223 103 103 101
-16.914202 10.292244 -0.313999 103 103 101
-33.965733 20.573380 -2.196442 103 103 101
-4.005870 2.772807 1.113556 104 107 102
-8.149069 5.534506 0.658667 104 107 102
-16.435467 11.057903 -0.251110 104 107 102
-33.008263 22.104698 -2.070664 104 107 102
-3.884974 2.948489 1.129269 16 15 19
-7.907277 5.885870 0.690093 16 15 19
-15.951883 11.760632 -0.188258 16 15 19
-32.041096 23.510155 -1.944960 16 15 19
-3.764219 3.109247 1.144823 113 115 111
-7.665768 6.207386 0.721202 113 115 111
-15.468864 12.403664 -0.126040 113 115 111
-31.075058 24.796219 -1.820523 113 115 111
-3.644707 3.256021 1.160101 70 37 34
-7.426743 6.500933 0.751757 70 37 34
-14.990815 12.990758 -0.064931 70 37 34
-30.118959 25.970407 -1.698305 70 37 34
-3.527306 3.389815 1.175009 96 101 95
-7.191941 6.768522 0.781574 96 101 95
-14.521212 13.525936 -0.005297 96 101 95
-29.179752 27.040764 -1.579038 96 101 95
-3.337465 -3.524493 0.916272 26 32 28
-6.812258 -7.060095 0.264099 26 32 28
-13.761846 -14.131298 -1.040246 26 32 28
-27.661020 -28.273705 -3.648937 26 32 28
-3.443686 -3.413389 0.898261 33 38 34
-7.024702 -6.837887 0.228077 33 38 34
-14.186733 -13.686882 -1.112290 33 38 34
-28.510796 -27.384872 -3.793024 33 38 34
-3.552893 -3.291625 0.879810 27 28 23
-7.243114 -6.594357 0.191176 27 28 23
-14.623558 -13.199823 -1.186093 27 28 23
-29.384445 -26.410755 -3.940630 27 28 23
-3.664619 -3.158233 0.861011 35 37 36
-7.466568 -6.327575 0.153578 35 37 36
-15.070465 -12.666258 -1.261289 35 37 36
-30.278259 -25.343624 -4.091022 35 37 36
-3.778236 -3.012235 0.841985 62 63 58
-7.693801 -6.035578 0.115525 62 63 58
-15.524932 -12.082264 -1.337394 62 63 58
-31.187193 -24.175636 -4.243233 62 63 58
-3.892923 -2.852666 0.822886 35 44 39
-7.923176 -5.716440 0.077328 35 44 39
-15.983681 -11.443989 -1.413787 35 44 39
-32.104691 -22.899086 -4.396019 35 44 39
-4.007646 -2.678625 0.803909 41 37 36
-8.152620 -5.368359 0.039374 41 37 36
-16.442570 -10.747827 -1.489697 41 37 36
-33.022469 -21.506762 -4.547838 41 37 36
-4.121131 -2.489328 0.785287 23 28 24
-8.379591 -4.989765 0.002129 23 28 24
-16.896511 -9.990638 -1.564186 23 28 24
-33.930351 -19.992384 -4.696817 23 28 24
-4.231863 -2.284176 0.767296 21 23 22
-8.601054 -4.579460 -0.033852 21 23 22
-17.339437 -9.170028 -1.636149 21 23 22
-34.816204 -18.351164 -4.840743 21 23 22
-4.338085 -2.062834 0.750253 26 26 22
-8.813498 -4.136776 -0.067938 26 26 22
-17.764326 -8.284660 -1.704319 26 26 22
-35.665981 -16.580429 -4.977083 26 26 22
-4.437830 -1.825320 0.734511 21 25 28
-9.012989 -3.661749 -0.099423 21 25 28
-18.163307 -7.334607 -1.767291 21 25 28
-36.463943 -14.680323 -5.103025 21 25 28
-4.528973 -1.572092 0.720444 39 39 39
-9.195274 -3.155292 -0.127557 39 39 39
-18.527878 -6.321692 -1.823558 39 39 39
-37.193085 -12.654492 -5.215561 39 39 39
-4.609309 -1.304114 0.708438 45 46 41
-9.355947 -2.619337 -0.151569 45 46 41
-18.849224 -5.249783 -1.871582 45 46 41
-37.835777 -10.510674 -5.311608 45 46 41
-4.676674 -1.022916 0.698867 57 57 55
-9.490677 -2.056941 -0.170711 57 57 55
-19.118683 -4.124990 -1.909866 57 57 55
-38.374695 -8.261087 -5.388176 57 57 55
-4.729070 -0.730597 0.692069 63 59 56
-9.595469 -1.472303 -0.184306 63 59 56
-19.328266 -2.955715 -1.937056 63 59 56
-38.793861 -5.922538 -5.442557 63 59 56
-4.764812 -0.429793 0.688323 56 57 52
-9.666954 -0.870694 -0.191799 56 57 52
-19.471237 -1.752496 -1.952042 56 57 52
-39.079803 -3.516101 -5.472528 56 57 52
-4.782668 -0.123579 0.687821 58 58 56
-9.702664 -0.258266 -0.192801 58 58 56
-19.542658 -0.527640 -1.954047 58 58 56
-39.222645 -1.066389 -5.476539 58 58 56
-4.781956 0.184669 0.690656 61 62 57
-9.701241 0.358229 -0.187131 61 62 57
-19.539810 0.705351 -1.942707 61 62 57
-39.216949 1.399593 -5.453858 61 62 57
-4.762621 0.491457 0.696808 63 64 59
-9.662572 0.971805 -0.174829 63 64 59
-19.462473 1.932501 -1.918103 63 64 59
-39.062275 3.853893 -5.404650 63 64 59
-4.725233 0.793364 0.706143 60 61 56
-9.587795 1.575620 -0.156159 60 61 56
-19.312920 3.140132 -1.880762 60 61 56
-38.763168 6.269155 -5.329967 60 61 56
-4.670938 1.087236 0.718430 62 63 58
-9.479204 2.163364 -0.131585 62 63 58
-19.095737 4.315619 -1.831613 62 63 58
-38.328804 8.620130 -5.231671 62 63 58
-4.601357 1.370332 0.733354 62 63 58
-9.340042 2.729556 -0.101736 62 63 58
-18.817413 5.448003 -1.771917 62 63 58
-37.772156 10.884897 -5.112278 62 63 58
-4.518457 1.640430 0.750545 58 59 54
-9.174244 3.269753 -0.067355 58 59 54
-18.485817 6.528397 -1.703154 58 59 54
-37.108963 13.045685 -4.974752 58 59 54
-4.424410 1.895885 0.769600 59 60 55
-8.986150 3.780661 -0.029245 59 60 55
-18.109629 7.550213 -1.626934 59 60 55
-36.356586 15.089318 -4.822312 59 60 55
-4.321445 2.135617 0.790111 61 62 57
-8.780218 4.260125 0.011777 61 62 57
-17.697765 8.509141 -1.544890 61 62 57
-35.532860 17.007174 -4.658224 61 62 57
-4.211734 2.359079 0.811684 64 65 60
-8.560797 4.707049 0.054924 64 65 60
-17.258923 9.402990 -1.458596 64 65 60
-34.655174 18.794872 -4.485635 64 65 60
-4.097306 2.566181 0.833958 56 58 53
-8.331941 5.121254 0.099471 56 58 53
-16.801210 10.231400 -1.369503 56 58 53
-33.739750 20.451691 -4.307449 56 58 53
-3.979980 2.757208 0.856608 17 21 17
-8.097288 5.503307 0.144771 17 21 17
-16.331905 10.995506 -1.278903 17 21 17
-32.801140 21.979904 -4.126249 17 21 17
-3.861334 2.932726 0.879357 52 54 49
-7.859998 5.854343 0.190270 52 54 49
-15.857325 11.697578 -1.187905 52 54 49
-31.851978 23.384048 -3.944253 52 54 49
-3.742700 3.093509 0.901975 21 27 25
-7.622729 6.175909 0.235506 21 27 25
-15.382788 12.340710 -1.097432 21 27 25
-30.902905 24.670311 -3.763309 21 27 25
-3.625164 3.240458 0.924276 19 24 20
-7.387656 6.469807 0.280107 19 24 20
-14.912642 12.928505 -1.008231 19 24 20
-29.962612 25.845901 -3.584906 19 24 20
-3.509587 3.374546 0.946113 68 70 67
-7.156503 6.737983 0.323781 68 70 67
-14.450336 13.464857 -0.920882 68 70 67
-29.038000 26.918606 -3.410209 68 70 67
-3.316876 -3.499704 0.706669 17 26 23
-6.771082 -7.010517 -0.155106 17 26 23
-13.679493 -14.032142 -1.878657 17 26 23
-27.496315 -28.075392 -5.325758 17 26 23
-3.421037 -3.387864 0.682435 58 60 57
-6.979404 -6.786836 -0.203575 58 60 57
-14.096137 -13.584780 -1.975594 58 60 57
-28.329603 -27.180668 -5.519632 58 60 57
-3.527991 -3.265447 0.657612 57 58 59
-7.193311 -6.542003 -0.253220 57 58 59
-14.523951 -13.095114 -2.074884 57 58 59
-29.185230 -26.201336 -5.718213 57 58 59
-3.637265 -3.131520 0.632322 17 19 18
-7.411859 -6.274149 -0.303800 17 19 18
-14.961047 -12.559406 -2.176045 17 19 18
-30.059423 -25.129921 -5.920534 17 19 18
-3.748231 -2.985141 0.606724 18 20 15
-7.633792 -5.981390 -0.354997 18 20 15
-15.404913 -11.973889 -2.278438 18 20 15
-30.947155 -23.958887 -6.125320 18 20 15
-3.860078 -2.825391 0.581021 17 22 18
-7.857486 -5.661890 -0.406403 17 22 18
-15.852301 -11.334888 -2.381250 17 22 18
-31.841930 -22.680883 -6.330945 17 22 18
-3.971787 -2.651416 0.555465 19 24 18
-8.080904 -5.313940 -0.457513 19 24 18
-16.299137 -10.638988 -2.483471 19 24 18
-32.735603 -21.289083 -6.535386 19 24 18
-4.082118 -2.462482 0.530363 16 20 21
-8.301565 -4.936073 -0.507718 16 20 21
-16.740459 -9.883255 -2.583879 16 20 21
-33.618248 -19.777618 -6.736203 16 20 21
-4.189599 -2.258046 0.506073 28 34 32
-8.516527 -4.527201 -0.556297 28 34 32
-17.170383 -9.065510 -2.681039 28 34 32
-34.478096 -18.142128 -6.930522 28 34 32
-4.292537 -2.037821 0.483007 28 34 29
-8.722404 -4.086751 -0.602430 28 34 29
-17.582136 -8.184609 -2.773305 28 34 29
-35.301601 -16.380327 -7.115054 28 34 29
-4.389045 -1.801866 0.461619 32 35 28
-8.915420 -3.614840 -0.645207 32 35 28
-17.968168 -7.240788 -2.858858 32 35 28
-36.073666 -14.492683 -7.286160 32 35 28
-4.477092 -1.550661 0.442395 61 62 57
-9.091514 -3.112431 -0.683655 61 62 57
-18.320356 -6.235970 -2.935754 61 62 57
-36.778042 -12.483049 -7.439952 61 62 57
-4.554586 -1.285181 0.425833 59 60 55
-9.246502 -2.581471 -0.716779 59 60 55
-18.630333 -5.174050 -3.002002 59 60 55
-37.397995 -10.359208 -7.572449 59 60 55
-4.619475 -1.006932 0.412415 60 61 56
-9.376280 -2.024973 -0.743615 60 61 56
-18.889889 -4.061054 -3.055674 60 61 56
-37.917107 -8.133217 -7.679792 60 61 56
-4.669875 -0.717965 0.402579 60 61 56
-9.477079 -1.447038 -0.763286 60 61 56
-19.091488 -2.905184 -3.095016 60 61 56
-38.320305 -5.821477 -7.758476 60 61 56
-4.704201 -0.420833 0.396688 57 58 53
-9.545731 -0.852774 -0.775068 57 58 53
-19.228790 -1.716655 -3.118580 57 58 53
-38.594910 -3.444419 -7.805604 57 58 53
-4.721294 -0.118506 0.394997 62 63 58
-9.579918 -0.248120 -0.778450 62 63 58
-19.297165 -0.507349 -3.125344 62 63 58
-38.731659 -1.025806 -7.819133 62 63 58
-4.720520 0.185765 0.397634 62 63 58
-9.578369 0.360421 -0.773177 62 63 58
-19.294067 0.709734 -3.114799 62 63 58
-38.725464 1.408360 -7.798041 62 63 58
-4.701825 0.488619 0.404583 64 64 62
-9.540979 0.966129 -0.759279 64 64 62
-19.219288 1.921150 -3.087001 64 64 62
-38.575905 3.831192 -7.742447 64 64 62
-4.665744 0.786765 0.415689 60 61 56
-9.468817 1.562421 -0.737065 60 61 56
-19.074963 3.113734 -3.042575 60 61 56
-38.287254 6.216360 -7.653594 60 61 56
-4.613355 1.077160 0.430669 67 63 60
-9.364038 2.143212 -0.707107 67 63 60
-18.865406 4.275315 -2.982657 67 63 60
-37.868141 8.539521 -7.533759 67 63 60
-4.546185 1.357153 0.449131 61 61 59
-9.229699 2.703197 -0.670182 61 61 59
-18.596727 5.395286 -2.908808 61 61 59
-37.330784 10.779464 -7.386060 61 61 59
-4.466090 1.624581 0.470611 63 64 59
-9.069510 3.238054 -0.627222 63 64 59
-18.276348 6.464999 -2.822887 63 64 59
-36.690025 12.918889 -7.214219 63 64 59
-4.375123 1.877827 0.494601 56 61 55
-8.887575 3.744545 -0.579243 56 61 55
-17.912479 7.477982 -2.726930 56 61 55
-35.962288 14.944855 -7.022304 56 61 55
-4.275402 2.115814 0.520580 58 59 54
-8.688133 4.220520 -0.527285 58 59 54
-17.513596 8.429931 -2.623014 58 59 54
-35.164520 16.848753 -6.814473 58 59 54
-4.169001 2.337976 0.548043 49 52 47
-8.475330 4.664843 -0.472358 49 52 47
-17.087990 9.318577 -2.513160 49 52 47
-34.313309 18.626045 -6.594764 49 52 47
-4.057861 2.544184 0.576521 58 59 54
-8.253051 5.077259 -0.415402 58 59 54
-16.643431 10.143410 -2.399247 58 59 54
-33.424191 20.275711 -6.366939 58 59 54
-3.943736 2.734676 0.605594 62 61 57
-8.024801 5.458244 -0.357257 62 61 57
-16.186932 10.905380 -2.282959 62 61 57
-32.511192 21.799652 -6.134361 62 61 57
-3.828156 2.909972 0.634894 59 60 55
-7.793642 5.808835 -0.298655 59 60 55
-15.724613 11.606562 -2.165755 59 60 55
-31.586555 23.202015 -5.899954 59 60 55
-3.712417 3.070789 0.664117 40 42 41
-7.562163 6.130469 -0.240209 40 42 41
-15.261656 12.249830 -2.048863 40 42 41
-30.660641 24.488552 -5.666170 40 42 41
-3.597585 3.217982 0.693012 36 37 32
-7.332499 6.424855 -0.182420 36 37 32
-14.802327 12.838601 -1.933285 36 37 32
-29.741983 25.666094 -5.435015 36 37 32
-3.484512 3.352478 0.721380 28 30 25
-7.106352 6.693848 -0.125685 28 30 25
-14.350034 13.376587 -1.819815 28 30 25
-28.837397 26.742065 -5.208074 28 30 25
-3.290504 -3.469091 0.501592 10 19 18
-6.718336 -6.949290 -0.565260 10 19 18
-13.574001 -13.909689 -2.698965 10 19 18
-27.285332 -27.830486 -6.966374 10 19 18
-3.392093 -3.356385 0.471553 19 19 13
-6.921516 -6.723877 -0.625338 19 19 13
-13.980361 -13.458863 -2.819120 19 19 13
-28.098051 -26.928835 -7.206685 19 19 13
-3.496241 -3.233213 0.440814 10 19 11
-7.129811 -6.477534 -0.686817 10 19 11
-14.396952 -12.966176 -2.942078 10 19 11
-28.931232 -25.943460 -7.452600 10 19 11
-3.602471 -3.098682 0.409525 17 19 16
-7.342272 -6.208472 -0.749395 17 19 16
-14.821873 -12.428052 -3.067234 17 19 16
-29.781075 -24.867212 -7.702911 17 19 16
-3.710158 -2.951898 0.377883 13 19 15
-7.557645 -5.914904 -0.812678 13 19 15
-15.252620 -11.840917 -3.193800 13 19 15
-30.642569 -23.692942 -7.956045 13 19 15
-3.818500 -2.791995 0.346138 30 30 30
-7.774329 -5.595098 -0.876168 30 30 30
-15.685987 -11.201303 -3.320780 30 30 30
-31.509302 -22.413715 -8.210004 30 30 30
-3.926502 -2.618179 0.314598 36 38 35
-7.990334 -5.247466 -0.939248 36 38 35
-16.117996 -10.506040 -3.446939 36 38 35
-32.373322 -21.023188 -8.462323 36 38 35
-4.032963 -2.429777 0.283633 25 32 25
-8.203255 -4.870663 -1.001177 25 32 25
-16.543839 -9.752435 -3.570799 25 32 25
-33.225006 -19.515978 -8.710042 25 32 25
-4.136469 -2.226308 0.253677 21 26 22
-8.410268 -4.463725 -1.061091 21 26 22
-16.957865 -8.938559 -3.690627 21 26 22
-34.053059 -17.888226 -8.949697 21 26 22
-4.235404 -2.007544 0.225220 53 55 50
-8.608138 -4.026196 -1.118004 53 55 50
-17.353605 -8.063499 -3.804452 53 55 50
-34.844540 -16.138107 -9.177349 53 55 50
-4.327977 -1.773588 0.198808 60 61 56
-8.793283 -3.558284 -1.170828 60 61 56
-17.723894 -7.127676 -3.910101 60 61 56
-35.585117 -14.266459 -9.388646 60 61 56
-4.412273 -1.524951 0.175017 56 57 52
-8.961876 -3.061011 -1.218410 56 57 52
-18.061081 -6.133131 -4.005263 56 57 52
-36.259491 -12.277370 -9.578971 56 57 52
-4.486330 -1.262611 0.154438 55 57 52
-9.109989 -2.536331 -1.259569 55 57 52
-18.357307 -5.083770 -4.087583 55 57 52
-36.851944 -10.178648 -9.743609 55 57 52
-4.548233 -0.988046 0.137640 57 58 53
-9.233795 -1.987200 -1.293164 57 58 53
-18.604919 -3.985509 -4.154772 57 58 53
-37.347168 -7.982127 -9.877989 57 58 53
-4.596230 -0.703243 0.125142 57 58 53
-9.329789 -1.417595 -1.318160 57 58 53
-18.796907 -2.846299 -4.204764 57 58 53
-37.731144 -5.703706 -9.977972 57 58 53
-4.628854 -0.410659 0.117372 56 57 52
-9.395037 -0.832427 -1.333701 56 57 52
-18.927402 -1.675962 -4.235847 56 57 52
-37.992134 -3.363032 -10.040137 56 57 52
-4.645034 -0.113135 0.114633 55 57 52
-9.427397 -0.237378 -1.339179 55 57 52
-18.992123 -0.485865 -4.246802 55 57 52
-38.121574 -0.982838 -10.062048 55 57 52
-4.644185 0.186230 0.117081 60 62 57
-9.425698 0.361351 -1.334283 60 62 57
-18.988726 0.711594 -4.237010 60 62 57
-38.114780 1.412079 -10.042463 60 62 57
-4.626259 0.484233 0.124707 59 61 56
-9.389848 0.957358 -1.319031 59 61 56
-18.917025 1.903607 -4.206506 59 61 56
-37.971378 3.796106 -9.981456 59 61 56
-4.591752 0.777738 0.137338 54 55 50
-9.320833 1.544368 -1.293769 54 55 50
-18.778996 3.077628 -4.155982 54 55 50
-37.695320 6.144147 -9.880407 54 55 50
-4.541660 1.063838 0.154649 62 62 60
-9.220649 2.116568 -1.259146 62 62 60
-18.578627 4.222028 -4.086737 62 62 60
-37.294582 8.432948 -9.741918 62 62 60
-4.477398 1.339988 0.176192 56 57 52
-9.092126 2.668869 -1.216059 56 57 52
-18.321581 5.326629 -4.000563 56 57 52
-36.780491 10.642149 -9.569571 56 57 52
-4.400693 1.604100 0.201428 61 62 57
-8.938716 3.197091 -1.165588 61 62 57
-18.014761 6.383073 -3.899620 61 62 57
-36.166851 12.755037 -9.367684 61 62 57
-4.313458 1.854590 0.229763 57 60 53
-8.764246 3.698071 -1.108918 57 60 53
-17.665821 7.385035 -3.786280 57 60 53
-35.468971 14.758961 -9.141005 57 60 53
-4.217680 2.090389 0.260586 56 58 53
-8.572688 4.169669 -1.047272 56 58 53
-17.282705 8.328229 -3.662988 56 58 53
-34.702740 16.645350 -8.894420 56 58 53
-4.115310 2.310905 0.293300 51 56 50
-8.367949 4.610703 -0.981844 51 56 50
-16.873226 9.210297 -3.532133 51 56 50
-33.883781 18.409485 -8.632710 51 56 50
-4.008190 2.515972 0.327344 48 50 45
-8.153709 5.020835 -0.913757 48 50 45
-16.444748 10.030561 -3.395958 48 50 45
-33.026825 20.050014 -8.360360 48 50 45
-3.897991 2.705770 0.362211 52 54 49
-7.933311 5.400431 -0.844022 52 54 49
-16.003950 10.789754 -3.256487 52 54 49
-32.145229 21.568399 -8.081419 52 54 49
-3.786180 2.880755 0.397460 55 56 51
-7.709689 5.750402 -0.773524 55 56 51
-15.556707 11.489697 -3.115492 55 56 51
-31.250744 22.968285 -7.799428 55 56 51
-3.674011 3.041588 0.432714 57 59 54
-7.485352 6.072067 -0.703016 57 59 54
-15.108032 12.133025 -2.974475 57 59 54
-30.353394 24.254942 -7.517395 57 59 54
-3.562523 3.189060 0.467664 59 60 55
-7.262375 6.367011 -0.633117 59 60 55
-14.662080 12.722914 -2.834678 59 60 55
-29.461489 25.434719 -7.237800 59 60 55
-3.452556 3.324045 0.502060 57 60 53
-7.042441 6.636981 -0.564325 57 60 53
-14.222212 13.262854 -2.697094 57 60 53
-28.581753 26.514599 -6.962633 57 60 53
-3.258764 -3.433097 0.301952 21 19 20
-6.654858 -6.877302 -0.964540 21 19 20
-13.447044 -13.765713 -3.497524 21 19 20
-27.031418 -27.542534 -8.563493 21 19 20
-3.357338 -3.319432 0.266598 12 21 20
-6.852005 -6.649972 -1.035249 12 21 20
-13.841338 -13.311053 -3.638942 12 21 20
-27.820005 -26.633215 -8.846329 12 21 20
-3.458205 -3.195442 0.230471 15 23 12
-7.053740 -6.401992 -1.107502 15 23 12
-14.244808 -12.815092 -3.783448 15 23 12
-28.626945 -25.641293 -9.135341 15 23 12
-3.560888 -3.060279 0.193753 16 22 18
-7.259104 -6.131666 -1.180937 16 22 18
-14.655538 -12.274441 -3.930319 16 22 18
-29.448404 -24.559990 -9.429082 16 22 18
-3.664763 -2.913103 0.156678 68 70 65
-7.466855 -5.837315 -1.255088 68 70 65
-15.071038 -11.685738 -4.078620 68 70 65
-30.279406 -23.382584 -9.725684 68 70 65
-3.769045 -2.753111 0.119538 71 72 67
-7.675420 -5.517330 -1.329369 71 72 67
-15.488169 -11.045769 -4.227182 71 72 67
-31.113667 -22.102646 -10.022808 71 72 67
-3.872770 -2.579574 0.082691 51 52 46
-7.882870 -5.170257 -1.403063 51 52 46
-15.903069 -10.351623 -4.374570 51 52 46
-31.943466 -20.714354 -10.317584 51 52 46
-3.974783 -2.391893 0.046564 48 53 49
-8.086895 -4.794894 -1.475317 48 53 49
-16.311119 -9.600897 -4.519077 48 53 49
-32.759567 -19.212902 -10.606599 48 53 49
-4.073735 -2.189651 0.011654 51 56 52
-8.284800 -4.390410 -1.545136 51 56 52
-16.706928 -8.791928 -4.658717 51 56 52
-33.551186 -17.594965 -10.885879 51 56 52
-4.168099 -1.972683 -0.021479 55 57 54
-8.473528 -3.956475 -1.611402 55 57 54
-17.084385 -7.924058 -4.791248 55 57 54
-34.306099 -15.859225 -11.150940 55 57 54
-4.256195 -1.741145 -0.052219 55 56 58
-8.649719 -3.493398 -1.672883 55 56 58
-17.436768 -6.997904 -4.914210 55 56 58
-35.010864 -14.006917 -11.396864 55 56 58
-4.336238 -1.495575 -0.079919 51 53 50
-8.809806 -3.002258 -1.728281 51 53 50
-17.756941 -6.015625 -5.025007 51 53 50
-35.651211 -12.042358 -11.618459 51 53 50
-4.406410 -1.236950 -0.103917 54 56 53
-8.950149 -2.485008 -1.776277 54 56 53
-18.037626 -4.981125 -5.120999 54 56 53
-36.212582 -9.973358 -11.810442 54 56 53
-4.464945 -0.966714 -0.123576 53 55 52
-9.067219 -1.944537 -1.815597 53 55 52
-18.271767 -3.900182 -5.199637 53 55 52
-36.680862 -7.811472 -11.967719 53 55 52
-4.510240 -0.686782 -0.138323 56 59 52
-9.157808 -1.384672 -1.845090 56 59 52
-18.452946 -2.780452 -5.258624 56 59 52
-37.043221 -5.572012 -12.085691 56 59 52
-4.540953 -0.399496 -0.147680 57 59 54
-9.219234 -0.810100 -1.863805 57 59 54
-18.575798 -1.631309 -5.296053 57 59 54
-37.288925 -3.273727 -12.160551 57 59 54
-4.556109 -0.107553 -0.151309 53 53 51
-9.249548 -0.226214 -1.871063 53 53 51
-18.636425 -0.463537 -5.310571 53 53 51
-37.410179 -0.938182 -12.189586 53 53 51
-4.555180 0.186117 -0.149036 64 65 60
-9.247688 0.361125 -1.866515 64 65 60
-18.632706 0.711142 -5.301475 64 65 60
-37.402740 1.411176 -12.171394 64 65 60
-4.538119 0.478490 -0.140863 59 60 55
-9.213568 0.945872 -1.850170 59 60 55
-18.564465 1.880636 -5.268785 59 60 55
-37.266258 3.750164 -12.106013 59 60 55
-4.505383 0.766604 -0.126976 56 57 51
-9.148095 1.522099 -1.822397 56 57 51
-18.433519 3.033090 -5.213239 56 57 51
-37.004368 6.055071 -11.994922 56 57 51
-4.457878 1.047703 -0.107727 56 57 52
-9.053084 2.084297 -1.783898 56 57 52
-18.243498 4.157485 -5.136241 56 57 52
-36.624325 8.303862 -11.840926 56 57 52
-4.396896 1.319364 -0.083605 64 65 60
-8.931122 2.627619 -1.735653 64 65 60
-17.999573 5.244130 -5.039751 64 65 60
-36.136475 10.477152 -11.647946 64 65 60
-4.324023 1.579582 -0.055202 57 57 55
-8.785376 3.148056 -1.678848 57 57 55
-17.708080 6.285003 -4.926140 57 57 55
-35.553490 12.558897 -11.420724 57 57 55
-4.241020 1.826820 -0.023174 58 60 55
-8.619370 3.642532 -1.614793 58 60 55
-17.376068 7.273956 -4.798030 58 60 55
-34.889465 14.536803 -11.164505 58 60 55
-4.149725 2.060015 0.011798 59 60 55
-8.436779 4.108922 -1.544849 59 60 55
-17.010887 8.206736 -4.658142 59 60 55
-34.159103 16.402363 -10.884728 59 60 55
-4.051956 2.278555 0.049044 51 56 52
-8.241241 4.546001 -1.470356 51 56 52
-16.619812 9.080894 -4.509156 51 56 52
-33.376953 18.150681 -10.586757 51 56 52
-3.949438 2.482224 0.087932 52 54 49
-8.036205 4.953341 -1.392581 52 54 49
-16.209740 9.895573 -4.353605 52 54 49
-32.556808 19.780037 -10.275655 52 54 49
-3.843749 2.671147 0.127885 55 55 55
-7.824826 5.331186 -1.312675 55 55 55
-15.786982 10.651263 -4.193795 55 55 55
-31.711292 21.291418 -9.956034 55 55 55
-3.736284 2.845712 0.168392 47 49 44
-7.609897 5.680315 -1.231659 47 49 44
-15.357123 11.349522 -4.031763 47 49 44
-30.851576 22.687935 -9.631970 47 49 44
-3.628247 3.006505 0.209020 50 52 51
-7.393823 6.001903 -1.150405 50 52 51
-14.924974 11.992697 -3.869255 50 52 51
-29.987278 23.974285 -9.306953 50 52 51
-3.520643 3.154255 0.249402 52 57 53
-7.178615 6.297401 -1.069640 52 57 53
-14.494558 12.583694 -3.707724 52 57 53
-29.126446 25.156281 -8.983891 52 57 53
-3.414294 3.289771 0.289245 50 55 49
-6.965916 6.568433 -0.989955 50 55 49
-14.069161 13.125757 -3.548354 50 55 49
-28.275652 26.240406 -8.665153 50 55 49
-3.222134 -3.392222 0.108530 15 24 21
-6.581597 -6.795552 -1.351383 15 24 21
-13.300523 -13.602212 -4.271211 15 24 21
-26.738375 -27.215532 -10.110867 15 24 21
-3.317320 -3.277549 0.068400 65 65 63
-6.771969 -6.566207 -1.431643 65 65 63
-13.681268 -13.143522 -4.431731 65 65 63
-27.499865 -26.298153 -10.431907 65 65 63
-3.414515 -3.152718 0.027469 65 64 60
-6.966359 -6.316545 -1.513506 65 64 60
-14.070047 -12.644198 -4.595457 65 64 60
-28.277424 -25.299505 -10.759358 65 64 60
-3.513239 -3.016935 -0.014054 56 61 55
-7.163808 -6.044979 -1.596553 56 61 55
-14.464945 -12.101066 -4.761549 56 61 55
-29.067219 -24.213240 -11.091543 56 61 55
-3.612879 -2.869420 -0.055901 14 24 16
-7.363087 -5.749949 -1.680246 14 24 16
-14.863503 -11.511005 -4.928936 14 24 16
-29.864334 -23.033119 -11.426316 14 24 16
-3.712667 -2.709436 -0.097738 41 46 40
-7.562664 -5.429980 -1.763921 41 46 40
-15.262657 -10.871068 -5.096286 41 46 40
-30.662643 -21.753244 -11.761016 41 46 40
-3.811676 -2.536327 -0.139165 49 54 50
-7.760682 -5.083763 -1.846774 49 54 50
-15.658692 -10.178635 -5.261992 49 54 50
-31.454714 -20.368378 -12.092427 49 54 50
-3.908803 -2.349569 -0.179705 56 58 53
-7.954934 -4.710246 -1.927853 56 58 53
-16.047197 -9.431600 -5.424151 56 58 53
-32.231724 -18.874308 -12.416746 56 58 53
-4.002773 -2.148817 -0.218810 52 56 55
-8.142876 -4.308743 -2.006064 52 56 55
-16.423080 -8.628593 -5.580572 52 56 55
-32.983490 -17.268295 -12.729589 52 56 55
-4.092157 -1.933972 -0.255867 54 56 53
-8.321643 -3.879053 -2.080178 54 56 53
-16.780615 -7.769214 -5.728799 54 56 53
-33.698559 -15.549537 -13.026043 54 56 53
-4.175393 -1.705238 -0.290207 51 52 47
-8.488114 -3.421584 -2.148858 51 52 47
-17.113558 -6.854277 -5.866160 51 52 47
-34.364445 -13.719662 -13.300765 51 52 47
-4.250835 -1.463180 -0.321128 50 55 49
-8.639000 -2.937469 -2.210701 50 55 49
-17.415329 -5.886046 -5.989847 50 55 49
-34.967987 -11.783201 -13.548138 50 55 49
-4.316818 -1.208771 -0.347923 51 53 48
-8.770966 -2.428651 -2.264291 51 53 48
-17.679260 -4.868411 -6.097025 51 53 48
-35.495850 -9.747931 -13.762495 51 53 48
-4.371736 -0.943414 -0.369911 51 53 50
-8.880800 -1.897937 -2.308265 51 53 50
-17.898930 -3.806983 -6.184975 51 53 50
-35.935188 -7.625073 -13.938395 51 53 50
-4.414134 -0.668941 -0.386479 61 66 60
-8.965596 -1.348989 -2.341401 61 66 60
-18.068521 -2.709087 -6.251247 61 66 60
-36.274372 -5.429283 -14.070938 61 66 60
-4.442802 -0.387571 -0.397121 70 75 68
-9.022934 -0.786250 -2.362687 70 75 68
-18.183197 -1.583609 -6.293818 70 75 68
-36.503723 -3.178326 -14.156080 70 75 68
-4.456868 -0.101844 -0.401479 72 77 71
-9.051064 -0.214796 -2.371401 72 77 71
-18.239458 -0.440701 -6.311247 72 77 71
-36.616245 -0.892511 -14.190938 72 77 71
-4.455853 0.185490 -0.399363 68 73 67
-9.049036 0.359872 -2.367170 68 73 67
-18.235401 0.708635 -6.302785 68 73 67
-36.608131 1.406162 -14.174014 68 73 67
-4.439723 0.471600 -0.390775 62 64 59
-9.016775 0.932091 -2.349995 62 64 59
-18.170879 1.853073 -6.268434 62 64 59
-36.479088 3.695037 -14.105311 62 64 59
-4.408884 0.753705 -0.375906 54 59 53
-8.955097 1.496302 -2.320256 54 59 53
-18.047523 2.981496 -6.208956 54 59 53
-36.232376 5.951884 -13.986356 54 59 53
-4.364154 1.029217 -0.355121 52 56 55
-8.865637 2.047326 -2.278686 52 56 55
-17.868603 4.083544 -6.125816 52 56 55
-35.874535 8.155980 -13.820077 52 56 55
-4.306702 1.295844 -0.328935 54 59 53
-8.750732 2.580580 -2.226314 54 59 53
-17.638794 5.150052 -6.021071 54 59 53
-35.414917 10.288995 -13.610587 54 59 53
-4.237960 1.551673 -0.297973 58 59 54
-8.613249 3.092237 -2.164389 58 59 54
-17.363827 6.173366 -5.897223 58 59 54
-34.864983 12.335623 -13.362890 58 59 54
-4.159533 1.795217 -0.262931 50 55 49
-8.456394 3.579326 -2.094306 50 55 49
-17.050117 7.147544 -5.757055 50 55 49
-34.237564 14.283980 -13.082555 50 55 49
-4.073103 2.025428 -0.224536 56 60 59
-8.283535 4.039747 -2.017517 56 60 59
-16.704399 8.068386 -5.603478 56 60 59
-33.546127 16.125664 -12.775401 56 60 59
-3.980345 2.241672 -0.183512 56 58 55
-8.098019 4.472235 -1.935467 56 58 55
-16.333366 8.933362 -5.439379 56 58 55
-32.804062 17.855616 -12.447203 56 58 55
-3.882859 2.443689 -0.140543 50 51 46
-7.903048 4.876269 -1.849531 50 51 46
-15.943424 9.741430 -5.267506 50 51 46
-32.024178 19.471752 -12.103456 50 51 46
-3.782120 2.631542 -0.096263 50 55 49
-7.701569 5.251975 -1.760971 50 55 49
-15.540466 10.492842 -5.090386 50 55 49
-31.218262 20.974575 -11.749217 50 55 49
-3.679445 2.805545 -0.051235 47 52 46
-7.496218 5.599982 -1.670913 47 52 46
-15.129766 11.188856 -4.910271 47 52 46
-30.396860 22.366604 -11.388987 47 52 46
-3.575978 2.966214 -0.005945 49 50 45
-7.289286 5.921320 -1.580334 49 50 45
-14.715900 11.831532 -4.729112 49 50 45
-29.569130 23.651955 -11.026668 49 50 45
-3.472687 3.114201 0.039196 46 51 47
-7.082704 6.217293 -1.490053 46 51 47
-14.302736 12.423477 -4.548550 46 51 47
-28.742802 24.835846 -10.665544 46 51 47
-3.370371 3.250246 0.083849 40 44 43
-6.878071 6.489384 -1.400747 40 44 43
-13.893472 12.967660 -4.369938 40 44 43
-27.924273 25.924212 -10.308321 40 44 43
-3.181131 -3.347007 -0.078032 58 62 61
-6.499592 -6.705122 -1.724508 58 62 61
-13.136513 -13.421352 -5.017461 58 62 61
-26.410355 -26.853813 -11.603366 58 62 61
-3.272633 -3.231317 -0.122365 58 63 59
-6.682595 -6.473742 -1.813174 58 63 59
-13.502520 -12.958593 -5.194793 58 63 59
-27.142368 -25.928295 -11.958030 58 63 59
-3.365850 -3.105664 -0.167489 78 78 78
-6.869029 -6.222437 -1.903423 78 78 78
-13.875387 -12.455982 -5.375290 78 78 78
-27.888103 -24.923073 -12.319024 78 78 78
-3.460304 -2.969312 -0.213166 89 93 92
-7.057936 -5.949733 -1.994776 89 93 92
-14.253201 -11.910575 -5.557997 89 93 92
-28.643732 -23.832258 -12.684439 89 93 92
-3.555390 -2.821545 -0.259095 91 95 94
-7.248109 -5.654198 -2.086634 91 95 94
-14.633547 -11.319505 -5.741713 91 95 94
-29.404423 -22.650118 -13.051870 91 95 94
-3.650369 -2.661696 -0.304910 95 101 99
-7.438068 -5.334501 -2.178264 95 101 99
-15.013465 -10.680110 -5.924972 95 101 99
-30.164259 -21.371328 -13.418387 95 101 99
-3.744351 -2.489187 -0.350170 101 105 104
-7.626031 -4.989483 -2.268784 101 105 104
-15.389391 -9.990074 -6.106011 101 105 104
-30.916111 -19.991257 -13.780467 101 105 104
-3.836293 -2.303567 -0.394361 103 107 106
-7.809915 -4.618243 -2.357166 103 107 106
-15.757158 -9.247595 -6.282776 103 107 106
-31.651646 -18.506298 -14.133996 103 107 106
-3.925000 -2.104568 -0.436896 106 110 109
-7.987329 -4.220245 -2.442236 106 110 109
-16.111988 -8.451599 -6.452917 106 110 109
-32.361305 -16.914307 -14.474278 106 110 109
-4.009146 -1.892153 -0.477122 108 112 111
-8.155621 -3.795414 -2.522689 108 112 111
-16.448570 -7.601937 -6.613822 108 112 111
-33.034470 -15.214983 -14.796088 108 112 111
-4.087291 -1.666573 -0.514335 111 115 114
-8.311911 -3.344254 -2.597115 111 115 114
-16.761150 -6.699616 -6.762674 111 115 114
-33.659630 -13.410341 -15.093793 111 115 114
-4.157933 -1.428416 -0.547800 115 119 118
-8.453195 -2.867941 -2.664044 115 119 118
-17.043718 -5.746991 -6.896533 115 119 118
-34.224766 -11.505091 -15.361510 115 119 118
-4.219562 -1.178646 -0.576780 117 121 120
-8.576452 -2.368401 -2.722004 117 121 120
-17.290234 -4.747910 -7.012453 117 121 120
-34.717796 -9.506928 -15.593350 117 121 120
-4.270730 -0.918617 -0.600572 119 120 115
-8.678788 -1.848343 -2.769588 119 120 115
-17.494905 -3.707795 -7.107619 119 120 115
-35.127140 -7.426699 -15.783683 119 120 115
-4.310133 -0.650073 -0.618544 116 121 115
-8.757596 -1.311254 -2.805532 116 121 115
-17.652521 -2.633615 -7.179507 116 121 115
-35.442371 -5.278339 -15.927459 116 121 115
-4.336696 -0.375103 -0.630178 118 120 115
-8.810720 -0.761315 -2.828801 118 120 115
-17.758770 -1.533739 -7.226046 118 120 115
-35.654869 -3.078587 -16.020535 118 120 115
-4.349639 -0.096085 -0.635105 118 123 117
-8.836607 -0.203279 -2.838654 118 123 117
-17.810543 -0.417666 -7.245752 118 123 117
-35.758415 -0.846441 -16.059948 118 123 117
-4.348541 0.184419 -0.633130 120 122 117
-8.834412 0.357730 -2.834705 120 122 117
-17.806152 0.704351 -7.237854 120 122 117
-35.749634 1.397594 -16.044151 120 122 117
-4.333372 0.463774 -0.624253 118 122 120
-8.804073 0.916440 -2.816950 118 122 120
-17.745476 1.821772 -7.202344 118 122 120
-35.628281 3.632435 -15.973132 118 122 120
-4.304495 0.739392 -0.608664 115 119 118
-8.746319 1.467675 -2.785772 115 119 118
-17.629967 2.924242 -7.139989 115 119 118
-35.397263 5.837377 -15.848422 115 119 118
-4.262638 1.008852 -0.586734 116 121 115
-8.662605 2.006596 -2.741913 116 121 115
-17.462540 4.002083 -7.052270 116 121 115
-35.062408 7.993058 -15.672984 116 121 115
-4.208845 1.270002 -0.558986 110 115 111
-8.555018 2.528895 -2.686417 110 115 111
-17.247366 5.046681 -6.941278 110 115 111
-34.632061 10.082253 -15.451001 110 115 111
-4.144400 1.521025 -0.526060 107 111 110
-8.426128 3.030942 -2.620565 107 111 110
-16.989586 6.050776 -6.809574 107 111 110
-34.116501 12.090445 -15.187593 107 111 110
-4.070747 1.760496 -0.488673 108 112 110
-8.278824 3.509884 -2.545791 108 112 110
-16.694977 7.008659 -6.660027 108 112 110
-33.527283 14.006210 -14.888497 108 112 110
-3.989413 1.987380 -0.447579 100 104 103
-8.116156 3.963652 -2.463602 100 104 103
-16.369640 7.916195 -6.495648 100 104 103
-32.876610 15.821282 -14.559741 100 104 103
-3.901924 2.201029 -0.403530 97 103 99
-7.941176 4.390950 -2.375504 97 103 99
-16.019682 8.770792 -6.319453 97 103 99
-32.176693 17.530476 -14.207351 97 103 99
-3.809751 2.401142 -0.357252 93 98 92
-7.756830 4.791175 -2.282948 93 98 92
-15.650990 9.571241 -6.134339 93 98 92
-31.439308 19.131374 -13.837123 93 98 92
-3.714261 2.587717 -0.309413 87 92 88
-7.565850 5.164325 -2.187270 87 92 88
-15.269030 10.317542 -5.942985 87 92 88
-30.675388 20.623976 -13.454414 87 92 88
-3.616686 2.760999 -0.260619 83 88 82
-7.370700 5.510890 -2.089683 83 88 82
-14.878730 11.010672 -5.747810 83 88 82
-29.894789 22.010235 -13.064065 83 88 82
-3.518107 2.921426 -0.211398 79 84 80
-7.173543 5.831743 -1.991241 79 84 80
-14.484416 11.652377 -5.550926 79 84 80
-29.106161 23.293646 -12.670297 79 84 80
-3.419449 3.069572 -0.162201 56 58 53
-6.976227 6.128035 -1.892846 56 58 53
-14.089783 12.244962 -5.354137 56 58 53
-28.316895 24.478815 -12.276718 56 58 53
-3.321482 3.206107 -0.113403 47 49 44
-6.780293 6.401106 -1.795250 47 49 44
-13.697914 12.791103 -5.158944 47 49 44
-27.533157 25.571098 -11.886332 47 49 44
